<?xml version="1.0" encoding="UTF-8"?>
<svg width="52px" height="73px" viewBox="0 0 52 73" version="1.1" xmlns="http://www.w3.org/2000/svg" xmlns:xlink="http://www.w3.org/1999/xlink">
    <!-- Generator: Sketch 54.1 (76490) - https://sketchapp.com -->
    <title>Group 2</title>
    <desc>Created with Sketch.</desc>
    <defs>
        <rect id="path-1" x="0" y="0" width="48" height="61.4206897"></rect>
        <rect id="path-3" x="0.25" y="0.962068966" width="110" height="105"></rect>
    </defs>
    <g id="Designs" stroke="none" stroke-width="1" fill="none" fill-rule="evenodd">
        <g id="HSBC-Checklist" transform="translate(-201.000000, -3385.000000)">
            <g id="Group-2" transform="translate(201.000000, 3385.000000)">
                <rect id="Rectangle" stroke="#000000" stroke-width="2" fill="#FFFFFF" x="1" y="8.80344828" width="50" height="63.1965517" rx="1.25"></rect>
                <g id="Group-3728" transform="translate(2.000000, 9.565517)">
                    <mask id="mask-2" fill="white">
                        <use xlink:href="#path-1"></use>
                    </mask>
                    <g id="Mask"></g>
                    <g mask="url(#mask-2)">
                        <g transform="translate(16.750000, 31.472414)">
                            <mask id="mask-4" fill="white">
                                <use xlink:href="#path-3"></use>
                            </mask>
                            <use id="Mask" stroke="none" fill="#D8D8D8" fill-rule="evenodd" xlink:href="#path-3"></use>
                            <g id="Group-3728" stroke="none" stroke-width="1" fill="none" fill-rule="evenodd" mask="url(#mask-4)">
                                <g transform="translate(0.250000, -0.037931)" id="Group-3727">
                                    <g>
                                        <polygon id="Fill-1" fill="#FFFFFF" points="0 113 112 113 112 0 0 0"></polygon>
                                        <g id="Group-3726" transform="translate(0.653333, 1.035833)" fill="#333333">
                                            <path d="M1.37794533,0.700957833 C1.37794533,1.07037367 1.081052,1.36991783 0.714905333,1.36991783 C0.348665333,1.36991783 0.0518653333,1.07037367 0.0518653333,0.700957833 C0.0518653333,0.331542 0.348665333,0.0319978333 0.714905333,0.0319978333 C1.081052,0.0319978333 1.37794533,0.331542 1.37794533,0.700957833" id="Fill-2"></path>
                                            <path d="M4.29314667,0.700957833 C4.29314667,1.07037367 3.99625333,1.36991783 3.63010667,1.36991783 C3.26396,1.36991783 2.96706667,1.07037367 2.96706667,0.700957833 C2.96706667,0.331542 3.26396,0.0319978333 3.63010667,0.0319978333 C3.99625333,0.0319978333 4.29314667,0.331542 4.29314667,0.700957833" id="Fill-4"></path>
                                            <path d="M7.208404,0.700957833 C7.208404,1.07037367 6.91151067,1.36991783 6.545364,1.36991783 C6.179124,1.36991783 5.882324,1.07037367 5.882324,0.700957833 C5.882324,0.331542 6.179124,0.0319978333 6.545364,0.0319978333 C6.91151067,0.0319978333 7.208404,0.331542 7.208404,0.700957833" id="Fill-6"></path>
                                            <path d="M10.1236147,0.700957833 C10.1236147,1.07037367 9.82672133,1.36991783 9.46057467,1.36991783 C9.094428,1.36991783 8.79753467,1.07037367 8.79753467,0.700957833 C8.79753467,0.331542 9.094428,0.0319978333 9.46057467,0.0319978333 C9.82672133,0.0319978333 10.1236147,0.331542 10.1236147,0.700957833" id="Fill-8"></path>
                                            <path d="M13.0388627,0.700957833 C13.0388627,1.07037367 12.7419693,1.36991783 12.3758227,1.36991783 C12.0095827,1.36991783 11.7127827,1.07037367 11.7127827,0.700957833 C11.7127827,0.331542 12.0095827,0.0319978333 12.3758227,0.0319978333 C12.7419693,0.0319978333 13.0388627,0.331542 13.0388627,0.700957833" id="Fill-10"></path>
                                            <path d="M15.9540733,0.700957833 C15.9540733,1.07037367 15.65718,1.36991783 15.2910333,1.36991783 C14.9248867,1.36991783 14.6279933,1.07037367 14.6279933,0.700957833 C14.6279933,0.331542 14.9248867,0.0319978333 15.2910333,0.0319978333 C15.65718,0.0319978333 15.9540733,0.331542 15.9540733,0.700957833" id="Fill-12"></path>
                                            <path d="M18.8693307,0.700957833 C18.8693307,1.07037367 18.5724373,1.36991783 18.2062907,1.36991783 C17.8400507,1.36991783 17.5432507,1.07037367 17.5432507,0.700957833 C17.5432507,0.331542 17.8400507,0.0319978333 18.2062907,0.0319978333 C18.5724373,0.0319978333 18.8693307,0.331542 18.8693307,0.700957833" id="Fill-14"></path>
                                            <path d="M21.7845413,0.700957833 C21.7845413,1.07037367 21.487648,1.36991783 21.1215013,1.36991783 C20.7553547,1.36991783 20.4584613,1.07037367 20.4584613,0.700957833 C20.4584613,0.331542 20.7553547,0.0319978333 21.1215013,0.0319978333 C21.487648,0.0319978333 21.7845413,0.331542 21.7845413,0.700957833" id="Fill-16"></path>
                                            <path d="M24.6997893,0.700957833 C24.6997893,1.07037367 24.402896,1.36991783 24.0367493,1.36991783 C23.6705093,1.36991783 23.3737093,1.07037367 23.3737093,0.700957833 C23.3737093,0.331542 23.6705093,0.0319978333 24.0367493,0.0319978333 C24.402896,0.0319978333 24.6997893,0.331542 24.6997893,0.700957833" id="Fill-18"></path>
                                            <path d="M27.615,0.700957833 C27.615,1.07037367 27.3182,1.36991783 26.95196,1.36991783 C26.5858133,1.36991783 26.28892,1.07037367 26.28892,0.700957833 C26.28892,0.331542 26.5858133,0.0319978333 26.95196,0.0319978333 C27.3182,0.0319978333 27.615,0.331542 27.615,0.700957833" id="Fill-20"></path>
                                            <path d="M30.5302573,0.700957833 C30.5302573,1.07037367 30.233364,1.36991783 29.8672173,1.36991783 C29.5009773,1.36991783 29.2041773,1.07037367 29.2041773,0.700957833 C29.2041773,0.331542 29.5009773,0.0319978333 29.8672173,0.0319978333 C30.233364,0.0319978333 30.5302573,0.331542 30.5302573,0.700957833" id="Fill-22"></path>
                                            <path d="M33.4455053,0.700957833 C33.4455053,1.07037367 33.148612,1.36991783 32.7824653,1.36991783 C32.4162253,1.36991783 32.1194253,1.07037367 32.1194253,0.700957833 C32.1194253,0.331542 32.4162253,0.0319978333 32.7824653,0.0319978333 C33.148612,0.0319978333 33.4455053,0.331542 33.4455053,0.700957833" id="Fill-24"></path>
                                            <path d="M2.77794533,2.98275742 C2.77794533,3.35226742 2.481052,3.65171742 2.11490533,3.65171742 C1.74866533,3.65171742 1.45186533,3.35226742 1.45186533,2.98275742 C1.45186533,2.61334158 1.74866533,2.31379742 2.11490533,2.31379742 C2.481052,2.31379742 2.77794533,2.61334158 2.77794533,2.98275742" id="Fill-78"></path>
                                            <path d="M5.69314667,2.98275742 C5.69314667,3.35226742 5.39625333,3.65171742 5.03010667,3.65171742 C4.66396,3.65171742 4.36706667,3.35226742 4.36706667,2.98275742 C4.36706667,2.61334158 4.66396,2.31379742 5.03010667,2.31379742 C5.39625333,2.31379742 5.69314667,2.61334158 5.69314667,2.98275742" id="Fill-80"></path>
                                            <path d="M8.608404,2.98275742 C8.608404,3.35226742 8.31151067,3.65171742 7.945364,3.65171742 C7.579124,3.65171742 7.282324,3.35226742 7.282324,2.98275742 C7.282324,2.61334158 7.579124,2.31379742 7.945364,2.31379742 C8.31151067,2.31379742 8.608404,2.61334158 8.608404,2.98275742" id="Fill-82"></path>
                                            <path d="M11.5236147,2.98275742 C11.5236147,3.35226742 11.2267213,3.65171742 10.8605747,3.65171742 C10.494428,3.65171742 10.1975347,3.35226742 10.1975347,2.98275742 C10.1975347,2.61334158 10.494428,2.31379742 10.8605747,2.31379742 C11.2267213,2.31379742 11.5236147,2.61334158 11.5236147,2.98275742" id="Fill-84"></path>
                                            <path d="M14.4388627,2.98275742 C14.4388627,3.35226742 14.1419693,3.65171742 13.7758227,3.65171742 C13.4095827,3.65171742 13.1127827,3.35226742 13.1127827,2.98275742 C13.1127827,2.61334158 13.4095827,2.31379742 13.7758227,2.31379742 C14.1419693,2.31379742 14.4388627,2.61334158 14.4388627,2.98275742" id="Fill-86"></path>
                                            <path d="M17.3540733,2.98275742 C17.3540733,3.35226742 17.05718,3.65171742 16.6910333,3.65171742 C16.3248867,3.65171742 16.0279933,3.35226742 16.0279933,2.98275742 C16.0279933,2.61334158 16.3248867,2.31379742 16.6910333,2.31379742 C17.05718,2.31379742 17.3540733,2.61334158 17.3540733,2.98275742" id="Fill-88"></path>
                                            <path d="M20.2693307,2.98275742 C20.2693307,3.35226742 19.9724373,3.65171742 19.6062907,3.65171742 C19.2400507,3.65171742 18.9432507,3.35226742 18.9432507,2.98275742 C18.9432507,2.61334158 19.2400507,2.31379742 19.6062907,2.31379742 C19.9724373,2.31379742 20.2693307,2.61334158 20.2693307,2.98275742" id="Fill-90"></path>
                                            <path d="M23.1845413,2.98275742 C23.1845413,3.35226742 22.887648,3.65171742 22.5215013,3.65171742 C22.1553547,3.65171742 21.8584613,3.35226742 21.8584613,2.98275742 C21.8584613,2.61334158 22.1553547,2.31379742 22.5215013,2.31379742 C22.887648,2.31379742 23.1845413,2.61334158 23.1845413,2.98275742" id="Fill-92"></path>
                                            <path d="M26.0997893,2.98275742 C26.0997893,3.35226742 25.802896,3.65171742 25.4367493,3.65171742 C25.0705093,3.65171742 24.7737093,3.35226742 24.7737093,2.98275742 C24.7737093,2.61334158 25.0705093,2.31379742 25.4367493,2.31379742 C25.802896,2.31379742 26.0997893,2.61334158 26.0997893,2.98275742" id="Fill-94"></path>
                                            <path d="M29.015,2.98275742 C29.015,3.35226742 28.7182,3.65171742 28.35196,3.65171742 C27.9858133,3.65171742 27.68892,3.35226742 27.68892,2.98275742 C27.68892,2.61334158 27.9858133,2.31379742 28.35196,2.31379742 C28.7182,2.31379742 29.015,2.61334158 29.015,2.98275742" id="Fill-96"></path>
                                            <path d="M31.9302573,2.98275742 C31.9302573,3.35226742 31.633364,3.65171742 31.2672173,3.65171742 C30.9009773,3.65171742 30.6041773,3.35226742 30.6041773,2.98275742 C30.6041773,2.61334158 30.9009773,2.31379742 31.2672173,2.31379742 C31.633364,2.31379742 31.9302573,2.61334158 31.9302573,2.98275742" id="Fill-98"></path>
                                            <path d="M1.37794533,5.26454758 C1.37794533,5.63405758 1.081052,5.93350758 0.714905333,5.93350758 C0.348665333,5.93350758 0.0518653333,5.63405758 0.0518653333,5.26454758 C0.0518653333,4.89513175 0.348665333,4.59558758 0.714905333,4.59558758 C1.081052,4.59558758 1.37794533,4.89513175 1.37794533,5.26454758" id="Fill-154"></path>
                                            <path d="M4.29314667,5.26454758 C4.29314667,5.63405758 3.99625333,5.93350758 3.63010667,5.93350758 C3.26396,5.93350758 2.96706667,5.63405758 2.96706667,5.26454758 C2.96706667,4.89513175 3.26396,4.59558758 3.63010667,4.59558758 C3.99625333,4.59558758 4.29314667,4.89513175 4.29314667,5.26454758" id="Fill-156"></path>
                                            <path d="M7.208404,5.26454758 C7.208404,5.63405758 6.91151067,5.93350758 6.545364,5.93350758 C6.179124,5.93350758 5.882324,5.63405758 5.882324,5.26454758 C5.882324,4.89513175 6.179124,4.59558758 6.545364,4.59558758 C6.91151067,4.59558758 7.208404,4.89513175 7.208404,5.26454758" id="Fill-158"></path>
                                            <path d="M10.1236147,5.26454758 C10.1236147,5.63405758 9.82672133,5.93350758 9.46057467,5.93350758 C9.094428,5.93350758 8.79753467,5.63405758 8.79753467,5.26454758 C8.79753467,4.89513175 9.094428,4.59558758 9.46057467,4.59558758 C9.82672133,4.59558758 10.1236147,4.89513175 10.1236147,5.26454758" id="Fill-160"></path>
                                            <path d="M13.0388627,5.26454758 C13.0388627,5.63405758 12.7419693,5.93350758 12.3758227,5.93350758 C12.0095827,5.93350758 11.7127827,5.63405758 11.7127827,5.26454758 C11.7127827,4.89513175 12.0095827,4.59558758 12.3758227,4.59558758 C12.7419693,4.59558758 13.0388627,4.89513175 13.0388627,5.26454758" id="Fill-162"></path>
                                            <path d="M15.9540733,5.26454758 C15.9540733,5.63405758 15.65718,5.93350758 15.2910333,5.93350758 C14.9248867,5.93350758 14.6279933,5.63405758 14.6279933,5.26454758 C14.6279933,4.89513175 14.9248867,4.59558758 15.2910333,4.59558758 C15.65718,4.59558758 15.9540733,4.89513175 15.9540733,5.26454758" id="Fill-164"></path>
                                            <path d="M18.8693307,5.26454758 C18.8693307,5.63405758 18.5724373,5.93350758 18.2062907,5.93350758 C17.8400507,5.93350758 17.5432507,5.63405758 17.5432507,5.26454758 C17.5432507,4.89513175 17.8400507,4.59558758 18.2062907,4.59558758 C18.5724373,4.59558758 18.8693307,4.89513175 18.8693307,5.26454758" id="Fill-166"></path>
                                            <path d="M21.7845413,5.26454758 C21.7845413,5.63405758 21.487648,5.93350758 21.1215013,5.93350758 C20.7553547,5.93350758 20.4584613,5.63405758 20.4584613,5.26454758 C20.4584613,4.89513175 20.7553547,4.59558758 21.1215013,4.59558758 C21.487648,4.59558758 21.7845413,4.89513175 21.7845413,5.26454758" id="Fill-168"></path>
                                            <path d="M24.6997893,5.26454758 C24.6997893,5.63405758 24.402896,5.93350758 24.0367493,5.93350758 C23.6705093,5.93350758 23.3737093,5.63405758 23.3737093,5.26454758 C23.3737093,4.89513175 23.6705093,4.59558758 24.0367493,4.59558758 C24.402896,4.59558758 24.6997893,4.89513175 24.6997893,5.26454758" id="Fill-170"></path>
                                            <path d="M27.615,5.26454758 C27.615,5.63405758 27.3182,5.93350758 26.95196,5.93350758 C26.5858133,5.93350758 26.28892,5.63405758 26.28892,5.26454758 C26.28892,4.89513175 26.5858133,4.59558758 26.95196,4.59558758 C27.3182,4.59558758 27.615,4.89513175 27.615,5.26454758" id="Fill-172"></path>
                                            <path d="M30.5302573,5.26454758 C30.5302573,5.63405758 30.233364,5.93350758 29.8672173,5.93350758 C29.5009773,5.93350758 29.2041773,5.63405758 29.2041773,5.26454758 C29.2041773,4.89513175 29.5009773,4.59558758 29.8672173,4.59558758 C30.233364,4.59558758 30.5302573,4.89513175 30.5302573,5.26454758" id="Fill-174"></path>
                                            <path d="M33.4455053,5.26454758 C33.4455053,5.63405758 33.148612,5.93350758 32.7824653,5.93350758 C32.4162253,5.93350758 32.1194253,5.63405758 32.1194253,5.26454758 C32.1194253,4.89513175 32.4162253,4.59558758 32.7824653,4.59558758 C33.148612,4.59558758 33.4455053,4.89513175 33.4455053,5.26454758" id="Fill-176"></path>
                                            <path d="M2.77794533,7.54634717 C2.77794533,7.91585717 2.481052,8.21530717 2.11490533,8.21530717 C1.74866533,8.21530717 1.45186533,7.91585717 1.45186533,7.54634717 C1.45186533,7.17693133 1.74866533,6.87738717 2.11490533,6.87738717 C2.481052,6.87738717 2.77794533,7.17693133 2.77794533,7.54634717" id="Fill-230"></path>
                                            <path d="M5.69314667,7.54634717 C5.69314667,7.91585717 5.39625333,8.21530717 5.03010667,8.21530717 C4.66396,8.21530717 4.36706667,7.91585717 4.36706667,7.54634717 C4.36706667,7.17693133 4.66396,6.87738717 5.03010667,6.87738717 C5.39625333,6.87738717 5.69314667,7.17693133 5.69314667,7.54634717" id="Fill-232"></path>
                                            <path d="M8.608404,7.54634717 C8.608404,7.91585717 8.31151067,8.21530717 7.945364,8.21530717 C7.579124,8.21530717 7.282324,7.91585717 7.282324,7.54634717 C7.282324,7.17693133 7.579124,6.87738717 7.945364,6.87738717 C8.31151067,6.87738717 8.608404,7.17693133 8.608404,7.54634717" id="Fill-234"></path>
                                            <path d="M11.5236147,7.54634717 C11.5236147,7.91585717 11.2267213,8.21530717 10.8605747,8.21530717 C10.494428,8.21530717 10.1975347,7.91585717 10.1975347,7.54634717 C10.1975347,7.17693133 10.494428,6.87738717 10.8605747,6.87738717 C11.2267213,6.87738717 11.5236147,7.17693133 11.5236147,7.54634717" id="Fill-236"></path>
                                            <path d="M14.4388627,7.54634717 C14.4388627,7.91585717 14.1419693,8.21530717 13.7758227,8.21530717 C13.4095827,8.21530717 13.1127827,7.91585717 13.1127827,7.54634717 C13.1127827,7.17693133 13.4095827,6.87738717 13.7758227,6.87738717 C14.1419693,6.87738717 14.4388627,7.17693133 14.4388627,7.54634717" id="Fill-238"></path>
                                            <path d="M17.3540733,7.54634717 C17.3540733,7.91585717 17.05718,8.21530717 16.6910333,8.21530717 C16.3248867,8.21530717 16.0279933,7.91585717 16.0279933,7.54634717 C16.0279933,7.17693133 16.3248867,6.87738717 16.6910333,6.87738717 C17.05718,6.87738717 17.3540733,7.17693133 17.3540733,7.54634717" id="Fill-240"></path>
                                            <path d="M20.2693307,7.54634717 C20.2693307,7.91585717 19.9724373,8.21530717 19.6062907,8.21530717 C19.2400507,8.21530717 18.9432507,7.91585717 18.9432507,7.54634717 C18.9432507,7.17693133 19.2400507,6.87738717 19.6062907,6.87738717 C19.9724373,6.87738717 20.2693307,7.17693133 20.2693307,7.54634717" id="Fill-242"></path>
                                            <path d="M23.1845413,7.54634717 C23.1845413,7.91585717 22.887648,8.21530717 22.5215013,8.21530717 C22.1553547,8.21530717 21.8584613,7.91585717 21.8584613,7.54634717 C21.8584613,7.17693133 22.1553547,6.87738717 22.5215013,6.87738717 C22.887648,6.87738717 23.1845413,7.17693133 23.1845413,7.54634717" id="Fill-244"></path>
                                            <path d="M26.0997893,7.54634717 C26.0997893,7.91585717 25.802896,8.21530717 25.4367493,8.21530717 C25.0705093,8.21530717 24.7737093,7.91585717 24.7737093,7.54634717 C24.7737093,7.17693133 25.0705093,6.87738717 25.4367493,6.87738717 C25.802896,6.87738717 26.0997893,7.17693133 26.0997893,7.54634717" id="Fill-246"></path>
                                            <path d="M29.015,7.54634717 C29.015,7.91585717 28.7182,8.21530717 28.35196,8.21530717 C27.9858133,8.21530717 27.68892,7.91585717 27.68892,7.54634717 C27.68892,7.17693133 27.9858133,6.87738717 28.35196,6.87738717 C28.7182,6.87738717 29.015,7.17693133 29.015,7.54634717" id="Fill-248"></path>
                                            <path d="M31.9302573,7.54634717 C31.9302573,7.91585717 31.633364,8.21530717 31.2672173,8.21530717 C30.9009773,8.21530717 30.6041773,7.91585717 30.6041773,7.54634717 C30.6041773,7.17693133 30.9009773,6.87738717 31.2672173,6.87738717 C31.633364,6.87738717 31.9302573,7.17693133 31.9302573,7.54634717" id="Fill-250"></path>
                                            <path d="M1.37794533,9.82818442 C1.37794533,10.1976002 1.081052,10.4971444 0.714905333,10.4971444 C0.348665333,10.4971444 0.0518653333,10.1976002 0.0518653333,9.82818442 C0.0518653333,9.45867442 0.348665333,9.15922442 0.714905333,9.15922442 C1.081052,9.15922442 1.37794533,9.45867442 1.37794533,9.82818442" id="Fill-306"></path>
                                            <path d="M4.29314667,9.82818442 C4.29314667,10.1976002 3.99625333,10.4971444 3.63010667,10.4971444 C3.26396,10.4971444 2.96706667,10.1976002 2.96706667,9.82818442 C2.96706667,9.45867442 3.26396,9.15922442 3.63010667,9.15922442 C3.99625333,9.15922442 4.29314667,9.45867442 4.29314667,9.82818442" id="Fill-308"></path>
                                            <path d="M7.208404,9.82818442 C7.208404,10.1976002 6.91151067,10.4971444 6.545364,10.4971444 C6.179124,10.4971444 5.882324,10.1976002 5.882324,9.82818442 C5.882324,9.45867442 6.179124,9.15922442 6.545364,9.15922442 C6.91151067,9.15922442 7.208404,9.45867442 7.208404,9.82818442" id="Fill-310"></path>
                                            <path d="M10.1236147,9.82818442 C10.1236147,10.1976002 9.82672133,10.4971444 9.46057467,10.4971444 C9.094428,10.4971444 8.79753467,10.1976002 8.79753467,9.82818442 C8.79753467,9.45867442 9.094428,9.15922442 9.46057467,9.15922442 C9.82672133,9.15922442 10.1236147,9.45867442 10.1236147,9.82818442" id="Fill-312"></path>
                                            <path d="M13.0388627,9.82818442 C13.0388627,10.1976002 12.7419693,10.4971444 12.3758227,10.4971444 C12.0095827,10.4971444 11.7127827,10.1976002 11.7127827,9.82818442 C11.7127827,9.45867442 12.0095827,9.15922442 12.3758227,9.15922442 C12.7419693,9.15922442 13.0388627,9.45867442 13.0388627,9.82818442" id="Fill-314"></path>
                                            <path d="M15.9540733,9.82818442 C15.9540733,10.1976002 15.65718,10.4971444 15.2910333,10.4971444 C14.9248867,10.4971444 14.6279933,10.1976002 14.6279933,9.82818442 C14.6279933,9.45867442 14.9248867,9.15922442 15.2910333,9.15922442 C15.65718,9.15922442 15.9540733,9.45867442 15.9540733,9.82818442" id="Fill-316"></path>
                                            <path d="M18.8693307,9.82818442 C18.8693307,10.1976002 18.5724373,10.4971444 18.2062907,10.4971444 C17.8400507,10.4971444 17.5432507,10.1976002 17.5432507,9.82818442 C17.5432507,9.45867442 17.8400507,9.15922442 18.2062907,9.15922442 C18.5724373,9.15922442 18.8693307,9.45867442 18.8693307,9.82818442" id="Fill-318"></path>
                                            <path d="M21.7845413,9.82818442 C21.7845413,10.1976002 21.487648,10.4971444 21.1215013,10.4971444 C20.7553547,10.4971444 20.4584613,10.1976002 20.4584613,9.82818442 C20.4584613,9.45867442 20.7553547,9.15922442 21.1215013,9.15922442 C21.487648,9.15922442 21.7845413,9.45867442 21.7845413,9.82818442" id="Fill-320"></path>
                                            <path d="M24.6997893,9.82818442 C24.6997893,10.1976002 24.402896,10.4971444 24.0367493,10.4971444 C23.6705093,10.4971444 23.3737093,10.1976002 23.3737093,9.82818442 C23.3737093,9.45867442 23.6705093,9.15922442 24.0367493,9.15922442 C24.402896,9.15922442 24.6997893,9.45867442 24.6997893,9.82818442" id="Fill-322"></path>
                                            <path d="M27.615,9.82818442 C27.615,10.1976002 27.3182,10.4971444 26.95196,10.4971444 C26.5858133,10.4971444 26.28892,10.1976002 26.28892,9.82818442 C26.28892,9.45867442 26.5858133,9.15922442 26.95196,9.15922442 C27.3182,9.15922442 27.615,9.45867442 27.615,9.82818442" id="Fill-324"></path>
                                            <path d="M30.5302573,9.82818442 C30.5302573,10.1976002 30.233364,10.4971444 29.8672173,10.4971444 C29.5009773,10.4971444 29.2041773,10.1976002 29.2041773,9.82818442 C29.2041773,9.45867442 29.5009773,9.15922442 29.8672173,9.15922442 C30.233364,9.15922442 30.5302573,9.45867442 30.5302573,9.82818442" id="Fill-326"></path>
                                            <path d="M33.4455053,9.82818442 C33.4455053,10.1976002 33.148612,10.4971444 32.7824653,10.4971444 C32.4162253,10.4971444 32.1194253,10.1976002 32.1194253,9.82818442 C32.1194253,9.45867442 32.4162253,9.15922442 32.7824653,9.15922442 C33.148612,9.15922442 33.4455053,9.45867442 33.4455053,9.82818442" id="Fill-328"></path>
                                            <path d="M2.77794533,12.109984 C2.77794533,12.4793998 2.481052,12.778944 2.11490533,12.778944 C1.74866533,12.778944 1.45186533,12.4793998 1.45186533,12.109984 C1.45186533,11.740474 1.74866533,11.441024 2.11490533,11.441024 C2.481052,11.441024 2.77794533,11.740474 2.77794533,12.109984" id="Fill-382"></path>
                                            <path d="M5.69314667,12.109984 C5.69314667,12.4793998 5.39625333,12.778944 5.03010667,12.778944 C4.66396,12.778944 4.36706667,12.4793998 4.36706667,12.109984 C4.36706667,11.740474 4.66396,11.441024 5.03010667,11.441024 C5.39625333,11.441024 5.69314667,11.740474 5.69314667,12.109984" id="Fill-384"></path>
                                            <path d="M8.608404,12.109984 C8.608404,12.4793998 8.31151067,12.778944 7.945364,12.778944 C7.579124,12.778944 7.282324,12.4793998 7.282324,12.109984 C7.282324,11.740474 7.579124,11.441024 7.945364,11.441024 C8.31151067,11.441024 8.608404,11.740474 8.608404,12.109984" id="Fill-386"></path>
                                            <path d="M11.5236147,12.109984 C11.5236147,12.4793998 11.2267213,12.778944 10.8605747,12.778944 C10.494428,12.778944 10.1975347,12.4793998 10.1975347,12.109984 C10.1975347,11.740474 10.494428,11.441024 10.8605747,11.441024 C11.2267213,11.441024 11.5236147,11.740474 11.5236147,12.109984" id="Fill-388"></path>
                                            <path d="M14.4388627,12.109984 C14.4388627,12.4793998 14.1419693,12.778944 13.7758227,12.778944 C13.4095827,12.778944 13.1127827,12.4793998 13.1127827,12.109984 C13.1127827,11.740474 13.4095827,11.441024 13.7758227,11.441024 C14.1419693,11.441024 14.4388627,11.740474 14.4388627,12.109984" id="Fill-390"></path>
                                            <path d="M17.3540733,12.109984 C17.3540733,12.4793998 17.05718,12.778944 16.6910333,12.778944 C16.3248867,12.778944 16.0279933,12.4793998 16.0279933,12.109984 C16.0279933,11.740474 16.3248867,11.441024 16.6910333,11.441024 C17.05718,11.441024 17.3540733,11.740474 17.3540733,12.109984" id="Fill-392"></path>
                                            <path d="M20.2693307,12.109984 C20.2693307,12.4793998 19.9724373,12.778944 19.6062907,12.778944 C19.2400507,12.778944 18.9432507,12.4793998 18.9432507,12.109984 C18.9432507,11.740474 19.2400507,11.441024 19.6062907,11.441024 C19.9724373,11.441024 20.2693307,11.740474 20.2693307,12.109984" id="Fill-394"></path>
                                            <path d="M23.1845413,12.109984 C23.1845413,12.4793998 22.887648,12.778944 22.5215013,12.778944 C22.1553547,12.778944 21.8584613,12.4793998 21.8584613,12.109984 C21.8584613,11.740474 22.1553547,11.441024 22.5215013,11.441024 C22.887648,11.441024 23.1845413,11.740474 23.1845413,12.109984" id="Fill-396"></path>
                                            <path d="M26.0997893,12.109984 C26.0997893,12.4793998 25.802896,12.778944 25.4367493,12.778944 C25.0705093,12.778944 24.7737093,12.4793998 24.7737093,12.109984 C24.7737093,11.740474 25.0705093,11.441024 25.4367493,11.441024 C25.802896,11.441024 26.0997893,11.740474 26.0997893,12.109984" id="Fill-398"></path>
                                            <path d="M29.015,12.109984 C29.015,12.4793998 28.7182,12.778944 28.35196,12.778944 C27.9858133,12.778944 27.68892,12.4793998 27.68892,12.109984 C27.68892,11.740474 27.9858133,11.441024 28.35196,11.441024 C28.7182,11.441024 29.015,11.740474 29.015,12.109984" id="Fill-400"></path>
                                            <path d="M31.9302573,12.109984 C31.9302573,12.4793998 31.633364,12.778944 31.2672173,12.778944 C30.9009773,12.778944 30.6041773,12.4793998 30.6041773,12.109984 C30.6041773,11.740474 30.9009773,11.441024 31.2672173,11.441024 C31.633364,11.441024 31.9302573,11.740474 31.9302573,12.109984" id="Fill-402"></path>
                                            <path d="M1.37794533,14.3917742 C1.37794533,14.76119 1.081052,15.0607342 0.714905333,15.0607342 C0.348665333,15.0607342 0.0518653333,14.76119 0.0518653333,14.3917742 C0.0518653333,14.0222642 0.348665333,13.7228142 0.714905333,13.7228142 C1.081052,13.7228142 1.37794533,14.0222642 1.37794533,14.3917742" id="Fill-458"></path>
                                            <path d="M4.29314667,14.3917742 C4.29314667,14.76119 3.99625333,15.0607342 3.63010667,15.0607342 C3.26396,15.0607342 2.96706667,14.76119 2.96706667,14.3917742 C2.96706667,14.0222642 3.26396,13.7228142 3.63010667,13.7228142 C3.99625333,13.7228142 4.29314667,14.0222642 4.29314667,14.3917742" id="Fill-460"></path>
                                            <path d="M7.208404,14.3917742 C7.208404,14.76119 6.91151067,15.0607342 6.545364,15.0607342 C6.179124,15.0607342 5.882324,14.76119 5.882324,14.3917742 C5.882324,14.0222642 6.179124,13.7228142 6.545364,13.7228142 C6.91151067,13.7228142 7.208404,14.0222642 7.208404,14.3917742" id="Fill-462"></path>
                                            <path d="M10.1236147,14.3917742 C10.1236147,14.76119 9.82672133,15.0607342 9.46057467,15.0607342 C9.094428,15.0607342 8.79753467,14.76119 8.79753467,14.3917742 C8.79753467,14.0222642 9.094428,13.7228142 9.46057467,13.7228142 C9.82672133,13.7228142 10.1236147,14.0222642 10.1236147,14.3917742" id="Fill-464"></path>
                                            <path d="M13.0388627,14.3917742 C13.0388627,14.76119 12.7419693,15.0607342 12.3758227,15.0607342 C12.0095827,15.0607342 11.7127827,14.76119 11.7127827,14.3917742 C11.7127827,14.0222642 12.0095827,13.7228142 12.3758227,13.7228142 C12.7419693,13.7228142 13.0388627,14.0222642 13.0388627,14.3917742" id="Fill-466"></path>
                                            <path d="M15.9540733,14.3917742 C15.9540733,14.76119 15.65718,15.0607342 15.2910333,15.0607342 C14.9248867,15.0607342 14.6279933,14.76119 14.6279933,14.3917742 C14.6279933,14.0222642 14.9248867,13.7228142 15.2910333,13.7228142 C15.65718,13.7228142 15.9540733,14.0222642 15.9540733,14.3917742" id="Fill-468"></path>
                                            <path d="M18.8693307,14.3917742 C18.8693307,14.76119 18.5724373,15.0607342 18.2062907,15.0607342 C17.8400507,15.0607342 17.5432507,14.76119 17.5432507,14.3917742 C17.5432507,14.0222642 17.8400507,13.7228142 18.2062907,13.7228142 C18.5724373,13.7228142 18.8693307,14.0222642 18.8693307,14.3917742" id="Fill-470"></path>
                                            <path d="M21.7845413,14.3917742 C21.7845413,14.76119 21.487648,15.0607342 21.1215013,15.0607342 C20.7553547,15.0607342 20.4584613,14.76119 20.4584613,14.3917742 C20.4584613,14.0222642 20.7553547,13.7228142 21.1215013,13.7228142 C21.487648,13.7228142 21.7845413,14.0222642 21.7845413,14.3917742" id="Fill-472"></path>
                                            <path d="M24.6997893,14.3917742 C24.6997893,14.76119 24.402896,15.0607342 24.0367493,15.0607342 C23.6705093,15.0607342 23.3737093,14.76119 23.3737093,14.3917742 C23.3737093,14.0222642 23.6705093,13.7228142 24.0367493,13.7228142 C24.402896,13.7228142 24.6997893,14.0222642 24.6997893,14.3917742" id="Fill-474"></path>
                                            <path d="M27.615,14.3917742 C27.615,14.76119 27.3182,15.0607342 26.95196,15.0607342 C26.5858133,15.0607342 26.28892,14.76119 26.28892,14.3917742 C26.28892,14.0222642 26.5858133,13.7228142 26.95196,13.7228142 C27.3182,13.7228142 27.615,14.0222642 27.615,14.3917742" id="Fill-476"></path>
                                            <path d="M30.5302573,14.3917742 C30.5302573,14.76119 30.233364,15.0607342 29.8672173,15.0607342 C29.5009773,15.0607342 29.2041773,14.76119 29.2041773,14.3917742 C29.2041773,14.0222642 29.5009773,13.7228142 29.8672173,13.7228142 C30.233364,13.7228142 30.5302573,14.0222642 30.5302573,14.3917742" id="Fill-478"></path>
                                            <path d="M33.4455053,14.3917742 C33.4455053,14.76119 33.148612,15.0607342 32.7824653,15.0607342 C32.4162253,15.0607342 32.1194253,14.76119 32.1194253,14.3917742 C32.1194253,14.0222642 32.4162253,13.7228142 32.7824653,13.7228142 C33.148612,13.7228142 33.4455053,14.0222642 33.4455053,14.3917742" id="Fill-480"></path>
                                            <path d="M2.77794533,16.6735737 C2.77794533,17.0429896 2.481052,17.3425337 2.11490533,17.3425337 C1.74866533,17.3425337 1.45186533,17.0429896 1.45186533,16.6735737 C1.45186533,16.3041579 1.74866533,16.0046137 2.11490533,16.0046137 C2.481052,16.0046137 2.77794533,16.3041579 2.77794533,16.6735737" id="Fill-534"></path>
                                            <path d="M5.69314667,16.6735737 C5.69314667,17.0429896 5.39625333,17.3425337 5.03010667,17.3425337 C4.66396,17.3425337 4.36706667,17.0429896 4.36706667,16.6735737 C4.36706667,16.3041579 4.66396,16.0046137 5.03010667,16.0046137 C5.39625333,16.0046137 5.69314667,16.3041579 5.69314667,16.6735737" id="Fill-536"></path>
                                            <path d="M8.608404,16.6735737 C8.608404,17.0429896 8.31151067,17.3425337 7.945364,17.3425337 C7.579124,17.3425337 7.282324,17.0429896 7.282324,16.6735737 C7.282324,16.3041579 7.579124,16.0046137 7.945364,16.0046137 C8.31151067,16.0046137 8.608404,16.3041579 8.608404,16.6735737" id="Fill-538"></path>
                                            <path d="M11.5236147,16.6735737 C11.5236147,17.0429896 11.2267213,17.3425337 10.8605747,17.3425337 C10.494428,17.3425337 10.1975347,17.0429896 10.1975347,16.6735737 C10.1975347,16.3041579 10.494428,16.0046137 10.8605747,16.0046137 C11.2267213,16.0046137 11.5236147,16.3041579 11.5236147,16.6735737" id="Fill-540"></path>
                                            <path d="M14.4388627,16.6735737 C14.4388627,17.0429896 14.1419693,17.3425337 13.7758227,17.3425337 C13.4095827,17.3425337 13.1127827,17.0429896 13.1127827,16.6735737 C13.1127827,16.3041579 13.4095827,16.0046137 13.7758227,16.0046137 C14.1419693,16.0046137 14.4388627,16.3041579 14.4388627,16.6735737" id="Fill-542"></path>
                                            <path d="M17.3540733,16.6735737 C17.3540733,17.0429896 17.05718,17.3425337 16.6910333,17.3425337 C16.3248867,17.3425337 16.0279933,17.0429896 16.0279933,16.6735737 C16.0279933,16.3041579 16.3248867,16.0046137 16.6910333,16.0046137 C17.05718,16.0046137 17.3540733,16.3041579 17.3540733,16.6735737" id="Fill-544"></path>
                                            <path d="M20.2693307,16.6735737 C20.2693307,17.0429896 19.9724373,17.3425337 19.6062907,17.3425337 C19.2400507,17.3425337 18.9432507,17.0429896 18.9432507,16.6735737 C18.9432507,16.3041579 19.2400507,16.0046137 19.6062907,16.0046137 C19.9724373,16.0046137 20.2693307,16.3041579 20.2693307,16.6735737" id="Fill-546"></path>
                                            <path d="M23.1845413,16.6735737 C23.1845413,17.0429896 22.887648,17.3425337 22.5215013,17.3425337 C22.1553547,17.3425337 21.8584613,17.0429896 21.8584613,16.6735737 C21.8584613,16.3041579 22.1553547,16.0046137 22.5215013,16.0046137 C22.887648,16.0046137 23.1845413,16.3041579 23.1845413,16.6735737" id="Fill-548"></path>
                                            <path d="M26.0997893,16.6735737 C26.0997893,17.0429896 25.802896,17.3425337 25.4367493,17.3425337 C25.0705093,17.3425337 24.7737093,17.0429896 24.7737093,16.6735737 C24.7737093,16.3041579 25.0705093,16.0046137 25.4367493,16.0046137 C25.802896,16.0046137 26.0997893,16.3041579 26.0997893,16.6735737" id="Fill-550"></path>
                                            <path d="M29.015,16.6735737 C29.015,17.0429896 28.7182,17.3425337 28.35196,17.3425337 C27.9858133,17.3425337 27.68892,17.0429896 27.68892,16.6735737 C27.68892,16.3041579 27.9858133,16.0046137 28.35196,16.0046137 C28.7182,16.0046137 29.015,16.3041579 29.015,16.6735737" id="Fill-552"></path>
                                            <path d="M31.9302573,16.6735737 C31.9302573,17.0429896 31.633364,17.3425337 31.2672173,17.3425337 C30.9009773,17.3425337 30.6041773,17.0429896 30.6041773,16.6735737 C30.6041773,16.3041579 30.9009773,16.0046137 31.2672173,16.0046137 C31.633364,16.0046137 31.9302573,16.3041579 31.9302573,16.6735737" id="Fill-554"></path>
                                            <path d="M1.37794533,18.9553639 C1.37794533,19.3248739 1.081052,19.6243239 0.714905333,19.6243239 C0.348665333,19.6243239 0.0518653333,19.3248739 0.0518653333,18.9553639 C0.0518653333,18.5859481 0.348665333,18.2864039 0.714905333,18.2864039 C1.081052,18.2864039 1.37794533,18.5859481 1.37794533,18.9553639" id="Fill-610"></path>
                                            <path d="M4.29314667,18.9553639 C4.29314667,19.3248739 3.99625333,19.6243239 3.63010667,19.6243239 C3.26396,19.6243239 2.96706667,19.3248739 2.96706667,18.9553639 C2.96706667,18.5859481 3.26396,18.2864039 3.63010667,18.2864039 C3.99625333,18.2864039 4.29314667,18.5859481 4.29314667,18.9553639" id="Fill-612"></path>
                                            <path d="M7.208404,18.9553639 C7.208404,19.3248739 6.91151067,19.6243239 6.545364,19.6243239 C6.179124,19.6243239 5.882324,19.3248739 5.882324,18.9553639 C5.882324,18.5859481 6.179124,18.2864039 6.545364,18.2864039 C6.91151067,18.2864039 7.208404,18.5859481 7.208404,18.9553639" id="Fill-614"></path>
                                            <path d="M10.1236147,18.9553639 C10.1236147,19.3248739 9.82672133,19.6243239 9.46057467,19.6243239 C9.094428,19.6243239 8.79753467,19.3248739 8.79753467,18.9553639 C8.79753467,18.5859481 9.094428,18.2864039 9.46057467,18.2864039 C9.82672133,18.2864039 10.1236147,18.5859481 10.1236147,18.9553639" id="Fill-616"></path>
                                            <path d="M13.0388627,18.9553639 C13.0388627,19.3248739 12.7419693,19.6243239 12.3758227,19.6243239 C12.0095827,19.6243239 11.7127827,19.3248739 11.7127827,18.9553639 C11.7127827,18.5859481 12.0095827,18.2864039 12.3758227,18.2864039 C12.7419693,18.2864039 13.0388627,18.5859481 13.0388627,18.9553639" id="Fill-618"></path>
                                            <path d="M15.9540733,18.9553639 C15.9540733,19.3248739 15.65718,19.6243239 15.2910333,19.6243239 C14.9248867,19.6243239 14.6279933,19.3248739 14.6279933,18.9553639 C14.6279933,18.5859481 14.9248867,18.2864039 15.2910333,18.2864039 C15.65718,18.2864039 15.9540733,18.5859481 15.9540733,18.9553639" id="Fill-620"></path>
                                            <path d="M18.8693307,18.9553639 C18.8693307,19.3248739 18.5724373,19.6243239 18.2062907,19.6243239 C17.8400507,19.6243239 17.5432507,19.3248739 17.5432507,18.9553639 C17.5432507,18.5859481 17.8400507,18.2864039 18.2062907,18.2864039 C18.5724373,18.2864039 18.8693307,18.5859481 18.8693307,18.9553639" id="Fill-622"></path>
                                            <path d="M21.7845413,18.9553639 C21.7845413,19.3248739 21.487648,19.6243239 21.1215013,19.6243239 C20.7553547,19.6243239 20.4584613,19.3248739 20.4584613,18.9553639 C20.4584613,18.5859481 20.7553547,18.2864039 21.1215013,18.2864039 C21.487648,18.2864039 21.7845413,18.5859481 21.7845413,18.9553639" id="Fill-624"></path>
                                            <path d="M24.6997893,18.9553639 C24.6997893,19.3248739 24.402896,19.6243239 24.0367493,19.6243239 C23.6705093,19.6243239 23.3737093,19.3248739 23.3737093,18.9553639 C23.3737093,18.5859481 23.6705093,18.2864039 24.0367493,18.2864039 C24.402896,18.2864039 24.6997893,18.5859481 24.6997893,18.9553639" id="Fill-626"></path>
                                            <path d="M27.615,18.9553639 C27.615,19.3248739 27.3182,19.6243239 26.95196,19.6243239 C26.5858133,19.6243239 26.28892,19.3248739 26.28892,18.9553639 C26.28892,18.5859481 26.5858133,18.2864039 26.95196,18.2864039 C27.3182,18.2864039 27.615,18.5859481 27.615,18.9553639" id="Fill-628"></path>
                                            <path d="M30.5302573,18.9553639 C30.5302573,19.3248739 30.233364,19.6243239 29.8672173,19.6243239 C29.5009773,19.6243239 29.2041773,19.3248739 29.2041773,18.9553639 C29.2041773,18.5859481 29.5009773,18.2864039 29.8672173,18.2864039 C30.233364,18.2864039 30.5302573,18.5859481 30.5302573,18.9553639" id="Fill-630"></path>
                                            <path d="M33.4455053,18.9553639 C33.4455053,19.3248739 33.148612,19.6243239 32.7824653,19.6243239 C32.4162253,19.6243239 32.1194253,19.3248739 32.1194253,18.9553639 C32.1194253,18.5859481 32.4162253,18.2864039 32.7824653,18.2864039 C33.148612,18.2864039 33.4455053,18.5859481 33.4455053,18.9553639" id="Fill-632"></path>
                                            <path d="M2.77794533,21.2371541 C2.77794533,21.6066641 2.481052,21.9061141 2.11490533,21.9061141 C1.74866533,21.9061141 1.45186533,21.6066641 1.45186533,21.2371541 C1.45186533,20.8677382 1.74866533,20.5681941 2.11490533,20.5681941 C2.481052,20.5681941 2.77794533,20.8677382 2.77794533,21.2371541" id="Fill-686"></path>
                                            <path d="M5.69314667,21.2371541 C5.69314667,21.6066641 5.39625333,21.9061141 5.03010667,21.9061141 C4.66396,21.9061141 4.36706667,21.6066641 4.36706667,21.2371541 C4.36706667,20.8677382 4.66396,20.5681941 5.03010667,20.5681941 C5.39625333,20.5681941 5.69314667,20.8677382 5.69314667,21.2371541" id="Fill-688"></path>
                                            <path d="M8.608404,21.2371541 C8.608404,21.6066641 8.31151067,21.9061141 7.945364,21.9061141 C7.579124,21.9061141 7.282324,21.6066641 7.282324,21.2371541 C7.282324,20.8677382 7.579124,20.5681941 7.945364,20.5681941 C8.31151067,20.5681941 8.608404,20.8677382 8.608404,21.2371541" id="Fill-690"></path>
                                            <path d="M11.5236147,21.2371541 C11.5236147,21.6066641 11.2267213,21.9061141 10.8605747,21.9061141 C10.494428,21.9061141 10.1975347,21.6066641 10.1975347,21.2371541 C10.1975347,20.8677382 10.494428,20.5681941 10.8605747,20.5681941 C11.2267213,20.5681941 11.5236147,20.8677382 11.5236147,21.2371541" id="Fill-692"></path>
                                            <path d="M14.4388627,21.2371541 C14.4388627,21.6066641 14.1419693,21.9061141 13.7758227,21.9061141 C13.4095827,21.9061141 13.1127827,21.6066641 13.1127827,21.2371541 C13.1127827,20.8677382 13.4095827,20.5681941 13.7758227,20.5681941 C14.1419693,20.5681941 14.4388627,20.8677382 14.4388627,21.2371541" id="Fill-694"></path>
                                            <path d="M17.3540733,21.2371541 C17.3540733,21.6066641 17.05718,21.9061141 16.6910333,21.9061141 C16.3248867,21.9061141 16.0279933,21.6066641 16.0279933,21.2371541 C16.0279933,20.8677382 16.3248867,20.5681941 16.6910333,20.5681941 C17.05718,20.5681941 17.3540733,20.8677382 17.3540733,21.2371541" id="Fill-696"></path>
                                            <path d="M20.2693307,21.2371541 C20.2693307,21.6066641 19.9724373,21.9061141 19.6062907,21.9061141 C19.2400507,21.9061141 18.9432507,21.6066641 18.9432507,21.2371541 C18.9432507,20.8677382 19.2400507,20.5681941 19.6062907,20.5681941 C19.9724373,20.5681941 20.2693307,20.8677382 20.2693307,21.2371541" id="Fill-698"></path>
                                            <path d="M23.1845413,21.2371541 C23.1845413,21.6066641 22.887648,21.9061141 22.5215013,21.9061141 C22.1553547,21.9061141 21.8584613,21.6066641 21.8584613,21.2371541 C21.8584613,20.8677382 22.1553547,20.5681941 22.5215013,20.5681941 C22.887648,20.5681941 23.1845413,20.8677382 23.1845413,21.2371541" id="Fill-700"></path>
                                            <path d="M26.0997893,21.2371541 C26.0997893,21.6066641 25.802896,21.9061141 25.4367493,21.9061141 C25.0705093,21.9061141 24.7737093,21.6066641 24.7737093,21.2371541 C24.7737093,20.8677382 25.0705093,20.5681941 25.4367493,20.5681941 C25.802896,20.5681941 26.0997893,20.8677382 26.0997893,21.2371541" id="Fill-702"></path>
                                            <path d="M29.015,21.2371541 C29.015,21.6066641 28.7182,21.9061141 28.35196,21.9061141 C27.9858133,21.9061141 27.68892,21.6066641 27.68892,21.2371541 C27.68892,20.8677382 27.9858133,20.5681941 28.35196,20.5681941 C28.7182,20.5681941 29.015,20.8677382 29.015,21.2371541" id="Fill-704"></path>
                                            <path d="M31.9302573,21.2371541 C31.9302573,21.6066641 31.633364,21.9061141 31.2672173,21.9061141 C30.9009773,21.9061141 30.6041773,21.6066641 30.6041773,21.2371541 C30.6041773,20.8677382 30.9009773,20.5681941 31.2672173,20.5681941 C31.633364,20.5681941 31.9302573,20.8677382 31.9302573,21.2371541" id="Fill-706"></path>
                                            <path d="M1.37794533,23.5189537 C1.37794533,23.8884637 1.081052,24.1879137 0.714905333,24.1879137 C0.348665333,24.1879137 0.0518653333,23.8884637 0.0518653333,23.5189537 C0.0518653333,23.1495378 0.348665333,22.8499937 0.714905333,22.8499937 C1.081052,22.8499937 1.37794533,23.1495378 1.37794533,23.5189537" id="Fill-762"></path>
                                            <path d="M4.29314667,23.5189537 C4.29314667,23.8884637 3.99625333,24.1879137 3.63010667,24.1879137 C3.26396,24.1879137 2.96706667,23.8884637 2.96706667,23.5189537 C2.96706667,23.1495378 3.26396,22.8499937 3.63010667,22.8499937 C3.99625333,22.8499937 4.29314667,23.1495378 4.29314667,23.5189537" id="Fill-764"></path>
                                            <path d="M7.208404,23.5189537 C7.208404,23.8884637 6.91151067,24.1879137 6.545364,24.1879137 C6.179124,24.1879137 5.882324,23.8884637 5.882324,23.5189537 C5.882324,23.1495378 6.179124,22.8499937 6.545364,22.8499937 C6.91151067,22.8499937 7.208404,23.1495378 7.208404,23.5189537" id="Fill-766"></path>
                                            <path d="M10.1236147,23.5189537 C10.1236147,23.8884637 9.82672133,24.1879137 9.46057467,24.1879137 C9.094428,24.1879137 8.79753467,23.8884637 8.79753467,23.5189537 C8.79753467,23.1495378 9.094428,22.8499937 9.46057467,22.8499937 C9.82672133,22.8499937 10.1236147,23.1495378 10.1236147,23.5189537" id="Fill-768"></path>
                                            <path d="M13.0388627,23.5189537 C13.0388627,23.8884637 12.7419693,24.1879137 12.3758227,24.1879137 C12.0095827,24.1879137 11.7127827,23.8884637 11.7127827,23.5189537 C11.7127827,23.1495378 12.0095827,22.8499937 12.3758227,22.8499937 C12.7419693,22.8499937 13.0388627,23.1495378 13.0388627,23.5189537" id="Fill-770"></path>
                                            <path d="M15.9540733,23.5189537 C15.9540733,23.8884637 15.65718,24.1879137 15.2910333,24.1879137 C14.9248867,24.1879137 14.6279933,23.8884637 14.6279933,23.5189537 C14.6279933,23.1495378 14.9248867,22.8499937 15.2910333,22.8499937 C15.65718,22.8499937 15.9540733,23.1495378 15.9540733,23.5189537" id="Fill-772"></path>
                                            <path d="M18.8693307,23.5189537 C18.8693307,23.8884637 18.5724373,24.1879137 18.2062907,24.1879137 C17.8400507,24.1879137 17.5432507,23.8884637 17.5432507,23.5189537 C17.5432507,23.1495378 17.8400507,22.8499937 18.2062907,22.8499937 C18.5724373,22.8499937 18.8693307,23.1495378 18.8693307,23.5189537" id="Fill-774"></path>
                                            <path d="M21.7845413,23.5189537 C21.7845413,23.8884637 21.487648,24.1879137 21.1215013,24.1879137 C20.7553547,24.1879137 20.4584613,23.8884637 20.4584613,23.5189537 C20.4584613,23.1495378 20.7553547,22.8499937 21.1215013,22.8499937 C21.487648,22.8499937 21.7845413,23.1495378 21.7845413,23.5189537" id="Fill-776"></path>
                                            <path d="M24.6997893,23.5189537 C24.6997893,23.8884637 24.402896,24.1879137 24.0367493,24.1879137 C23.6705093,24.1879137 23.3737093,23.8884637 23.3737093,23.5189537 C23.3737093,23.1495378 23.6705093,22.8499937 24.0367493,22.8499937 C24.402896,22.8499937 24.6997893,23.1495378 24.6997893,23.5189537" id="Fill-778"></path>
                                            <path d="M27.615,23.5189537 C27.615,23.8884637 27.3182,24.1879137 26.95196,24.1879137 C26.5858133,24.1879137 26.28892,23.8884637 26.28892,23.5189537 C26.28892,23.1495378 26.5858133,22.8499937 26.95196,22.8499937 C27.3182,22.8499937 27.615,23.1495378 27.615,23.5189537" id="Fill-780"></path>
                                            <path d="M30.5302573,23.5189537 C30.5302573,23.8884637 30.233364,24.1879137 29.8672173,24.1879137 C29.5009773,24.1879137 29.2041773,23.8884637 29.2041773,23.5189537 C29.2041773,23.1495378 29.5009773,22.8499937 29.8672173,22.8499937 C30.233364,22.8499937 30.5302573,23.1495378 30.5302573,23.5189537" id="Fill-782"></path>
                                            <path d="M33.4455053,23.5189537 C33.4455053,23.8884637 33.148612,24.1879137 32.7824653,24.1879137 C32.4162253,24.1879137 32.1194253,23.8884637 32.1194253,23.5189537 C32.1194253,23.1495378 32.4162253,22.8499937 32.7824653,22.8499937 C33.148612,22.8499937 33.4455053,23.1495378 33.4455053,23.5189537" id="Fill-784"></path>
                                            <path d="M2.77794533,25.8007909 C2.77794533,26.1702067 2.481052,26.4697509 2.11490533,26.4697509 C1.74866533,26.4697509 1.45186533,26.1702067 1.45186533,25.8007909 C1.45186533,25.4312809 1.74866533,25.1318309 2.11490533,25.1318309 C2.481052,25.1318309 2.77794533,25.4312809 2.77794533,25.8007909" id="Fill-838"></path>
                                            <path d="M5.69314667,25.8007909 C5.69314667,26.1702067 5.39625333,26.4697509 5.03010667,26.4697509 C4.66396,26.4697509 4.36706667,26.1702067 4.36706667,25.8007909 C4.36706667,25.4312809 4.66396,25.1318309 5.03010667,25.1318309 C5.39625333,25.1318309 5.69314667,25.4312809 5.69314667,25.8007909" id="Fill-840"></path>
                                            <path d="M8.608404,25.8007909 C8.608404,26.1702067 8.31151067,26.4697509 7.945364,26.4697509 C7.579124,26.4697509 7.282324,26.1702067 7.282324,25.8007909 C7.282324,25.4312809 7.579124,25.1318309 7.945364,25.1318309 C8.31151067,25.1318309 8.608404,25.4312809 8.608404,25.8007909" id="Fill-842"></path>
                                            <path d="M11.5236147,25.8007909 C11.5236147,26.1702067 11.2267213,26.4697509 10.8605747,26.4697509 C10.494428,26.4697509 10.1975347,26.1702067 10.1975347,25.8007909 C10.1975347,25.4312809 10.494428,25.1318309 10.8605747,25.1318309 C11.2267213,25.1318309 11.5236147,25.4312809 11.5236147,25.8007909" id="Fill-844"></path>
                                            <path d="M14.4388627,25.8007909 C14.4388627,26.1702067 14.1419693,26.4697509 13.7758227,26.4697509 C13.4095827,26.4697509 13.1127827,26.1702067 13.1127827,25.8007909 C13.1127827,25.4312809 13.4095827,25.1318309 13.7758227,25.1318309 C14.1419693,25.1318309 14.4388627,25.4312809 14.4388627,25.8007909" id="Fill-846"></path>
                                            <path d="M17.3540733,25.8007909 C17.3540733,26.1702067 17.05718,26.4697509 16.6910333,26.4697509 C16.3248867,26.4697509 16.0279933,26.1702067 16.0279933,25.8007909 C16.0279933,25.4312809 16.3248867,25.1318309 16.6910333,25.1318309 C17.05718,25.1318309 17.3540733,25.4312809 17.3540733,25.8007909" id="Fill-848"></path>
                                            <path d="M20.2693307,25.8007909 C20.2693307,26.1702067 19.9724373,26.4697509 19.6062907,26.4697509 C19.2400507,26.4697509 18.9432507,26.1702067 18.9432507,25.8007909 C18.9432507,25.4312809 19.2400507,25.1318309 19.6062907,25.1318309 C19.9724373,25.1318309 20.2693307,25.4312809 20.2693307,25.8007909" id="Fill-850"></path>
                                            <path d="M23.1845413,25.8007909 C23.1845413,26.1702067 22.887648,26.4697509 22.5215013,26.4697509 C22.1553547,26.4697509 21.8584613,26.1702067 21.8584613,25.8007909 C21.8584613,25.4312809 22.1553547,25.1318309 22.5215013,25.1318309 C22.887648,25.1318309 23.1845413,25.4312809 23.1845413,25.8007909" id="Fill-852"></path>
                                            <path d="M26.0997893,25.8007909 C26.0997893,26.1702067 25.802896,26.4697509 25.4367493,26.4697509 C25.0705093,26.4697509 24.7737093,26.1702067 24.7737093,25.8007909 C24.7737093,25.4312809 25.0705093,25.1318309 25.4367493,25.1318309 C25.802896,25.1318309 26.0997893,25.4312809 26.0997893,25.8007909" id="Fill-854"></path>
                                            <path d="M29.015,25.8007909 C29.015,26.1702067 28.7182,26.4697509 28.35196,26.4697509 C27.9858133,26.4697509 27.68892,26.1702067 27.68892,25.8007909 C27.68892,25.4312809 27.9858133,25.1318309 28.35196,25.1318309 C28.7182,25.1318309 29.015,25.4312809 29.015,25.8007909" id="Fill-856"></path>
                                            <path d="M31.9302573,25.8007909 C31.9302573,26.1702067 31.633364,26.4697509 31.2672173,26.4697509 C30.9009773,26.4697509 30.6041773,26.1702067 30.6041773,25.8007909 C30.6041773,25.4312809 30.9009773,25.1318309 31.2672173,25.1318309 C31.633364,25.1318309 31.9302573,25.4312809 31.9302573,25.8007909" id="Fill-858"></path>
                                            <path d="M1.37794533,28.0825905 C1.37794533,28.4520063 1.081052,28.7515505 0.714905333,28.7515505 C0.348665333,28.7515505 0.0518653333,28.4520063 0.0518653333,28.0825905 C0.0518653333,27.7130805 0.348665333,27.4136305 0.714905333,27.4136305 C1.081052,27.4136305 1.37794533,27.7130805 1.37794533,28.0825905" id="Fill-914"></path>
                                            <path d="M4.29314667,28.0825905 C4.29314667,28.4520063 3.99625333,28.7515505 3.63010667,28.7515505 C3.26396,28.7515505 2.96706667,28.4520063 2.96706667,28.0825905 C2.96706667,27.7130805 3.26396,27.4136305 3.63010667,27.4136305 C3.99625333,27.4136305 4.29314667,27.7130805 4.29314667,28.0825905" id="Fill-916"></path>
                                            <path d="M7.208404,28.0825905 C7.208404,28.4520063 6.91151067,28.7515505 6.545364,28.7515505 C6.179124,28.7515505 5.882324,28.4520063 5.882324,28.0825905 C5.882324,27.7130805 6.179124,27.4136305 6.545364,27.4136305 C6.91151067,27.4136305 7.208404,27.7130805 7.208404,28.0825905" id="Fill-918"></path>
                                            <path d="M10.1236147,28.0825905 C10.1236147,28.4520063 9.82672133,28.7515505 9.46057467,28.7515505 C9.094428,28.7515505 8.79753467,28.4520063 8.79753467,28.0825905 C8.79753467,27.7130805 9.094428,27.4136305 9.46057467,27.4136305 C9.82672133,27.4136305 10.1236147,27.7130805 10.1236147,28.0825905" id="Fill-920"></path>
                                            <path d="M13.0388627,28.0825905 C13.0388627,28.4520063 12.7419693,28.7515505 12.3758227,28.7515505 C12.0095827,28.7515505 11.7127827,28.4520063 11.7127827,28.0825905 C11.7127827,27.7130805 12.0095827,27.4136305 12.3758227,27.4136305 C12.7419693,27.4136305 13.0388627,27.7130805 13.0388627,28.0825905" id="Fill-922"></path>
                                            <path d="M15.9540733,28.0825905 C15.9540733,28.4520063 15.65718,28.7515505 15.2910333,28.7515505 C14.9248867,28.7515505 14.6279933,28.4520063 14.6279933,28.0825905 C14.6279933,27.7130805 14.9248867,27.4136305 15.2910333,27.4136305 C15.65718,27.4136305 15.9540733,27.7130805 15.9540733,28.0825905" id="Fill-924"></path>
                                            <path d="M18.8693307,28.0825905 C18.8693307,28.4520063 18.5724373,28.7515505 18.2062907,28.7515505 C17.8400507,28.7515505 17.5432507,28.4520063 17.5432507,28.0825905 C17.5432507,27.7130805 17.8400507,27.4136305 18.2062907,27.4136305 C18.5724373,27.4136305 18.8693307,27.7130805 18.8693307,28.0825905" id="Fill-926"></path>
                                            <path d="M21.7845413,28.0825905 C21.7845413,28.4520063 21.487648,28.7515505 21.1215013,28.7515505 C20.7553547,28.7515505 20.4584613,28.4520063 20.4584613,28.0825905 C20.4584613,27.7130805 20.7553547,27.4136305 21.1215013,27.4136305 C21.487648,27.4136305 21.7845413,27.7130805 21.7845413,28.0825905" id="Fill-928"></path>
                                            <path d="M24.6997893,28.0825905 C24.6997893,28.4520063 24.402896,28.7515505 24.0367493,28.7515505 C23.6705093,28.7515505 23.3737093,28.4520063 23.3737093,28.0825905 C23.3737093,27.7130805 23.6705093,27.4136305 24.0367493,27.4136305 C24.402896,27.4136305 24.6997893,27.7130805 24.6997893,28.0825905" id="Fill-930"></path>
                                            <path d="M27.615,28.0825905 C27.615,28.4520063 27.3182,28.7515505 26.95196,28.7515505 C26.5858133,28.7515505 26.28892,28.4520063 26.28892,28.0825905 C26.28892,27.7130805 26.5858133,27.4136305 26.95196,27.4136305 C27.3182,27.4136305 27.615,27.7130805 27.615,28.0825905" id="Fill-932"></path>
                                            <path d="M30.5302573,28.0825905 C30.5302573,28.4520063 30.233364,28.7515505 29.8672173,28.7515505 C29.5009773,28.7515505 29.2041773,28.4520063 29.2041773,28.0825905 C29.2041773,27.7130805 29.5009773,27.4136305 29.8672173,27.4136305 C30.233364,27.4136305 30.5302573,27.7130805 30.5302573,28.0825905" id="Fill-934"></path>
                                            <path d="M33.4455053,28.0825905 C33.4455053,28.4520063 33.148612,28.7515505 32.7824653,28.7515505 C32.4162253,28.7515505 32.1194253,28.4520063 32.1194253,28.0825905 C32.1194253,27.7130805 32.4162253,27.4136305 32.7824653,27.4136305 C33.148612,27.4136305 33.4455053,27.7130805 33.4455053,28.0825905" id="Fill-936"></path>
                                            <path d="M2.77794533,30.3643807 C2.77794533,30.7337965 2.481052,31.0333407 2.11490533,31.0333407 C1.74866533,31.0333407 1.45186533,30.7337965 1.45186533,30.3643807 C1.45186533,29.9948707 1.74866533,29.6954207 2.11490533,29.6954207 C2.481052,29.6954207 2.77794533,29.9948707 2.77794533,30.3643807" id="Fill-990"></path>
                                            <path d="M5.69314667,30.3643807 C5.69314667,30.7337965 5.39625333,31.0333407 5.03010667,31.0333407 C4.66396,31.0333407 4.36706667,30.7337965 4.36706667,30.3643807 C4.36706667,29.9948707 4.66396,29.6954207 5.03010667,29.6954207 C5.39625333,29.6954207 5.69314667,29.9948707 5.69314667,30.3643807" id="Fill-992"></path>
                                            <path d="M8.608404,30.3643807 C8.608404,30.7337965 8.31151067,31.0333407 7.945364,31.0333407 C7.579124,31.0333407 7.282324,30.7337965 7.282324,30.3643807 C7.282324,29.9948707 7.579124,29.6954207 7.945364,29.6954207 C8.31151067,29.6954207 8.608404,29.9948707 8.608404,30.3643807" id="Fill-994"></path>
                                            <path d="M11.5236147,30.3643807 C11.5236147,30.7337965 11.2267213,31.0333407 10.8605747,31.0333407 C10.494428,31.0333407 10.1975347,30.7337965 10.1975347,30.3643807 C10.1975347,29.9948707 10.494428,29.6954207 10.8605747,29.6954207 C11.2267213,29.6954207 11.5236147,29.9948707 11.5236147,30.3643807" id="Fill-996"></path>
                                            <path d="M14.4388627,30.3643807 C14.4388627,30.7337965 14.1419693,31.0333407 13.7758227,31.0333407 C13.4095827,31.0333407 13.1127827,30.7337965 13.1127827,30.3643807 C13.1127827,29.9948707 13.4095827,29.6954207 13.7758227,29.6954207 C14.1419693,29.6954207 14.4388627,29.9948707 14.4388627,30.3643807" id="Fill-998"></path>
                                            <path d="M17.3540733,30.3643807 C17.3540733,30.7337965 17.05718,31.0333407 16.6910333,31.0333407 C16.3248867,31.0333407 16.0279933,30.7337965 16.0279933,30.3643807 C16.0279933,29.9948707 16.3248867,29.6954207 16.6910333,29.6954207 C17.05718,29.6954207 17.3540733,29.9948707 17.3540733,30.3643807" id="Fill-1000"></path>
                                            <path d="M20.2693307,30.3643807 C20.2693307,30.7337965 19.9724373,31.0333407 19.6062907,31.0333407 C19.2400507,31.0333407 18.9432507,30.7337965 18.9432507,30.3643807 C18.9432507,29.9948707 19.2400507,29.6954207 19.6062907,29.6954207 C19.9724373,29.6954207 20.2693307,29.9948707 20.2693307,30.3643807" id="Fill-1002"></path>
                                            <path d="M23.1845413,30.3643807 C23.1845413,30.7337965 22.887648,31.0333407 22.5215013,31.0333407 C22.1553547,31.0333407 21.8584613,30.7337965 21.8584613,30.3643807 C21.8584613,29.9948707 22.1553547,29.6954207 22.5215013,29.6954207 C22.887648,29.6954207 23.1845413,29.9948707 23.1845413,30.3643807" id="Fill-1004"></path>
                                            <path d="M26.0997893,30.3643807 C26.0997893,30.7337965 25.802896,31.0333407 25.4367493,31.0333407 C25.0705093,31.0333407 24.7737093,30.7337965 24.7737093,30.3643807 C24.7737093,29.9948707 25.0705093,29.6954207 25.4367493,29.6954207 C25.802896,29.6954207 26.0997893,29.9948707 26.0997893,30.3643807" id="Fill-1006"></path>
                                            <path d="M29.015,30.3643807 C29.015,30.7337965 28.7182,31.0333407 28.35196,31.0333407 C27.9858133,31.0333407 27.68892,30.7337965 27.68892,30.3643807 C27.68892,29.9948707 27.9858133,29.6954207 28.35196,29.6954207 C28.7182,29.6954207 29.015,29.9948707 29.015,30.3643807" id="Fill-1008"></path>
                                            <path d="M31.9302573,30.3643807 C31.9302573,30.7337965 31.633364,31.0333407 31.2672173,31.0333407 C30.9009773,31.0333407 30.6041773,30.7337965 30.6041773,30.3643807 C30.6041773,29.9948707 30.9009773,29.6954207 31.2672173,29.6954207 C31.633364,29.6954207 31.9302573,29.9948707 31.9302573,30.3643807" id="Fill-1010"></path>
                                        </g>
                                    </g>
                                </g>
                            </g>
                        </g>
                    </g>
                </g>
                <rect id="Rectangle" stroke="#000000" stroke-width="2" fill="#FFFFFF" x="8" y="8.80344828" width="36" height="55.1413793" rx="1.25"></rect>
                <rect id="Rectangle-Copy" stroke="#000000" stroke-width="2" fill="#000000" x="15" y="6.2862069" width="22" height="6.81034483" rx="1.25"></rect>
                <ellipse id="Oval" fill="#000000" cx="26.125" cy="5.41206897" rx="5.375" ry="5.41206897"></ellipse>
                <g id="Group" transform="translate(14.000000, 20.893103)" stroke="#000000" stroke-linecap="round" stroke-linejoin="round" stroke-width="1.75">
                    <path d="M0,19.7603448 L24,19.7603448" id="Line-21"></path>
                    <path d="M5.75,6.41896552 L18.25,6.41896552" id="Line-21-Copy-4"></path>
                    <path d="M5.70689655,6.41896552 L18.2931034,6.41896552" id="Line-21-Copy-4" transform="translate(12.000000, 6.418966) rotate(-270.000000) translate(-12.000000, -6.418966) "></path>
                    <path d="M0,29.8293103 L24,29.8293103" id="Line-21-Copy-2"></path>
                    <path d="M0,24.7948276 L24,24.7948276" id="Line-21-Copy"></path>
                    <path d="M0,34.8637931 L24,34.8637931" id="Line-21-Copy-3"></path>
                </g>
            </g>
        </g>
    </g>
</svg>