<svg width="94" height="56" viewBox="0 0 94 56" xmlns="http://www.w3.org/2000/svg" xmlns:xlink="http://www.w3.org/1999/xlink"><defs><path id="a" d="M71 0H0v43h71z"/><path id="c" d="M.25.962h110v105H.25z"/><path d="M0 8.855v9.462c.005.928.75 1.678 1.67 1.683h51.66A1.686 1.686 0 0 0 55 18.317V0H0v8.855z" id="e"/></defs><g fill="none" fill-rule="evenodd"><g fill-rule="nonzero"><path d="M86.048 48.186V3.206c0-1.803-1.39-3.206-3.18-3.206H11.132c-1.788 0-3.18 1.403-3.18 3.206v44.98H.5v4.608C.5 54.597 1.891 56 3.68 56h86.64c1.789 0 3.18-1.403 3.18-3.206v-4.608h-7.452zM53.26 49.889c-.298.501-.795.802-1.391.802H42.13c-.596 0-1.093-.301-1.39-.802H53.26zm38.65 2.905c0 .802-.695 1.503-1.49 1.503H3.68c-.795 0-1.49-.701-1.49-1.503V49.89H39.15c.298 1.403 1.59 2.505 3.08 2.505h9.638c1.49 0 2.782-1.102 3.08-2.505H91.91v2.905z" fill="#000"/><path fill="#FFF" d="M82.5 4h-71v43h71z"/></g><g transform="translate(11.5 4)"><mask id="b" fill="#fff"><use xlink:href="#a"/></mask><use fill="#FFF" xlink:href="#a"/><g mask="url(#b)"><g transform="rotate(48 99.611 -59.488)"><mask id="d" fill="#fff"><use xlink:href="#c"/></mask><use fill="#D8D8D8" xlink:href="#c"/><g mask="url(#d)"><path fill="#FFF" d="M.25 112.962h112v-113H.25z"/><g fill="#333"><path d="M108.63 13.108c0 .37-.297.669-.663.669a.666.666 0 0 1-.663-.67c0-.369.296-.668.663-.668.366 0 .663.3.663.669M111.545 13.108c0 .37-.297.669-.663.669a.666.666 0 0 1-.663-.67c0-.369.297-.668.663-.668.366 0 .663.3.663.669M107.23 15.39c0 .37-.297.669-.663.669a.666.666 0 0 1-.663-.67c0-.369.296-.668.663-.668.366 0 .663.3.663.669M110.145 15.39c0 .37-.297.669-.663.669a.666.666 0 0 1-.663-.67c0-.369.297-.668.663-.668.366 0 .663.3.663.669M105.714 17.671c0 .37-.297.67-.663.67a.666.666 0 0 1-.663-.67c0-.369.297-.668.663-.668.366 0 .663.3.663.668M108.63 17.671c0 .37-.297.67-.663.67a.666.666 0 0 1-.663-.67c0-.369.296-.668.663-.668.366 0 .663.3.663.668M111.545 17.671c0 .37-.297.67-.663.67a.666.666 0 0 1-.663-.67c0-.369.297-.668.663-.668.366 0 .663.3.663.668M104.314 19.953c0 .37-.297.67-.663.67a.666.666 0 0 1-.663-.67c0-.37.297-.669.663-.669.366 0 .663.3.663.67M107.23 19.953c0 .37-.297.67-.663.67a.666.666 0 0 1-.663-.67c0-.37.296-.669.663-.669.366 0 .663.3.663.67M110.145 19.953c0 .37-.297.67-.663.67a.666.666 0 0 1-.663-.67c0-.37.297-.669.663-.669.366 0 .663.3.663.67M102.8 22.235c0 .37-.298.669-.664.669a.666.666 0 0 1-.663-.669c0-.37.297-.669.663-.669.366 0 .663.3.663.67M105.714 22.235c0 .37-.297.669-.663.669a.666.666 0 0 1-.663-.669c0-.37.297-.669.663-.669.366 0 .663.3.663.67M108.63 22.235c0 .37-.297.669-.663.669a.666.666 0 0 1-.663-.669c0-.37.296-.669.663-.669.366 0 .663.3.663.67M111.545 22.235c0 .37-.297.669-.663.669a.666.666 0 0 1-.663-.669c0-.37.297-.669.663-.669.366 0 .663.3.663.67M98.484 24.517c0 .37-.297.669-.663.669a.666.666 0 0 1-.663-.67c0-.369.297-.668.663-.668.366 0 .663.3.663.669M101.4 24.517c0 .37-.298.669-.664.669a.666.666 0 0 1-.663-.67c0-.369.297-.668.663-.668.366 0 .663.3.663.669M104.314 24.517c0 .37-.297.669-.663.669a.666.666 0 0 1-.663-.67c0-.369.297-.668.663-.668.366 0 .663.3.663.669M107.23 24.517c0 .37-.297.669-.663.669a.666.666 0 0 1-.663-.67c0-.369.296-.668.663-.668.366 0 .663.3.663.669M110.145 24.517c0 .37-.297.669-.663.669a.666.666 0 0 1-.663-.67c0-.369.297-.668.663-.668.366 0 .663.3.663.669M96.969 26.799c0 .37-.297.669-.663.669a.666.666 0 0 1-.663-.67c0-.369.296-.668.663-.668.366 0 .663.3.663.669M99.884 26.799c0 .37-.297.669-.663.669a.666.666 0 0 1-.663-.67c0-.369.297-.668.663-.668.366 0 .663.3.663.669M102.8 26.799c0 .37-.298.669-.664.669a.666.666 0 0 1-.663-.67c0-.369.297-.668.663-.668.366 0 .663.3.663.669M105.714 26.799c0 .37-.297.669-.663.669a.666.666 0 0 1-.663-.67c0-.369.297-.668.663-.668.366 0 .663.3.663.669M108.63 26.799c0 .37-.297.669-.663.669a.666.666 0 0 1-.663-.67c0-.369.296-.668.663-.668.366 0 .663.3.663.669M111.545 26.799c0 .37-.297.669-.663.669a.666.666 0 0 1-.663-.67c0-.369.297-.668.663-.668.366 0 .663.3.663.669M95.569 29.08c0 .37-.297.67-.663.67a.666.666 0 0 1-.663-.67c0-.369.296-.668.663-.668.366 0 .663.299.663.668M98.484 29.08c0 .37-.297.67-.663.67a.666.666 0 0 1-.663-.67c0-.369.297-.668.663-.668.366 0 .663.299.663.668M101.4 29.08c0 .37-.298.67-.664.67a.666.666 0 0 1-.663-.67c0-.369.297-.668.663-.668.366 0 .663.299.663.668M104.314 29.08c0 .37-.297.67-.663.67a.666.666 0 0 1-.663-.67c0-.369.297-.668.663-.668.366 0 .663.299.663.668M107.23 29.08c0 .37-.297.67-.663.67a.666.666 0 0 1-.663-.67c0-.369.296-.668.663-.668.366 0 .663.299.663.668M110.145 29.08c0 .37-.297.67-.663.67a.666.666 0 0 1-.663-.67c0-.369.297-.668.663-.668.366 0 .663.299.663.668M94.053 31.362c0 .37-.296.67-.663.67a.666.666 0 0 1-.663-.67c0-.37.297-.669.663-.669.367 0 .663.3.663.67M96.969 31.362c0 .37-.297.67-.663.67a.666.666 0 0 1-.663-.67c0-.37.296-.669.663-.669.366 0 .663.3.663.67M99.884 31.362c0 .37-.297.67-.663.67a.666.666 0 0 1-.663-.67c0-.37.297-.669.663-.669.366 0 .663.3.663.67M102.8 31.362c0 .37-.298.67-.664.67a.666.666 0 0 1-.663-.67c0-.37.297-.669.663-.669.366 0 .663.3.663.67M105.714 31.362c0 .37-.297.67-.663.67a.666.666 0 0 1-.663-.67c0-.37.297-.669.663-.669.366 0 .663.3.663.67M108.63 31.362c0 .37-.297.67-.663.67a.666.666 0 0 1-.663-.67c0-.37.296-.669.663-.669.366 0 .663.3.663.67M111.545 31.362c0 .37-.297.67-.663.67a.666.666 0 0 1-.663-.67c0-.37.297-.669.663-.669.366 0 .663.3.663.67M92.653 33.644c0 .37-.296.669-.663.669a.666.666 0 0 1-.663-.669c0-.37.297-.669.663-.669.367 0 .663.3.663.67M95.569 33.644c0 .37-.297.669-.663.669a.666.666 0 0 1-.663-.669c0-.37.296-.669.663-.669.366 0 .663.3.663.67M98.484 33.644c0 .37-.297.669-.663.669a.666.666 0 0 1-.663-.669c0-.37.297-.669.663-.669.366 0 .663.3.663.67M101.4 33.644c0 .37-.298.669-.664.669a.666.666 0 0 1-.663-.669c0-.37.297-.669.663-.669.366 0 .663.3.663.67M104.314 33.644c0 .37-.297.669-.663.669a.666.666 0 0 1-.663-.669c0-.37.297-.669.663-.669.366 0 .663.3.663.67M107.23 33.644c0 .37-.297.669-.663.669a.666.666 0 0 1-.663-.669c0-.37.296-.669.663-.669.366 0 .663.3.663.67M110.145 33.644c0 .37-.297.669-.663.669a.666.666 0 0 1-.663-.669c0-.37.297-.669.663-.669.366 0 .663.3.663.67M88.223 35.926c0 .37-.297.669-.663.669a.666.666 0 0 1-.663-.67c0-.369.297-.668.663-.668.366 0 .663.3.663.669M91.138 35.926c0 .37-.297.669-.663.669a.666.666 0 0 1-.663-.67c0-.369.297-.668.663-.668.366 0 .663.3.663.669M94.053 35.926c0 .37-.296.669-.663.669a.666.666 0 0 1-.663-.67c0-.369.297-.668.663-.668.367 0 .663.3.663.669M96.969 35.926c0 .37-.297.669-.663.669a.666.666 0 0 1-.663-.67c0-.369.296-.668.663-.668.366 0 .663.3.663.669M99.884 35.926c0 .37-.297.669-.663.669a.666.666 0 0 1-.663-.67c0-.369.297-.668.663-.668.366 0 .663.3.663.669M102.8 35.926c0 .37-.298.669-.664.669a.666.666 0 0 1-.663-.67c0-.369.297-.668.663-.668.366 0 .663.3.663.669M105.714 35.926c0 .37-.297.669-.663.669a.666.666 0 0 1-.663-.67c0-.369.297-.668.663-.668.366 0 .663.3.663.669M108.63 35.926c0 .37-.297.669-.663.669a.666.666 0 0 1-.663-.67c0-.369.296-.668.663-.668.366 0 .663.3.663.669M111.545 35.926c0 .37-.297.669-.663.669a.666.666 0 0 1-.663-.67c0-.369.297-.668.663-.668.366 0 .663.3.663.669M86.823 38.208c0 .37-.297.669-.663.669a.666.666 0 0 1-.663-.67c0-.369.297-.668.663-.668.366 0 .663.3.663.669M89.738 38.208c0 .37-.297.669-.663.669a.666.666 0 0 1-.663-.67c0-.369.297-.668.663-.668.366 0 .663.3.663.669M92.653 38.208c0 .37-.296.669-.663.669a.666.666 0 0 1-.663-.67c0-.369.297-.668.663-.668.367 0 .663.3.663.669M95.569 38.208c0 .37-.297.669-.663.669a.666.666 0 0 1-.663-.67c0-.369.296-.668.663-.668.366 0 .663.3.663.669M98.484 38.208c0 .37-.297.669-.663.669a.666.666 0 0 1-.663-.67c0-.369.297-.668.663-.668.366 0 .663.3.663.669M101.4 38.208c0 .37-.298.669-.664.669a.666.666 0 0 1-.663-.67c0-.369.297-.668.663-.668.366 0 .663.3.663.669M104.314 38.208c0 .37-.297.669-.663.669a.666.666 0 0 1-.663-.67c0-.369.297-.668.663-.668.366 0 .663.3.663.669M107.23 38.208c0 .37-.297.669-.663.669a.666.666 0 0 1-.663-.67c0-.369.296-.668.663-.668.366 0 .663.3.663.669M110.145 38.208c0 .37-.297.669-.663.669a.666.666 0 0 1-.663-.67c0-.369.297-.668.663-.668.366 0 .663.3.663.669M85.308 40.49c0 .369-.297.668-.663.668a.666.666 0 0 1-.663-.669c0-.369.297-.668.663-.668.366 0 .663.299.663.668M88.223 40.49c0 .369-.297.668-.663.668a.666.666 0 0 1-.663-.669c0-.369.297-.668.663-.668.366 0 .663.299.663.668M91.138 40.49c0 .369-.297.668-.663.668a.666.666 0 0 1-.663-.669c0-.369.297-.668.663-.668.366 0 .663.299.663.668M94.053 40.49c0 .369-.296.668-.663.668a.666.666 0 0 1-.663-.669c0-.369.297-.668.663-.668.367 0 .663.299.663.668M96.969 40.49c0 .369-.297.668-.663.668a.666.666 0 0 1-.663-.669c0-.369.296-.668.663-.668.366 0 .663.299.663.668M99.884 40.49c0 .369-.297.668-.663.668a.666.666 0 0 1-.663-.669c0-.369.297-.668.663-.668.366 0 .663.299.663.668M102.8 40.49c0 .369-.298.668-.664.668a.666.666 0 0 1-.663-.669c0-.369.297-.668.663-.668.366 0 .663.299.663.668M105.714 40.49c0 .369-.297.668-.663.668a.666.666 0 0 1-.663-.669c0-.369.297-.668.663-.668.366 0 .663.299.663.668M108.63 40.49c0 .369-.297.668-.663.668a.666.666 0 0 1-.663-.669c0-.369.296-.668.663-.668.366 0 .663.299.663.668M111.545 40.49c0 .369-.297.668-.663.668a.666.666 0 0 1-.663-.669c0-.369.297-.668.663-.668.366 0 .663.299.663.668M83.908 42.771c0 .37-.297.67-.663.67a.666.666 0 0 1-.663-.67c0-.37.297-.669.663-.669.366 0 .663.3.663.67M86.823 42.771c0 .37-.297.67-.663.67a.666.666 0 0 1-.663-.67c0-.37.297-.669.663-.669.366 0 .663.3.663.67M89.738 42.771c0 .37-.297.67-.663.67a.666.666 0 0 1-.663-.67c0-.37.297-.669.663-.669.366 0 .663.3.663.67M92.653 42.771c0 .37-.296.67-.663.67a.666.666 0 0 1-.663-.67c0-.37.297-.669.663-.669.367 0 .663.3.663.67M95.569 42.771c0 .37-.297.67-.663.67a.666.666 0 0 1-.663-.67c0-.37.296-.669.663-.669.366 0 .663.3.663.67M98.484 42.771c0 .37-.297.67-.663.67a.666.666 0 0 1-.663-.67c0-.37.297-.669.663-.669.366 0 .663.3.663.67M101.4 42.771c0 .37-.298.67-.664.67a.666.666 0 0 1-.663-.67c0-.37.297-.669.663-.669.366 0 .663.3.663.67M104.314 42.771c0 .37-.297.67-.663.67a.666.666 0 0 1-.663-.67c0-.37.297-.669.663-.669.366 0 .663.3.663.67M107.23 42.771c0 .37-.297.67-.663.67a.666.666 0 0 1-.663-.67c0-.37.296-.669.663-.669.366 0 .663.3.663.67M110.145 42.771c0 .37-.297.67-.663.67a.666.666 0 0 1-.663-.67c0-.37.297-.669.663-.669.366 0 .663.3.663.67M82.393 45.053c0 .37-.297.669-.664.669a.666.666 0 0 1-.663-.669c0-.37.297-.669.663-.669.367 0 .664.3.664.67M85.308 45.053c0 .37-.297.669-.663.669a.666.666 0 0 1-.663-.669c0-.37.297-.669.663-.669.366 0 .663.3.663.67M88.223 45.053c0 .37-.297.669-.663.669a.666.666 0 0 1-.663-.669c0-.37.297-.669.663-.669.366 0 .663.3.663.67M91.138 45.053c0 .37-.297.669-.663.669a.666.666 0 0 1-.663-.669c0-.37.297-.669.663-.669.366 0 .663.3.663.67M94.053 45.053c0 .37-.296.669-.663.669a.666.666 0 0 1-.663-.669c0-.37.297-.669.663-.669.367 0 .663.3.663.67M96.969 45.053c0 .37-.297.669-.663.669a.666.666 0 0 1-.663-.669c0-.37.296-.669.663-.669.366 0 .663.3.663.67M99.884 45.053c0 .37-.297.669-.663.669a.666.666 0 0 1-.663-.669c0-.37.297-.669.663-.669.366 0 .663.3.663.67M102.8 45.053c0 .37-.298.669-.664.669a.666.666 0 0 1-.663-.669c0-.37.297-.669.663-.669.366 0 .663.3.663.67M105.714 45.053c0 .37-.297.669-.663.669a.666.666 0 0 1-.663-.669c0-.37.297-.669.663-.669.366 0 .663.3.663.67M108.63 45.053c0 .37-.297.669-.663.669a.666.666 0 0 1-.663-.669c0-.37.296-.669.663-.669.366 0 .663.3.663.67M111.545 45.053c0 .37-.297.669-.663.669a.666.666 0 0 1-.663-.669c0-.37.297-.669.663-.669.366 0 .663.3.663.67M78.077 47.335c0 .37-.297.669-.663.669a.666.666 0 0 1-.663-.67c0-.369.297-.668.663-.668.366 0 .663.3.663.669M80.993 47.335c0 .37-.297.669-.664.669a.666.666 0 0 1-.663-.67c0-.369.297-.668.663-.668.367 0 .664.3.664.669M83.908 47.335c0 .37-.297.669-.663.669a.666.666 0 0 1-.663-.67c0-.369.297-.668.663-.668.366 0 .663.3.663.669M86.823 47.335c0 .37-.297.669-.663.669a.666.666 0 0 1-.663-.67c0-.369.297-.668.663-.668.366 0 .663.3.663.669M89.738 47.335c0 .37-.297.669-.663.669a.666.666 0 0 1-.663-.67c0-.369.297-.668.663-.668.366 0 .663.3.663.669M92.653 47.335c0 .37-.296.669-.663.669a.666.666 0 0 1-.663-.67c0-.369.297-.668.663-.668.367 0 .663.3.663.669M95.569 47.335c0 .37-.297.669-.663.669a.666.666 0 0 1-.663-.67c0-.369.296-.668.663-.668.366 0 .663.3.663.669M98.484 47.335c0 .37-.297.669-.663.669a.666.666 0 0 1-.663-.67c0-.369.297-.668.663-.668.366 0 .663.3.663.669M101.4 47.335c0 .37-.298.669-.664.669a.666.666 0 0 1-.663-.67c0-.369.297-.668.663-.668.366 0 .663.3.663.669M104.314 47.335c0 .37-.297.669-.663.669a.666.666 0 0 1-.663-.67c0-.369.297-.668.663-.668.366 0 .663.3.663.669M107.23 47.335c0 .37-.297.669-.663.669a.666.666 0 0 1-.663-.67c0-.369.296-.668.663-.668.366 0 .663.3.663.669M110.145 47.335c0 .37-.297.669-.663.669a.666.666 0 0 1-.663-.67c0-.369.297-.668.663-.668.366 0 .663.3.663.669M76.562 49.617c0 .37-.297.669-.663.669a.666.666 0 0 1-.663-.67c0-.369.297-.668.663-.668.366 0 .663.3.663.669M79.477 49.617c0 .37-.297.669-.663.669a.666.666 0 0 1-.663-.67c0-.369.297-.668.663-.668.366 0 .663.3.663.669M82.393 49.617c0 .37-.297.669-.664.669a.666.666 0 0 1-.663-.67c0-.369.297-.668.663-.668.367 0 .664.3.664.669M85.308 49.617c0 .37-.297.669-.663.669a.666.666 0 0 1-.663-.67c0-.369.297-.668.663-.668.366 0 .663.3.663.669M88.223 49.617c0 .37-.297.669-.663.669a.666.666 0 0 1-.663-.67c0-.369.297-.668.663-.668.366 0 .663.3.663.669M91.138 49.617c0 .37-.297.669-.663.669a.666.666 0 0 1-.663-.67c0-.369.297-.668.663-.668.366 0 .663.3.663.669M94.053 49.617c0 .37-.296.669-.663.669a.666.666 0 0 1-.663-.67c0-.369.297-.668.663-.668.367 0 .663.3.663.669M96.969 49.617c0 .37-.297.669-.663.669a.666.666 0 0 1-.663-.67c0-.369.296-.668.663-.668.366 0 .663.3.663.669M99.884 49.617c0 .37-.297.669-.663.669a.666.666 0 0 1-.663-.67c0-.369.297-.668.663-.668.366 0 .663.3.663.669M102.8 49.617c0 .37-.298.669-.664.669a.666.666 0 0 1-.663-.67c0-.369.297-.668.663-.668.366 0 .663.3.663.669M105.714 49.617c0 .37-.297.669-.663.669a.666.666 0 0 1-.663-.67c0-.369.297-.668.663-.668.366 0 .663.3.663.669M108.63 49.617c0 .37-.297.669-.663.669a.666.666 0 0 1-.663-.67c0-.369.296-.668.663-.668.366 0 .663.3.663.669M111.545 49.617c0 .37-.297.669-.663.669a.666.666 0 0 1-.663-.67c0-.369.297-.668.663-.668.366 0 .663.3.663.669M75.162 51.898c0 .37-.297.67-.663.67a.666.666 0 0 1-.663-.67c0-.369.297-.668.663-.668.366 0 .663.299.663.668M78.077 51.898c0 .37-.297.67-.663.67a.666.666 0 0 1-.663-.67c0-.369.297-.668.663-.668.366 0 .663.299.663.668M80.993 51.898c0 .37-.297.67-.664.67a.666.666 0 0 1-.663-.67c0-.369.297-.668.663-.668.367 0 .664.299.664.668M83.908 51.898c0 .37-.297.67-.663.67a.666.666 0 0 1-.663-.67c0-.369.297-.668.663-.668.366 0 .663.299.663.668M86.823 51.898c0 .37-.297.67-.663.67a.666.666 0 0 1-.663-.67c0-.369.297-.668.663-.668.366 0 .663.299.663.668M89.738 51.898c0 .37-.297.67-.663.67a.666.666 0 0 1-.663-.67c0-.369.297-.668.663-.668.366 0 .663.299.663.668M92.653 51.898c0 .37-.296.67-.663.67a.666.666 0 0 1-.663-.67c0-.369.297-.668.663-.668.367 0 .663.299.663.668M95.569 51.898c0 .37-.297.67-.663.67a.666.666 0 0 1-.663-.67c0-.369.296-.668.663-.668.366 0 .663.299.663.668M98.484 51.898c0 .37-.297.67-.663.67a.666.666 0 0 1-.663-.67c0-.369.297-.668.663-.668.366 0 .663.299.663.668M101.4 51.898c0 .37-.298.67-.664.67a.666.666 0 0 1-.663-.67c0-.369.297-.668.663-.668.366 0 .663.299.663.668M104.314 51.898c0 .37-.297.67-.663.67a.666.666 0 0 1-.663-.67c0-.369.297-.668.663-.668.366 0 .663.299.663.668M107.23 51.898c0 .37-.297.67-.663.67a.666.666 0 0 1-.663-.67c0-.369.296-.668.663-.668.366 0 .663.299.663.668M110.145 51.898c0 .37-.297.67-.663.67a.666.666 0 0 1-.663-.67c0-.369.297-.668.663-.668.366 0 .663.299.663.668M73.647 54.18c0 .37-.297.67-.663.67a.666.666 0 0 1-.663-.67c0-.37.297-.669.663-.669.366 0 .663.3.663.67M76.562 54.18c0 .37-.297.67-.663.67a.666.666 0 0 1-.663-.67c0-.37.297-.669.663-.669.366 0 .663.3.663.67M79.477 54.18c0 .37-.297.67-.663.67a.666.666 0 0 1-.663-.67c0-.37.297-.669.663-.669.366 0 .663.3.663.67M82.393 54.18c0 .37-.297.67-.664.67a.666.666 0 0 1-.663-.67c0-.37.297-.669.663-.669.367 0 .664.3.664.67M85.308 54.18c0 .37-.297.67-.663.67a.666.666 0 0 1-.663-.67c0-.37.297-.669.663-.669.366 0 .663.3.663.67M88.223 54.18c0 .37-.297.67-.663.67a.666.666 0 0 1-.663-.67c0-.37.297-.669.663-.669.366 0 .663.3.663.67M91.138 54.18c0 .37-.297.67-.663.67a.666.666 0 0 1-.663-.67c0-.37.297-.669.663-.669.366 0 .663.3.663.67M94.053 54.18c0 .37-.296.67-.663.67a.666.666 0 0 1-.663-.67c0-.37.297-.669.663-.669.367 0 .663.3.663.67M96.969 54.18c0 .37-.297.67-.663.67a.666.666 0 0 1-.663-.67c0-.37.296-.669.663-.669.366 0 .663.3.663.67M99.884 54.18c0 .37-.297.67-.663.67a.666.666 0 0 1-.663-.67c0-.37.297-.669.663-.669.366 0 .663.3.663.67M102.8 54.18c0 .37-.298.67-.664.67a.666.666 0 0 1-.663-.67c0-.37.297-.669.663-.669.366 0 .663.3.663.67M105.714 54.18c0 .37-.297.67-.663.67a.666.666 0 0 1-.663-.67c0-.37.297-.669.663-.669.366 0 .663.3.663.67M108.63 54.18c0 .37-.297.67-.663.67a.666.666 0 0 1-.663-.67c0-.37.296-.669.663-.669.366 0 .663.3.663.67M111.545 54.18c0 .37-.297.67-.663.67a.666.666 0 0 1-.663-.67c0-.37.297-.669.663-.669.366 0 .663.3.663.67M69.332 56.462c0 .37-.297.669-.663.669a.666.666 0 0 1-.664-.669c0-.37.297-.669.664-.669.366 0 .663.3.663.67M72.247 56.462c0 .37-.297.669-.663.669a.666.666 0 0 1-.663-.669c0-.37.297-.669.663-.669.366 0 .663.3.663.67M75.162 56.462c0 .37-.297.669-.663.669a.666.666 0 0 1-.663-.669c0-.37.297-.669.663-.669.366 0 .663.3.663.67M78.077 56.462c0 .37-.297.669-.663.669a.666.666 0 0 1-.663-.669c0-.37.297-.669.663-.669.366 0 .663.3.663.67M80.993 56.462c0 .37-.297.669-.664.669a.666.666 0 0 1-.663-.669c0-.37.297-.669.663-.669.367 0 .664.3.664.67M83.908 56.462c0 .37-.297.669-.663.669a.666.666 0 0 1-.663-.669c0-.37.297-.669.663-.669.366 0 .663.3.663.67M86.823 56.462c0 .37-.297.669-.663.669a.666.666 0 0 1-.663-.669c0-.37.297-.669.663-.669.366 0 .663.3.663.67M89.738 56.462c0 .37-.297.669-.663.669a.666.666 0 0 1-.663-.669c0-.37.297-.669.663-.669.366 0 .663.3.663.67M92.653 56.462c0 .37-.296.669-.663.669a.666.666 0 0 1-.663-.669c0-.37.297-.669.663-.669.367 0 .663.3.663.67M95.569 56.462c0 .37-.297.669-.663.669a.666.666 0 0 1-.663-.669c0-.37.296-.669.663-.669.366 0 .663.3.663.67M98.484 56.462c0 .37-.297.669-.663.669a.666.666 0 0 1-.663-.669c0-.37.297-.669.663-.669.366 0 .663.3.663.67M101.4 56.462c0 .37-.298.669-.664.669a.666.666 0 0 1-.663-.669c0-.37.297-.669.663-.669.366 0 .663.3.663.67M104.314 56.462c0 .37-.297.669-.663.669a.666.666 0 0 1-.663-.669c0-.37.297-.669.663-.669.366 0 .663.3.663.67M107.23 56.462c0 .37-.297.669-.663.669a.666.666 0 0 1-.663-.669c0-.37.296-.669.663-.669.366 0 .663.3.663.67M110.145 56.462c0 .37-.297.669-.663.669a.666.666 0 0 1-.663-.669c0-.37.297-.669.663-.669.366 0 .663.3.663.67M67.816 58.744c0 .37-.296.669-.663.669a.666.666 0 0 1-.663-.67c0-.369.297-.668.663-.668.367 0 .663.3.663.669M70.732 58.744c0 .37-.297.669-.663.669a.666.666 0 0 1-.664-.67c0-.369.297-.668.664-.668.366 0 .663.3.663.669M73.647 58.744c0 .37-.297.669-.663.669a.666.666 0 0 1-.663-.67c0-.369.297-.668.663-.668.366 0 .663.3.663.669M76.562 58.744c0 .37-.297.669-.663.669a.666.666 0 0 1-.663-.67c0-.369.297-.668.663-.668.366 0 .663.3.663.669M79.477 58.744c0 .37-.297.669-.663.669a.666.666 0 0 1-.663-.67c0-.369.297-.668.663-.668.366 0 .663.3.663.669M82.393 58.744c0 .37-.297.669-.664.669a.666.666 0 0 1-.663-.67c0-.369.297-.668.663-.668.367 0 .664.3.664.669M85.308 58.744c0 .37-.297.669-.663.669a.666.666 0 0 1-.663-.67c0-.369.297-.668.663-.668.366 0 .663.3.663.669M88.223 58.744c0 .37-.297.669-.663.669a.666.666 0 0 1-.663-.67c0-.369.297-.668.663-.668.366 0 .663.3.663.669M91.138 58.744c0 .37-.297.669-.663.669a.666.666 0 0 1-.663-.67c0-.369.297-.668.663-.668.366 0 .663.3.663.669M94.053 58.744c0 .37-.296.669-.663.669a.666.666 0 0 1-.663-.67c0-.369.297-.668.663-.668.367 0 .663.3.663.669M96.969 58.744c0 .37-.297.669-.663.669a.666.666 0 0 1-.663-.67c0-.369.296-.668.663-.668.366 0 .663.3.663.669M99.884 58.744c0 .37-.297.669-.663.669a.666.666 0 0 1-.663-.67c0-.369.297-.668.663-.668.366 0 .663.3.663.669M102.8 58.744c0 .37-.298.669-.664.669a.666.666 0 0 1-.663-.67c0-.369.297-.668.663-.668.366 0 .663.3.663.669M105.714 58.744c0 .37-.297.669-.663.669a.666.666 0 0 1-.663-.67c0-.369.297-.668.663-.668.366 0 .663.3.663.669M108.63 58.744c0 .37-.297.669-.663.669a.666.666 0 0 1-.663-.67c0-.369.296-.668.663-.668.366 0 .663.3.663.669M111.545 58.744c0 .37-.297.669-.663.669a.666.666 0 0 1-.663-.67c0-.369.297-.668.663-.668.366 0 .663.3.663.669M69.332 61.026c0 .37-.297.669-.663.669a.666.666 0 0 1-.664-.67c0-.369.297-.668.664-.668.366 0 .663.3.663.669M72.247 61.026c0 .37-.297.669-.663.669a.666.666 0 0 1-.663-.67c0-.369.297-.668.663-.668.366 0 .663.3.663.669M75.162 61.026c0 .37-.297.669-.663.669a.666.666 0 0 1-.663-.67c0-.369.297-.668.663-.668.366 0 .663.3.663.669M78.077 61.026c0 .37-.297.669-.663.669a.666.666 0 0 1-.663-.67c0-.369.297-.668.663-.668.366 0 .663.3.663.669M80.993 61.026c0 .37-.297.669-.664.669a.666.666 0 0 1-.663-.67c0-.369.297-.668.663-.668.367 0 .664.3.664.669M83.908 61.026c0 .37-.297.669-.663.669a.666.666 0 0 1-.663-.67c0-.369.297-.668.663-.668.366 0 .663.3.663.669M86.823 61.026c0 .37-.297.669-.663.669a.666.666 0 0 1-.663-.67c0-.369.297-.668.663-.668.366 0 .663.3.663.669M89.738 61.026c0 .37-.297.669-.663.669a.666.666 0 0 1-.663-.67c0-.369.297-.668.663-.668.366 0 .663.3.663.669M92.653 61.026c0 .37-.296.669-.663.669a.666.666 0 0 1-.663-.67c0-.369.297-.668.663-.668.367 0 .663.3.663.669M95.569 61.026c0 .37-.297.669-.663.669a.666.666 0 0 1-.663-.67c0-.369.296-.668.663-.668.366 0 .663.3.663.669M98.484 61.026c0 .37-.297.669-.663.669a.666.666 0 0 1-.663-.67c0-.369.297-.668.663-.668.366 0 .663.3.663.669M101.4 61.026c0 .37-.298.669-.664.669a.666.666 0 0 1-.663-.67c0-.369.297-.668.663-.668.366 0 .663.3.663.669M104.314 61.026c0 .37-.297.669-.663.669a.666.666 0 0 1-.663-.67c0-.369.297-.668.663-.668.366 0 .663.3.663.669M107.23 61.026c0 .37-.297.669-.663.669a.666.666 0 0 1-.663-.67c0-.369.296-.668.663-.668.366 0 .663.3.663.669M110.145 61.026c0 .37-.297.669-.663.669a.666.666 0 0 1-.663-.67c0-.369.297-.668.663-.668.366 0 .663.3.663.669M70.732 63.307c0 .37-.297.67-.663.67a.666.666 0 0 1-.664-.67c0-.369.297-.669.664-.669.366 0 .663.3.663.67M73.647 63.307c0 .37-.297.67-.663.67a.666.666 0 0 1-.663-.67c0-.369.297-.669.663-.669.366 0 .663.3.663.67M76.562 63.307c0 .37-.297.67-.663.67a.666.666 0 0 1-.663-.67c0-.369.297-.669.663-.669.366 0 .663.3.663.67M79.477 63.307c0 .37-.297.67-.663.67a.666.666 0 0 1-.663-.67c0-.369.297-.669.663-.669.366 0 .663.3.663.67M82.393 63.307c0 .37-.297.67-.664.67a.666.666 0 0 1-.663-.67c0-.369.297-.669.663-.669.367 0 .664.3.664.67M85.308 63.307c0 .37-.297.67-.663.67a.666.666 0 0 1-.663-.67c0-.369.297-.669.663-.669.366 0 .663.3.663.67M88.223 63.307c0 .37-.297.67-.663.67a.666.666 0 0 1-.663-.67c0-.369.297-.669.663-.669.366 0 .663.3.663.67M91.138 63.307c0 .37-.297.67-.663.67a.666.666 0 0 1-.663-.67c0-.369.297-.669.663-.669.366 0 .663.3.663.67M94.053 63.307c0 .37-.296.67-.663.67a.666.666 0 0 1-.663-.67c0-.369.297-.669.663-.669.367 0 .663.3.663.67M96.969 63.307c0 .37-.297.67-.663.67a.666.666 0 0 1-.663-.67c0-.369.296-.669.663-.669.366 0 .663.3.663.67M99.884 63.307c0 .37-.297.67-.663.67a.666.666 0 0 1-.663-.67c0-.369.297-.669.663-.669.366 0 .663.3.663.67M102.8 63.307c0 .37-.298.67-.664.67a.666.666 0 0 1-.663-.67c0-.369.297-.669.663-.669.366 0 .663.3.663.67M105.714 63.307c0 .37-.297.67-.663.67a.666.666 0 0 1-.663-.67c0-.369.297-.669.663-.669.366 0 .663.3.663.67M108.63 63.307c0 .37-.297.67-.663.67a.666.666 0 0 1-.663-.67c0-.369.296-.669.663-.669.366 0 .663.3.663.67M111.545 63.307c0 .37-.297.67-.663.67a.666.666 0 0 1-.663-.67c0-.369.297-.669.663-.669.366 0 .663.3.663.67M72.247 65.59c0 .369-.297.668-.663.668a.666.666 0 0 1-.663-.669c0-.37.297-.669.663-.669.366 0 .663.3.663.67M75.162 65.59c0 .369-.297.668-.663.668a.666.666 0 0 1-.663-.669c0-.37.297-.669.663-.669.366 0 .663.3.663.67M78.077 65.59c0 .369-.297.668-.663.668a.666.666 0 0 1-.663-.669c0-.37.297-.669.663-.669.366 0 .663.3.663.67M80.993 65.59c0 .369-.297.668-.664.668a.666.666 0 0 1-.663-.669c0-.37.297-.669.663-.669.367 0 .664.3.664.67M83.908 65.59c0 .369-.297.668-.663.668a.666.666 0 0 1-.663-.669c0-.37.297-.669.663-.669.366 0 .663.3.663.67M86.823 65.59c0 .369-.297.668-.663.668a.666.666 0 0 1-.663-.669c0-.37.297-.669.663-.669.366 0 .663.3.663.67M89.738 65.59c0 .369-.297.668-.663.668a.666.666 0 0 1-.663-.669c0-.37.297-.669.663-.669.366 0 .663.3.663.67M92.653 65.59c0 .369-.296.668-.663.668a.666.666 0 0 1-.663-.669c0-.37.297-.669.663-.669.367 0 .663.3.663.67M95.569 65.59c0 .369-.297.668-.663.668a.666.666 0 0 1-.663-.669c0-.37.296-.669.663-.669.366 0 .663.3.663.67M98.484 65.59c0 .369-.297.668-.663.668a.666.666 0 0 1-.663-.669c0-.37.297-.669.663-.669.366 0 .663.3.663.67M101.4 65.59c0 .369-.298.668-.664.668a.666.666 0 0 1-.663-.669c0-.37.297-.669.663-.669.366 0 .663.3.663.67M104.314 65.59c0 .369-.297.668-.663.668a.666.666 0 0 1-.663-.669c0-.37.297-.669.663-.669.366 0 .663.3.663.67M107.23 65.59c0 .369-.297.668-.663.668a.666.666 0 0 1-.663-.669c0-.37.296-.669.663-.669.366 0 .663.3.663.67M110.145 65.59c0 .369-.297.668-.663.668a.666.666 0 0 1-.663-.669c0-.37.297-.669.663-.669.366 0 .663.3.663.67M76.562 67.871c0 .37-.297.669-.663.669a.666.666 0 0 1-.663-.669c0-.37.297-.669.663-.669.366 0 .663.3.663.669M79.477 67.871c0 .37-.297.669-.663.669a.666.666 0 0 1-.663-.669c0-.37.297-.669.663-.669.366 0 .663.3.663.669M82.393 67.871c0 .37-.297.669-.664.669a.666.666 0 0 1-.663-.669c0-.37.297-.669.663-.669.367 0 .664.3.664.669M85.308 67.871c0 .37-.297.669-.663.669a.666.666 0 0 1-.663-.669c0-.37.297-.669.663-.669.366 0 .663.3.663.669M88.223 67.871c0 .37-.297.669-.663.669a.666.666 0 0 1-.663-.669c0-.37.297-.669.663-.669.366 0 .663.3.663.669M91.138 67.871c0 .37-.297.669-.663.669a.666.666 0 0 1-.663-.669c0-.37.297-.669.663-.669.366 0 .663.3.663.669M94.053 67.871c0 .37-.296.669-.663.669a.666.666 0 0 1-.663-.669c0-.37.297-.669.663-.669.367 0 .663.3.663.669M96.969 67.871c0 .37-.297.669-.663.669a.666.666 0 0 1-.663-.669c0-.37.296-.669.663-.669.366 0 .663.3.663.669M99.884 67.871c0 .37-.297.669-.663.669a.666.666 0 0 1-.663-.669c0-.37.297-.669.663-.669.366 0 .663.3.663.669M102.8 67.871c0 .37-.298.669-.664.669a.666.666 0 0 1-.663-.669c0-.37.297-.669.663-.669.366 0 .663.3.663.669M105.714 67.871c0 .37-.297.669-.663.669a.666.666 0 0 1-.663-.669c0-.37.297-.669.663-.669.366 0 .663.3.663.669M108.63 67.871c0 .37-.297.669-.663.669a.666.666 0 0 1-.663-.669c0-.37.296-.669.663-.669.366 0 .663.3.663.669M111.545 67.871c0 .37-.297.669-.663.669a.666.666 0 0 1-.663-.669c0-.37.297-.669.663-.669.366 0 .663.3.663.669M78.077 70.153c0 .37-.297.669-.663.669a.666.666 0 0 1-.663-.67c0-.369.297-.668.663-.668.366 0 .663.3.663.669M80.993 70.153c0 .37-.297.669-.664.669a.666.666 0 0 1-.663-.67c0-.369.297-.668.663-.668.367 0 .664.3.664.669M83.908 70.153c0 .37-.297.669-.663.669a.666.666 0 0 1-.663-.67c0-.369.297-.668.663-.668.366 0 .663.3.663.669M86.823 70.153c0 .37-.297.669-.663.669a.666.666 0 0 1-.663-.67c0-.369.297-.668.663-.668.366 0 .663.3.663.669M89.738 70.153c0 .37-.297.669-.663.669a.666.666 0 0 1-.663-.67c0-.369.297-.668.663-.668.366 0 .663.3.663.669M92.653 70.153c0 .37-.296.669-.663.669a.666.666 0 0 1-.663-.67c0-.369.297-.668.663-.668.367 0 .663.3.663.669M95.569 70.153c0 .37-.297.669-.663.669a.666.666 0 0 1-.663-.67c0-.369.296-.668.663-.668.366 0 .663.3.663.669M98.484 70.153c0 .37-.297.669-.663.669a.666.666 0 0 1-.663-.67c0-.369.297-.668.663-.668.366 0 .663.3.663.669M101.4 70.153c0 .37-.298.669-.664.669a.666.666 0 0 1-.663-.67c0-.369.297-.668.663-.668.366 0 .663.3.663.669M104.314 70.153c0 .37-.297.669-.663.669a.666.666 0 0 1-.663-.67c0-.369.297-.668.663-.668.366 0 .663.3.663.669M107.23 70.153c0 .37-.297.669-.663.669a.666.666 0 0 1-.663-.67c0-.369.296-.668.663-.668.366 0 .663.3.663.669M110.145 70.153c0 .37-.297.669-.663.669a.666.666 0 0 1-.663-.67c0-.369.297-.668.663-.668.366 0 .663.3.663.669M79.477 72.435c0 .37-.297.669-.663.669a.666.666 0 0 1-.663-.67c0-.369.297-.668.663-.668.366 0 .663.3.663.669M82.393 72.435c0 .37-.297.669-.664.669a.666.666 0 0 1-.663-.67c0-.369.297-.668.663-.668.367 0 .664.3.664.669M85.308 72.435c0 .37-.297.669-.663.669a.666.666 0 0 1-.663-.67c0-.369.297-.668.663-.668.366 0 .663.3.663.669M88.223 72.435c0 .37-.297.669-.663.669a.666.666 0 0 1-.663-.67c0-.369.297-.668.663-.668.366 0 .663.3.663.669M91.138 72.435c0 .37-.297.669-.663.669a.666.666 0 0 1-.663-.67c0-.369.297-.668.663-.668.366 0 .663.3.663.669M94.053 72.435c0 .37-.296.669-.663.669a.666.666 0 0 1-.663-.67c0-.369.297-.668.663-.668.367 0 .663.3.663.669M96.969 72.435c0 .37-.297.669-.663.669a.666.666 0 0 1-.663-.67c0-.369.296-.668.663-.668.366 0 .663.3.663.669M99.884 72.435c0 .37-.297.669-.663.669a.666.666 0 0 1-.663-.67c0-.369.297-.668.663-.668.366 0 .663.3.663.669M102.8 72.435c0 .37-.298.669-.664.669a.666.666 0 0 1-.663-.67c0-.369.297-.668.663-.668.366 0 .663.3.663.669M105.714 72.435c0 .37-.297.669-.663.669a.666.666 0 0 1-.663-.67c0-.369.297-.668.663-.668.366 0 .663.3.663.669M108.63 72.435c0 .37-.297.669-.663.669a.666.666 0 0 1-.663-.67c0-.369.296-.668.663-.668.366 0 .663.3.663.669M111.545 72.435c0 .37-.297.669-.663.669a.666.666 0 0 1-.663-.67c0-.369.297-.668.663-.668.366 0 .663.3.663.669M83.908 74.717c0 .369-.297.668-.663.668a.666.666 0 0 1-.663-.668c0-.37.297-.67.663-.67.366 0 .663.3.663.67M86.823 74.717c0 .369-.297.668-.663.668a.666.666 0 0 1-.663-.668c0-.37.297-.67.663-.67.366 0 .663.3.663.67M89.738 74.717c0 .369-.297.668-.663.668a.666.666 0 0 1-.663-.668c0-.37.297-.67.663-.67.366 0 .663.3.663.67M92.653 74.717c0 .369-.296.668-.663.668a.666.666 0 0 1-.663-.668c0-.37.297-.67.663-.67.367 0 .663.3.663.67M95.569 74.717c0 .369-.297.668-.663.668a.666.666 0 0 1-.663-.668c0-.37.296-.67.663-.67.366 0 .663.3.663.67M98.484 74.717c0 .369-.297.668-.663.668a.666.666 0 0 1-.663-.668c0-.37.297-.67.663-.67.366 0 .663.3.663.67M101.4 74.717c0 .369-.298.668-.664.668a.666.666 0 0 1-.663-.668c0-.37.297-.67.663-.67.366 0 .663.3.663.67M104.314 74.717c0 .369-.297.668-.663.668a.666.666 0 0 1-.663-.668c0-.37.297-.67.663-.67.366 0 .663.3.663.67M107.23 74.717c0 .369-.297.668-.663.668a.666.666 0 0 1-.663-.668c0-.37.296-.67.663-.67.366 0 .663.3.663.67M110.145 74.717c0 .369-.297.668-.663.668a.666.666 0 0 1-.663-.668c0-.37.297-.67.663-.67.366 0 .663.3.663.67M85.308 76.998c0 .37-.297.67-.663.67a.666.666 0 0 1-.663-.67c0-.37.297-.669.663-.669.366 0 .663.3.663.67M88.223 76.998c0 .37-.297.67-.663.67a.666.666 0 0 1-.663-.67c0-.37.297-.669.663-.669.366 0 .663.3.663.67M91.138 76.998c0 .37-.297.67-.663.67a.666.666 0 0 1-.663-.67c0-.37.297-.669.663-.669.366 0 .663.3.663.67M94.053 76.998c0 .37-.296.67-.663.67a.666.666 0 0 1-.663-.67c0-.37.297-.669.663-.669.367 0 .663.3.663.67M96.969 76.998c0 .37-.297.67-.663.67a.666.666 0 0 1-.663-.67c0-.37.296-.669.663-.669.366 0 .663.3.663.67M99.884 76.998c0 .37-.297.67-.663.67a.666.666 0 0 1-.663-.67c0-.37.297-.669.663-.669.366 0 .663.3.663.67M102.8 76.998c0 .37-.298.67-.664.67a.666.666 0 0 1-.663-.67c0-.37.297-.669.663-.669.366 0 .663.3.663.67M105.714 76.998c0 .37-.297.67-.663.67a.666.666 0 0 1-.663-.67c0-.37.297-.669.663-.669.366 0 .663.3.663.67M108.63 76.998c0 .37-.297.67-.663.67a.666.666 0 0 1-.663-.67c0-.37.296-.669.663-.669.366 0 .663.3.663.67M111.545 76.998c0 .37-.297.67-.663.67a.666.666 0 0 1-.663-.67c0-.37.297-.669.663-.669.366 0 .663.3.663.67M89.738 79.28c0 .37-.297.67-.663.67a.666.666 0 0 1-.663-.67c0-.37.297-.669.663-.669.366 0 .663.3.663.67M92.653 79.28c0 .37-.296.67-.663.67a.666.666 0 0 1-.663-.67c0-.37.297-.669.663-.669.367 0 .663.3.663.67M95.569 79.28c0 .37-.297.67-.663.67a.666.666 0 0 1-.663-.67c0-.37.296-.669.663-.669.366 0 .663.3.663.67M98.484 79.28c0 .37-.297.67-.663.67a.666.666 0 0 1-.663-.67c0-.37.297-.669.663-.669.366 0 .663.3.663.67M101.4 79.28c0 .37-.298.67-.664.67a.666.666 0 0 1-.663-.67c0-.37.297-.669.663-.669.366 0 .663.3.663.67M104.314 79.28c0 .37-.297.67-.663.67a.666.666 0 0 1-.663-.67c0-.37.297-.669.663-.669.366 0 .663.3.663.67M107.23 79.28c0 .37-.297.67-.663.67a.666.666 0 0 1-.663-.67c0-.37.296-.669.663-.669.366 0 .663.3.663.67M110.145 79.28c0 .37-.297.67-.663.67a.666.666 0 0 1-.663-.67c0-.37.297-.669.663-.669.366 0 .663.3.663.67M91.138 81.562c0 .37-.297.669-.663.669a.666.666 0 0 1-.663-.67c0-.369.297-.668.663-.668.366 0 .663.3.663.669M94.053 81.562c0 .37-.296.669-.663.669a.666.666 0 0 1-.663-.67c0-.369.297-.668.663-.668.367 0 .663.3.663.669M96.969 81.562c0 .37-.297.669-.663.669a.666.666 0 0 1-.663-.67c0-.369.296-.668.663-.668.366 0 .663.3.663.669M99.884 81.562c0 .37-.297.669-.663.669a.666.666 0 0 1-.663-.67c0-.369.297-.668.663-.668.366 0 .663.3.663.669M102.8 81.562c0 .37-.298.669-.664.669a.666.666 0 0 1-.663-.67c0-.369.297-.668.663-.668.366 0 .663.3.663.669M105.714 81.562c0 .37-.297.669-.663.669a.666.666 0 0 1-.663-.67c0-.369.297-.668.663-.668.366 0 .663.3.663.669M108.63 81.562c0 .37-.297.669-.663.669a.666.666 0 0 1-.663-.67c0-.369.296-.668.663-.668.366 0 .663.3.663.669M111.545 81.562c0 .37-.297.669-.663.669a.666.666 0 0 1-.663-.67c0-.369.297-.668.663-.668.366 0 .663.3.663.669M92.653 83.844c0 .37-.296.669-.663.669a.666.666 0 0 1-.663-.67c0-.369.297-.668.663-.668.367 0 .663.3.663.669M95.569 83.844c0 .37-.297.669-.663.669a.666.666 0 0 1-.663-.67c0-.369.296-.668.663-.668.366 0 .663.3.663.669M98.484 83.844c0 .37-.297.669-.663.669a.666.666 0 0 1-.663-.67c0-.369.297-.668.663-.668.366 0 .663.3.663.669M101.4 83.844c0 .37-.298.669-.664.669a.666.666 0 0 1-.663-.67c0-.369.297-.668.663-.668.366 0 .663.3.663.669M104.314 83.844c0 .37-.297.669-.663.669a.666.666 0 0 1-.663-.67c0-.369.297-.668.663-.668.366 0 .663.3.663.669M107.23 83.844c0 .37-.297.669-.663.669a.666.666 0 0 1-.663-.67c0-.369.296-.668.663-.668.366 0 .663.3.663.669M110.145 83.844c0 .37-.297.669-.663.669a.666.666 0 0 1-.663-.67c0-.369.297-.668.663-.668.366 0 .663.3.663.669M96.969 86.125c0 .37-.297.67-.663.67a.666.666 0 0 1-.663-.67c0-.369.296-.668.663-.668.366 0 .663.299.663.668M99.884 86.125c0 .37-.297.67-.663.67a.666.666 0 0 1-.663-.67c0-.369.297-.668.663-.668.366 0 .663.299.663.668M102.8 86.125c0 .37-.298.67-.664.67a.666.666 0 0 1-.663-.67c0-.369.297-.668.663-.668.366 0 .663.299.663.668M105.714 86.125c0 .37-.297.67-.663.67a.666.666 0 0 1-.663-.67c0-.369.297-.668.663-.668.366 0 .663.299.663.668M108.63 86.125c0 .37-.297.67-.663.67a.666.666 0 0 1-.663-.67c0-.369.296-.668.663-.668.366 0 .663.299.663.668M111.545 86.125c0 .37-.297.67-.663.67a.666.666 0 0 1-.663-.67c0-.369.297-.668.663-.668.366 0 .663.299.663.668M98.484 88.407c0 .37-.297.67-.663.67a.666.666 0 0 1-.663-.67c0-.37.297-.669.663-.669.366 0 .663.3.663.67M101.4 88.407c0 .37-.298.67-.664.67a.666.666 0 0 1-.663-.67c0-.37.297-.669.663-.669.366 0 .663.3.663.67M104.314 88.407c0 .37-.297.67-.663.67a.666.666 0 0 1-.663-.67c0-.37.297-.669.663-.669.366 0 .663.3.663.67M107.23 88.407c0 .37-.297.67-.663.67a.666.666 0 0 1-.663-.67c0-.37.296-.669.663-.669.366 0 .663.3.663.67M110.145 88.407c0 .37-.297.67-.663.67a.666.666 0 0 1-.663-.67c0-.37.297-.669.663-.669.366 0 .663.3.663.67M99.884 90.69c0 .369-.297.668-.663.668a.666.666 0 0 1-.663-.669c0-.37.297-.669.663-.669.366 0 .663.3.663.67M102.8 90.69c0 .369-.298.668-.664.668a.666.666 0 0 1-.663-.669c0-.37.297-.669.663-.669.366 0 .663.3.663.67M105.714 90.69c0 .369-.297.668-.663.668a.666.666 0 0 1-.663-.669c0-.37.297-.669.663-.669.366 0 .663.3.663.67M108.63 90.69c0 .369-.297.668-.663.668a.666.666 0 0 1-.663-.669c0-.37.296-.669.663-.669.366 0 .663.3.663.67M111.545 90.69c0 .369-.297.668-.663.668a.666.666 0 0 1-.663-.669c0-.37.297-.669.663-.669.366 0 .663.3.663.67M104.314 92.97c0 .37-.297.67-.663.67a.666.666 0 0 1-.663-.67c0-.369.297-.668.663-.668.366 0 .663.3.663.669M107.23 92.97c0 .37-.297.67-.663.67a.666.666 0 0 1-.663-.67c0-.369.296-.668.663-.668.366 0 .663.3.663.669M110.145 92.97c0 .37-.297.67-.663.67a.666.666 0 0 1-.663-.67c0-.369.297-.668.663-.668.366 0 .663.3.663.669M105.714 95.253c0 .37-.297.669-.663.669a.666.666 0 0 1-.663-.67c0-.369.297-.668.663-.668.366 0 .663.3.663.669M108.63 95.253c0 .37-.297.669-.663.669a.666.666 0 0 1-.663-.67c0-.369.296-.668.663-.668.366 0 .663.3.663.669M111.545 95.253c0 .37-.297.669-.663.669a.666.666 0 0 1-.663-.67c0-.369.297-.668.663-.668.366 0 .663.3.663.669M107.23 97.534c0 .37-.297.67-.663.67a.666.666 0 0 1-.663-.67c0-.369.296-.668.663-.668.366 0 .663.299.663.668M110.145 97.534c0 .37-.297.67-.663.67a.666.666 0 0 1-.663-.67c0-.369.297-.668.663-.668.366 0 .663.299.663.668"/></g></g></g></g></g></g></svg>