<svg width="76" height="65" viewBox="0 0 76 65" xmlns="http://www.w3.org/2000/svg" xmlns:xlink="http://www.w3.org/1999/xlink"><defs><path id="a" d="M9.766 0h50.938l9.766 14.917H0z"/><path id="c" d="M.25.962h110v105H.25z"/></defs><g fill="none" fill-rule="evenodd"><g fill="#000"><path d="M46.912.314c-.458.02-.801.53-.793.992v5.738H11.998a.99.99 0 0 0-.794.434L.125 24.41c-.363.588.112 1.496.794 1.52H11.02v37.525c0 .52.465.992.977.992h51.975c.511 0 .976-.473.977-.992V25.93h10.102c.692-.003 1.191-.923.824-1.52L64.796 7.478a.99.99 0 0 0-.823-.434h-8.637V1.306c0-.52-.465-.992-.977-.992h-7.447zm1.16 1.985h5.31v4.745h-5.31V2.299zm-35.556 6.73h50.938l9.766 14.916H2.75l9.766-14.917zm.458 16.901h50.022v36.532H33.362V38.056c0-.52-.466-.993-.977-.993H18.437c-.511 0-.976.473-.976.993v24.406h-4.487V25.93z"/><path d="M39.374 37.063a.987.987 0 0 0-.855.993v14.483c0 .548.438.992.977.992h17.335c.54 0 .977-.444.977-.992V38.056a.985.985 0 0 0-.977-.993H39.496a.961.961 0 0 0-.122 0zm1.099 1.985h6.684v12.498h-6.684V39.048zm8.637 0h6.745v12.498H49.11V39.048z"/></g><g transform="translate(2.75 9.028)"><mask id="b" fill="#fff"><use xlink:href="#a"/></mask><use fill="#FFF" xlink:href="#a"/><g mask="url(#b)"><g transform="translate(.25 5.972)"><mask id="d" fill="#fff"><use xlink:href="#c"/></mask><use fill="#D8D8D8" xlink:href="#c"/><g mask="url(#d)"><path fill="#FFF" d="M.25 112.962h112v-113H.25z"/><g fill="#333"><path d="M2.281 1.699c0 .37-.297.669-.663.669a.666.666 0 0 1-.663-.67c0-.369.297-.668.663-.668.366 0 .663.3.663.669M5.196 1.699c0 .37-.296.669-.663.669a.666.666 0 0 1-.663-.67c0-.369.297-.668.663-.668.367 0 .663.3.663.669M8.112 1.699c0 .37-.297.669-.663.669a.666.666 0 0 1-.663-.67c0-.369.296-.668.663-.668.366 0 .663.3.663.669M11.027 1.699c0 .37-.297.669-.663.669a.666.666 0 0 1-.663-.67c0-.369.297-.668.663-.668.366 0 .663.3.663.669M13.942 1.699c0 .37-.297.669-.663.669a.666.666 0 0 1-.663-.67c0-.369.297-.668.663-.668.366 0 .663.3.663.669M16.857 1.699c0 .37-.296.669-.663.669a.666.666 0 0 1-.663-.67c0-.369.297-.668.663-.668.367 0 .663.3.663.669M19.773 1.699c0 .37-.297.669-.663.669a.666.666 0 0 1-.663-.67c0-.369.296-.668.663-.668.366 0 .663.3.663.669M22.688 1.699c0 .37-.297.669-.663.669a.666.666 0 0 1-.663-.67c0-.369.297-.668.663-.668.366 0 .663.3.663.669M25.603 1.699c0 .37-.297.669-.663.669a.666.666 0 0 1-.663-.67c0-.369.297-.668.663-.668.366 0 .663.3.663.669M28.518 1.699c0 .37-.296.669-.663.669a.666.666 0 0 1-.663-.67c0-.369.297-.668.663-.668.367 0 .663.3.663.669M31.434 1.699c0 .37-.297.669-.663.669a.666.666 0 0 1-.663-.67c0-.369.296-.668.663-.668.366 0 .663.3.663.669M34.349 1.699c0 .37-.297.669-.663.669a.666.666 0 0 1-.663-.67c0-.369.297-.668.663-.668.366 0 .663.3.663.669M37.264 1.699c0 .37-.297.669-.663.669a.666.666 0 0 1-.663-.67c0-.369.297-.668.663-.668.366 0 .663.3.663.669M40.18 1.699c0 .37-.298.669-.664.669a.666.666 0 0 1-.663-.67c0-.369.297-.668.663-.668.366 0 .663.3.663.669M43.095 1.699c0 .37-.297.669-.664.669a.666.666 0 0 1-.663-.67c0-.369.297-.668.663-.668.367 0 .664.3.664.669M46.01 1.699c0 .37-.297.669-.663.669a.666.666 0 0 1-.663-.67c0-.369.296-.668.663-.668.366 0 .663.3.663.669M48.925 1.699c0 .37-.297.669-.663.669a.666.666 0 0 1-.663-.67c0-.369.297-.668.663-.668.366 0 .663.3.663.669M51.84 1.699c0 .37-.297.669-.663.669a.666.666 0 0 1-.663-.67c0-.369.297-.668.663-.668.366 0 .663.3.663.669M54.755 1.699c0 .37-.296.669-.663.669a.666.666 0 0 1-.663-.67c0-.369.297-.668.663-.668.367 0 .663.3.663.669M57.67 1.699c0 .37-.296.669-.662.669a.666.666 0 0 1-.663-.67c0-.369.296-.668.663-.668.366 0 .663.3.663.669M60.586 1.699c0 .37-.297.669-.663.669a.666.666 0 0 1-.663-.67c0-.369.297-.668.663-.668.366 0 .663.3.663.669M63.501 1.699c0 .37-.297.669-.663.669a.666.666 0 0 1-.663-.67c0-.369.297-.668.663-.668.366 0 .663.3.663.669M66.416 1.699c0 .37-.296.669-.663.669a.666.666 0 0 1-.663-.67c0-.369.297-.668.663-.668.367 0 .663.3.663.669M69.332 1.699c0 .37-.297.669-.663.669a.666.666 0 0 1-.664-.67c0-.369.297-.668.664-.668.366 0 .663.3.663.669M72.247 1.699c0 .37-.297.669-.663.669a.666.666 0 0 1-.663-.67c0-.369.297-.668.663-.668.366 0 .663.3.663.669M3.681 3.98c0 .37-.297.67-.663.67a.666.666 0 0 1-.663-.67c0-.369.297-.668.663-.668.366 0 .663.3.663.669M6.596 3.98c0 .37-.296.67-.663.67a.666.666 0 0 1-.663-.67c0-.369.297-.668.663-.668.367 0 .663.3.663.669M9.512 3.98c0 .37-.297.67-.663.67a.666.666 0 0 1-.663-.67c0-.369.296-.668.663-.668.366 0 .663.3.663.669M12.427 3.98c0 .37-.297.67-.663.67a.666.666 0 0 1-.663-.67c0-.369.297-.668.663-.668.366 0 .663.3.663.669M15.342 3.98c0 .37-.297.67-.663.67a.666.666 0 0 1-.663-.67c0-.369.297-.668.663-.668.366 0 .663.3.663.669M18.257 3.98c0 .37-.296.67-.663.67a.666.666 0 0 1-.663-.67c0-.369.297-.668.663-.668.367 0 .663.3.663.669M21.173 3.98c0 .37-.297.67-.663.67a.666.666 0 0 1-.663-.67c0-.369.296-.668.663-.668.366 0 .663.3.663.669M24.088 3.98c0 .37-.297.67-.663.67a.666.666 0 0 1-.663-.67c0-.369.297-.668.663-.668.366 0 .663.3.663.669M27.003 3.98c0 .37-.297.67-.663.67a.666.666 0 0 1-.663-.67c0-.369.297-.668.663-.668.366 0 .663.3.663.669M29.918 3.98c0 .37-.296.67-.663.67a.666.666 0 0 1-.663-.67c0-.369.297-.668.663-.668.367 0 .663.3.663.669M32.834 3.98c0 .37-.297.67-.663.67a.666.666 0 0 1-.663-.67c0-.369.296-.668.663-.668.366 0 .663.3.663.669M35.749 3.98c0 .37-.297.67-.663.67a.666.666 0 0 1-.663-.67c0-.369.297-.668.663-.668.366 0 .663.3.663.669M38.664 3.98c0 .37-.297.67-.663.67a.666.666 0 0 1-.663-.67c0-.369.297-.668.663-.668.366 0 .663.3.663.669M41.58 3.98c0 .37-.298.67-.664.67a.666.666 0 0 1-.663-.67c0-.369.297-.668.663-.668.366 0 .663.3.663.669M44.495 3.98c0 .37-.297.67-.664.67a.666.666 0 0 1-.663-.67c0-.369.297-.668.663-.668.367 0 .664.3.664.669M47.41 3.98c0 .37-.297.67-.663.67a.666.666 0 0 1-.663-.67c0-.369.296-.668.663-.668.366 0 .663.3.663.669M50.325 3.98c0 .37-.297.67-.663.67a.666.666 0 0 1-.663-.67c0-.369.297-.668.663-.668.366 0 .663.3.663.669M53.24 3.98c0 .37-.297.67-.663.67a.666.666 0 0 1-.663-.67c0-.369.297-.668.663-.668.366 0 .663.3.663.669M56.155 3.98c0 .37-.296.67-.663.67a.666.666 0 0 1-.663-.67c0-.369.297-.668.663-.668.367 0 .663.3.663.669M59.07 3.98c0 .37-.296.67-.662.67a.666.666 0 0 1-.663-.67c0-.369.296-.668.663-.668.366 0 .663.3.663.669M61.986 3.98c0 .37-.297.67-.663.67a.666.666 0 0 1-.663-.67c0-.369.297-.668.663-.668.366 0 .663.3.663.669M64.901 3.98c0 .37-.297.67-.663.67a.666.666 0 0 1-.663-.67c0-.369.297-.668.663-.668.366 0 .663.3.663.669M67.816 3.98c0 .37-.296.67-.663.67a.666.666 0 0 1-.663-.67c0-.369.297-.668.663-.668.367 0 .663.3.663.669M70.732 3.98c0 .37-.297.67-.663.67a.666.666 0 0 1-.664-.67c0-.369.297-.668.664-.668.366 0 .663.3.663.669M73.647 3.98c0 .37-.297.67-.663.67a.666.666 0 0 1-.663-.67c0-.369.297-.668.663-.668.366 0 .663.3.663.669M2.281 6.262c0 .37-.297.67-.663.67a.666.666 0 0 1-.663-.67c0-.369.297-.669.663-.669.366 0 .663.3.663.67M5.196 6.262c0 .37-.296.67-.663.67a.666.666 0 0 1-.663-.67c0-.369.297-.669.663-.669.367 0 .663.3.663.67M8.112 6.262c0 .37-.297.67-.663.67a.666.666 0 0 1-.663-.67c0-.369.296-.669.663-.669.366 0 .663.3.663.67M11.027 6.262c0 .37-.297.67-.663.67a.666.666 0 0 1-.663-.67c0-.369.297-.669.663-.669.366 0 .663.3.663.67M13.942 6.262c0 .37-.297.67-.663.67a.666.666 0 0 1-.663-.67c0-.369.297-.669.663-.669.366 0 .663.3.663.67M16.857 6.262c0 .37-.296.67-.663.67a.666.666 0 0 1-.663-.67c0-.369.297-.669.663-.669.367 0 .663.3.663.67M19.773 6.262c0 .37-.297.67-.663.67a.666.666 0 0 1-.663-.67c0-.369.296-.669.663-.669.366 0 .663.3.663.67M22.688 6.262c0 .37-.297.67-.663.67a.666.666 0 0 1-.663-.67c0-.369.297-.669.663-.669.366 0 .663.3.663.67M25.603 6.262c0 .37-.297.67-.663.67a.666.666 0 0 1-.663-.67c0-.369.297-.669.663-.669.366 0 .663.3.663.67M28.518 6.262c0 .37-.296.67-.663.67a.666.666 0 0 1-.663-.67c0-.369.297-.669.663-.669.367 0 .663.3.663.67M31.434 6.262c0 .37-.297.67-.663.67a.666.666 0 0 1-.663-.67c0-.369.296-.669.663-.669.366 0 .663.3.663.67M34.349 6.262c0 .37-.297.67-.663.67a.666.666 0 0 1-.663-.67c0-.369.297-.669.663-.669.366 0 .663.3.663.67M37.264 6.262c0 .37-.297.67-.663.67a.666.666 0 0 1-.663-.67c0-.369.297-.669.663-.669.366 0 .663.3.663.67M40.18 6.262c0 .37-.298.67-.664.67a.666.666 0 0 1-.663-.67c0-.369.297-.669.663-.669.366 0 .663.3.663.67M43.095 6.262c0 .37-.297.67-.664.67a.666.666 0 0 1-.663-.67c0-.369.297-.669.663-.669.367 0 .664.3.664.67M46.01 6.262c0 .37-.297.67-.663.67a.666.666 0 0 1-.663-.67c0-.369.296-.669.663-.669.366 0 .663.3.663.67M48.925 6.262c0 .37-.297.67-.663.67a.666.666 0 0 1-.663-.67c0-.369.297-.669.663-.669.366 0 .663.3.663.67M51.84 6.262c0 .37-.297.67-.663.67a.666.666 0 0 1-.663-.67c0-.369.297-.669.663-.669.366 0 .663.3.663.67M54.755 6.262c0 .37-.296.67-.663.67a.666.666 0 0 1-.663-.67c0-.369.297-.669.663-.669.367 0 .663.3.663.67M57.67 6.262c0 .37-.296.67-.662.67a.666.666 0 0 1-.663-.67c0-.369.296-.669.663-.669.366 0 .663.3.663.67M60.586 6.262c0 .37-.297.67-.663.67a.666.666 0 0 1-.663-.67c0-.369.297-.669.663-.669.366 0 .663.3.663.67M63.501 6.262c0 .37-.297.67-.663.67a.666.666 0 0 1-.663-.67c0-.369.297-.669.663-.669.366 0 .663.3.663.67M66.416 6.262c0 .37-.296.67-.663.67a.666.666 0 0 1-.663-.67c0-.369.297-.669.663-.669.367 0 .663.3.663.67M69.332 6.262c0 .37-.297.67-.663.67a.666.666 0 0 1-.664-.67c0-.369.297-.669.664-.669.366 0 .663.3.663.67M72.247 6.262c0 .37-.297.67-.663.67a.666.666 0 0 1-.663-.67c0-.369.297-.669.663-.669.366 0 .663.3.663.67M3.681 8.544c0 .37-.297.67-.663.67a.666.666 0 0 1-.663-.67c0-.37.297-.669.663-.669.366 0 .663.3.663.67M6.596 8.544c0 .37-.296.67-.663.67a.666.666 0 0 1-.663-.67c0-.37.297-.669.663-.669.367 0 .663.3.663.67M9.512 8.544c0 .37-.297.67-.663.67a.666.666 0 0 1-.663-.67c0-.37.296-.669.663-.669.366 0 .663.3.663.67M12.427 8.544c0 .37-.297.67-.663.67a.666.666 0 0 1-.663-.67c0-.37.297-.669.663-.669.366 0 .663.3.663.67M15.342 8.544c0 .37-.297.67-.663.67a.666.666 0 0 1-.663-.67c0-.37.297-.669.663-.669.366 0 .663.3.663.67M18.257 8.544c0 .37-.296.67-.663.67a.666.666 0 0 1-.663-.67c0-.37.297-.669.663-.669.367 0 .663.3.663.67M21.173 8.544c0 .37-.297.67-.663.67a.666.666 0 0 1-.663-.67c0-.37.296-.669.663-.669.366 0 .663.3.663.67M24.088 8.544c0 .37-.297.67-.663.67a.666.666 0 0 1-.663-.67c0-.37.297-.669.663-.669.366 0 .663.3.663.67M27.003 8.544c0 .37-.297.67-.663.67a.666.666 0 0 1-.663-.67c0-.37.297-.669.663-.669.366 0 .663.3.663.67M29.918 8.544c0 .37-.296.67-.663.67a.666.666 0 0 1-.663-.67c0-.37.297-.669.663-.669.367 0 .663.3.663.67M32.834 8.544c0 .37-.297.67-.663.67a.666.666 0 0 1-.663-.67c0-.37.296-.669.663-.669.366 0 .663.3.663.67M35.749 8.544c0 .37-.297.67-.663.67a.666.666 0 0 1-.663-.67c0-.37.297-.669.663-.669.366 0 .663.3.663.67M38.664 8.544c0 .37-.297.67-.663.67a.666.666 0 0 1-.663-.67c0-.37.297-.669.663-.669.366 0 .663.3.663.67M41.58 8.544c0 .37-.298.67-.664.67a.666.666 0 0 1-.663-.67c0-.37.297-.669.663-.669.366 0 .663.3.663.67M44.495 8.544c0 .37-.297.67-.664.67a.666.666 0 0 1-.663-.67c0-.37.297-.669.663-.669.367 0 .664.3.664.67M47.41 8.544c0 .37-.297.67-.663.67a.666.666 0 0 1-.663-.67c0-.37.296-.669.663-.669.366 0 .663.3.663.67M50.325 8.544c0 .37-.297.67-.663.67a.666.666 0 0 1-.663-.67c0-.37.297-.669.663-.669.366 0 .663.3.663.67M53.24 8.544c0 .37-.297.67-.663.67a.666.666 0 0 1-.663-.67c0-.37.297-.669.663-.669.366 0 .663.3.663.67M56.155 8.544c0 .37-.296.67-.663.67a.666.666 0 0 1-.663-.67c0-.37.297-.669.663-.669.367 0 .663.3.663.67M59.07 8.544c0 .37-.296.67-.662.67a.666.666 0 0 1-.663-.67c0-.37.296-.669.663-.669.366 0 .663.3.663.67M61.986 8.544c0 .37-.297.67-.663.67a.666.666 0 0 1-.663-.67c0-.37.297-.669.663-.669.366 0 .663.3.663.67M64.901 8.544c0 .37-.297.67-.663.67a.666.666 0 0 1-.663-.67c0-.37.297-.669.663-.669.366 0 .663.3.663.67M67.816 8.544c0 .37-.296.67-.663.67a.666.666 0 0 1-.663-.67c0-.37.297-.669.663-.669.367 0 .663.3.663.67M70.732 8.544c0 .37-.297.67-.663.67a.666.666 0 0 1-.664-.67c0-.37.297-.669.664-.669.366 0 .663.3.663.67M73.647 8.544c0 .37-.297.67-.663.67a.666.666 0 0 1-.663-.67c0-.37.297-.669.663-.669.366 0 .663.3.663.67M2.281 10.826c0 .37-.297.669-.663.669a.666.666 0 0 1-.663-.669c0-.37.297-.669.663-.669.366 0 .663.3.663.67M5.196 10.826c0 .37-.296.669-.663.669a.666.666 0 0 1-.663-.669c0-.37.297-.669.663-.669.367 0 .663.3.663.67M8.112 10.826c0 .37-.297.669-.663.669a.666.666 0 0 1-.663-.669c0-.37.296-.669.663-.669.366 0 .663.3.663.67M11.027 10.826c0 .37-.297.669-.663.669a.666.666 0 0 1-.663-.669c0-.37.297-.669.663-.669.366 0 .663.3.663.67M13.942 10.826c0 .37-.297.669-.663.669a.666.666 0 0 1-.663-.669c0-.37.297-.669.663-.669.366 0 .663.3.663.67M16.857 10.826c0 .37-.296.669-.663.669a.666.666 0 0 1-.663-.669c0-.37.297-.669.663-.669.367 0 .663.3.663.67M19.773 10.826c0 .37-.297.669-.663.669a.666.666 0 0 1-.663-.669c0-.37.296-.669.663-.669.366 0 .663.3.663.67M22.688 10.826c0 .37-.297.669-.663.669a.666.666 0 0 1-.663-.669c0-.37.297-.669.663-.669.366 0 .663.3.663.67M25.603 10.826c0 .37-.297.669-.663.669a.666.666 0 0 1-.663-.669c0-.37.297-.669.663-.669.366 0 .663.3.663.67M28.518 10.826c0 .37-.296.669-.663.669a.666.666 0 0 1-.663-.669c0-.37.297-.669.663-.669.367 0 .663.3.663.67M31.434 10.826c0 .37-.297.669-.663.669a.666.666 0 0 1-.663-.669c0-.37.296-.669.663-.669.366 0 .663.3.663.67M34.349 10.826c0 .37-.297.669-.663.669a.666.666 0 0 1-.663-.669c0-.37.297-.669.663-.669.366 0 .663.3.663.67M37.264 10.826c0 .37-.297.669-.663.669a.666.666 0 0 1-.663-.669c0-.37.297-.669.663-.669.366 0 .663.3.663.67M40.18 10.826c0 .37-.298.669-.664.669a.666.666 0 0 1-.663-.669c0-.37.297-.669.663-.669.366 0 .663.3.663.67M43.095 10.826c0 .37-.297.669-.664.669a.666.666 0 0 1-.663-.669c0-.37.297-.669.663-.669.367 0 .664.3.664.67M46.01 10.826c0 .37-.297.669-.663.669a.666.666 0 0 1-.663-.669c0-.37.296-.669.663-.669.366 0 .663.3.663.67M48.925 10.826c0 .37-.297.669-.663.669a.666.666 0 0 1-.663-.669c0-.37.297-.669.663-.669.366 0 .663.3.663.67M51.84 10.826c0 .37-.297.669-.663.669a.666.666 0 0 1-.663-.669c0-.37.297-.669.663-.669.366 0 .663.3.663.67M54.755 10.826c0 .37-.296.669-.663.669a.666.666 0 0 1-.663-.669c0-.37.297-.669.663-.669.367 0 .663.3.663.67M57.67 10.826c0 .37-.296.669-.662.669a.666.666 0 0 1-.663-.669c0-.37.296-.669.663-.669.366 0 .663.3.663.67M60.586 10.826c0 .37-.297.669-.663.669a.666.666 0 0 1-.663-.669c0-.37.297-.669.663-.669.366 0 .663.3.663.67M63.501 10.826c0 .37-.297.669-.663.669a.666.666 0 0 1-.663-.669c0-.37.297-.669.663-.669.366 0 .663.3.663.67M66.416 10.826c0 .37-.296.669-.663.669a.666.666 0 0 1-.663-.669c0-.37.297-.669.663-.669.367 0 .663.3.663.67M69.332 10.826c0 .37-.297.669-.663.669a.666.666 0 0 1-.664-.669c0-.37.297-.669.664-.669.366 0 .663.3.663.67M72.247 10.826c0 .37-.297.669-.663.669a.666.666 0 0 1-.663-.669c0-.37.297-.669.663-.669.366 0 .663.3.663.67M3.681 13.108c0 .37-.297.669-.663.669a.666.666 0 0 1-.663-.67c0-.369.297-.668.663-.668.366 0 .663.3.663.669M6.596 13.108c0 .37-.296.669-.663.669a.666.666 0 0 1-.663-.67c0-.369.297-.668.663-.668.367 0 .663.3.663.669M9.512 13.108c0 .37-.297.669-.663.669a.666.666 0 0 1-.663-.67c0-.369.296-.668.663-.668.366 0 .663.3.663.669M12.427 13.108c0 .37-.297.669-.663.669a.666.666 0 0 1-.663-.67c0-.369.297-.668.663-.668.366 0 .663.3.663.669M15.342 13.108c0 .37-.297.669-.663.669a.666.666 0 0 1-.663-.67c0-.369.297-.668.663-.668.366 0 .663.3.663.669M18.257 13.108c0 .37-.296.669-.663.669a.666.666 0 0 1-.663-.67c0-.369.297-.668.663-.668.367 0 .663.3.663.669M21.173 13.108c0 .37-.297.669-.663.669a.666.666 0 0 1-.663-.67c0-.369.296-.668.663-.668.366 0 .663.3.663.669M24.088 13.108c0 .37-.297.669-.663.669a.666.666 0 0 1-.663-.67c0-.369.297-.668.663-.668.366 0 .663.3.663.669M27.003 13.108c0 .37-.297.669-.663.669a.666.666 0 0 1-.663-.67c0-.369.297-.668.663-.668.366 0 .663.3.663.669M29.918 13.108c0 .37-.296.669-.663.669a.666.666 0 0 1-.663-.67c0-.369.297-.668.663-.668.367 0 .663.3.663.669M32.834 13.108c0 .37-.297.669-.663.669a.666.666 0 0 1-.663-.67c0-.369.296-.668.663-.668.366 0 .663.3.663.669M35.749 13.108c0 .37-.297.669-.663.669a.666.666 0 0 1-.663-.67c0-.369.297-.668.663-.668.366 0 .663.3.663.669M38.664 13.108c0 .37-.297.669-.663.669a.666.666 0 0 1-.663-.67c0-.369.297-.668.663-.668.366 0 .663.3.663.669M41.58 13.108c0 .37-.298.669-.664.669a.666.666 0 0 1-.663-.67c0-.369.297-.668.663-.668.366 0 .663.3.663.669M44.495 13.108c0 .37-.297.669-.664.669a.666.666 0 0 1-.663-.67c0-.369.297-.668.663-.668.367 0 .664.3.664.669M47.41 13.108c0 .37-.297.669-.663.669a.666.666 0 0 1-.663-.67c0-.369.296-.668.663-.668.366 0 .663.3.663.669M50.325 13.108c0 .37-.297.669-.663.669a.666.666 0 0 1-.663-.67c0-.369.297-.668.663-.668.366 0 .663.3.663.669M53.24 13.108c0 .37-.297.669-.663.669a.666.666 0 0 1-.663-.67c0-.369.297-.668.663-.668.366 0 .663.3.663.669M56.155 13.108c0 .37-.296.669-.663.669a.666.666 0 0 1-.663-.67c0-.369.297-.668.663-.668.367 0 .663.3.663.669M59.07 13.108c0 .37-.296.669-.662.669a.666.666 0 0 1-.663-.67c0-.369.296-.668.663-.668.366 0 .663.3.663.669M61.986 13.108c0 .37-.297.669-.663.669a.666.666 0 0 1-.663-.67c0-.369.297-.668.663-.668.366 0 .663.3.663.669M64.901 13.108c0 .37-.297.669-.663.669a.666.666 0 0 1-.663-.67c0-.369.297-.668.663-.668.366 0 .663.3.663.669M67.816 13.108c0 .37-.296.669-.663.669a.666.666 0 0 1-.663-.67c0-.369.297-.668.663-.668.367 0 .663.3.663.669M70.732 13.108c0 .37-.297.669-.663.669a.666.666 0 0 1-.664-.67c0-.369.297-.668.664-.668.366 0 .663.3.663.669M73.647 13.108c0 .37-.297.669-.663.669a.666.666 0 0 1-.663-.67c0-.369.297-.668.663-.668.366 0 .663.3.663.669M2.281 15.39c0 .37-.297.669-.663.669a.666.666 0 0 1-.663-.67c0-.369.297-.668.663-.668.366 0 .663.3.663.669M5.196 15.39c0 .37-.296.669-.663.669a.666.666 0 0 1-.663-.67c0-.369.297-.668.663-.668.367 0 .663.3.663.669M8.112 15.39c0 .37-.297.669-.663.669a.666.666 0 0 1-.663-.67c0-.369.296-.668.663-.668.366 0 .663.3.663.669M11.027 15.39c0 .37-.297.669-.663.669a.666.666 0 0 1-.663-.67c0-.369.297-.668.663-.668.366 0 .663.3.663.669M13.942 15.39c0 .37-.297.669-.663.669a.666.666 0 0 1-.663-.67c0-.369.297-.668.663-.668.366 0 .663.3.663.669M16.857 15.39c0 .37-.296.669-.663.669a.666.666 0 0 1-.663-.67c0-.369.297-.668.663-.668.367 0 .663.3.663.669M19.773 15.39c0 .37-.297.669-.663.669a.666.666 0 0 1-.663-.67c0-.369.296-.668.663-.668.366 0 .663.3.663.669M22.688 15.39c0 .37-.297.669-.663.669a.666.666 0 0 1-.663-.67c0-.369.297-.668.663-.668.366 0 .663.3.663.669M25.603 15.39c0 .37-.297.669-.663.669a.666.666 0 0 1-.663-.67c0-.369.297-.668.663-.668.366 0 .663.3.663.669M28.518 15.39c0 .37-.296.669-.663.669a.666.666 0 0 1-.663-.67c0-.369.297-.668.663-.668.367 0 .663.3.663.669M31.434 15.39c0 .37-.297.669-.663.669a.666.666 0 0 1-.663-.67c0-.369.296-.668.663-.668.366 0 .663.3.663.669M34.349 15.39c0 .37-.297.669-.663.669a.666.666 0 0 1-.663-.67c0-.369.297-.668.663-.668.366 0 .663.3.663.669M37.264 15.39c0 .37-.297.669-.663.669a.666.666 0 0 1-.663-.67c0-.369.297-.668.663-.668.366 0 .663.3.663.669M40.18 15.39c0 .37-.298.669-.664.669a.666.666 0 0 1-.663-.67c0-.369.297-.668.663-.668.366 0 .663.3.663.669M43.095 15.39c0 .37-.297.669-.664.669a.666.666 0 0 1-.663-.67c0-.369.297-.668.663-.668.367 0 .664.3.664.669M46.01 15.39c0 .37-.297.669-.663.669a.666.666 0 0 1-.663-.67c0-.369.296-.668.663-.668.366 0 .663.3.663.669M48.925 15.39c0 .37-.297.669-.663.669a.666.666 0 0 1-.663-.67c0-.369.297-.668.663-.668.366 0 .663.3.663.669M51.84 15.39c0 .37-.297.669-.663.669a.666.666 0 0 1-.663-.67c0-.369.297-.668.663-.668.366 0 .663.3.663.669M54.755 15.39c0 .37-.296.669-.663.669a.666.666 0 0 1-.663-.67c0-.369.297-.668.663-.668.367 0 .663.3.663.669M57.67 15.39c0 .37-.296.669-.662.669a.666.666 0 0 1-.663-.67c0-.369.296-.668.663-.668.366 0 .663.3.663.669M60.586 15.39c0 .37-.297.669-.663.669a.666.666 0 0 1-.663-.67c0-.369.297-.668.663-.668.366 0 .663.3.663.669M63.501 15.39c0 .37-.297.669-.663.669a.666.666 0 0 1-.663-.67c0-.369.297-.668.663-.668.366 0 .663.3.663.669M66.416 15.39c0 .37-.296.669-.663.669a.666.666 0 0 1-.663-.67c0-.369.297-.668.663-.668.367 0 .663.3.663.669M69.332 15.39c0 .37-.297.669-.663.669a.666.666 0 0 1-.664-.67c0-.369.297-.668.664-.668.366 0 .663.3.663.669M72.247 15.39c0 .37-.297.669-.663.669a.666.666 0 0 1-.663-.67c0-.369.297-.668.663-.668.366 0 .663.3.663.669M3.681 17.671c0 .37-.297.67-.663.67a.666.666 0 0 1-.663-.67c0-.369.297-.668.663-.668.366 0 .663.3.663.668M6.596 17.671c0 .37-.296.67-.663.67a.666.666 0 0 1-.663-.67c0-.369.297-.668.663-.668.367 0 .663.3.663.668M9.512 17.671c0 .37-.297.67-.663.67a.666.666 0 0 1-.663-.67c0-.369.296-.668.663-.668.366 0 .663.3.663.668M12.427 17.671c0 .37-.297.67-.663.67a.666.666 0 0 1-.663-.67c0-.369.297-.668.663-.668.366 0 .663.3.663.668M15.342 17.671c0 .37-.297.67-.663.67a.666.666 0 0 1-.663-.67c0-.369.297-.668.663-.668.366 0 .663.3.663.668M18.257 17.671c0 .37-.296.67-.663.67a.666.666 0 0 1-.663-.67c0-.369.297-.668.663-.668.367 0 .663.3.663.668M21.173 17.671c0 .37-.297.67-.663.67a.666.666 0 0 1-.663-.67c0-.369.296-.668.663-.668.366 0 .663.3.663.668M24.088 17.671c0 .37-.297.67-.663.67a.666.666 0 0 1-.663-.67c0-.369.297-.668.663-.668.366 0 .663.3.663.668M27.003 17.671c0 .37-.297.67-.663.67a.666.666 0 0 1-.663-.67c0-.369.297-.668.663-.668.366 0 .663.3.663.668M29.918 17.671c0 .37-.296.67-.663.67a.666.666 0 0 1-.663-.67c0-.369.297-.668.663-.668.367 0 .663.3.663.668M32.834 17.671c0 .37-.297.67-.663.67a.666.666 0 0 1-.663-.67c0-.369.296-.668.663-.668.366 0 .663.3.663.668M35.749 17.671c0 .37-.297.67-.663.67a.666.666 0 0 1-.663-.67c0-.369.297-.668.663-.668.366 0 .663.3.663.668M38.664 17.671c0 .37-.297.67-.663.67a.666.666 0 0 1-.663-.67c0-.369.297-.668.663-.668.366 0 .663.3.663.668M41.58 17.671c0 .37-.298.67-.664.67a.666.666 0 0 1-.663-.67c0-.369.297-.668.663-.668.366 0 .663.3.663.668M44.495 17.671c0 .37-.297.67-.664.67a.666.666 0 0 1-.663-.67c0-.369.297-.668.663-.668.367 0 .664.3.664.668M47.41 17.671c0 .37-.297.67-.663.67a.666.666 0 0 1-.663-.67c0-.369.296-.668.663-.668.366 0 .663.3.663.668M50.325 17.671c0 .37-.297.67-.663.67a.666.666 0 0 1-.663-.67c0-.369.297-.668.663-.668.366 0 .663.3.663.668M53.24 17.671c0 .37-.297.67-.663.67a.666.666 0 0 1-.663-.67c0-.369.297-.668.663-.668.366 0 .663.3.663.668M56.155 17.671c0 .37-.296.67-.663.67a.666.666 0 0 1-.663-.67c0-.369.297-.668.663-.668.367 0 .663.3.663.668M59.07 17.671c0 .37-.296.67-.662.67a.666.666 0 0 1-.663-.67c0-.369.296-.668.663-.668.366 0 .663.3.663.668M61.986 17.671c0 .37-.297.67-.663.67a.666.666 0 0 1-.663-.67c0-.369.297-.668.663-.668.366 0 .663.3.663.668M64.901 17.671c0 .37-.297.67-.663.67a.666.666 0 0 1-.663-.67c0-.369.297-.668.663-.668.366 0 .663.3.663.668M67.816 17.671c0 .37-.296.67-.663.67a.666.666 0 0 1-.663-.67c0-.369.297-.668.663-.668.367 0 .663.3.663.668M70.732 17.671c0 .37-.297.67-.663.67a.666.666 0 0 1-.664-.67c0-.369.297-.668.664-.668.366 0 .663.3.663.668M73.647 17.671c0 .37-.297.67-.663.67a.666.666 0 0 1-.663-.67c0-.369.297-.668.663-.668.366 0 .663.3.663.668M2.281 19.953c0 .37-.297.67-.663.67a.666.666 0 0 1-.663-.67c0-.37.297-.669.663-.669.366 0 .663.3.663.67M5.196 19.953c0 .37-.296.67-.663.67a.666.666 0 0 1-.663-.67c0-.37.297-.669.663-.669.367 0 .663.3.663.67M8.112 19.953c0 .37-.297.67-.663.67a.666.666 0 0 1-.663-.67c0-.37.296-.669.663-.669.366 0 .663.3.663.67M11.027 19.953c0 .37-.297.67-.663.67a.666.666 0 0 1-.663-.67c0-.37.297-.669.663-.669.366 0 .663.3.663.67M13.942 19.953c0 .37-.297.67-.663.67a.666.666 0 0 1-.663-.67c0-.37.297-.669.663-.669.366 0 .663.3.663.67M16.857 19.953c0 .37-.296.67-.663.67a.666.666 0 0 1-.663-.67c0-.37.297-.669.663-.669.367 0 .663.3.663.67M19.773 19.953c0 .37-.297.67-.663.67a.666.666 0 0 1-.663-.67c0-.37.296-.669.663-.669.366 0 .663.3.663.67M22.688 19.953c0 .37-.297.67-.663.67a.666.666 0 0 1-.663-.67c0-.37.297-.669.663-.669.366 0 .663.3.663.67M25.603 19.953c0 .37-.297.67-.663.67a.666.666 0 0 1-.663-.67c0-.37.297-.669.663-.669.366 0 .663.3.663.67M28.518 19.953c0 .37-.296.67-.663.67a.666.666 0 0 1-.663-.67c0-.37.297-.669.663-.669.367 0 .663.3.663.67M31.434 19.953c0 .37-.297.67-.663.67a.666.666 0 0 1-.663-.67c0-.37.296-.669.663-.669.366 0 .663.3.663.67M34.349 19.953c0 .37-.297.67-.663.67a.666.666 0 0 1-.663-.67c0-.37.297-.669.663-.669.366 0 .663.3.663.67M37.264 19.953c0 .37-.297.67-.663.67a.666.666 0 0 1-.663-.67c0-.37.297-.669.663-.669.366 0 .663.3.663.67M40.18 19.953c0 .37-.298.67-.664.67a.666.666 0 0 1-.663-.67c0-.37.297-.669.663-.669.366 0 .663.3.663.67M43.095 19.953c0 .37-.297.67-.664.67a.666.666 0 0 1-.663-.67c0-.37.297-.669.663-.669.367 0 .664.3.664.67M46.01 19.953c0 .37-.297.67-.663.67a.666.666 0 0 1-.663-.67c0-.37.296-.669.663-.669.366 0 .663.3.663.67M48.925 19.953c0 .37-.297.67-.663.67a.666.666 0 0 1-.663-.67c0-.37.297-.669.663-.669.366 0 .663.3.663.67M51.84 19.953c0 .37-.297.67-.663.67a.666.666 0 0 1-.663-.67c0-.37.297-.669.663-.669.366 0 .663.3.663.67M54.755 19.953c0 .37-.296.67-.663.67a.666.666 0 0 1-.663-.67c0-.37.297-.669.663-.669.367 0 .663.3.663.67M57.67 19.953c0 .37-.296.67-.662.67a.666.666 0 0 1-.663-.67c0-.37.296-.669.663-.669.366 0 .663.3.663.67M60.586 19.953c0 .37-.297.67-.663.67a.666.666 0 0 1-.663-.67c0-.37.297-.669.663-.669.366 0 .663.3.663.67M63.501 19.953c0 .37-.297.67-.663.67a.666.666 0 0 1-.663-.67c0-.37.297-.669.663-.669.366 0 .663.3.663.67M66.416 19.953c0 .37-.296.67-.663.67a.666.666 0 0 1-.663-.67c0-.37.297-.669.663-.669.367 0 .663.3.663.67M69.332 19.953c0 .37-.297.67-.663.67a.666.666 0 0 1-.664-.67c0-.37.297-.669.664-.669.366 0 .663.3.663.67M72.247 19.953c0 .37-.297.67-.663.67a.666.666 0 0 1-.663-.67c0-.37.297-.669.663-.669.366 0 .663.3.663.67M3.681 22.235c0 .37-.297.669-.663.669a.666.666 0 0 1-.663-.669c0-.37.297-.669.663-.669.366 0 .663.3.663.67M6.596 22.235c0 .37-.296.669-.663.669a.666.666 0 0 1-.663-.669c0-.37.297-.669.663-.669.367 0 .663.3.663.67M9.512 22.235c0 .37-.297.669-.663.669a.666.666 0 0 1-.663-.669c0-.37.296-.669.663-.669.366 0 .663.3.663.67M12.427 22.235c0 .37-.297.669-.663.669a.666.666 0 0 1-.663-.669c0-.37.297-.669.663-.669.366 0 .663.3.663.67M15.342 22.235c0 .37-.297.669-.663.669a.666.666 0 0 1-.663-.669c0-.37.297-.669.663-.669.366 0 .663.3.663.67M18.257 22.235c0 .37-.296.669-.663.669a.666.666 0 0 1-.663-.669c0-.37.297-.669.663-.669.367 0 .663.3.663.67M21.173 22.235c0 .37-.297.669-.663.669a.666.666 0 0 1-.663-.669c0-.37.296-.669.663-.669.366 0 .663.3.663.67M24.088 22.235c0 .37-.297.669-.663.669a.666.666 0 0 1-.663-.669c0-.37.297-.669.663-.669.366 0 .663.3.663.67M27.003 22.235c0 .37-.297.669-.663.669a.666.666 0 0 1-.663-.669c0-.37.297-.669.663-.669.366 0 .663.3.663.67M29.918 22.235c0 .37-.296.669-.663.669a.666.666 0 0 1-.663-.669c0-.37.297-.669.663-.669.367 0 .663.3.663.67M32.834 22.235c0 .37-.297.669-.663.669a.666.666 0 0 1-.663-.669c0-.37.296-.669.663-.669.366 0 .663.3.663.67M35.749 22.235c0 .37-.297.669-.663.669a.666.666 0 0 1-.663-.669c0-.37.297-.669.663-.669.366 0 .663.3.663.67M38.664 22.235c0 .37-.297.669-.663.669a.666.666 0 0 1-.663-.669c0-.37.297-.669.663-.669.366 0 .663.3.663.67M41.58 22.235c0 .37-.298.669-.664.669a.666.666 0 0 1-.663-.669c0-.37.297-.669.663-.669.366 0 .663.3.663.67M44.495 22.235c0 .37-.297.669-.664.669a.666.666 0 0 1-.663-.669c0-.37.297-.669.663-.669.367 0 .664.3.664.67M47.41 22.235c0 .37-.297.669-.663.669a.666.666 0 0 1-.663-.669c0-.37.296-.669.663-.669.366 0 .663.3.663.67M50.325 22.235c0 .37-.297.669-.663.669a.666.666 0 0 1-.663-.669c0-.37.297-.669.663-.669.366 0 .663.3.663.67M53.24 22.235c0 .37-.297.669-.663.669a.666.666 0 0 1-.663-.669c0-.37.297-.669.663-.669.366 0 .663.3.663.67M56.155 22.235c0 .37-.296.669-.663.669a.666.666 0 0 1-.663-.669c0-.37.297-.669.663-.669.367 0 .663.3.663.67M59.07 22.235c0 .37-.296.669-.662.669a.666.666 0 0 1-.663-.669c0-.37.296-.669.663-.669.366 0 .663.3.663.67M61.986 22.235c0 .37-.297.669-.663.669a.666.666 0 0 1-.663-.669c0-.37.297-.669.663-.669.366 0 .663.3.663.67M64.901 22.235c0 .37-.297.669-.663.669a.666.666 0 0 1-.663-.669c0-.37.297-.669.663-.669.366 0 .663.3.663.67M67.816 22.235c0 .37-.296.669-.663.669a.666.666 0 0 1-.663-.669c0-.37.297-.669.663-.669.367 0 .663.3.663.67M70.732 22.235c0 .37-.297.669-.663.669a.666.666 0 0 1-.664-.669c0-.37.297-.669.664-.669.366 0 .663.3.663.67M73.647 22.235c0 .37-.297.669-.663.669a.666.666 0 0 1-.663-.669c0-.37.297-.669.663-.669.366 0 .663.3.663.67M2.281 24.517c0 .37-.297.669-.663.669a.666.666 0 0 1-.663-.67c0-.369.297-.668.663-.668.366 0 .663.3.663.669M5.196 24.517c0 .37-.296.669-.663.669a.666.666 0 0 1-.663-.67c0-.369.297-.668.663-.668.367 0 .663.3.663.669M8.112 24.517c0 .37-.297.669-.663.669a.666.666 0 0 1-.663-.67c0-.369.296-.668.663-.668.366 0 .663.3.663.669M11.027 24.517c0 .37-.297.669-.663.669a.666.666 0 0 1-.663-.67c0-.369.297-.668.663-.668.366 0 .663.3.663.669M13.942 24.517c0 .37-.297.669-.663.669a.666.666 0 0 1-.663-.67c0-.369.297-.668.663-.668.366 0 .663.3.663.669M16.857 24.517c0 .37-.296.669-.663.669a.666.666 0 0 1-.663-.67c0-.369.297-.668.663-.668.367 0 .663.3.663.669M19.773 24.517c0 .37-.297.669-.663.669a.666.666 0 0 1-.663-.67c0-.369.296-.668.663-.668.366 0 .663.3.663.669M22.688 24.517c0 .37-.297.669-.663.669a.666.666 0 0 1-.663-.67c0-.369.297-.668.663-.668.366 0 .663.3.663.669M25.603 24.517c0 .37-.297.669-.663.669a.666.666 0 0 1-.663-.67c0-.369.297-.668.663-.668.366 0 .663.3.663.669M28.518 24.517c0 .37-.296.669-.663.669a.666.666 0 0 1-.663-.67c0-.369.297-.668.663-.668.367 0 .663.3.663.669M31.434 24.517c0 .37-.297.669-.663.669a.666.666 0 0 1-.663-.67c0-.369.296-.668.663-.668.366 0 .663.3.663.669M34.349 24.517c0 .37-.297.669-.663.669a.666.666 0 0 1-.663-.67c0-.369.297-.668.663-.668.366 0 .663.3.663.669M37.264 24.517c0 .37-.297.669-.663.669a.666.666 0 0 1-.663-.67c0-.369.297-.668.663-.668.366 0 .663.3.663.669M40.18 24.517c0 .37-.298.669-.664.669a.666.666 0 0 1-.663-.67c0-.369.297-.668.663-.668.366 0 .663.3.663.669M43.095 24.517c0 .37-.297.669-.664.669a.666.666 0 0 1-.663-.67c0-.369.297-.668.663-.668.367 0 .664.3.664.669M46.01 24.517c0 .37-.297.669-.663.669a.666.666 0 0 1-.663-.67c0-.369.296-.668.663-.668.366 0 .663.3.663.669M48.925 24.517c0 .37-.297.669-.663.669a.666.666 0 0 1-.663-.67c0-.369.297-.668.663-.668.366 0 .663.3.663.669M51.84 24.517c0 .37-.297.669-.663.669a.666.666 0 0 1-.663-.67c0-.369.297-.668.663-.668.366 0 .663.3.663.669M54.755 24.517c0 .37-.296.669-.663.669a.666.666 0 0 1-.663-.67c0-.369.297-.668.663-.668.367 0 .663.3.663.669M57.67 24.517c0 .37-.296.669-.662.669a.666.666 0 0 1-.663-.67c0-.369.296-.668.663-.668.366 0 .663.3.663.669M60.586 24.517c0 .37-.297.669-.663.669a.666.666 0 0 1-.663-.67c0-.369.297-.668.663-.668.366 0 .663.3.663.669M63.501 24.517c0 .37-.297.669-.663.669a.666.666 0 0 1-.663-.67c0-.369.297-.668.663-.668.366 0 .663.3.663.669M66.416 24.517c0 .37-.296.669-.663.669a.666.666 0 0 1-.663-.67c0-.369.297-.668.663-.668.367 0 .663.3.663.669M69.332 24.517c0 .37-.297.669-.663.669a.666.666 0 0 1-.664-.67c0-.369.297-.668.664-.668.366 0 .663.3.663.669M72.247 24.517c0 .37-.297.669-.663.669a.666.666 0 0 1-.663-.67c0-.369.297-.668.663-.668.366 0 .663.3.663.669M3.681 26.799c0 .37-.297.669-.663.669a.666.666 0 0 1-.663-.67c0-.369.297-.668.663-.668.366 0 .663.3.663.669M6.596 26.799c0 .37-.296.669-.663.669a.666.666 0 0 1-.663-.67c0-.369.297-.668.663-.668.367 0 .663.3.663.669M9.512 26.799c0 .37-.297.669-.663.669a.666.666 0 0 1-.663-.67c0-.369.296-.668.663-.668.366 0 .663.3.663.669M12.427 26.799c0 .37-.297.669-.663.669a.666.666 0 0 1-.663-.67c0-.369.297-.668.663-.668.366 0 .663.3.663.669M15.342 26.799c0 .37-.297.669-.663.669a.666.666 0 0 1-.663-.67c0-.369.297-.668.663-.668.366 0 .663.3.663.669M18.257 26.799c0 .37-.296.669-.663.669a.666.666 0 0 1-.663-.67c0-.369.297-.668.663-.668.367 0 .663.3.663.669M21.173 26.799c0 .37-.297.669-.663.669a.666.666 0 0 1-.663-.67c0-.369.296-.668.663-.668.366 0 .663.3.663.669M24.088 26.799c0 .37-.297.669-.663.669a.666.666 0 0 1-.663-.67c0-.369.297-.668.663-.668.366 0 .663.3.663.669M27.003 26.799c0 .37-.297.669-.663.669a.666.666 0 0 1-.663-.67c0-.369.297-.668.663-.668.366 0 .663.3.663.669M29.918 26.799c0 .37-.296.669-.663.669a.666.666 0 0 1-.663-.67c0-.369.297-.668.663-.668.367 0 .663.3.663.669M32.834 26.799c0 .37-.297.669-.663.669a.666.666 0 0 1-.663-.67c0-.369.296-.668.663-.668.366 0 .663.3.663.669M35.749 26.799c0 .37-.297.669-.663.669a.666.666 0 0 1-.663-.67c0-.369.297-.668.663-.668.366 0 .663.3.663.669M38.664 26.799c0 .37-.297.669-.663.669a.666.666 0 0 1-.663-.67c0-.369.297-.668.663-.668.366 0 .663.3.663.669M41.58 26.799c0 .37-.298.669-.664.669a.666.666 0 0 1-.663-.67c0-.369.297-.668.663-.668.366 0 .663.3.663.669M44.495 26.799c0 .37-.297.669-.664.669a.666.666 0 0 1-.663-.67c0-.369.297-.668.663-.668.367 0 .664.3.664.669M47.41 26.799c0 .37-.297.669-.663.669a.666.666 0 0 1-.663-.67c0-.369.296-.668.663-.668.366 0 .663.3.663.669M50.325 26.799c0 .37-.297.669-.663.669a.666.666 0 0 1-.663-.67c0-.369.297-.668.663-.668.366 0 .663.3.663.669M53.24 26.799c0 .37-.297.669-.663.669a.666.666 0 0 1-.663-.67c0-.369.297-.668.663-.668.366 0 .663.3.663.669M56.155 26.799c0 .37-.296.669-.663.669a.666.666 0 0 1-.663-.67c0-.369.297-.668.663-.668.367 0 .663.3.663.669M59.07 26.799c0 .37-.296.669-.662.669a.666.666 0 0 1-.663-.67c0-.369.296-.668.663-.668.366 0 .663.3.663.669M61.986 26.799c0 .37-.297.669-.663.669a.666.666 0 0 1-.663-.67c0-.369.297-.668.663-.668.366 0 .663.3.663.669M64.901 26.799c0 .37-.297.669-.663.669a.666.666 0 0 1-.663-.67c0-.369.297-.668.663-.668.366 0 .663.3.663.669M67.816 26.799c0 .37-.296.669-.663.669a.666.666 0 0 1-.663-.67c0-.369.297-.668.663-.668.367 0 .663.3.663.669M70.732 26.799c0 .37-.297.669-.663.669a.666.666 0 0 1-.664-.67c0-.369.297-.668.664-.668.366 0 .663.3.663.669M73.647 26.799c0 .37-.297.669-.663.669a.666.666 0 0 1-.663-.67c0-.369.297-.668.663-.668.366 0 .663.3.663.669M2.281 29.08c0 .37-.297.67-.663.67a.666.666 0 0 1-.663-.67c0-.369.297-.668.663-.668.366 0 .663.299.663.668M5.196 29.08c0 .37-.296.67-.663.67a.666.666 0 0 1-.663-.67c0-.369.297-.668.663-.668.367 0 .663.299.663.668M8.112 29.08c0 .37-.297.67-.663.67a.666.666 0 0 1-.663-.67c0-.369.296-.668.663-.668.366 0 .663.299.663.668M11.027 29.08c0 .37-.297.67-.663.67a.666.666 0 0 1-.663-.67c0-.369.297-.668.663-.668.366 0 .663.299.663.668M13.942 29.08c0 .37-.297.67-.663.67a.666.666 0 0 1-.663-.67c0-.369.297-.668.663-.668.366 0 .663.299.663.668M16.857 29.08c0 .37-.296.67-.663.67a.666.666 0 0 1-.663-.67c0-.369.297-.668.663-.668.367 0 .663.299.663.668M19.773 29.08c0 .37-.297.67-.663.67a.666.666 0 0 1-.663-.67c0-.369.296-.668.663-.668.366 0 .663.299.663.668M22.688 29.08c0 .37-.297.67-.663.67a.666.666 0 0 1-.663-.67c0-.369.297-.668.663-.668.366 0 .663.299.663.668M25.603 29.08c0 .37-.297.67-.663.67a.666.666 0 0 1-.663-.67c0-.369.297-.668.663-.668.366 0 .663.299.663.668M28.518 29.08c0 .37-.296.67-.663.67a.666.666 0 0 1-.663-.67c0-.369.297-.668.663-.668.367 0 .663.299.663.668M31.434 29.08c0 .37-.297.67-.663.67a.666.666 0 0 1-.663-.67c0-.369.296-.668.663-.668.366 0 .663.299.663.668M34.349 29.08c0 .37-.297.67-.663.67a.666.666 0 0 1-.663-.67c0-.369.297-.668.663-.668.366 0 .663.299.663.668M37.264 29.08c0 .37-.297.67-.663.67a.666.666 0 0 1-.663-.67c0-.369.297-.668.663-.668.366 0 .663.299.663.668M40.18 29.08c0 .37-.298.67-.664.67a.666.666 0 0 1-.663-.67c0-.369.297-.668.663-.668.366 0 .663.299.663.668M43.095 29.08c0 .37-.297.67-.664.67a.666.666 0 0 1-.663-.67c0-.369.297-.668.663-.668.367 0 .664.299.664.668M46.01 29.08c0 .37-.297.67-.663.67a.666.666 0 0 1-.663-.67c0-.369.296-.668.663-.668.366 0 .663.299.663.668M48.925 29.08c0 .37-.297.67-.663.67a.666.666 0 0 1-.663-.67c0-.369.297-.668.663-.668.366 0 .663.299.663.668M51.84 29.08c0 .37-.297.67-.663.67a.666.666 0 0 1-.663-.67c0-.369.297-.668.663-.668.366 0 .663.299.663.668M54.755 29.08c0 .37-.296.67-.663.67a.666.666 0 0 1-.663-.67c0-.369.297-.668.663-.668.367 0 .663.299.663.668M57.67 29.08c0 .37-.296.67-.662.67a.666.666 0 0 1-.663-.67c0-.369.296-.668.663-.668.366 0 .663.299.663.668M60.586 29.08c0 .37-.297.67-.663.67a.666.666 0 0 1-.663-.67c0-.369.297-.668.663-.668.366 0 .663.299.663.668M63.501 29.08c0 .37-.297.67-.663.67a.666.666 0 0 1-.663-.67c0-.369.297-.668.663-.668.366 0 .663.299.663.668M66.416 29.08c0 .37-.296.67-.663.67a.666.666 0 0 1-.663-.67c0-.369.297-.668.663-.668.367 0 .663.299.663.668M69.332 29.08c0 .37-.297.67-.663.67a.666.666 0 0 1-.664-.67c0-.369.297-.668.664-.668.366 0 .663.299.663.668M72.247 29.08c0 .37-.297.67-.663.67a.666.666 0 0 1-.663-.67c0-.369.297-.668.663-.668.366 0 .663.299.663.668M3.681 31.362c0 .37-.297.67-.663.67a.666.666 0 0 1-.663-.67c0-.37.297-.669.663-.669.366 0 .663.3.663.67M6.596 31.362c0 .37-.296.67-.663.67a.666.666 0 0 1-.663-.67c0-.37.297-.669.663-.669.367 0 .663.3.663.67M9.512 31.362c0 .37-.297.67-.663.67a.666.666 0 0 1-.663-.67c0-.37.296-.669.663-.669.366 0 .663.3.663.67M12.427 31.362c0 .37-.297.67-.663.67a.666.666 0 0 1-.663-.67c0-.37.297-.669.663-.669.366 0 .663.3.663.67M15.342 31.362c0 .37-.297.67-.663.67a.666.666 0 0 1-.663-.67c0-.37.297-.669.663-.669.366 0 .663.3.663.67M18.257 31.362c0 .37-.296.67-.663.67a.666.666 0 0 1-.663-.67c0-.37.297-.669.663-.669.367 0 .663.3.663.67M21.173 31.362c0 .37-.297.67-.663.67a.666.666 0 0 1-.663-.67c0-.37.296-.669.663-.669.366 0 .663.3.663.67M24.088 31.362c0 .37-.297.67-.663.67a.666.666 0 0 1-.663-.67c0-.37.297-.669.663-.669.366 0 .663.3.663.67M27.003 31.362c0 .37-.297.67-.663.67a.666.666 0 0 1-.663-.67c0-.37.297-.669.663-.669.366 0 .663.3.663.67M29.918 31.362c0 .37-.296.67-.663.67a.666.666 0 0 1-.663-.67c0-.37.297-.669.663-.669.367 0 .663.3.663.67M32.834 31.362c0 .37-.297.67-.663.67a.666.666 0 0 1-.663-.67c0-.37.296-.669.663-.669.366 0 .663.3.663.67M35.749 31.362c0 .37-.297.67-.663.67a.666.666 0 0 1-.663-.67c0-.37.297-.669.663-.669.366 0 .663.3.663.67M38.664 31.362c0 .37-.297.67-.663.67a.666.666 0 0 1-.663-.67c0-.37.297-.669.663-.669.366 0 .663.3.663.67M41.58 31.362c0 .37-.298.67-.664.67a.666.666 0 0 1-.663-.67c0-.37.297-.669.663-.669.366 0 .663.3.663.67M44.495 31.362c0 .37-.297.67-.664.67a.666.666 0 0 1-.663-.67c0-.37.297-.669.663-.669.367 0 .664.3.664.67M47.41 31.362c0 .37-.297.67-.663.67a.666.666 0 0 1-.663-.67c0-.37.296-.669.663-.669.366 0 .663.3.663.67M50.325 31.362c0 .37-.297.67-.663.67a.666.666 0 0 1-.663-.67c0-.37.297-.669.663-.669.366 0 .663.3.663.67M53.24 31.362c0 .37-.297.67-.663.67a.666.666 0 0 1-.663-.67c0-.37.297-.669.663-.669.366 0 .663.3.663.67M56.155 31.362c0 .37-.296.67-.663.67a.666.666 0 0 1-.663-.67c0-.37.297-.669.663-.669.367 0 .663.3.663.67M59.07 31.362c0 .37-.296.67-.662.67a.666.666 0 0 1-.663-.67c0-.37.296-.669.663-.669.366 0 .663.3.663.67M61.986 31.362c0 .37-.297.67-.663.67a.666.666 0 0 1-.663-.67c0-.37.297-.669.663-.669.366 0 .663.3.663.67M64.901 31.362c0 .37-.297.67-.663.67a.666.666 0 0 1-.663-.67c0-.37.297-.669.663-.669.366 0 .663.3.663.67M67.816 31.362c0 .37-.296.67-.663.67a.666.666 0 0 1-.663-.67c0-.37.297-.669.663-.669.367 0 .663.3.663.67M70.732 31.362c0 .37-.297.67-.663.67a.666.666 0 0 1-.664-.67c0-.37.297-.669.664-.669.366 0 .663.3.663.67M73.647 31.362c0 .37-.297.67-.663.67a.666.666 0 0 1-.663-.67c0-.37.297-.669.663-.669.366 0 .663.3.663.67M2.281 33.644c0 .37-.297.669-.663.669a.666.666 0 0 1-.663-.669c0-.37.297-.669.663-.669.366 0 .663.3.663.67M5.196 33.644c0 .37-.296.669-.663.669a.666.666 0 0 1-.663-.669c0-.37.297-.669.663-.669.367 0 .663.3.663.67M8.112 33.644c0 .37-.297.669-.663.669a.666.666 0 0 1-.663-.669c0-.37.296-.669.663-.669.366 0 .663.3.663.67M11.027 33.644c0 .37-.297.669-.663.669a.666.666 0 0 1-.663-.669c0-.37.297-.669.663-.669.366 0 .663.3.663.67M13.942 33.644c0 .37-.297.669-.663.669a.666.666 0 0 1-.663-.669c0-.37.297-.669.663-.669.366 0 .663.3.663.67M16.857 33.644c0 .37-.296.669-.663.669a.666.666 0 0 1-.663-.669c0-.37.297-.669.663-.669.367 0 .663.3.663.67M19.773 33.644c0 .37-.297.669-.663.669a.666.666 0 0 1-.663-.669c0-.37.296-.669.663-.669.366 0 .663.3.663.67M22.688 33.644c0 .37-.297.669-.663.669a.666.666 0 0 1-.663-.669c0-.37.297-.669.663-.669.366 0 .663.3.663.67M25.603 33.644c0 .37-.297.669-.663.669a.666.666 0 0 1-.663-.669c0-.37.297-.669.663-.669.366 0 .663.3.663.67M28.518 33.644c0 .37-.296.669-.663.669a.666.666 0 0 1-.663-.669c0-.37.297-.669.663-.669.367 0 .663.3.663.67M31.434 33.644c0 .37-.297.669-.663.669a.666.666 0 0 1-.663-.669c0-.37.296-.669.663-.669.366 0 .663.3.663.67M34.349 33.644c0 .37-.297.669-.663.669a.666.666 0 0 1-.663-.669c0-.37.297-.669.663-.669.366 0 .663.3.663.67M37.264 33.644c0 .37-.297.669-.663.669a.666.666 0 0 1-.663-.669c0-.37.297-.669.663-.669.366 0 .663.3.663.67M40.18 33.644c0 .37-.298.669-.664.669a.666.666 0 0 1-.663-.669c0-.37.297-.669.663-.669.366 0 .663.3.663.67M43.095 33.644c0 .37-.297.669-.664.669a.666.666 0 0 1-.663-.669c0-.37.297-.669.663-.669.367 0 .664.3.664.67M46.01 33.644c0 .37-.297.669-.663.669a.666.666 0 0 1-.663-.669c0-.37.296-.669.663-.669.366 0 .663.3.663.67M48.925 33.644c0 .37-.297.669-.663.669a.666.666 0 0 1-.663-.669c0-.37.297-.669.663-.669.366 0 .663.3.663.67M51.84 33.644c0 .37-.297.669-.663.669a.666.666 0 0 1-.663-.669c0-.37.297-.669.663-.669.366 0 .663.3.663.67M54.755 33.644c0 .37-.296.669-.663.669a.666.666 0 0 1-.663-.669c0-.37.297-.669.663-.669.367 0 .663.3.663.67M57.67 33.644c0 .37-.296.669-.662.669a.666.666 0 0 1-.663-.669c0-.37.296-.669.663-.669.366 0 .663.3.663.67M60.586 33.644c0 .37-.297.669-.663.669a.666.666 0 0 1-.663-.669c0-.37.297-.669.663-.669.366 0 .663.3.663.67M63.501 33.644c0 .37-.297.669-.663.669a.666.666 0 0 1-.663-.669c0-.37.297-.669.663-.669.366 0 .663.3.663.67M66.416 33.644c0 .37-.296.669-.663.669a.666.666 0 0 1-.663-.669c0-.37.297-.669.663-.669.367 0 .663.3.663.67M69.332 33.644c0 .37-.297.669-.663.669a.666.666 0 0 1-.664-.669c0-.37.297-.669.664-.669.366 0 .663.3.663.67M72.247 33.644c0 .37-.297.669-.663.669a.666.666 0 0 1-.663-.669c0-.37.297-.669.663-.669.366 0 .663.3.663.67M3.681 35.926c0 .37-.297.669-.663.669a.666.666 0 0 1-.663-.67c0-.369.297-.668.663-.668.366 0 .663.3.663.669M6.596 35.926c0 .37-.296.669-.663.669a.666.666 0 0 1-.663-.67c0-.369.297-.668.663-.668.367 0 .663.3.663.669M9.512 35.926c0 .37-.297.669-.663.669a.666.666 0 0 1-.663-.67c0-.369.296-.668.663-.668.366 0 .663.3.663.669M12.427 35.926c0 .37-.297.669-.663.669a.666.666 0 0 1-.663-.67c0-.369.297-.668.663-.668.366 0 .663.3.663.669M15.342 35.926c0 .37-.297.669-.663.669a.666.666 0 0 1-.663-.67c0-.369.297-.668.663-.668.366 0 .663.3.663.669M18.257 35.926c0 .37-.296.669-.663.669a.666.666 0 0 1-.663-.67c0-.369.297-.668.663-.668.367 0 .663.3.663.669M21.173 35.926c0 .37-.297.669-.663.669a.666.666 0 0 1-.663-.67c0-.369.296-.668.663-.668.366 0 .663.3.663.669M24.088 35.926c0 .37-.297.669-.663.669a.666.666 0 0 1-.663-.67c0-.369.297-.668.663-.668.366 0 .663.3.663.669M27.003 35.926c0 .37-.297.669-.663.669a.666.666 0 0 1-.663-.67c0-.369.297-.668.663-.668.366 0 .663.3.663.669M29.918 35.926c0 .37-.296.669-.663.669a.666.666 0 0 1-.663-.67c0-.369.297-.668.663-.668.367 0 .663.3.663.669M32.834 35.926c0 .37-.297.669-.663.669a.666.666 0 0 1-.663-.67c0-.369.296-.668.663-.668.366 0 .663.3.663.669M35.749 35.926c0 .37-.297.669-.663.669a.666.666 0 0 1-.663-.67c0-.369.297-.668.663-.668.366 0 .663.3.663.669M38.664 35.926c0 .37-.297.669-.663.669a.666.666 0 0 1-.663-.67c0-.369.297-.668.663-.668.366 0 .663.3.663.669M41.58 35.926c0 .37-.298.669-.664.669a.666.666 0 0 1-.663-.67c0-.369.297-.668.663-.668.366 0 .663.3.663.669M44.495 35.926c0 .37-.297.669-.664.669a.666.666 0 0 1-.663-.67c0-.369.297-.668.663-.668.367 0 .664.3.664.669M47.41 35.926c0 .37-.297.669-.663.669a.666.666 0 0 1-.663-.67c0-.369.296-.668.663-.668.366 0 .663.3.663.669M50.325 35.926c0 .37-.297.669-.663.669a.666.666 0 0 1-.663-.67c0-.369.297-.668.663-.668.366 0 .663.3.663.669M53.24 35.926c0 .37-.297.669-.663.669a.666.666 0 0 1-.663-.67c0-.369.297-.668.663-.668.366 0 .663.3.663.669M56.155 35.926c0 .37-.296.669-.663.669a.666.666 0 0 1-.663-.67c0-.369.297-.668.663-.668.367 0 .663.3.663.669M59.07 35.926c0 .37-.296.669-.662.669a.666.666 0 0 1-.663-.67c0-.369.296-.668.663-.668.366 0 .663.3.663.669M61.986 35.926c0 .37-.297.669-.663.669a.666.666 0 0 1-.663-.67c0-.369.297-.668.663-.668.366 0 .663.3.663.669M64.901 35.926c0 .37-.297.669-.663.669a.666.666 0 0 1-.663-.67c0-.369.297-.668.663-.668.366 0 .663.3.663.669M67.816 35.926c0 .37-.296.669-.663.669a.666.666 0 0 1-.663-.67c0-.369.297-.668.663-.668.367 0 .663.3.663.669M70.732 35.926c0 .37-.297.669-.663.669a.666.666 0 0 1-.664-.67c0-.369.297-.668.664-.668.366 0 .663.3.663.669M73.647 35.926c0 .37-.297.669-.663.669a.666.666 0 0 1-.663-.67c0-.369.297-.668.663-.668.366 0 .663.3.663.669M2.281 38.208c0 .37-.297.669-.663.669a.666.666 0 0 1-.663-.67c0-.369.297-.668.663-.668.366 0 .663.3.663.669M5.196 38.208c0 .37-.296.669-.663.669a.666.666 0 0 1-.663-.67c0-.369.297-.668.663-.668.367 0 .663.3.663.669M8.112 38.208c0 .37-.297.669-.663.669a.666.666 0 0 1-.663-.67c0-.369.296-.668.663-.668.366 0 .663.3.663.669M11.027 38.208c0 .37-.297.669-.663.669a.666.666 0 0 1-.663-.67c0-.369.297-.668.663-.668.366 0 .663.3.663.669M13.942 38.208c0 .37-.297.669-.663.669a.666.666 0 0 1-.663-.67c0-.369.297-.668.663-.668.366 0 .663.3.663.669M16.857 38.208c0 .37-.296.669-.663.669a.666.666 0 0 1-.663-.67c0-.369.297-.668.663-.668.367 0 .663.3.663.669M19.773 38.208c0 .37-.297.669-.663.669a.666.666 0 0 1-.663-.67c0-.369.296-.668.663-.668.366 0 .663.3.663.669M22.688 38.208c0 .37-.297.669-.663.669a.666.666 0 0 1-.663-.67c0-.369.297-.668.663-.668.366 0 .663.3.663.669M25.603 38.208c0 .37-.297.669-.663.669a.666.666 0 0 1-.663-.67c0-.369.297-.668.663-.668.366 0 .663.3.663.669M28.518 38.208c0 .37-.296.669-.663.669a.666.666 0 0 1-.663-.67c0-.369.297-.668.663-.668.367 0 .663.3.663.669M31.434 38.208c0 .37-.297.669-.663.669a.666.666 0 0 1-.663-.67c0-.369.296-.668.663-.668.366 0 .663.3.663.669M34.349 38.208c0 .37-.297.669-.663.669a.666.666 0 0 1-.663-.67c0-.369.297-.668.663-.668.366 0 .663.3.663.669M37.264 38.208c0 .37-.297.669-.663.669a.666.666 0 0 1-.663-.67c0-.369.297-.668.663-.668.366 0 .663.3.663.669M40.18 38.208c0 .37-.298.669-.664.669a.666.666 0 0 1-.663-.67c0-.369.297-.668.663-.668.366 0 .663.3.663.669M43.095 38.208c0 .37-.297.669-.664.669a.666.666 0 0 1-.663-.67c0-.369.297-.668.663-.668.367 0 .664.3.664.669M46.01 38.208c0 .37-.297.669-.663.669a.666.666 0 0 1-.663-.67c0-.369.296-.668.663-.668.366 0 .663.3.663.669M48.925 38.208c0 .37-.297.669-.663.669a.666.666 0 0 1-.663-.67c0-.369.297-.668.663-.668.366 0 .663.3.663.669M51.84 38.208c0 .37-.297.669-.663.669a.666.666 0 0 1-.663-.67c0-.369.297-.668.663-.668.366 0 .663.3.663.669M54.755 38.208c0 .37-.296.669-.663.669a.666.666 0 0 1-.663-.67c0-.369.297-.668.663-.668.367 0 .663.3.663.669M57.67 38.208c0 .37-.296.669-.662.669a.666.666 0 0 1-.663-.67c0-.369.296-.668.663-.668.366 0 .663.3.663.669M60.586 38.208c0 .37-.297.669-.663.669a.666.666 0 0 1-.663-.67c0-.369.297-.668.663-.668.366 0 .663.3.663.669M63.501 38.208c0 .37-.297.669-.663.669a.666.666 0 0 1-.663-.67c0-.369.297-.668.663-.668.366 0 .663.3.663.669M66.416 38.208c0 .37-.296.669-.663.669a.666.666 0 0 1-.663-.67c0-.369.297-.668.663-.668.367 0 .663.3.663.669M69.332 38.208c0 .37-.297.669-.663.669a.666.666 0 0 1-.664-.67c0-.369.297-.668.664-.668.366 0 .663.3.663.669M72.247 38.208c0 .37-.297.669-.663.669a.666.666 0 0 1-.663-.67c0-.369.297-.668.663-.668.366 0 .663.3.663.669M3.681 40.49c0 .369-.297.668-.663.668a.666.666 0 0 1-.663-.669c0-.369.297-.668.663-.668.366 0 .663.299.663.668M6.596 40.49c0 .369-.296.668-.663.668a.666.666 0 0 1-.663-.669c0-.369.297-.668.663-.668.367 0 .663.299.663.668M9.512 40.49c0 .369-.297.668-.663.668a.666.666 0 0 1-.663-.669c0-.369.296-.668.663-.668.366 0 .663.299.663.668M12.427 40.49c0 .369-.297.668-.663.668a.666.666 0 0 1-.663-.669c0-.369.297-.668.663-.668.366 0 .663.299.663.668M15.342 40.49c0 .369-.297.668-.663.668a.666.666 0 0 1-.663-.669c0-.369.297-.668.663-.668.366 0 .663.299.663.668M18.257 40.49c0 .369-.296.668-.663.668a.666.666 0 0 1-.663-.669c0-.369.297-.668.663-.668.367 0 .663.299.663.668M21.173 40.49c0 .369-.297.668-.663.668a.666.666 0 0 1-.663-.669c0-.369.296-.668.663-.668.366 0 .663.299.663.668M24.088 40.49c0 .369-.297.668-.663.668a.666.666 0 0 1-.663-.669c0-.369.297-.668.663-.668.366 0 .663.299.663.668M27.003 40.49c0 .369-.297.668-.663.668a.666.666 0 0 1-.663-.669c0-.369.297-.668.663-.668.366 0 .663.299.663.668M29.918 40.49c0 .369-.296.668-.663.668a.666.666 0 0 1-.663-.669c0-.369.297-.668.663-.668.367 0 .663.299.663.668M32.834 40.49c0 .369-.297.668-.663.668a.666.666 0 0 1-.663-.669c0-.369.296-.668.663-.668.366 0 .663.299.663.668M35.749 40.49c0 .369-.297.668-.663.668a.666.666 0 0 1-.663-.669c0-.369.297-.668.663-.668.366 0 .663.299.663.668M38.664 40.49c0 .369-.297.668-.663.668a.666.666 0 0 1-.663-.669c0-.369.297-.668.663-.668.366 0 .663.299.663.668M41.58 40.49c0 .369-.298.668-.664.668a.666.666 0 0 1-.663-.669c0-.369.297-.668.663-.668.366 0 .663.299.663.668M44.495 40.49c0 .369-.297.668-.664.668a.666.666 0 0 1-.663-.669c0-.369.297-.668.663-.668.367 0 .664.299.664.668M47.41 40.49c0 .369-.297.668-.663.668a.666.666 0 0 1-.663-.669c0-.369.296-.668.663-.668.366 0 .663.299.663.668M50.325 40.49c0 .369-.297.668-.663.668a.666.666 0 0 1-.663-.669c0-.369.297-.668.663-.668.366 0 .663.299.663.668M53.24 40.49c0 .369-.297.668-.663.668a.666.666 0 0 1-.663-.669c0-.369.297-.668.663-.668.366 0 .663.299.663.668M56.155 40.49c0 .369-.296.668-.663.668a.666.666 0 0 1-.663-.669c0-.369.297-.668.663-.668.367 0 .663.299.663.668M59.07 40.49c0 .369-.296.668-.662.668a.666.666 0 0 1-.663-.669c0-.369.296-.668.663-.668.366 0 .663.299.663.668M61.986 40.49c0 .369-.297.668-.663.668a.666.666 0 0 1-.663-.669c0-.369.297-.668.663-.668.366 0 .663.299.663.668M64.901 40.49c0 .369-.297.668-.663.668a.666.666 0 0 1-.663-.669c0-.369.297-.668.663-.668.366 0 .663.299.663.668M67.816 40.49c0 .369-.296.668-.663.668a.666.666 0 0 1-.663-.669c0-.369.297-.668.663-.668.367 0 .663.299.663.668M70.732 40.49c0 .369-.297.668-.663.668a.666.666 0 0 1-.664-.669c0-.369.297-.668.664-.668.366 0 .663.299.663.668M73.647 40.49c0 .369-.297.668-.663.668a.666.666 0 0 1-.663-.669c0-.369.297-.668.663-.668.366 0 .663.299.663.668M2.281 42.771c0 .37-.297.67-.663.67a.666.666 0 0 1-.663-.67c0-.37.297-.669.663-.669.366 0 .663.3.663.67M5.196 42.771c0 .37-.296.67-.663.67a.666.666 0 0 1-.663-.67c0-.37.297-.669.663-.669.367 0 .663.3.663.67M8.112 42.771c0 .37-.297.67-.663.67a.666.666 0 0 1-.663-.67c0-.37.296-.669.663-.669.366 0 .663.3.663.67M11.027 42.771c0 .37-.297.67-.663.67a.666.666 0 0 1-.663-.67c0-.37.297-.669.663-.669.366 0 .663.3.663.67M13.942 42.771c0 .37-.297.67-.663.67a.666.666 0 0 1-.663-.67c0-.37.297-.669.663-.669.366 0 .663.3.663.67M16.857 42.771c0 .37-.296.67-.663.67a.666.666 0 0 1-.663-.67c0-.37.297-.669.663-.669.367 0 .663.3.663.67M19.773 42.771c0 .37-.297.67-.663.67a.666.666 0 0 1-.663-.67c0-.37.296-.669.663-.669.366 0 .663.3.663.67M22.688 42.771c0 .37-.297.67-.663.67a.666.666 0 0 1-.663-.67c0-.37.297-.669.663-.669.366 0 .663.3.663.67M25.603 42.771c0 .37-.297.67-.663.67a.666.666 0 0 1-.663-.67c0-.37.297-.669.663-.669.366 0 .663.3.663.67M28.518 42.771c0 .37-.296.67-.663.67a.666.666 0 0 1-.663-.67c0-.37.297-.669.663-.669.367 0 .663.3.663.67M31.434 42.771c0 .37-.297.67-.663.67a.666.666 0 0 1-.663-.67c0-.37.296-.669.663-.669.366 0 .663.3.663.67M34.349 42.771c0 .37-.297.67-.663.67a.666.666 0 0 1-.663-.67c0-.37.297-.669.663-.669.366 0 .663.3.663.67M37.264 42.771c0 .37-.297.67-.663.67a.666.666 0 0 1-.663-.67c0-.37.297-.669.663-.669.366 0 .663.3.663.67M40.18 42.771c0 .37-.298.67-.664.67a.666.666 0 0 1-.663-.67c0-.37.297-.669.663-.669.366 0 .663.3.663.67M43.095 42.771c0 .37-.297.67-.664.67a.666.666 0 0 1-.663-.67c0-.37.297-.669.663-.669.367 0 .664.3.664.67M46.01 42.771c0 .37-.297.67-.663.67a.666.666 0 0 1-.663-.67c0-.37.296-.669.663-.669.366 0 .663.3.663.67M48.925 42.771c0 .37-.297.67-.663.67a.666.666 0 0 1-.663-.67c0-.37.297-.669.663-.669.366 0 .663.3.663.67M51.84 42.771c0 .37-.297.67-.663.67a.666.666 0 0 1-.663-.67c0-.37.297-.669.663-.669.366 0 .663.3.663.67M54.755 42.771c0 .37-.296.67-.663.67a.666.666 0 0 1-.663-.67c0-.37.297-.669.663-.669.367 0 .663.3.663.67M57.67 42.771c0 .37-.296.67-.662.67a.666.666 0 0 1-.663-.67c0-.37.296-.669.663-.669.366 0 .663.3.663.67M60.586 42.771c0 .37-.297.67-.663.67a.666.666 0 0 1-.663-.67c0-.37.297-.669.663-.669.366 0 .663.3.663.67M63.501 42.771c0 .37-.297.67-.663.67a.666.666 0 0 1-.663-.67c0-.37.297-.669.663-.669.366 0 .663.3.663.67M66.416 42.771c0 .37-.296.67-.663.67a.666.666 0 0 1-.663-.67c0-.37.297-.669.663-.669.367 0 .663.3.663.67M69.332 42.771c0 .37-.297.67-.663.67a.666.666 0 0 1-.664-.67c0-.37.297-.669.664-.669.366 0 .663.3.663.67M72.247 42.771c0 .37-.297.67-.663.67a.666.666 0 0 1-.663-.67c0-.37.297-.669.663-.669.366 0 .663.3.663.67M3.681 45.053c0 .37-.297.669-.663.669a.666.666 0 0 1-.663-.669c0-.37.297-.669.663-.669.366 0 .663.3.663.67M6.596 45.053c0 .37-.296.669-.663.669a.666.666 0 0 1-.663-.669c0-.37.297-.669.663-.669.367 0 .663.3.663.67M9.512 45.053c0 .37-.297.669-.663.669a.666.666 0 0 1-.663-.669c0-.37.296-.669.663-.669.366 0 .663.3.663.67M12.427 45.053c0 .37-.297.669-.663.669a.666.666 0 0 1-.663-.669c0-.37.297-.669.663-.669.366 0 .663.3.663.67M15.342 45.053c0 .37-.297.669-.663.669a.666.666 0 0 1-.663-.669c0-.37.297-.669.663-.669.366 0 .663.3.663.67M18.257 45.053c0 .37-.296.669-.663.669a.666.666 0 0 1-.663-.669c0-.37.297-.669.663-.669.367 0 .663.3.663.67M21.173 45.053c0 .37-.297.669-.663.669a.666.666 0 0 1-.663-.669c0-.37.296-.669.663-.669.366 0 .663.3.663.67M24.088 45.053c0 .37-.297.669-.663.669a.666.666 0 0 1-.663-.669c0-.37.297-.669.663-.669.366 0 .663.3.663.67M27.003 45.053c0 .37-.297.669-.663.669a.666.666 0 0 1-.663-.669c0-.37.297-.669.663-.669.366 0 .663.3.663.67M29.918 45.053c0 .37-.296.669-.663.669a.666.666 0 0 1-.663-.669c0-.37.297-.669.663-.669.367 0 .663.3.663.67M32.834 45.053c0 .37-.297.669-.663.669a.666.666 0 0 1-.663-.669c0-.37.296-.669.663-.669.366 0 .663.3.663.67M35.749 45.053c0 .37-.297.669-.663.669a.666.666 0 0 1-.663-.669c0-.37.297-.669.663-.669.366 0 .663.3.663.67M38.664 45.053c0 .37-.297.669-.663.669a.666.666 0 0 1-.663-.669c0-.37.297-.669.663-.669.366 0 .663.3.663.67M41.58 45.053c0 .37-.298.669-.664.669a.666.666 0 0 1-.663-.669c0-.37.297-.669.663-.669.366 0 .663.3.663.67M44.495 45.053c0 .37-.297.669-.664.669a.666.666 0 0 1-.663-.669c0-.37.297-.669.663-.669.367 0 .664.3.664.67M47.41 45.053c0 .37-.297.669-.663.669a.666.666 0 0 1-.663-.669c0-.37.296-.669.663-.669.366 0 .663.3.663.67M50.325 45.053c0 .37-.297.669-.663.669a.666.666 0 0 1-.663-.669c0-.37.297-.669.663-.669.366 0 .663.3.663.67M53.24 45.053c0 .37-.297.669-.663.669a.666.666 0 0 1-.663-.669c0-.37.297-.669.663-.669.366 0 .663.3.663.67M56.155 45.053c0 .37-.296.669-.663.669a.666.666 0 0 1-.663-.669c0-.37.297-.669.663-.669.367 0 .663.3.663.67M59.07 45.053c0 .37-.296.669-.662.669a.666.666 0 0 1-.663-.669c0-.37.296-.669.663-.669.366 0 .663.3.663.67M61.986 45.053c0 .37-.297.669-.663.669a.666.666 0 0 1-.663-.669c0-.37.297-.669.663-.669.366 0 .663.3.663.67M64.901 45.053c0 .37-.297.669-.663.669a.666.666 0 0 1-.663-.669c0-.37.297-.669.663-.669.366 0 .663.3.663.67M67.816 45.053c0 .37-.296.669-.663.669a.666.666 0 0 1-.663-.669c0-.37.297-.669.663-.669.367 0 .663.3.663.67M70.732 45.053c0 .37-.297.669-.663.669a.666.666 0 0 1-.664-.669c0-.37.297-.669.664-.669.366 0 .663.3.663.67M73.647 45.053c0 .37-.297.669-.663.669a.666.666 0 0 1-.663-.669c0-.37.297-.669.663-.669.366 0 .663.3.663.67M2.281 47.335c0 .37-.297.669-.663.669a.666.666 0 0 1-.663-.67c0-.369.297-.668.663-.668.366 0 .663.3.663.669M5.196 47.335c0 .37-.296.669-.663.669a.666.666 0 0 1-.663-.67c0-.369.297-.668.663-.668.367 0 .663.3.663.669M8.112 47.335c0 .37-.297.669-.663.669a.666.666 0 0 1-.663-.67c0-.369.296-.668.663-.668.366 0 .663.3.663.669M11.027 47.335c0 .37-.297.669-.663.669a.666.666 0 0 1-.663-.67c0-.369.297-.668.663-.668.366 0 .663.3.663.669M13.942 47.335c0 .37-.297.669-.663.669a.666.666 0 0 1-.663-.67c0-.369.297-.668.663-.668.366 0 .663.3.663.669M16.857 47.335c0 .37-.296.669-.663.669a.666.666 0 0 1-.663-.67c0-.369.297-.668.663-.668.367 0 .663.3.663.669M19.773 47.335c0 .37-.297.669-.663.669a.666.666 0 0 1-.663-.67c0-.369.296-.668.663-.668.366 0 .663.3.663.669M22.688 47.335c0 .37-.297.669-.663.669a.666.666 0 0 1-.663-.67c0-.369.297-.668.663-.668.366 0 .663.3.663.669M25.603 47.335c0 .37-.297.669-.663.669a.666.666 0 0 1-.663-.67c0-.369.297-.668.663-.668.366 0 .663.3.663.669M28.518 47.335c0 .37-.296.669-.663.669a.666.666 0 0 1-.663-.67c0-.369.297-.668.663-.668.367 0 .663.3.663.669M31.434 47.335c0 .37-.297.669-.663.669a.666.666 0 0 1-.663-.67c0-.369.296-.668.663-.668.366 0 .663.3.663.669M34.349 47.335c0 .37-.297.669-.663.669a.666.666 0 0 1-.663-.67c0-.369.297-.668.663-.668.366 0 .663.3.663.669M37.264 47.335c0 .37-.297.669-.663.669a.666.666 0 0 1-.663-.67c0-.369.297-.668.663-.668.366 0 .663.3.663.669M40.18 47.335c0 .37-.298.669-.664.669a.666.666 0 0 1-.663-.67c0-.369.297-.668.663-.668.366 0 .663.3.663.669M43.095 47.335c0 .37-.297.669-.664.669a.666.666 0 0 1-.663-.67c0-.369.297-.668.663-.668.367 0 .664.3.664.669M46.01 47.335c0 .37-.297.669-.663.669a.666.666 0 0 1-.663-.67c0-.369.296-.668.663-.668.366 0 .663.3.663.669M48.925 47.335c0 .37-.297.669-.663.669a.666.666 0 0 1-.663-.67c0-.369.297-.668.663-.668.366 0 .663.3.663.669M51.84 47.335c0 .37-.297.669-.663.669a.666.666 0 0 1-.663-.67c0-.369.297-.668.663-.668.366 0 .663.3.663.669M54.755 47.335c0 .37-.296.669-.663.669a.666.666 0 0 1-.663-.67c0-.369.297-.668.663-.668.367 0 .663.3.663.669M57.67 47.335c0 .37-.296.669-.662.669a.666.666 0 0 1-.663-.67c0-.369.296-.668.663-.668.366 0 .663.3.663.669M60.586 47.335c0 .37-.297.669-.663.669a.666.666 0 0 1-.663-.67c0-.369.297-.668.663-.668.366 0 .663.3.663.669M63.501 47.335c0 .37-.297.669-.663.669a.666.666 0 0 1-.663-.67c0-.369.297-.668.663-.668.366 0 .663.3.663.669M66.416 47.335c0 .37-.296.669-.663.669a.666.666 0 0 1-.663-.67c0-.369.297-.668.663-.668.367 0 .663.3.663.669M69.332 47.335c0 .37-.297.669-.663.669a.666.666 0 0 1-.664-.67c0-.369.297-.668.664-.668.366 0 .663.3.663.669M72.247 47.335c0 .37-.297.669-.663.669a.666.666 0 0 1-.663-.67c0-.369.297-.668.663-.668.366 0 .663.3.663.669M3.681 49.617c0 .37-.297.669-.663.669a.666.666 0 0 1-.663-.67c0-.369.297-.668.663-.668.366 0 .663.3.663.669M6.596 49.617c0 .37-.296.669-.663.669a.666.666 0 0 1-.663-.67c0-.369.297-.668.663-.668.367 0 .663.3.663.669M9.512 49.617c0 .37-.297.669-.663.669a.666.666 0 0 1-.663-.67c0-.369.296-.668.663-.668.366 0 .663.3.663.669M12.427 49.617c0 .37-.297.669-.663.669a.666.666 0 0 1-.663-.67c0-.369.297-.668.663-.668.366 0 .663.3.663.669M15.342 49.617c0 .37-.297.669-.663.669a.666.666 0 0 1-.663-.67c0-.369.297-.668.663-.668.366 0 .663.3.663.669M18.257 49.617c0 .37-.296.669-.663.669a.666.666 0 0 1-.663-.67c0-.369.297-.668.663-.668.367 0 .663.3.663.669M21.173 49.617c0 .37-.297.669-.663.669a.666.666 0 0 1-.663-.67c0-.369.296-.668.663-.668.366 0 .663.3.663.669M24.088 49.617c0 .37-.297.669-.663.669a.666.666 0 0 1-.663-.67c0-.369.297-.668.663-.668.366 0 .663.3.663.669M27.003 49.617c0 .37-.297.669-.663.669a.666.666 0 0 1-.663-.67c0-.369.297-.668.663-.668.366 0 .663.3.663.669M29.918 49.617c0 .37-.296.669-.663.669a.666.666 0 0 1-.663-.67c0-.369.297-.668.663-.668.367 0 .663.3.663.669M32.834 49.617c0 .37-.297.669-.663.669a.666.666 0 0 1-.663-.67c0-.369.296-.668.663-.668.366 0 .663.3.663.669M35.749 49.617c0 .37-.297.669-.663.669a.666.666 0 0 1-.663-.67c0-.369.297-.668.663-.668.366 0 .663.3.663.669M38.664 49.617c0 .37-.297.669-.663.669a.666.666 0 0 1-.663-.67c0-.369.297-.668.663-.668.366 0 .663.3.663.669M41.58 49.617c0 .37-.298.669-.664.669a.666.666 0 0 1-.663-.67c0-.369.297-.668.663-.668.366 0 .663.3.663.669M44.495 49.617c0 .37-.297.669-.664.669a.666.666 0 0 1-.663-.67c0-.369.297-.668.663-.668.367 0 .664.3.664.669M47.41 49.617c0 .37-.297.669-.663.669a.666.666 0 0 1-.663-.67c0-.369.296-.668.663-.668.366 0 .663.3.663.669M50.325 49.617c0 .37-.297.669-.663.669a.666.666 0 0 1-.663-.67c0-.369.297-.668.663-.668.366 0 .663.3.663.669M53.24 49.617c0 .37-.297.669-.663.669a.666.666 0 0 1-.663-.67c0-.369.297-.668.663-.668.366 0 .663.3.663.669M56.155 49.617c0 .37-.296.669-.663.669a.666.666 0 0 1-.663-.67c0-.369.297-.668.663-.668.367 0 .663.3.663.669M59.07 49.617c0 .37-.296.669-.662.669a.666.666 0 0 1-.663-.67c0-.369.296-.668.663-.668.366 0 .663.3.663.669M61.986 49.617c0 .37-.297.669-.663.669a.666.666 0 0 1-.663-.67c0-.369.297-.668.663-.668.366 0 .663.3.663.669M64.901 49.617c0 .37-.297.669-.663.669a.666.666 0 0 1-.663-.67c0-.369.297-.668.663-.668.366 0 .663.3.663.669M67.816 49.617c0 .37-.296.669-.663.669a.666.666 0 0 1-.663-.67c0-.369.297-.668.663-.668.367 0 .663.3.663.669M70.732 49.617c0 .37-.297.669-.663.669a.666.666 0 0 1-.664-.67c0-.369.297-.668.664-.668.366 0 .663.3.663.669M73.647 49.617c0 .37-.297.669-.663.669a.666.666 0 0 1-.663-.67c0-.369.297-.668.663-.668.366 0 .663.3.663.669"/></g></g></g></g></g><path fill="#000" d="M47 1h7v6h-7z"/></g></svg>