<svg width="60" height="60" viewBox="0 0 60 60" xmlns="http://www.w3.org/2000/svg" xmlns:xlink="http://www.w3.org/1999/xlink"><defs><path d="M8.937 4.798v3.865H.213V4.798C.213 2.152 2.17 0 4.575 0 6.98 0 8.937 2.152 8.937 4.798z" id="a"/><path id="c" d="M.205.866h90v94.5h-90z"/></defs><g fill="none" fill-rule="evenodd"><path d="M58.527 10.995c.247 0 .446-.2.446-.446v-4.11c0-2.999-2.44-5.439-5.44-5.439H13.04C9.165 1 6.013 4.15 6.013 8.022v43.886h-4.54c-.247 0-.446.2-.446.446v.794A5.859 5.859 0 0 0 6.879 59h36.668c3 0 5.44-2.44 5.44-5.44v-7.678l-.002-.009V10.995h9.542zm-.446-4.556v3.664h-9.094V6.439a4.552 4.552 0 0 1 4.547-4.547A4.552 4.552 0 0 1 58.08 6.44zM6.879 58.108a4.965 4.965 0 0 1-4.96-4.96V52.8h36.189v.76c0 1.901.981 3.575 2.462 4.548H6.88zm0 0a4.965 4.965 0 0 1-4.96-4.96V52.8h36.189v.76c0 1.901.981 3.575 2.462 4.548H6.88zM48.094 6.439v4.101l-.001.009v43.013l.001.007a4.552 4.552 0 0 1-4.547 4.539A4.552 4.552 0 0 1 39 53.56v-1.199l.002-.008c0-.247-.2-.446-.447-.446H6.905V8.022c0-3.38 2.752-6.13 6.135-6.13h37.517a5.437 5.437 0 0 0-2.463 4.547z" stroke="#000" stroke-width="1.2" fill="#000" fill-rule="nonzero"/><path d="M48.094 6.44v4.1l-.001.009v43.013l.001.007a4.552 4.552 0 0 1-4.547 4.539A4.552 4.552 0 0 1 39 53.56v-1.199l.002-.008c0-.247-.2-.446-.447-.446H6.905V8.022c0-3.38 2.752-6.13 6.135-6.13h37.517a5.437 5.437 0 0 0-2.463 4.547z" fill="#FFF"/><path d="M40.605 37.297H14.393a.446.446 0 0 0 0 .893h26.212a.446.446 0 0 0 0-.893zM40.605 43.615H14.393a.446.446 0 0 0 0 .892h26.212a.446.446 0 0 0 0-.892zM40.605 30.98H14.393a.446.446 0 0 0 0 .892h26.212a.446.446 0 0 0 0-.892zM32.296 18.815a4.018 4.018 0 0 0-4.014 4.013c0 2.213 1.8 4.013 4.014 4.013 2.212 0 4.013-1.8 4.013-4.013s-1.8-4.013-4.013-4.013zm0 7.134c-1.721 0-3.121-1.4-3.121-3.121 0-1.72 1.4-3.12 3.12-3.12 1.721 0 3.121 1.4 3.121 3.12 0 1.72-1.4 3.12-3.12 3.12zM22.702 17.319c2.213 0 4.013-1.8 4.013-4.013s-1.8-4.013-4.013-4.013a4.018 4.018 0 0 0-4.013 4.013c0 2.213 1.8 4.013 4.013 4.013zm0-7.134c1.721 0 3.121 1.4 3.121 3.12 0 1.721-1.4 3.122-3.12 3.122-1.721 0-3.121-1.4-3.121-3.121s1.4-3.121 3.12-3.121zM19.737 25.826a.445.445 0 0 0 .631 0l14.893-14.887a.446.446 0 1 0-.631-.63L19.737 25.194a.446.446 0 0 0 0 .63z" stroke="#000" stroke-width=".5" fill="#000" fill-rule="nonzero"/><g transform="translate(49 2)"><mask id="b" fill="#fff"><use xlink:href="#a"/></mask><g mask="url(#b)"><g transform="translate(-27.818 -15.3)"><mask id="d" fill="#fff"><use xlink:href="#c"/></mask><use fill="#D8D8D8" xlink:href="#c"/><g mask="url(#d)"><path fill="#FFF" d="M.205 101.666H91.84V-.034H.205z"/><g fill="#333"><path d="M1.866 13.85c0 .333-.242.603-.542.603-.3 0-.542-.27-.542-.602 0-.333.242-.602.542-.602.3 0 .542.27.542.602M4.252 13.85c0 .333-.243.603-.543.603-.3 0-.542-.27-.542-.602 0-.333.243-.602.542-.602.3 0 .543.27.543.602M6.637 13.85c0 .333-.243.603-.543.603-.3 0-.542-.27-.542-.602 0-.333.243-.602.542-.602.3 0 .543.27.543.602M9.022 13.85c0 .333-.243.603-.542.603-.3 0-.543-.27-.543-.602 0-.333.243-.602.543-.602.3 0 .542.27.542.602M11.407 13.85c0 .333-.243.603-.542.603-.3 0-.543-.27-.543-.602 0-.333.243-.602.543-.602.3 0 .542.27.542.602M13.792 13.85c0 .333-.242.603-.542.603-.3 0-.543-.27-.543-.602 0-.333.243-.602.543-.602.3 0 .542.27.542.602M16.178 13.85c0 .333-.243.603-.543.603-.3 0-.542-.27-.542-.602 0-.333.242-.602.542-.602.3 0 .543.27.543.602M18.563 13.85c0 .333-.243.603-.543.603-.3 0-.542-.27-.542-.602 0-.333.243-.602.542-.602.3 0 .543.27.543.602M20.948 13.85c0 .333-.243.603-.542.603-.3 0-.543-.27-.543-.602 0-.333.243-.602.543-.602.3 0 .542.27.542.602M23.333 13.85c0 .333-.243.603-.542.603-.3 0-.543-.27-.543-.602 0-.333.243-.602.543-.602.3 0 .542.27.542.602M25.718 13.85c0 .333-.243.603-.542.603-.3 0-.543-.27-.543-.602 0-.333.243-.602.543-.602.3 0 .542.27.542.602M28.104 13.85c0 .333-.243.603-.543.603-.3 0-.542-.27-.542-.602 0-.333.242-.602.542-.602.3 0 .543.27.543.602M30.489 13.85c0 .333-.243.603-.543.603-.3 0-.542-.27-.542-.602 0-.333.243-.602.542-.602.3 0 .543.27.543.602M32.874 13.85c0 .333-.243.603-.543.603-.3 0-.542-.27-.542-.602 0-.333.243-.602.542-.602.3 0 .543.27.543.602M35.26 13.85c0 .333-.244.603-.543.603-.3 0-.543-.27-.543-.602 0-.333.243-.602.543-.602.3 0 .542.27.542.602M37.644 13.85c0 .333-.243.603-.542.603-.3 0-.543-.27-.543-.602 0-.333.243-.602.543-.602.3 0 .542.27.542.602M3.012 15.904c0 .333-.243.602-.543.602-.3 0-.542-.27-.542-.602 0-.332.243-.602.542-.602.3 0 .543.27.543.602M5.397 15.904c0 .333-.243.602-.542.602-.3 0-.543-.27-.543-.602 0-.332.243-.602.543-.602.3 0 .542.27.542.602M7.782 15.904c0 .333-.243.602-.542.602-.3 0-.543-.27-.543-.602 0-.332.243-.602.543-.602.3 0 .542.27.542.602M10.168 15.904c0 .333-.243.602-.543.602-.3 0-.542-.27-.542-.602 0-.332.242-.602.542-.602.3 0 .543.27.543.602M12.553 15.904c0 .333-.243.602-.543.602-.3 0-.542-.27-.542-.602 0-.332.243-.602.542-.602.3 0 .543.27.543.602M14.938 15.904c0 .333-.243.602-.543.602-.3 0-.542-.27-.542-.602 0-.332.243-.602.542-.602.3 0 .543.27.543.602M17.323 15.904c0 .333-.243.602-.542.602-.3 0-.543-.27-.543-.602 0-.332.243-.602.543-.602.3 0 .542.27.542.602M19.708 15.904c0 .333-.243.602-.542.602-.3 0-.543-.27-.543-.602 0-.332.243-.602.543-.602.3 0 .542.27.542.602M22.093 15.904c0 .333-.242.602-.542.602-.3 0-.543-.27-.543-.602 0-.332.243-.602.543-.602.3 0 .542.27.542.602M24.479 15.904c0 .333-.243.602-.543.602-.3 0-.542-.27-.542-.602 0-.332.243-.602.542-.602.3 0 .543.27.543.602M26.864 15.904c0 .333-.243.602-.543.602-.3 0-.542-.27-.542-.602 0-.332.243-.602.542-.602.3 0 .543.27.543.602M29.249 15.904c0 .333-.243.602-.542.602-.3 0-.543-.27-.543-.602 0-.332.243-.602.543-.602.3 0 .542.27.542.602M31.634 15.904c0 .333-.243.602-.542.602-.3 0-.543-.27-.543-.602 0-.332.243-.602.543-.602.3 0 .542.27.542.602M34.02 15.904c0 .333-.243.602-.543.602-.3 0-.543-.27-.543-.602 0-.332.243-.602.543-.602.3 0 .542.27.542.602M36.405 15.904c0 .333-.243.602-.543.602-.3 0-.542-.27-.542-.602 0-.332.242-.602.542-.602.3 0 .543.27.543.602M38.79 15.904c0 .333-.243.602-.543.602-.3 0-.542-.27-.542-.602 0-.332.243-.602.542-.602.3 0 .543.27.543.602M1.866 17.958c0 .332-.242.602-.542.602-.3 0-.542-.27-.542-.602 0-.333.242-.602.542-.602.3 0 .542.27.542.602M4.252 17.958c0 .332-.243.602-.543.602-.3 0-.542-.27-.542-.602 0-.333.243-.602.542-.602.3 0 .543.27.543.602M6.637 17.958c0 .332-.243.602-.543.602-.3 0-.542-.27-.542-.602 0-.333.243-.602.542-.602.3 0 .543.27.543.602M9.022 17.958c0 .332-.243.602-.542.602-.3 0-.543-.27-.543-.602 0-.333.243-.602.543-.602.3 0 .542.27.542.602M11.407 17.958c0 .332-.243.602-.542.602-.3 0-.543-.27-.543-.602 0-.333.243-.602.543-.602.3 0 .542.27.542.602M13.792 17.958c0 .332-.242.602-.542.602-.3 0-.543-.27-.543-.602 0-.333.243-.602.543-.602.3 0 .542.27.542.602M16.178 17.958c0 .332-.243.602-.543.602-.3 0-.542-.27-.542-.602 0-.333.242-.602.542-.602.3 0 .543.27.543.602M18.563 17.958c0 .332-.243.602-.543.602-.3 0-.542-.27-.542-.602 0-.333.243-.602.542-.602.3 0 .543.27.543.602M20.948 17.958c0 .332-.243.602-.542.602-.3 0-.543-.27-.543-.602 0-.333.243-.602.543-.602.3 0 .542.27.542.602M23.333 17.958c0 .332-.243.602-.542.602-.3 0-.543-.27-.543-.602 0-.333.243-.602.543-.602.3 0 .542.27.542.602M25.718 17.958c0 .332-.243.602-.542.602-.3 0-.543-.27-.543-.602 0-.333.243-.602.543-.602.3 0 .542.27.542.602M28.104 17.958c0 .332-.243.602-.543.602-.3 0-.542-.27-.542-.602 0-.333.242-.602.542-.602.3 0 .543.27.543.602M30.489 17.958c0 .332-.243.602-.543.602-.3 0-.542-.27-.542-.602 0-.333.243-.602.542-.602.3 0 .543.27.543.602M32.874 17.958c0 .332-.243.602-.543.602-.3 0-.542-.27-.542-.602 0-.333.243-.602.542-.602.3 0 .543.27.543.602M35.26 17.958c0 .332-.244.602-.543.602-.3 0-.543-.27-.543-.602 0-.333.243-.602.543-.602.3 0 .542.27.542.602M37.644 17.958c0 .332-.243.602-.542.602-.3 0-.543-.27-.543-.602 0-.333.243-.602.543-.602.3 0 .542.27.542.602M3.012 20.012c0 .332-.243.602-.543.602-.3 0-.542-.27-.542-.602 0-.333.243-.603.542-.603.3 0 .543.27.543.603M5.397 20.012c0 .332-.243.602-.542.602-.3 0-.543-.27-.543-.602 0-.333.243-.603.543-.603.3 0 .542.27.542.603M7.782 20.012c0 .332-.243.602-.542.602-.3 0-.543-.27-.543-.602 0-.333.243-.603.543-.603.3 0 .542.27.542.603M10.168 20.012c0 .332-.243.602-.543.602-.3 0-.542-.27-.542-.602 0-.333.242-.603.542-.603.3 0 .543.27.543.603M12.553 20.012c0 .332-.243.602-.543.602-.3 0-.542-.27-.542-.602 0-.333.243-.603.542-.603.3 0 .543.27.543.603M14.938 20.012c0 .332-.243.602-.543.602-.3 0-.542-.27-.542-.602 0-.333.243-.603.542-.603.3 0 .543.27.543.603M17.323 20.012c0 .332-.243.602-.542.602-.3 0-.543-.27-.543-.602 0-.333.243-.603.543-.603.3 0 .542.27.542.603M19.708 20.012c0 .332-.243.602-.542.602-.3 0-.543-.27-.543-.602 0-.333.243-.603.543-.603.3 0 .542.27.542.603M22.093 20.012c0 .332-.242.602-.542.602-.3 0-.543-.27-.543-.602 0-.333.243-.603.543-.603.3 0 .542.27.542.603M24.479 20.012c0 .332-.243.602-.543.602-.3 0-.542-.27-.542-.602 0-.333.243-.603.542-.603.3 0 .543.27.543.603M26.864 20.012c0 .332-.243.602-.543.602-.3 0-.542-.27-.542-.602 0-.333.243-.603.542-.603.3 0 .543.27.543.603M29.249 20.012c0 .332-.243.602-.542.602-.3 0-.543-.27-.543-.602 0-.333.243-.603.543-.603.3 0 .542.27.542.603M31.634 20.012c0 .332-.243.602-.542.602-.3 0-.543-.27-.543-.602 0-.333.243-.603.543-.603.3 0 .542.27.542.603M34.02 20.012c0 .332-.243.602-.543.602-.3 0-.543-.27-.543-.602 0-.333.243-.603.543-.603.3 0 .542.27.542.603M36.405 20.012c0 .332-.243.602-.543.602-.3 0-.542-.27-.542-.602 0-.333.242-.603.542-.603.3 0 .543.27.543.603M38.79 20.012c0 .332-.243.602-.543.602-.3 0-.542-.27-.542-.602 0-.333.243-.603.542-.603.3 0 .543.27.543.603M1.866 22.065c0 .333-.242.602-.542.602-.3 0-.542-.27-.542-.602 0-.332.242-.602.542-.602.3 0 .542.27.542.602M4.252 22.065c0 .333-.243.602-.543.602-.3 0-.542-.27-.542-.602 0-.332.243-.602.542-.602.3 0 .543.27.543.602M6.637 22.065c0 .333-.243.602-.543.602-.3 0-.542-.27-.542-.602 0-.332.243-.602.542-.602.3 0 .543.27.543.602M9.022 22.065c0 .333-.243.602-.542.602-.3 0-.543-.27-.543-.602 0-.332.243-.602.543-.602.3 0 .542.27.542.602M11.407 22.065c0 .333-.243.602-.542.602-.3 0-.543-.27-.543-.602 0-.332.243-.602.543-.602.3 0 .542.27.542.602M13.792 22.065c0 .333-.242.602-.542.602-.3 0-.543-.27-.543-.602 0-.332.243-.602.543-.602.3 0 .542.27.542.602M16.178 22.065c0 .333-.243.602-.543.602-.3 0-.542-.27-.542-.602 0-.332.242-.602.542-.602.3 0 .543.27.543.602M18.563 22.065c0 .333-.243.602-.543.602-.3 0-.542-.27-.542-.602 0-.332.243-.602.542-.602.3 0 .543.27.543.602M20.948 22.065c0 .333-.243.602-.542.602-.3 0-.543-.27-.543-.602 0-.332.243-.602.543-.602.3 0 .542.27.542.602M23.333 22.065c0 .333-.243.602-.542.602-.3 0-.543-.27-.543-.602 0-.332.243-.602.543-.602.3 0 .542.27.542.602M25.718 22.065c0 .333-.243.602-.542.602-.3 0-.543-.27-.543-.602 0-.332.243-.602.543-.602.3 0 .542.27.542.602M28.104 22.065c0 .333-.243.602-.543.602-.3 0-.542-.27-.542-.602 0-.332.242-.602.542-.602.3 0 .543.27.543.602M30.489 22.065c0 .333-.243.602-.543.602-.3 0-.542-.27-.542-.602 0-.332.243-.602.542-.602.3 0 .543.27.543.602M32.874 22.065c0 .333-.243.602-.543.602-.3 0-.542-.27-.542-.602 0-.332.243-.602.542-.602.3 0 .543.27.543.602M35.26 22.065c0 .333-.244.602-.543.602-.3 0-.543-.27-.543-.602 0-.332.243-.602.543-.602.3 0 .542.27.542.602M37.644 22.065c0 .333-.243.602-.542.602-.3 0-.543-.27-.543-.602 0-.332.243-.602.543-.602.3 0 .542.27.542.602M3.012 24.119c0 .332-.243.602-.543.602-.3 0-.542-.27-.542-.602 0-.333.243-.602.542-.602.3 0 .543.27.543.602M5.397 24.119c0 .332-.243.602-.542.602-.3 0-.543-.27-.543-.602 0-.333.243-.602.543-.602.3 0 .542.27.542.602M7.782 24.119c0 .332-.243.602-.542.602-.3 0-.543-.27-.543-.602 0-.333.243-.602.543-.602.3 0 .542.27.542.602M10.168 24.119c0 .332-.243.602-.543.602-.3 0-.542-.27-.542-.602 0-.333.242-.602.542-.602.3 0 .543.27.543.602M12.553 24.119c0 .332-.243.602-.543.602-.3 0-.542-.27-.542-.602 0-.333.243-.602.542-.602.3 0 .543.27.543.602M14.938 24.119c0 .332-.243.602-.543.602-.3 0-.542-.27-.542-.602 0-.333.243-.602.542-.602.3 0 .543.27.543.602M17.323 24.119c0 .332-.243.602-.542.602-.3 0-.543-.27-.543-.602 0-.333.243-.602.543-.602.3 0 .542.27.542.602M19.708 24.119c0 .332-.243.602-.542.602-.3 0-.543-.27-.543-.602 0-.333.243-.602.543-.602.3 0 .542.27.542.602M22.093 24.119c0 .332-.242.602-.542.602-.3 0-.543-.27-.543-.602 0-.333.243-.602.543-.602.3 0 .542.27.542.602M24.479 24.119c0 .332-.243.602-.543.602-.3 0-.542-.27-.542-.602 0-.333.243-.602.542-.602.3 0 .543.27.543.602M26.864 24.119c0 .332-.243.602-.543.602-.3 0-.542-.27-.542-.602 0-.333.243-.602.542-.602.3 0 .543.27.543.602M29.249 24.119c0 .332-.243.602-.542.602-.3 0-.543-.27-.543-.602 0-.333.243-.602.543-.602.3 0 .542.27.542.602M31.634 24.119c0 .332-.243.602-.542.602-.3 0-.543-.27-.543-.602 0-.333.243-.602.543-.602.3 0 .542.27.542.602M34.02 24.119c0 .332-.243.602-.543.602-.3 0-.543-.27-.543-.602 0-.333.243-.602.543-.602.3 0 .542.27.542.602M36.405 24.119c0 .332-.243.602-.543.602-.3 0-.542-.27-.542-.602 0-.333.242-.602.542-.602.3 0 .543.27.543.602M38.79 24.119c0 .332-.243.602-.543.602-.3 0-.542-.27-.542-.602 0-.333.243-.602.542-.602.3 0 .543.27.543.602M1.866 26.172c0 .333-.242.603-.542.603-.3 0-.542-.27-.542-.603 0-.332.242-.602.542-.602.3 0 .542.27.542.602M4.252 26.172c0 .333-.243.603-.543.603-.3 0-.542-.27-.542-.603 0-.332.243-.602.542-.602.3 0 .543.27.543.602M6.637 26.172c0 .333-.243.603-.543.603-.3 0-.542-.27-.542-.603 0-.332.243-.602.542-.602.3 0 .543.27.543.602M9.022 26.172c0 .333-.243.603-.542.603-.3 0-.543-.27-.543-.603 0-.332.243-.602.543-.602.3 0 .542.27.542.602M11.407 26.172c0 .333-.243.603-.542.603-.3 0-.543-.27-.543-.603 0-.332.243-.602.543-.602.3 0 .542.27.542.602M13.792 26.172c0 .333-.242.603-.542.603-.3 0-.543-.27-.543-.603 0-.332.243-.602.543-.602.3 0 .542.27.542.602M16.178 26.172c0 .333-.243.603-.543.603-.3 0-.542-.27-.542-.603 0-.332.242-.602.542-.602.3 0 .543.27.543.602M18.563 26.172c0 .333-.243.603-.543.603-.3 0-.542-.27-.542-.603 0-.332.243-.602.542-.602.3 0 .543.27.543.602M20.948 26.172c0 .333-.243.603-.542.603-.3 0-.543-.27-.543-.603 0-.332.243-.602.543-.602.3 0 .542.27.542.602M23.333 26.172c0 .333-.243.603-.542.603-.3 0-.543-.27-.543-.603 0-.332.243-.602.543-.602.3 0 .542.27.542.602M25.718 26.172c0 .333-.243.603-.542.603-.3 0-.543-.27-.543-.603 0-.332.243-.602.543-.602.3 0 .542.27.542.602M28.104 26.172c0 .333-.243.603-.543.603-.3 0-.542-.27-.542-.603 0-.332.242-.602.542-.602.3 0 .543.27.543.602M30.489 26.172c0 .333-.243.603-.543.603-.3 0-.542-.27-.542-.603 0-.332.243-.602.542-.602.3 0 .543.27.543.602M32.874 26.172c0 .333-.243.603-.543.603-.3 0-.542-.27-.542-.603 0-.332.243-.602.542-.602.3 0 .543.27.543.602M35.26 26.172c0 .333-.244.603-.543.603-.3 0-.543-.27-.543-.603 0-.332.243-.602.543-.602.3 0 .542.27.542.602M37.644 26.172c0 .333-.243.603-.542.603-.3 0-.543-.27-.543-.603 0-.332.243-.602.543-.602.3 0 .542.27.542.602M3.012 28.226c0 .333-.243.602-.543.602-.3 0-.542-.27-.542-.602 0-.333.243-.602.542-.602.3 0 .543.27.543.602M5.397 28.226c0 .333-.243.602-.542.602-.3 0-.543-.27-.543-.602 0-.333.243-.602.543-.602.3 0 .542.27.542.602M7.782 28.226c0 .333-.243.602-.542.602-.3 0-.543-.27-.543-.602 0-.333.243-.602.543-.602.3 0 .542.27.542.602M10.168 28.226c0 .333-.243.602-.543.602-.3 0-.542-.27-.542-.602 0-.333.242-.602.542-.602.3 0 .543.27.543.602M12.553 28.226c0 .333-.243.602-.543.602-.3 0-.542-.27-.542-.602 0-.333.243-.602.542-.602.3 0 .543.27.543.602M14.938 28.226c0 .333-.243.602-.543.602-.3 0-.542-.27-.542-.602 0-.333.243-.602.542-.602.3 0 .543.27.543.602M17.323 28.226c0 .333-.243.602-.542.602-.3 0-.543-.27-.543-.602 0-.333.243-.602.543-.602.3 0 .542.27.542.602M19.708 28.226c0 .333-.243.602-.542.602-.3 0-.543-.27-.543-.602 0-.333.243-.602.543-.602.3 0 .542.27.542.602M22.093 28.226c0 .333-.242.602-.542.602-.3 0-.543-.27-.543-.602 0-.333.243-.602.543-.602.3 0 .542.27.542.602M24.479 28.226c0 .333-.243.602-.543.602-.3 0-.542-.27-.542-.602 0-.333.243-.602.542-.602.3 0 .543.27.543.602M26.864 28.226c0 .333-.243.602-.543.602-.3 0-.542-.27-.542-.602 0-.333.243-.602.542-.602.3 0 .543.27.543.602M29.249 28.226c0 .333-.243.602-.542.602-.3 0-.543-.27-.543-.602 0-.333.243-.602.543-.602.3 0 .542.27.542.602M31.634 28.226c0 .333-.243.602-.542.602-.3 0-.543-.27-.543-.602 0-.333.243-.602.543-.602.3 0 .542.27.542.602M34.02 28.226c0 .333-.243.602-.543.602-.3 0-.543-.27-.543-.602 0-.333.243-.602.543-.602.3 0 .542.27.542.602M36.405 28.226c0 .333-.243.602-.543.602-.3 0-.542-.27-.542-.602 0-.333.242-.602.542-.602.3 0 .543.27.543.602M38.79 28.226c0 .333-.243.602-.543.602-.3 0-.542-.27-.542-.602 0-.333.243-.602.542-.602.3 0 .543.27.543.602M1.866 30.28c0 .332-.242.602-.542.602-.3 0-.542-.27-.542-.602 0-.333.242-.602.542-.602.3 0 .542.27.542.602M4.252 30.28c0 .332-.243.602-.543.602-.3 0-.542-.27-.542-.602 0-.333.243-.602.542-.602.3 0 .543.27.543.602M6.637 30.28c0 .332-.243.602-.543.602-.3 0-.542-.27-.542-.602 0-.333.243-.602.542-.602.3 0 .543.27.543.602M9.022 30.28c0 .332-.243.602-.542.602-.3 0-.543-.27-.543-.602 0-.333.243-.602.543-.602.3 0 .542.27.542.602M11.407 30.28c0 .332-.243.602-.542.602-.3 0-.543-.27-.543-.602 0-.333.243-.602.543-.602.3 0 .542.27.542.602M13.792 30.28c0 .332-.242.602-.542.602-.3 0-.543-.27-.543-.602 0-.333.243-.602.543-.602.3 0 .542.27.542.602M16.178 30.28c0 .332-.243.602-.543.602-.3 0-.542-.27-.542-.602 0-.333.242-.602.542-.602.3 0 .543.27.543.602M18.563 30.28c0 .332-.243.602-.543.602-.3 0-.542-.27-.542-.602 0-.333.243-.602.542-.602.3 0 .543.27.543.602M20.948 30.28c0 .332-.243.602-.542.602-.3 0-.543-.27-.543-.602 0-.333.243-.602.543-.602.3 0 .542.27.542.602M23.333 30.28c0 .332-.243.602-.542.602-.3 0-.543-.27-.543-.602 0-.333.243-.602.543-.602.3 0 .542.27.542.602M25.718 30.28c0 .332-.243.602-.542.602-.3 0-.543-.27-.543-.602 0-.333.243-.602.543-.602.3 0 .542.27.542.602M28.104 30.28c0 .332-.243.602-.543.602-.3 0-.542-.27-.542-.602 0-.333.242-.602.542-.602.3 0 .543.27.543.602M30.489 30.28c0 .332-.243.602-.543.602-.3 0-.542-.27-.542-.602 0-.333.243-.602.542-.602.3 0 .543.27.543.602M32.874 30.28c0 .332-.243.602-.543.602-.3 0-.542-.27-.542-.602 0-.333.243-.602.542-.602.3 0 .543.27.543.602M35.26 30.28c0 .332-.244.602-.543.602-.3 0-.543-.27-.543-.602 0-.333.243-.602.543-.602.3 0 .542.27.542.602M37.644 30.28c0 .332-.243.602-.542.602-.3 0-.543-.27-.543-.602 0-.333.243-.602.543-.602.3 0 .542.27.542.602M3.012 32.333c0 .333-.243.602-.543.602-.3 0-.542-.27-.542-.602 0-.332.243-.602.542-.602.3 0 .543.27.543.602M5.397 32.333c0 .333-.243.602-.542.602-.3 0-.543-.27-.543-.602 0-.332.243-.602.543-.602.3 0 .542.27.542.602M7.782 32.333c0 .333-.243.602-.542.602-.3 0-.543-.27-.543-.602 0-.332.243-.602.543-.602.3 0 .542.27.542.602M10.168 32.333c0 .333-.243.602-.543.602-.3 0-.542-.27-.542-.602 0-.332.242-.602.542-.602.3 0 .543.27.543.602M12.553 32.333c0 .333-.243.602-.543.602-.3 0-.542-.27-.542-.602 0-.332.243-.602.542-.602.3 0 .543.27.543.602M14.938 32.333c0 .333-.243.602-.543.602-.3 0-.542-.27-.542-.602 0-.332.243-.602.542-.602.3 0 .543.27.543.602M17.323 32.333c0 .333-.243.602-.542.602-.3 0-.543-.27-.543-.602 0-.332.243-.602.543-.602.3 0 .542.27.542.602M19.708 32.333c0 .333-.243.602-.542.602-.3 0-.543-.27-.543-.602 0-.332.243-.602.543-.602.3 0 .542.27.542.602M22.093 32.333c0 .333-.242.602-.542.602-.3 0-.543-.27-.543-.602 0-.332.243-.602.543-.602.3 0 .542.27.542.602M24.479 32.333c0 .333-.243.602-.543.602-.3 0-.542-.27-.542-.602 0-.332.243-.602.542-.602.3 0 .543.27.543.602M26.864 32.333c0 .333-.243.602-.543.602-.3 0-.542-.27-.542-.602 0-.332.243-.602.542-.602.3 0 .543.27.543.602M29.249 32.333c0 .333-.243.602-.542.602-.3 0-.543-.27-.543-.602 0-.332.243-.602.543-.602.3 0 .542.27.542.602M31.634 32.333c0 .333-.243.602-.542.602-.3 0-.543-.27-.543-.602 0-.332.243-.602.543-.602.3 0 .542.27.542.602M34.02 32.333c0 .333-.243.602-.543.602-.3 0-.543-.27-.543-.602 0-.332.243-.602.543-.602.3 0 .542.27.542.602M36.405 32.333c0 .333-.243.602-.543.602-.3 0-.542-.27-.542-.602 0-.332.242-.602.542-.602.3 0 .543.27.543.602M38.79 32.333c0 .333-.243.602-.543.602-.3 0-.542-.27-.542-.602 0-.332.243-.602.542-.602.3 0 .543.27.543.602M1.866 34.387c0 .332-.242.602-.542.602-.3 0-.542-.27-.542-.602 0-.333.242-.602.542-.602.3 0 .542.27.542.602M4.252 34.387c0 .332-.243.602-.543.602-.3 0-.542-.27-.542-.602 0-.333.243-.602.542-.602.3 0 .543.27.543.602M6.637 34.387c0 .332-.243.602-.543.602-.3 0-.542-.27-.542-.602 0-.333.243-.602.542-.602.3 0 .543.27.543.602M9.022 34.387c0 .332-.243.602-.542.602-.3 0-.543-.27-.543-.602 0-.333.243-.602.543-.602.3 0 .542.27.542.602M11.407 34.387c0 .332-.243.602-.542.602-.3 0-.543-.27-.543-.602 0-.333.243-.602.543-.602.3 0 .542.27.542.602M13.792 34.387c0 .332-.242.602-.542.602-.3 0-.543-.27-.543-.602 0-.333.243-.602.543-.602.3 0 .542.27.542.602M16.178 34.387c0 .332-.243.602-.543.602-.3 0-.542-.27-.542-.602 0-.333.242-.602.542-.602.3 0 .543.27.543.602M18.563 34.387c0 .332-.243.602-.543.602-.3 0-.542-.27-.542-.602 0-.333.243-.602.542-.602.3 0 .543.27.543.602M20.948 34.387c0 .332-.243.602-.542.602-.3 0-.543-.27-.543-.602 0-.333.243-.602.543-.602.3 0 .542.27.542.602M23.333 34.387c0 .332-.243.602-.542.602-.3 0-.543-.27-.543-.602 0-.333.243-.602.543-.602.3 0 .542.27.542.602M25.718 34.387c0 .332-.243.602-.542.602-.3 0-.543-.27-.543-.602 0-.333.243-.602.543-.602.3 0 .542.27.542.602M28.104 34.387c0 .332-.243.602-.543.602-.3 0-.542-.27-.542-.602 0-.333.242-.602.542-.602.3 0 .543.27.543.602M30.489 34.387c0 .332-.243.602-.543.602-.3 0-.542-.27-.542-.602 0-.333.243-.602.542-.602.3 0 .543.27.543.602M32.874 34.387c0 .332-.243.602-.543.602-.3 0-.542-.27-.542-.602 0-.333.243-.602.542-.602.3 0 .543.27.543.602M35.26 34.387c0 .332-.244.602-.543.602-.3 0-.543-.27-.543-.602 0-.333.243-.602.543-.602.3 0 .542.27.542.602M37.644 34.387c0 .332-.243.602-.542.602-.3 0-.543-.27-.543-.602 0-.333.243-.602.543-.602.3 0 .542.27.542.602M3.012 36.44c0 .333-.243.603-.543.603-.3 0-.542-.27-.542-.602 0-.333.243-.603.542-.603.3 0 .543.27.543.603M5.397 36.44c0 .333-.243.603-.542.603-.3 0-.543-.27-.543-.602 0-.333.243-.603.543-.603.3 0 .542.27.542.603M7.782 36.44c0 .333-.243.603-.542.603-.3 0-.543-.27-.543-.602 0-.333.243-.603.543-.603.3 0 .542.27.542.603M10.168 36.44c0 .333-.243.603-.543.603-.3 0-.542-.27-.542-.602 0-.333.242-.603.542-.603.3 0 .543.27.543.603M12.553 36.44c0 .333-.243.603-.543.603-.3 0-.542-.27-.542-.602 0-.333.243-.603.542-.603.3 0 .543.27.543.603M14.938 36.44c0 .333-.243.603-.543.603-.3 0-.542-.27-.542-.602 0-.333.243-.603.542-.603.3 0 .543.27.543.603M17.323 36.44c0 .333-.243.603-.542.603-.3 0-.543-.27-.543-.602 0-.333.243-.603.543-.603.3 0 .542.27.542.603M19.708 36.44c0 .333-.243.603-.542.603-.3 0-.543-.27-.543-.602 0-.333.243-.603.543-.603.3 0 .542.27.542.603M22.093 36.44c0 .333-.242.603-.542.603-.3 0-.543-.27-.543-.602 0-.333.243-.603.543-.603.3 0 .542.27.542.603M24.479 36.44c0 .333-.243.603-.543.603-.3 0-.542-.27-.542-.602 0-.333.243-.603.542-.603.3 0 .543.27.543.603M26.864 36.44c0 .333-.243.603-.543.603-.3 0-.542-.27-.542-.602 0-.333.243-.603.542-.603.3 0 .543.27.543.603M29.249 36.44c0 .333-.243.603-.542.603-.3 0-.543-.27-.543-.602 0-.333.243-.603.543-.603.3 0 .542.27.542.603M31.634 36.44c0 .333-.243.603-.542.603-.3 0-.543-.27-.543-.602 0-.333.243-.603.543-.603.3 0 .542.27.542.603M34.02 36.44c0 .333-.243.603-.543.603-.3 0-.543-.27-.543-.602 0-.333.243-.603.543-.603.3 0 .542.27.542.603M36.405 36.44c0 .333-.243.603-.543.603-.3 0-.542-.27-.542-.602 0-.333.242-.603.542-.603.3 0 .543.27.543.603M38.79 36.44c0 .333-.243.603-.543.603-.3 0-.542-.27-.542-.602 0-.333.243-.603.542-.603.3 0 .543.27.543.603M1.866 38.494c0 .333-.242.602-.542.602-.3 0-.542-.27-.542-.602 0-.332.242-.602.542-.602.3 0 .542.27.542.602M4.252 38.494c0 .333-.243.602-.543.602-.3 0-.542-.27-.542-.602 0-.332.243-.602.542-.602.3 0 .543.27.543.602M6.637 38.494c0 .333-.243.602-.543.602-.3 0-.542-.27-.542-.602 0-.332.243-.602.542-.602.3 0 .543.27.543.602M9.022 38.494c0 .333-.243.602-.542.602-.3 0-.543-.27-.543-.602 0-.332.243-.602.543-.602.3 0 .542.27.542.602M11.407 38.494c0 .333-.243.602-.542.602-.3 0-.543-.27-.543-.602 0-.332.243-.602.543-.602.3 0 .542.27.542.602M13.792 38.494c0 .333-.242.602-.542.602-.3 0-.543-.27-.543-.602 0-.332.243-.602.543-.602.3 0 .542.27.542.602M16.178 38.494c0 .333-.243.602-.543.602-.3 0-.542-.27-.542-.602 0-.332.242-.602.542-.602.3 0 .543.27.543.602M18.563 38.494c0 .333-.243.602-.543.602-.3 0-.542-.27-.542-.602 0-.332.243-.602.542-.602.3 0 .543.27.543.602M20.948 38.494c0 .333-.243.602-.542.602-.3 0-.543-.27-.543-.602 0-.332.243-.602.543-.602.3 0 .542.27.542.602M23.333 38.494c0 .333-.243.602-.542.602-.3 0-.543-.27-.543-.602 0-.332.243-.602.543-.602.3 0 .542.27.542.602M25.718 38.494c0 .333-.243.602-.542.602-.3 0-.543-.27-.543-.602 0-.332.243-.602.543-.602.3 0 .542.27.542.602M28.104 38.494c0 .333-.243.602-.543.602-.3 0-.542-.27-.542-.602 0-.332.242-.602.542-.602.3 0 .543.27.543.602M30.489 38.494c0 .333-.243.602-.543.602-.3 0-.542-.27-.542-.602 0-.332.243-.602.542-.602.3 0 .543.27.543.602M32.874 38.494c0 .333-.243.602-.543.602-.3 0-.542-.27-.542-.602 0-.332.243-.602.542-.602.3 0 .543.27.543.602M35.26 38.494c0 .333-.244.602-.543.602-.3 0-.543-.27-.543-.602 0-.332.243-.602.543-.602.3 0 .542.27.542.602M37.644 38.494c0 .333-.243.602-.542.602-.3 0-.543-.27-.543-.602 0-.332.243-.602.543-.602.3 0 .542.27.542.602M3.012 40.548c0 .332-.243.602-.543.602-.3 0-.542-.27-.542-.602 0-.333.243-.602.542-.602.3 0 .543.27.543.602M5.397 40.548c0 .332-.243.602-.542.602-.3 0-.543-.27-.543-.602 0-.333.243-.602.543-.602.3 0 .542.27.542.602M7.782 40.548c0 .332-.243.602-.542.602-.3 0-.543-.27-.543-.602 0-.333.243-.602.543-.602.3 0 .542.27.542.602M10.168 40.548c0 .332-.243.602-.543.602-.3 0-.542-.27-.542-.602 0-.333.242-.602.542-.602.3 0 .543.27.543.602M12.553 40.548c0 .332-.243.602-.543.602-.3 0-.542-.27-.542-.602 0-.333.243-.602.542-.602.3 0 .543.27.543.602M14.938 40.548c0 .332-.243.602-.543.602-.3 0-.542-.27-.542-.602 0-.333.243-.602.542-.602.3 0 .543.27.543.602M17.323 40.548c0 .332-.243.602-.542.602-.3 0-.543-.27-.543-.602 0-.333.243-.602.543-.602.3 0 .542.27.542.602M19.708 40.548c0 .332-.243.602-.542.602-.3 0-.543-.27-.543-.602 0-.333.243-.602.543-.602.3 0 .542.27.542.602M22.093 40.548c0 .332-.242.602-.542.602-.3 0-.543-.27-.543-.602 0-.333.243-.602.543-.602.3 0 .542.27.542.602M24.479 40.548c0 .332-.243.602-.543.602-.3 0-.542-.27-.542-.602 0-.333.243-.602.542-.602.3 0 .543.27.543.602M26.864 40.548c0 .332-.243.602-.543.602-.3 0-.542-.27-.542-.602 0-.333.243-.602.542-.602.3 0 .543.27.543.602M29.249 40.548c0 .332-.243.602-.542.602-.3 0-.543-.27-.543-.602 0-.333.243-.602.543-.602.3 0 .542.27.542.602M31.634 40.548c0 .332-.243.602-.542.602-.3 0-.543-.27-.543-.602 0-.333.243-.602.543-.602.3 0 .542.27.542.602M34.02 40.548c0 .332-.243.602-.543.602-.3 0-.543-.27-.543-.602 0-.333.243-.602.543-.602.3 0 .542.27.542.602M36.405 40.548c0 .332-.243.602-.543.602-.3 0-.542-.27-.542-.602 0-.333.242-.602.542-.602.3 0 .543.27.543.602M38.79 40.548c0 .332-.243.602-.543.602-.3 0-.542-.27-.542-.602 0-.333.243-.602.542-.602.3 0 .543.27.543.602M1.866 42.601c0 .333-.242.602-.542.602-.3 0-.542-.27-.542-.602 0-.332.242-.602.542-.602.3 0 .542.27.542.602M4.252 42.601c0 .333-.243.602-.543.602-.3 0-.542-.27-.542-.602 0-.332.243-.602.542-.602.3 0 .543.27.543.602M6.637 42.601c0 .333-.243.602-.543.602-.3 0-.542-.27-.542-.602 0-.332.243-.602.542-.602.3 0 .543.27.543.602M9.022 42.601c0 .333-.243.602-.542.602-.3 0-.543-.27-.543-.602 0-.332.243-.602.543-.602.3 0 .542.27.542.602M11.407 42.601c0 .333-.243.602-.542.602-.3 0-.543-.27-.543-.602 0-.332.243-.602.543-.602.3 0 .542.27.542.602M13.792 42.601c0 .333-.242.602-.542.602-.3 0-.543-.27-.543-.602 0-.332.243-.602.543-.602.3 0 .542.27.542.602M16.178 42.601c0 .333-.243.602-.543.602-.3 0-.542-.27-.542-.602 0-.332.242-.602.542-.602.3 0 .543.27.543.602M18.563 42.601c0 .333-.243.602-.543.602-.3 0-.542-.27-.542-.602 0-.332.243-.602.542-.602.3 0 .543.27.543.602M20.948 42.601c0 .333-.243.602-.542.602-.3 0-.543-.27-.543-.602 0-.332.243-.602.543-.602.3 0 .542.27.542.602M23.333 42.601c0 .333-.243.602-.542.602-.3 0-.543-.27-.543-.602 0-.332.243-.602.543-.602.3 0 .542.27.542.602M25.718 42.601c0 .333-.243.602-.542.602-.3 0-.543-.27-.543-.602 0-.332.243-.602.543-.602.3 0 .542.27.542.602M28.104 42.601c0 .333-.243.602-.543.602-.3 0-.542-.27-.542-.602 0-.332.242-.602.542-.602.3 0 .543.27.543.602M30.489 42.601c0 .333-.243.602-.543.602-.3 0-.542-.27-.542-.602 0-.332.243-.602.542-.602.3 0 .543.27.543.602M32.874 42.601c0 .333-.243.602-.543.602-.3 0-.542-.27-.542-.602 0-.332.243-.602.542-.602.3 0 .543.27.543.602M35.26 42.601c0 .333-.244.602-.543.602-.3 0-.543-.27-.543-.602 0-.332.243-.602.543-.602.3 0 .542.27.542.602M37.644 42.601c0 .333-.243.602-.542.602-.3 0-.543-.27-.543-.602 0-.332.243-.602.543-.602.3 0 .542.27.542.602M3.012 44.655c0 .332-.243.602-.543.602-.3 0-.542-.27-.542-.602 0-.333.243-.602.542-.602.3 0 .543.27.543.602M5.397 44.655c0 .332-.243.602-.542.602-.3 0-.543-.27-.543-.602 0-.333.243-.602.543-.602.3 0 .542.27.542.602M7.782 44.655c0 .332-.243.602-.542.602-.3 0-.543-.27-.543-.602 0-.333.243-.602.543-.602.3 0 .542.27.542.602M10.168 44.655c0 .332-.243.602-.543.602-.3 0-.542-.27-.542-.602 0-.333.242-.602.542-.602.3 0 .543.27.543.602M12.553 44.655c0 .332-.243.602-.543.602-.3 0-.542-.27-.542-.602 0-.333.243-.602.542-.602.3 0 .543.27.543.602M14.938 44.655c0 .332-.243.602-.543.602-.3 0-.542-.27-.542-.602 0-.333.243-.602.542-.602.3 0 .543.27.543.602M17.323 44.655c0 .332-.243.602-.542.602-.3 0-.543-.27-.543-.602 0-.333.243-.602.543-.602.3 0 .542.27.542.602M19.708 44.655c0 .332-.243.602-.542.602-.3 0-.543-.27-.543-.602 0-.333.243-.602.543-.602.3 0 .542.27.542.602M22.093 44.655c0 .332-.242.602-.542.602-.3 0-.543-.27-.543-.602 0-.333.243-.602.543-.602.3 0 .542.27.542.602M24.479 44.655c0 .332-.243.602-.543.602-.3 0-.542-.27-.542-.602 0-.333.243-.602.542-.602.3 0 .543.27.543.602M26.864 44.655c0 .332-.243.602-.543.602-.3 0-.542-.27-.542-.602 0-.333.243-.602.542-.602.3 0 .543.27.543.602M29.249 44.655c0 .332-.243.602-.542.602-.3 0-.543-.27-.543-.602 0-.333.243-.602.543-.602.3 0 .542.27.542.602M31.634 44.655c0 .332-.243.602-.542.602-.3 0-.543-.27-.543-.602 0-.333.243-.602.543-.602.3 0 .542.27.542.602M34.02 44.655c0 .332-.243.602-.543.602-.3 0-.543-.27-.543-.602 0-.333.243-.602.543-.602.3 0 .542.27.542.602M36.405 44.655c0 .332-.243.602-.543.602-.3 0-.542-.27-.542-.602 0-.333.242-.602.542-.602.3 0 .543.27.543.602M38.79 44.655c0 .332-.243.602-.543.602-.3 0-.542-.27-.542-.602 0-.333.243-.602.542-.602.3 0 .543.27.543.602M1.866 46.709c0 .332-.242.602-.542.602-.3 0-.542-.27-.542-.602 0-.333.242-.602.542-.602.3 0 .542.27.542.602M4.252 46.709c0 .332-.243.602-.543.602-.3 0-.542-.27-.542-.602 0-.333.243-.602.542-.602.3 0 .543.27.543.602M6.637 46.709c0 .332-.243.602-.543.602-.3 0-.542-.27-.542-.602 0-.333.243-.602.542-.602.3 0 .543.27.543.602M9.022 46.709c0 .332-.243.602-.542.602-.3 0-.543-.27-.543-.602 0-.333.243-.602.543-.602.3 0 .542.27.542.602M11.407 46.709c0 .332-.243.602-.542.602-.3 0-.543-.27-.543-.602 0-.333.243-.602.543-.602.3 0 .542.27.542.602M13.792 46.709c0 .332-.242.602-.542.602-.3 0-.543-.27-.543-.602 0-.333.243-.602.543-.602.3 0 .542.27.542.602M16.178 46.709c0 .332-.243.602-.543.602-.3 0-.542-.27-.542-.602 0-.333.242-.602.542-.602.3 0 .543.27.543.602M18.563 46.709c0 .332-.243.602-.543.602-.3 0-.542-.27-.542-.602 0-.333.243-.602.542-.602.3 0 .543.27.543.602M20.948 46.709c0 .332-.243.602-.542.602-.3 0-.543-.27-.543-.602 0-.333.243-.602.543-.602.3 0 .542.27.542.602M23.333 46.709c0 .332-.243.602-.542.602-.3 0-.543-.27-.543-.602 0-.333.243-.602.543-.602.3 0 .542.27.542.602M25.718 46.709c0 .332-.243.602-.542.602-.3 0-.543-.27-.543-.602 0-.333.243-.602.543-.602.3 0 .542.27.542.602M28.104 46.709c0 .332-.243.602-.543.602-.3 0-.542-.27-.542-.602 0-.333.242-.602.542-.602.3 0 .543.27.543.602M30.489 46.709c0 .332-.243.602-.543.602-.3 0-.542-.27-.542-.602 0-.333.243-.602.542-.602.3 0 .543.27.543.602M32.874 46.709c0 .332-.243.602-.543.602-.3 0-.542-.27-.542-.602 0-.333.243-.602.542-.602.3 0 .543.27.543.602M35.26 46.709c0 .332-.244.602-.543.602-.3 0-.543-.27-.543-.602 0-.333.243-.602.543-.602.3 0 .542.27.542.602M37.644 46.709c0 .332-.243.602-.542.602-.3 0-.543-.27-.543-.602 0-.333.243-.602.543-.602.3 0 .542.27.542.602M3.012 48.762c0 .333-.243.602-.543.602-.3 0-.542-.27-.542-.602 0-.332.243-.602.542-.602.3 0 .543.27.543.602M5.397 48.762c0 .333-.243.602-.542.602-.3 0-.543-.27-.543-.602 0-.332.243-.602.543-.602.3 0 .542.27.542.602M7.782 48.762c0 .333-.243.602-.542.602-.3 0-.543-.27-.543-.602 0-.332.243-.602.543-.602.3 0 .542.27.542.602M10.168 48.762c0 .333-.243.602-.543.602-.3 0-.542-.27-.542-.602 0-.332.242-.602.542-.602.3 0 .543.27.543.602M12.553 48.762c0 .333-.243.602-.543.602-.3 0-.542-.27-.542-.602 0-.332.243-.602.542-.602.3 0 .543.27.543.602M14.938 48.762c0 .333-.243.602-.543.602-.3 0-.542-.27-.542-.602 0-.332.243-.602.542-.602.3 0 .543.27.543.602M17.323 48.762c0 .333-.243.602-.542.602-.3 0-.543-.27-.543-.602 0-.332.243-.602.543-.602.3 0 .542.27.542.602M19.708 48.762c0 .333-.243.602-.542.602-.3 0-.543-.27-.543-.602 0-.332.243-.602.543-.602.3 0 .542.27.542.602M22.093 48.762c0 .333-.242.602-.542.602-.3 0-.543-.27-.543-.602 0-.332.243-.602.543-.602.3 0 .542.27.542.602M24.479 48.762c0 .333-.243.602-.543.602-.3 0-.542-.27-.542-.602 0-.332.243-.602.542-.602.3 0 .543.27.543.602M26.864 48.762c0 .333-.243.602-.543.602-.3 0-.542-.27-.542-.602 0-.332.243-.602.542-.602.3 0 .543.27.543.602M29.249 48.762c0 .333-.243.602-.542.602-.3 0-.543-.27-.543-.602 0-.332.243-.602.543-.602.3 0 .542.27.542.602M31.634 48.762c0 .333-.243.602-.542.602-.3 0-.543-.27-.543-.602 0-.332.243-.602.543-.602.3 0 .542.27.542.602M34.02 48.762c0 .333-.243.602-.543.602-.3 0-.543-.27-.543-.602 0-.332.243-.602.543-.602.3 0 .542.27.542.602M36.405 48.762c0 .333-.243.602-.543.602-.3 0-.542-.27-.542-.602 0-.332.242-.602.542-.602.3 0 .543.27.543.602M38.79 48.762c0 .333-.243.602-.543.602-.3 0-.542-.27-.542-.602 0-.332.243-.602.542-.602.3 0 .543.27.543.602M1.866 50.816c0 .332-.242.602-.542.602-.3 0-.542-.27-.542-.602 0-.333.242-.602.542-.602.3 0 .542.27.542.602M4.252 50.816c0 .332-.243.602-.543.602-.3 0-.542-.27-.542-.602 0-.333.243-.602.542-.602.3 0 .543.27.543.602M6.637 50.816c0 .332-.243.602-.543.602-.3 0-.542-.27-.542-.602 0-.333.243-.602.542-.602.3 0 .543.27.543.602M9.022 50.816c0 .332-.243.602-.542.602-.3 0-.543-.27-.543-.602 0-.333.243-.602.543-.602.3 0 .542.27.542.602M11.407 50.816c0 .332-.243.602-.542.602-.3 0-.543-.27-.543-.602 0-.333.243-.602.543-.602.3 0 .542.27.542.602M13.792 50.816c0 .332-.242.602-.542.602-.3 0-.543-.27-.543-.602 0-.333.243-.602.543-.602.3 0 .542.27.542.602M16.178 50.816c0 .332-.243.602-.543.602-.3 0-.542-.27-.542-.602 0-.333.242-.602.542-.602.3 0 .543.27.543.602M18.563 50.816c0 .332-.243.602-.543.602-.3 0-.542-.27-.542-.602 0-.333.243-.602.542-.602.3 0 .543.27.543.602M20.948 50.816c0 .332-.243.602-.542.602-.3 0-.543-.27-.543-.602 0-.333.243-.602.543-.602.3 0 .542.27.542.602M23.333 50.816c0 .332-.243.602-.542.602-.3 0-.543-.27-.543-.602 0-.333.243-.602.543-.602.3 0 .542.27.542.602M25.718 50.816c0 .332-.243.602-.542.602-.3 0-.543-.27-.543-.602 0-.333.243-.602.543-.602.3 0 .542.27.542.602M28.104 50.816c0 .332-.243.602-.543.602-.3 0-.542-.27-.542-.602 0-.333.242-.602.542-.602.3 0 .543.27.543.602M30.489 50.816c0 .332-.243.602-.543.602-.3 0-.542-.27-.542-.602 0-.333.243-.602.542-.602.3 0 .543.27.543.602M32.874 50.816c0 .332-.243.602-.543.602-.3 0-.542-.27-.542-.602 0-.333.243-.602.542-.602.3 0 .543.27.543.602M35.26 50.816c0 .332-.244.602-.543.602-.3 0-.543-.27-.543-.602 0-.333.243-.602.543-.602.3 0 .542.27.542.602M37.644 50.816c0 .332-.243.602-.542.602-.3 0-.543-.27-.543-.602 0-.333.243-.602.543-.602.3 0 .542.27.542.602M3.012 52.87c0 .332-.243.602-.543.602-.3 0-.542-.27-.542-.603 0-.332.243-.602.542-.602.3 0 .543.27.543.602M5.397 52.87c0 .332-.243.602-.542.602-.3 0-.543-.27-.543-.603 0-.332.243-.602.543-.602.3 0 .542.27.542.602M7.782 52.87c0 .332-.243.602-.542.602-.3 0-.543-.27-.543-.603 0-.332.243-.602.543-.602.3 0 .542.27.542.602M10.168 52.87c0 .332-.243.602-.543.602-.3 0-.542-.27-.542-.603 0-.332.242-.602.542-.602.3 0 .543.27.543.602M12.553 52.87c0 .332-.243.602-.543.602-.3 0-.542-.27-.542-.603 0-.332.243-.602.542-.602.3 0 .543.27.543.602M14.938 52.87c0 .332-.243.602-.543.602-.3 0-.542-.27-.542-.603 0-.332.243-.602.542-.602.3 0 .543.27.543.602M17.323 52.87c0 .332-.243.602-.542.602-.3 0-.543-.27-.543-.603 0-.332.243-.602.543-.602.3 0 .542.27.542.602M19.708 52.87c0 .332-.243.602-.542.602-.3 0-.543-.27-.543-.603 0-.332.243-.602.543-.602.3 0 .542.27.542.602M22.093 52.87c0 .332-.242.602-.542.602-.3 0-.543-.27-.543-.603 0-.332.243-.602.543-.602.3 0 .542.27.542.602M24.479 52.87c0 .332-.243.602-.543.602-.3 0-.542-.27-.542-.603 0-.332.243-.602.542-.602.3 0 .543.27.543.602M26.864 52.87c0 .332-.243.602-.543.602-.3 0-.542-.27-.542-.603 0-.332.243-.602.542-.602.3 0 .543.27.543.602M29.249 52.87c0 .332-.243.602-.542.602-.3 0-.543-.27-.543-.603 0-.332.243-.602.543-.602.3 0 .542.27.542.602M31.634 52.87c0 .332-.243.602-.542.602-.3 0-.543-.27-.543-.603 0-.332.243-.602.543-.602.3 0 .542.27.542.602M34.02 52.87c0 .332-.243.602-.543.602-.3 0-.543-.27-.543-.603 0-.332.243-.602.543-.602.3 0 .542.27.542.602M36.405 52.87c0 .332-.243.602-.543.602-.3 0-.542-.27-.542-.603 0-.332.242-.602.542-.602.3 0 .543.27.543.602M38.79 52.87c0 .332-.243.602-.543.602-.3 0-.542-.27-.542-.603 0-.332.243-.602.542-.602.3 0 .543.27.543.602M1.866 54.923c0 .333-.242.602-.542.602-.3 0-.542-.27-.542-.602 0-.332.242-.602.542-.602.3 0 .542.27.542.602M4.252 54.923c0 .333-.243.602-.543.602-.3 0-.542-.27-.542-.602 0-.332.243-.602.542-.602.3 0 .543.27.543.602M6.637 54.923c0 .333-.243.602-.543.602-.3 0-.542-.27-.542-.602 0-.332.243-.602.542-.602.3 0 .543.27.543.602M9.022 54.923c0 .333-.243.602-.542.602-.3 0-.543-.27-.543-.602 0-.332.243-.602.543-.602.3 0 .542.27.542.602M11.407 54.923c0 .333-.243.602-.542.602-.3 0-.543-.27-.543-.602 0-.332.243-.602.543-.602.3 0 .542.27.542.602M13.792 54.923c0 .333-.242.602-.542.602-.3 0-.543-.27-.543-.602 0-.332.243-.602.543-.602.3 0 .542.27.542.602M16.178 54.923c0 .333-.243.602-.543.602-.3 0-.542-.27-.542-.602 0-.332.242-.602.542-.602.3 0 .543.27.543.602M18.563 54.923c0 .333-.243.602-.543.602-.3 0-.542-.27-.542-.602 0-.332.243-.602.542-.602.3 0 .543.27.543.602M20.948 54.923c0 .333-.243.602-.542.602-.3 0-.543-.27-.543-.602 0-.332.243-.602.543-.602.3 0 .542.27.542.602M23.333 54.923c0 .333-.243.602-.542.602-.3 0-.543-.27-.543-.602 0-.332.243-.602.543-.602.3 0 .542.27.542.602M25.718 54.923c0 .333-.243.602-.542.602-.3 0-.543-.27-.543-.602 0-.332.243-.602.543-.602.3 0 .542.27.542.602M28.104 54.923c0 .333-.243.602-.543.602-.3 0-.542-.27-.542-.602 0-.332.242-.602.542-.602.3 0 .543.27.543.602M30.489 54.923c0 .333-.243.602-.543.602-.3 0-.542-.27-.542-.602 0-.332.243-.602.542-.602.3 0 .543.27.543.602M32.874 54.923c0 .333-.243.602-.543.602-.3 0-.542-.27-.542-.602 0-.332.243-.602.542-.602.3 0 .543.27.543.602M35.26 54.923c0 .333-.244.602-.543.602-.3 0-.543-.27-.543-.602 0-.332.243-.602.543-.602.3 0 .542.27.542.602M37.644 54.923c0 .333-.243.602-.542.602-.3 0-.543-.27-.543-.602 0-.332.243-.602.543-.602.3 0 .542.27.542.602M3.012 56.977c0 .332-.243.602-.543.602-.3 0-.542-.27-.542-.602 0-.333.243-.602.542-.602.3 0 .543.27.543.602M5.397 56.977c0 .332-.243.602-.542.602-.3 0-.543-.27-.543-.602 0-.333.243-.602.543-.602.3 0 .542.27.542.602M7.782 56.977c0 .332-.243.602-.542.602-.3 0-.543-.27-.543-.602 0-.333.243-.602.543-.602.3 0 .542.27.542.602M10.168 56.977c0 .332-.243.602-.543.602-.3 0-.542-.27-.542-.602 0-.333.242-.602.542-.602.3 0 .543.27.543.602M12.553 56.977c0 .332-.243.602-.543.602-.3 0-.542-.27-.542-.602 0-.333.243-.602.542-.602.3 0 .543.27.543.602M14.938 56.977c0 .332-.243.602-.543.602-.3 0-.542-.27-.542-.602 0-.333.243-.602.542-.602.3 0 .543.27.543.602M17.323 56.977c0 .332-.243.602-.542.602-.3 0-.543-.27-.543-.602 0-.333.243-.602.543-.602.3 0 .542.27.542.602M19.708 56.977c0 .332-.243.602-.542.602-.3 0-.543-.27-.543-.602 0-.333.243-.602.543-.602.3 0 .542.27.542.602M22.093 56.977c0 .332-.242.602-.542.602-.3 0-.543-.27-.543-.602 0-.333.243-.602.543-.602.3 0 .542.27.542.602M24.479 56.977c0 .332-.243.602-.543.602-.3 0-.542-.27-.542-.602 0-.333.243-.602.542-.602.3 0 .543.27.543.602M26.864 56.977c0 .332-.243.602-.543.602-.3 0-.542-.27-.542-.602 0-.333.243-.602.542-.602.3 0 .543.27.543.602M29.249 56.977c0 .332-.243.602-.542.602-.3 0-.543-.27-.543-.602 0-.333.243-.602.543-.602.3 0 .542.27.542.602M31.634 56.977c0 .332-.243.602-.542.602-.3 0-.543-.27-.543-.602 0-.333.243-.602.543-.602.3 0 .542.27.542.602M34.02 56.977c0 .332-.243.602-.543.602-.3 0-.543-.27-.543-.602 0-.333.243-.602.543-.602.3 0 .542.27.542.602M36.405 56.977c0 .332-.243.602-.543.602-.3 0-.542-.27-.542-.602 0-.333.242-.602.542-.602.3 0 .543.27.543.602M38.79 56.977c0 .332-.243.602-.543.602-.3 0-.542-.27-.542-.602 0-.333.243-.602.542-.602.3 0 .543.27.543.602M1.866 59.03c0 .333-.242.602-.542.602-.3 0-.542-.27-.542-.602 0-.332.242-.602.542-.602.3 0 .542.27.542.602M4.252 59.03c0 .333-.243.602-.543.602-.3 0-.542-.27-.542-.602 0-.332.243-.602.542-.602.3 0 .543.27.543.602M6.637 59.03c0 .333-.243.602-.543.602-.3 0-.542-.27-.542-.602 0-.332.243-.602.542-.602.3 0 .543.27.543.602M9.022 59.03c0 .333-.243.602-.542.602-.3 0-.543-.27-.543-.602 0-.332.243-.602.543-.602.3 0 .542.27.542.602M11.407 59.03c0 .333-.243.602-.542.602-.3 0-.543-.27-.543-.602 0-.332.243-.602.543-.602.3 0 .542.27.542.602M13.792 59.03c0 .333-.242.602-.542.602-.3 0-.543-.27-.543-.602 0-.332.243-.602.543-.602.3 0 .542.27.542.602M16.178 59.03c0 .333-.243.602-.543.602-.3 0-.542-.27-.542-.602 0-.332.242-.602.542-.602.3 0 .543.27.543.602M18.563 59.03c0 .333-.243.602-.543.602-.3 0-.542-.27-.542-.602 0-.332.243-.602.542-.602.3 0 .543.27.543.602M20.948 59.03c0 .333-.243.602-.542.602-.3 0-.543-.27-.543-.602 0-.332.243-.602.543-.602.3 0 .542.27.542.602M23.333 59.03c0 .333-.243.602-.542.602-.3 0-.543-.27-.543-.602 0-.332.243-.602.543-.602.3 0 .542.27.542.602M25.718 59.03c0 .333-.243.602-.542.602-.3 0-.543-.27-.543-.602 0-.332.243-.602.543-.602.3 0 .542.27.542.602M28.104 59.03c0 .333-.243.602-.543.602-.3 0-.542-.27-.542-.602 0-.332.242-.602.542-.602.3 0 .543.27.543.602M30.489 59.03c0 .333-.243.602-.543.602-.3 0-.542-.27-.542-.602 0-.332.243-.602.542-.602.3 0 .543.27.543.602M32.874 59.03c0 .333-.243.602-.543.602-.3 0-.542-.27-.542-.602 0-.332.243-.602.542-.602.3 0 .543.27.543.602M35.26 59.03c0 .333-.244.602-.543.602-.3 0-.543-.27-.543-.602 0-.332.243-.602.543-.602.3 0 .542.27.542.602M37.644 59.03c0 .333-.243.602-.542.602-.3 0-.543-.27-.543-.602 0-.332.243-.602.543-.602.3 0 .542.27.542.602M3.012 61.084c0 .332-.243.602-.543.602-.3 0-.542-.27-.542-.602 0-.333.243-.602.542-.602.3 0 .543.27.543.602M5.397 61.084c0 .332-.243.602-.542.602-.3 0-.543-.27-.543-.602 0-.333.243-.602.543-.602.3 0 .542.27.542.602M7.782 61.084c0 .332-.243.602-.542.602-.3 0-.543-.27-.543-.602 0-.333.243-.602.543-.602.3 0 .542.27.542.602M10.168 61.084c0 .332-.243.602-.543.602-.3 0-.542-.27-.542-.602 0-.333.242-.602.542-.602.3 0 .543.27.543.602M12.553 61.084c0 .332-.243.602-.543.602-.3 0-.542-.27-.542-.602 0-.333.243-.602.542-.602.3 0 .543.27.543.602M14.938 61.084c0 .332-.243.602-.543.602-.3 0-.542-.27-.542-.602 0-.333.243-.602.542-.602.3 0 .543.27.543.602M17.323 61.084c0 .332-.243.602-.542.602-.3 0-.543-.27-.543-.602 0-.333.243-.602.543-.602.3 0 .542.27.542.602M19.708 61.084c0 .332-.243.602-.542.602-.3 0-.543-.27-.543-.602 0-.333.243-.602.543-.602.3 0 .542.27.542.602M22.093 61.084c0 .332-.242.602-.542.602-.3 0-.543-.27-.543-.602 0-.333.243-.602.543-.602.3 0 .542.27.542.602M24.479 61.084c0 .332-.243.602-.543.602-.3 0-.542-.27-.542-.602 0-.333.243-.602.542-.602.3 0 .543.27.543.602M26.864 61.084c0 .332-.243.602-.543.602-.3 0-.542-.27-.542-.602 0-.333.243-.602.542-.602.3 0 .543.27.543.602M29.249 61.084c0 .332-.243.602-.542.602-.3 0-.543-.27-.543-.602 0-.333.243-.602.543-.602.3 0 .542.27.542.602M31.634 61.084c0 .332-.243.602-.542.602-.3 0-.543-.27-.543-.602 0-.333.243-.602.543-.602.3 0 .542.27.542.602M34.02 61.084c0 .332-.243.602-.543.602-.3 0-.543-.27-.543-.602 0-.333.243-.602.543-.602.3 0 .542.27.542.602M36.405 61.084c0 .332-.243.602-.543.602-.3 0-.542-.27-.542-.602 0-.333.242-.602.542-.602.3 0 .543.27.543.602M38.79 61.084c0 .332-.243.602-.543.602-.3 0-.542-.27-.542-.602 0-.333.243-.602.542-.602.3 0 .543.27.543.602M1.866 63.138c0 .332-.242.602-.542.602-.3 0-.542-.27-.542-.602 0-.333.242-.603.542-.603.3 0 .542.27.542.603M4.252 63.138c0 .332-.243.602-.543.602-.3 0-.542-.27-.542-.602 0-.333.243-.603.542-.603.3 0 .543.27.543.603M6.637 63.138c0 .332-.243.602-.543.602-.3 0-.542-.27-.542-.602 0-.333.243-.603.542-.603.3 0 .543.27.543.603M9.022 63.138c0 .332-.243.602-.542.602-.3 0-.543-.27-.543-.602 0-.333.243-.603.543-.603.3 0 .542.27.542.603M11.407 63.138c0 .332-.243.602-.542.602-.3 0-.543-.27-.543-.602 0-.333.243-.603.543-.603.3 0 .542.27.542.603M13.792 63.138c0 .332-.242.602-.542.602-.3 0-.543-.27-.543-.602 0-.333.243-.603.543-.603.3 0 .542.27.542.603M16.178 63.138c0 .332-.243.602-.543.602-.3 0-.542-.27-.542-.602 0-.333.242-.603.542-.603.3 0 .543.27.543.603M18.563 63.138c0 .332-.243.602-.543.602-.3 0-.542-.27-.542-.602 0-.333.243-.603.542-.603.3 0 .543.27.543.603M20.948 63.138c0 .332-.243.602-.542.602-.3 0-.543-.27-.543-.602 0-.333.243-.603.543-.603.3 0 .542.27.542.603M23.333 63.138c0 .332-.243.602-.542.602-.3 0-.543-.27-.543-.602 0-.333.243-.603.543-.603.3 0 .542.27.542.603M25.718 63.138c0 .332-.243.602-.542.602-.3 0-.543-.27-.543-.602 0-.333.243-.603.543-.603.3 0 .542.27.542.603M28.104 63.138c0 .332-.243.602-.543.602-.3 0-.542-.27-.542-.602 0-.333.242-.603.542-.603.3 0 .543.27.543.603M30.489 63.138c0 .332-.243.602-.543.602-.3 0-.542-.27-.542-.602 0-.333.243-.603.542-.603.3 0 .543.27.543.603M32.874 63.138c0 .332-.243.602-.543.602-.3 0-.542-.27-.542-.602 0-.333.243-.603.542-.603.3 0 .543.27.543.603M35.26 63.138c0 .332-.244.602-.543.602-.3 0-.543-.27-.543-.602 0-.333.243-.603.543-.603.3 0 .542.27.542.603M37.644 63.138c0 .332-.243.602-.542.602-.3 0-.543-.27-.543-.602 0-.333.243-.603.543-.603.3 0 .542.27.542.603M3.012 65.191c0 .333-.243.602-.543.602-.3 0-.542-.27-.542-.602 0-.332.243-.602.542-.602.3 0 .543.27.543.602M5.397 65.191c0 .333-.243.602-.542.602-.3 0-.543-.27-.543-.602 0-.332.243-.602.543-.602.3 0 .542.27.542.602M7.782 65.191c0 .333-.243.602-.542.602-.3 0-.543-.27-.543-.602 0-.332.243-.602.543-.602.3 0 .542.27.542.602M10.168 65.191c0 .333-.243.602-.543.602-.3 0-.542-.27-.542-.602 0-.332.242-.602.542-.602.3 0 .543.27.543.602M12.553 65.191c0 .333-.243.602-.543.602-.3 0-.542-.27-.542-.602 0-.332.243-.602.542-.602.3 0 .543.27.543.602M14.938 65.191c0 .333-.243.602-.543.602-.3 0-.542-.27-.542-.602 0-.332.243-.602.542-.602.3 0 .543.27.543.602M17.323 65.191c0 .333-.243.602-.542.602-.3 0-.543-.27-.543-.602 0-.332.243-.602.543-.602.3 0 .542.27.542.602M19.708 65.191c0 .333-.243.602-.542.602-.3 0-.543-.27-.543-.602 0-.332.243-.602.543-.602.3 0 .542.27.542.602M22.093 65.191c0 .333-.242.602-.542.602-.3 0-.543-.27-.543-.602 0-.332.243-.602.543-.602.3 0 .542.27.542.602M24.479 65.191c0 .333-.243.602-.543.602-.3 0-.542-.27-.542-.602 0-.332.243-.602.542-.602.3 0 .543.27.543.602M26.864 65.191c0 .333-.243.602-.543.602-.3 0-.542-.27-.542-.602 0-.332.243-.602.542-.602.3 0 .543.27.543.602M29.249 65.191c0 .333-.243.602-.542.602-.3 0-.543-.27-.543-.602 0-.332.243-.602.543-.602.3 0 .542.27.542.602M31.634 65.191c0 .333-.243.602-.542.602-.3 0-.543-.27-.543-.602 0-.332.243-.602.543-.602.3 0 .542.27.542.602M34.02 65.191c0 .333-.243.602-.543.602-.3 0-.543-.27-.543-.602 0-.332.243-.602.543-.602.3 0 .542.27.542.602M36.405 65.191c0 .333-.243.602-.543.602-.3 0-.542-.27-.542-.602 0-.332.242-.602.542-.602.3 0 .543.27.543.602M38.79 65.191c0 .333-.243.602-.543.602-.3 0-.542-.27-.542-.602 0-.332.243-.602.542-.602.3 0 .543.27.543.602M1.866 67.245c0 .332-.242.602-.542.602-.3 0-.542-.27-.542-.602 0-.333.242-.602.542-.602.3 0 .542.27.542.602M4.252 67.245c0 .332-.243.602-.543.602-.3 0-.542-.27-.542-.602 0-.333.243-.602.542-.602.3 0 .543.27.543.602M6.637 67.245c0 .332-.243.602-.543.602-.3 0-.542-.27-.542-.602 0-.333.243-.602.542-.602.3 0 .543.27.543.602M9.022 67.245c0 .332-.243.602-.542.602-.3 0-.543-.27-.543-.602 0-.333.243-.602.543-.602.3 0 .542.27.542.602M11.407 67.245c0 .332-.243.602-.542.602-.3 0-.543-.27-.543-.602 0-.333.243-.602.543-.602.3 0 .542.27.542.602M13.792 67.245c0 .332-.242.602-.542.602-.3 0-.543-.27-.543-.602 0-.333.243-.602.543-.602.3 0 .542.27.542.602M16.178 67.245c0 .332-.243.602-.543.602-.3 0-.542-.27-.542-.602 0-.333.242-.602.542-.602.3 0 .543.27.543.602M18.563 67.245c0 .332-.243.602-.543.602-.3 0-.542-.27-.542-.602 0-.333.243-.602.542-.602.3 0 .543.27.543.602M20.948 67.245c0 .332-.243.602-.542.602-.3 0-.543-.27-.543-.602 0-.333.243-.602.543-.602.3 0 .542.27.542.602M23.333 67.245c0 .332-.243.602-.542.602-.3 0-.543-.27-.543-.602 0-.333.243-.602.543-.602.3 0 .542.27.542.602M25.718 67.245c0 .332-.243.602-.542.602-.3 0-.543-.27-.543-.602 0-.333.243-.602.543-.602.3 0 .542.27.542.602M28.104 67.245c0 .332-.243.602-.543.602-.3 0-.542-.27-.542-.602 0-.333.242-.602.542-.602.3 0 .543.27.543.602M30.489 67.245c0 .332-.243.602-.543.602-.3 0-.542-.27-.542-.602 0-.333.243-.602.542-.602.3 0 .543.27.543.602M32.874 67.245c0 .332-.243.602-.543.602-.3 0-.542-.27-.542-.602 0-.333.243-.602.542-.602.3 0 .543.27.543.602M35.26 67.245c0 .332-.244.602-.543.602-.3 0-.543-.27-.543-.602 0-.333.243-.602.543-.602.3 0 .542.27.542.602M37.644 67.245c0 .332-.243.602-.542.602-.3 0-.543-.27-.543-.602 0-.333.243-.602.543-.602.3 0 .542.27.542.602M3.012 69.298c0 .333-.243.603-.543.603-.3 0-.542-.27-.542-.603 0-.332.243-.602.542-.602.3 0 .543.27.543.602M5.397 69.298c0 .333-.243.603-.542.603-.3 0-.543-.27-.543-.603 0-.332.243-.602.543-.602.3 0 .542.27.542.602M7.782 69.298c0 .333-.243.603-.542.603-.3 0-.543-.27-.543-.603 0-.332.243-.602.543-.602.3 0 .542.27.542.602M10.168 69.298c0 .333-.243.603-.543.603-.3 0-.542-.27-.542-.603 0-.332.242-.602.542-.602.3 0 .543.27.543.602M12.553 69.298c0 .333-.243.603-.543.603-.3 0-.542-.27-.542-.603 0-.332.243-.602.542-.602.3 0 .543.27.543.602M14.938 69.298c0 .333-.243.603-.543.603-.3 0-.542-.27-.542-.603 0-.332.243-.602.542-.602.3 0 .543.27.543.602M17.323 69.298c0 .333-.243.603-.542.603-.3 0-.543-.27-.543-.603 0-.332.243-.602.543-.602.3 0 .542.27.542.602M19.708 69.298c0 .333-.243.603-.542.603-.3 0-.543-.27-.543-.603 0-.332.243-.602.543-.602.3 0 .542.27.542.602M22.093 69.298c0 .333-.242.603-.542.603-.3 0-.543-.27-.543-.603 0-.332.243-.602.543-.602.3 0 .542.27.542.602M24.479 69.298c0 .333-.243.603-.543.603-.3 0-.542-.27-.542-.603 0-.332.243-.602.542-.602.3 0 .543.27.543.602M26.864 69.298c0 .333-.243.603-.543.603-.3 0-.542-.27-.542-.603 0-.332.243-.602.542-.602.3 0 .543.27.543.602M29.249 69.298c0 .333-.243.603-.542.603-.3 0-.543-.27-.543-.603 0-.332.243-.602.543-.602.3 0 .542.27.542.602M31.634 69.298c0 .333-.243.603-.542.603-.3 0-.543-.27-.543-.603 0-.332.243-.602.543-.602.3 0 .542.27.542.602M34.02 69.298c0 .333-.243.603-.543.603-.3 0-.543-.27-.543-.603 0-.332.243-.602.543-.602.3 0 .542.27.542.602M36.405 69.298c0 .333-.243.603-.543.603-.3 0-.542-.27-.542-.603 0-.332.242-.602.542-.602.3 0 .543.27.543.602M38.79 69.298c0 .333-.243.603-.543.603-.3 0-.542-.27-.542-.603 0-.332.243-.602.542-.602.3 0 .543.27.543.602M1.866 71.352c0 .333-.242.602-.542.602-.3 0-.542-.27-.542-.602 0-.332.242-.602.542-.602.3 0 .542.27.542.602M4.252 71.352c0 .333-.243.602-.543.602-.3 0-.542-.27-.542-.602 0-.332.243-.602.542-.602.3 0 .543.27.543.602M6.637 71.352c0 .333-.243.602-.543.602-.3 0-.542-.27-.542-.602 0-.332.243-.602.542-.602.3 0 .543.27.543.602M9.022 71.352c0 .333-.243.602-.542.602-.3 0-.543-.27-.543-.602 0-.332.243-.602.543-.602.3 0 .542.27.542.602M11.407 71.352c0 .333-.243.602-.542.602-.3 0-.543-.27-.543-.602 0-.332.243-.602.543-.602.3 0 .542.27.542.602M13.792 71.352c0 .333-.242.602-.542.602-.3 0-.543-.27-.543-.602 0-.332.243-.602.543-.602.3 0 .542.27.542.602M16.178 71.352c0 .333-.243.602-.543.602-.3 0-.542-.27-.542-.602 0-.332.242-.602.542-.602.3 0 .543.27.543.602M18.563 71.352c0 .333-.243.602-.543.602-.3 0-.542-.27-.542-.602 0-.332.243-.602.542-.602.3 0 .543.27.543.602M20.948 71.352c0 .333-.243.602-.542.602-.3 0-.543-.27-.543-.602 0-.332.243-.602.543-.602.3 0 .542.27.542.602M23.333 71.352c0 .333-.243.602-.542.602-.3 0-.543-.27-.543-.602 0-.332.243-.602.543-.602.3 0 .542.27.542.602M25.718 71.352c0 .333-.243.602-.542.602-.3 0-.543-.27-.543-.602 0-.332.243-.602.543-.602.3 0 .542.27.542.602M28.104 71.352c0 .333-.243.602-.543.602-.3 0-.542-.27-.542-.602 0-.332.242-.602.542-.602.3 0 .543.27.543.602M30.489 71.352c0 .333-.243.602-.543.602-.3 0-.542-.27-.542-.602 0-.332.243-.602.542-.602.3 0 .543.27.543.602M32.874 71.352c0 .333-.243.602-.543.602-.3 0-.542-.27-.542-.602 0-.332.243-.602.542-.602.3 0 .543.27.543.602M35.26 71.352c0 .333-.244.602-.543.602-.3 0-.543-.27-.543-.602 0-.332.243-.602.543-.602.3 0 .542.27.542.602M37.644 71.352c0 .333-.243.602-.542.602-.3 0-.543-.27-.543-.602 0-.332.243-.602.543-.602.3 0 .542.27.542.602M3.012 73.406c0 .332-.243.602-.543.602-.3 0-.542-.27-.542-.602 0-.333.243-.602.542-.602.3 0 .543.27.543.602M5.397 73.406c0 .332-.243.602-.542.602-.3 0-.543-.27-.543-.602 0-.333.243-.602.543-.602.3 0 .542.27.542.602M7.782 73.406c0 .332-.243.602-.542.602-.3 0-.543-.27-.543-.602 0-.333.243-.602.543-.602.3 0 .542.27.542.602M10.168 73.406c0 .332-.243.602-.543.602-.3 0-.542-.27-.542-.602 0-.333.242-.602.542-.602.3 0 .543.27.543.602M12.553 73.406c0 .332-.243.602-.543.602-.3 0-.542-.27-.542-.602 0-.333.243-.602.542-.602.3 0 .543.27.543.602M14.938 73.406c0 .332-.243.602-.543.602-.3 0-.542-.27-.542-.602 0-.333.243-.602.542-.602.3 0 .543.27.543.602M17.323 73.406c0 .332-.243.602-.542.602-.3 0-.543-.27-.543-.602 0-.333.243-.602.543-.602.3 0 .542.27.542.602M19.708 73.406c0 .332-.243.602-.542.602-.3 0-.543-.27-.543-.602 0-.333.243-.602.543-.602.3 0 .542.27.542.602M22.093 73.406c0 .332-.242.602-.542.602-.3 0-.543-.27-.543-.602 0-.333.243-.602.543-.602.3 0 .542.27.542.602M24.479 73.406c0 .332-.243.602-.543.602-.3 0-.542-.27-.542-.602 0-.333.243-.602.542-.602.3 0 .543.27.543.602M26.864 73.406c0 .332-.243.602-.543.602-.3 0-.542-.27-.542-.602 0-.333.243-.602.542-.602.3 0 .543.27.543.602M29.249 73.406c0 .332-.243.602-.542.602-.3 0-.543-.27-.543-.602 0-.333.243-.602.543-.602.3 0 .542.27.542.602M31.634 73.406c0 .332-.243.602-.542.602-.3 0-.543-.27-.543-.602 0-.333.243-.602.543-.602.3 0 .542.27.542.602M34.02 73.406c0 .332-.243.602-.543.602-.3 0-.543-.27-.543-.602 0-.333.243-.602.543-.602.3 0 .542.27.542.602M36.405 73.406c0 .332-.243.602-.543.602-.3 0-.542-.27-.542-.602 0-.333.242-.602.542-.602.3 0 .543.27.543.602M38.79 73.406c0 .332-.243.602-.543.602-.3 0-.542-.27-.542-.602 0-.333.243-.602.542-.602.3 0 .543.27.543.602"/></g></g></g></g></g></g></svg>