<svg width="78" height="65" viewBox="0 0 78 65" xmlns="http://www.w3.org/2000/svg" xmlns:xlink="http://www.w3.org/1999/xlink"><defs><path d="M0 8.855v9.462c.005.928.75 1.678 1.67 1.683h51.66A1.686 1.686 0 0 0 55 18.317V0H0v8.855z" id="a"/><path id="c" d="M.25.962h110v105H.25z"/></defs><g fill="none" fill-rule="evenodd"><path d="M61.183 52.487a1.655 1.655 0 0 1-1.355 1.913L9.151 63.221a1.672 1.672 0 0 1-1.938-1.338L1.838 31.736a1.655 1.655 0 0 1 1.355-1.913l16.371-2.856v7.087c.005 1.898 1.562 3.436 3.484 3.44h35.47l2.665 14.993z" fill="#FFF"/><path d="M23.46 36.74a3.523 3.523 0 0 1-3.52-3.51V26L3.402 28.914a1.687 1.687 0 0 0-1.378 1.943l5.44 30.752a1.69 1.69 0 0 0 1.956 1.365l51.185-9.007a1.686 1.686 0 0 0 1.37-1.952l-2.702-15.276H23.459zM6.451 42.85l-.312-1.759a3.502 3.502 0 0 1 .583-2.625 3.52 3.52 0 0 1 2.274-1.443l4.2-.743a3.527 3.527 0 0 1 4.079 2.85l.312 1.76a3.502 3.502 0 0 1-.583 2.625 3.52 3.52 0 0 1-2.274 1.443l-4.2.742a3.525 3.525 0 0 1-4.08-2.85zm43.955 2.465a12.34 12.34 0 0 0-8.876 1.494 12.626 12.626 0 0 1-4.915 1.833 12.638 12.638 0 0 1-5.237-.101 10.897 10.897 0 0 0-4.594-.092c-1.527.22-2.99.76-4.29 1.586a12.626 12.626 0 0 1-4.916 1.832c-.81.145-1.63.222-2.453.23a13.328 13.328 0 0 1-2.757-.321 10.907 10.907 0 0 0-4.593-.092l-.304-1.833a12.657 12.657 0 0 1 5.237.101c1.508.356 3.074.387 4.594.092 1.527-.22 2.99-.76 4.29-1.586a12.626 12.626 0 0 1 4.916-1.832 12.638 12.638 0 0 1 5.237.1c1.508.357 3.074.389 4.594.092 1.527-.22 2.99-.76 4.291-1.585a12.608 12.608 0 0 1 4.915-1.833 12.657 12.657 0 0 1 5.237.101c1.508.356 3.074.387 4.594.092l.304 1.832a12.62 12.62 0 0 1-5.274-.11z"/><path d="M22 23.855v9.462c.005.928.75 1.678 1.67 1.683h51.66A1.686 1.686 0 0 0 77 33.317V15H22v8.855zM13.591 43.359c.926-.143 1.543-.884 1.384-1.662l-.29-1.505C14.54 39.503 13.827 39 12.993 39h-.3l-4.272.635c-.45.065-.85.278-1.112.591a1.255 1.255 0 0 0-.282 1.079l.318 1.505c.167.783 1.058 1.306 1.992 1.168l4.254-.62zM22 9h55v5H22z"/><path d="M75.32 1H23.67c-.92.005-1.665.685-1.67 1.525V6h55V2.533C77 1.686 76.248 1 75.32 1z" fill="#FFF"/><path d="M9.617 46.904l4.36-.776a3.653 3.653 0 0 0 2.362-1.509 3.681 3.681 0 0 0 .605-2.745l-.324-1.84a3.665 3.665 0 0 0-4.237-2.979l-4.36.776a3.653 3.653 0 0 0-2.362 1.51 3.681 3.681 0 0 0-.605 2.744l.324 1.84A3.668 3.668 0 0 0 8.977 47c.216-.013.43-.045.64-.096z" fill="#000" fill-rule="nonzero"/><path d="M74.517 0h-51.46c-1.922.005-3.479 1.542-3.484 3.44v21.712L2.875 28.053c-1.878.334-3.137 2.094-2.829 3.953l5.385 30.146C5.726 63.796 7.17 64.995 8.86 65c.204 0 .408-.018.609-.054l50.677-8.83c1.895-.333 3.16-2.116 2.829-3.988l-2.62-14.625h14.162c1.921-.004 3.478-1.542 3.483-3.44V3.449C78 1.548 76.442.005 74.517 0zM61.183 52.487a1.655 1.655 0 0 1-1.355 1.913L9.151 63.221a1.672 1.672 0 0 1-1.938-1.338L1.838 31.736a1.655 1.655 0 0 1 1.355-1.913l16.371-2.856v7.087c.005 1.898 1.562 3.436 3.484 3.44h35.47l2.665 14.993zM76.19 34.063a1.663 1.663 0 0 1-1.664 1.644h-51.47a1.663 1.663 0 0 1-1.664-1.644V16.169H76.19v17.894zm0-19.69H21.392v-5.39H76.19v5.39zm0-7.187H21.392V3.45a1.663 1.663 0 0 1 1.665-1.643h51.46c.917.004 1.659.738 1.664 1.643l.01 3.737z" fill="#000" fill-rule="nonzero"/><path d="M50.108 43.33a12.433 12.433 0 0 0-5.213-.102 12.446 12.446 0 0 0-4.892 1.849 10.774 10.774 0 0 1-4.27 1.599 10.705 10.705 0 0 1-4.573-.093 12.415 12.415 0 0 0-5.212-.101 12.464 12.464 0 0 0-4.893 1.848 10.746 10.746 0 0 1-4.27 1.6 10.723 10.723 0 0 1-4.573-.093A12.433 12.433 0 0 0 7 49.735l.302 1.849a10.714 10.714 0 0 1 4.572.092c.9.205 1.82.313 2.743.324a14.48 14.48 0 0 0 2.442-.231 12.464 12.464 0 0 0 4.892-1.849 10.746 10.746 0 0 1 4.27-1.599 10.705 10.705 0 0 1 4.573.092c1.712.403 3.487.438 5.213.102a12.464 12.464 0 0 0 4.892-1.849 12.142 12.142 0 0 1 8.889-1.525c1.71.403 3.487.438 5.212.102l-.302-1.849c-1.517.31-3.082.288-4.59-.065zM21 9h56v6H21z" fill="#000"/><g transform="translate(22 15)"><mask id="b" fill="#fff"><use xlink:href="#a"/></mask><g mask="url(#b)"><g transform="translate(-5)"><mask id="d" fill="#fff"><use xlink:href="#c"/></mask><use fill="#D8D8D8" xlink:href="#c"/><g mask="url(#d)"><path fill="#FFF" d="M.25 112.962h112v-113H.25z"/><g fill="#333"><path d="M2.281 1.699c0 .37-.297.669-.663.669a.666.666 0 0 1-.663-.67c0-.369.297-.668.663-.668.366 0 .663.3.663.669M5.196 1.699c0 .37-.296.669-.663.669a.666.666 0 0 1-.663-.67c0-.369.297-.668.663-.668.367 0 .663.3.663.669M8.112 1.699c0 .37-.297.669-.663.669a.666.666 0 0 1-.663-.67c0-.369.296-.668.663-.668.366 0 .663.3.663.669M11.027 1.699c0 .37-.297.669-.663.669a.666.666 0 0 1-.663-.67c0-.369.297-.668.663-.668.366 0 .663.3.663.669M13.942 1.699c0 .37-.297.669-.663.669a.666.666 0 0 1-.663-.67c0-.369.297-.668.663-.668.366 0 .663.3.663.669M16.857 1.699c0 .37-.296.669-.663.669a.666.666 0 0 1-.663-.67c0-.369.297-.668.663-.668.367 0 .663.3.663.669M19.773 1.699c0 .37-.297.669-.663.669a.666.666 0 0 1-.663-.67c0-.369.296-.668.663-.668.366 0 .663.3.663.669M22.688 1.699c0 .37-.297.669-.663.669a.666.666 0 0 1-.663-.67c0-.369.297-.668.663-.668.366 0 .663.3.663.669M25.603 1.699c0 .37-.297.669-.663.669a.666.666 0 0 1-.663-.67c0-.369.297-.668.663-.668.366 0 .663.3.663.669M28.518 1.699c0 .37-.296.669-.663.669a.666.666 0 0 1-.663-.67c0-.369.297-.668.663-.668.367 0 .663.3.663.669M31.434 1.699c0 .37-.297.669-.663.669a.666.666 0 0 1-.663-.67c0-.369.296-.668.663-.668.366 0 .663.3.663.669M34.349 1.699c0 .37-.297.669-.663.669a.666.666 0 0 1-.663-.67c0-.369.297-.668.663-.668.366 0 .663.3.663.669M37.264 1.699c0 .37-.297.669-.663.669a.666.666 0 0 1-.663-.67c0-.369.297-.668.663-.668.366 0 .663.3.663.669M40.18 1.699c0 .37-.298.669-.664.669a.666.666 0 0 1-.663-.67c0-.369.297-.668.663-.668.366 0 .663.3.663.669M43.095 1.699c0 .37-.297.669-.664.669a.666.666 0 0 1-.663-.67c0-.369.297-.668.663-.668.367 0 .664.3.664.669M46.01 1.699c0 .37-.297.669-.663.669a.666.666 0 0 1-.663-.67c0-.369.296-.668.663-.668.366 0 .663.3.663.669M48.925 1.699c0 .37-.297.669-.663.669a.666.666 0 0 1-.663-.67c0-.369.297-.668.663-.668.366 0 .663.3.663.669M51.84 1.699c0 .37-.297.669-.663.669a.666.666 0 0 1-.663-.67c0-.369.297-.668.663-.668.366 0 .663.3.663.669M54.755 1.699c0 .37-.296.669-.663.669a.666.666 0 0 1-.663-.67c0-.369.297-.668.663-.668.367 0 .663.3.663.669M57.67 1.699c0 .37-.296.669-.662.669a.666.666 0 0 1-.663-.67c0-.369.296-.668.663-.668.366 0 .663.3.663.669M60.586 1.699c0 .37-.297.669-.663.669a.666.666 0 0 1-.663-.67c0-.369.297-.668.663-.668.366 0 .663.3.663.669M3.681 3.98c0 .37-.297.67-.663.67a.666.666 0 0 1-.663-.67c0-.369.297-.668.663-.668.366 0 .663.3.663.669M6.596 3.98c0 .37-.296.67-.663.67a.666.666 0 0 1-.663-.67c0-.369.297-.668.663-.668.367 0 .663.3.663.669M9.512 3.98c0 .37-.297.67-.663.67a.666.666 0 0 1-.663-.67c0-.369.296-.668.663-.668.366 0 .663.3.663.669M12.427 3.98c0 .37-.297.67-.663.67a.666.666 0 0 1-.663-.67c0-.369.297-.668.663-.668.366 0 .663.3.663.669M15.342 3.98c0 .37-.297.67-.663.67a.666.666 0 0 1-.663-.67c0-.369.297-.668.663-.668.366 0 .663.3.663.669M18.257 3.98c0 .37-.296.67-.663.67a.666.666 0 0 1-.663-.67c0-.369.297-.668.663-.668.367 0 .663.3.663.669M21.173 3.98c0 .37-.297.67-.663.67a.666.666 0 0 1-.663-.67c0-.369.296-.668.663-.668.366 0 .663.3.663.669M24.088 3.98c0 .37-.297.67-.663.67a.666.666 0 0 1-.663-.67c0-.369.297-.668.663-.668.366 0 .663.3.663.669M27.003 3.98c0 .37-.297.67-.663.67a.666.666 0 0 1-.663-.67c0-.369.297-.668.663-.668.366 0 .663.3.663.669M29.918 3.98c0 .37-.296.67-.663.67a.666.666 0 0 1-.663-.67c0-.369.297-.668.663-.668.367 0 .663.3.663.669M32.834 3.98c0 .37-.297.67-.663.67a.666.666 0 0 1-.663-.67c0-.369.296-.668.663-.668.366 0 .663.3.663.669M35.749 3.98c0 .37-.297.67-.663.67a.666.666 0 0 1-.663-.67c0-.369.297-.668.663-.668.366 0 .663.3.663.669M38.664 3.98c0 .37-.297.67-.663.67a.666.666 0 0 1-.663-.67c0-.369.297-.668.663-.668.366 0 .663.3.663.669M41.58 3.98c0 .37-.298.67-.664.67a.666.666 0 0 1-.663-.67c0-.369.297-.668.663-.668.366 0 .663.3.663.669M44.495 3.98c0 .37-.297.67-.664.67a.666.666 0 0 1-.663-.67c0-.369.297-.668.663-.668.367 0 .664.3.664.669M47.41 3.98c0 .37-.297.67-.663.67a.666.666 0 0 1-.663-.67c0-.369.296-.668.663-.668.366 0 .663.3.663.669M50.325 3.98c0 .37-.297.67-.663.67a.666.666 0 0 1-.663-.67c0-.369.297-.668.663-.668.366 0 .663.3.663.669M53.24 3.98c0 .37-.297.67-.663.67a.666.666 0 0 1-.663-.67c0-.369.297-.668.663-.668.366 0 .663.3.663.669M56.155 3.98c0 .37-.296.67-.663.67a.666.666 0 0 1-.663-.67c0-.369.297-.668.663-.668.367 0 .663.3.663.669M59.07 3.98c0 .37-.296.67-.662.67a.666.666 0 0 1-.663-.67c0-.369.296-.668.663-.668.366 0 .663.3.663.669M61.986 3.98c0 .37-.297.67-.663.67a.666.666 0 0 1-.663-.67c0-.369.297-.668.663-.668.366 0 .663.3.663.669M2.281 6.262c0 .37-.297.67-.663.67a.666.666 0 0 1-.663-.67c0-.369.297-.669.663-.669.366 0 .663.3.663.67M5.196 6.262c0 .37-.296.67-.663.67a.666.666 0 0 1-.663-.67c0-.369.297-.669.663-.669.367 0 .663.3.663.67M8.112 6.262c0 .37-.297.67-.663.67a.666.666 0 0 1-.663-.67c0-.369.296-.669.663-.669.366 0 .663.3.663.67M11.027 6.262c0 .37-.297.67-.663.67a.666.666 0 0 1-.663-.67c0-.369.297-.669.663-.669.366 0 .663.3.663.67M13.942 6.262c0 .37-.297.67-.663.67a.666.666 0 0 1-.663-.67c0-.369.297-.669.663-.669.366 0 .663.3.663.67M16.857 6.262c0 .37-.296.67-.663.67a.666.666 0 0 1-.663-.67c0-.369.297-.669.663-.669.367 0 .663.3.663.67M19.773 6.262c0 .37-.297.67-.663.67a.666.666 0 0 1-.663-.67c0-.369.296-.669.663-.669.366 0 .663.3.663.67M22.688 6.262c0 .37-.297.67-.663.67a.666.666 0 0 1-.663-.67c0-.369.297-.669.663-.669.366 0 .663.3.663.67M25.603 6.262c0 .37-.297.67-.663.67a.666.666 0 0 1-.663-.67c0-.369.297-.669.663-.669.366 0 .663.3.663.67M28.518 6.262c0 .37-.296.67-.663.67a.666.666 0 0 1-.663-.67c0-.369.297-.669.663-.669.367 0 .663.3.663.67M31.434 6.262c0 .37-.297.67-.663.67a.666.666 0 0 1-.663-.67c0-.369.296-.669.663-.669.366 0 .663.3.663.67M34.349 6.262c0 .37-.297.67-.663.67a.666.666 0 0 1-.663-.67c0-.369.297-.669.663-.669.366 0 .663.3.663.67M37.264 6.262c0 .37-.297.67-.663.67a.666.666 0 0 1-.663-.67c0-.369.297-.669.663-.669.366 0 .663.3.663.67M40.18 6.262c0 .37-.298.67-.664.67a.666.666 0 0 1-.663-.67c0-.369.297-.669.663-.669.366 0 .663.3.663.67M43.095 6.262c0 .37-.297.67-.664.67a.666.666 0 0 1-.663-.67c0-.369.297-.669.663-.669.367 0 .664.3.664.67M46.01 6.262c0 .37-.297.67-.663.67a.666.666 0 0 1-.663-.67c0-.369.296-.669.663-.669.366 0 .663.3.663.67M48.925 6.262c0 .37-.297.67-.663.67a.666.666 0 0 1-.663-.67c0-.369.297-.669.663-.669.366 0 .663.3.663.67M51.84 6.262c0 .37-.297.67-.663.67a.666.666 0 0 1-.663-.67c0-.369.297-.669.663-.669.366 0 .663.3.663.67M54.755 6.262c0 .37-.296.67-.663.67a.666.666 0 0 1-.663-.67c0-.369.297-.669.663-.669.367 0 .663.3.663.67M57.67 6.262c0 .37-.296.67-.662.67a.666.666 0 0 1-.663-.67c0-.369.296-.669.663-.669.366 0 .663.3.663.67M60.586 6.262c0 .37-.297.67-.663.67a.666.666 0 0 1-.663-.67c0-.369.297-.669.663-.669.366 0 .663.3.663.67M3.681 8.544c0 .37-.297.67-.663.67a.666.666 0 0 1-.663-.67c0-.37.297-.669.663-.669.366 0 .663.3.663.67M6.596 8.544c0 .37-.296.67-.663.67a.666.666 0 0 1-.663-.67c0-.37.297-.669.663-.669.367 0 .663.3.663.67M9.512 8.544c0 .37-.297.67-.663.67a.666.666 0 0 1-.663-.67c0-.37.296-.669.663-.669.366 0 .663.3.663.67M12.427 8.544c0 .37-.297.67-.663.67a.666.666 0 0 1-.663-.67c0-.37.297-.669.663-.669.366 0 .663.3.663.67M15.342 8.544c0 .37-.297.67-.663.67a.666.666 0 0 1-.663-.67c0-.37.297-.669.663-.669.366 0 .663.3.663.67M18.257 8.544c0 .37-.296.67-.663.67a.666.666 0 0 1-.663-.67c0-.37.297-.669.663-.669.367 0 .663.3.663.67M21.173 8.544c0 .37-.297.67-.663.67a.666.666 0 0 1-.663-.67c0-.37.296-.669.663-.669.366 0 .663.3.663.67M24.088 8.544c0 .37-.297.67-.663.67a.666.666 0 0 1-.663-.67c0-.37.297-.669.663-.669.366 0 .663.3.663.67M27.003 8.544c0 .37-.297.67-.663.67a.666.666 0 0 1-.663-.67c0-.37.297-.669.663-.669.366 0 .663.3.663.67M29.918 8.544c0 .37-.296.67-.663.67a.666.666 0 0 1-.663-.67c0-.37.297-.669.663-.669.367 0 .663.3.663.67M32.834 8.544c0 .37-.297.67-.663.67a.666.666 0 0 1-.663-.67c0-.37.296-.669.663-.669.366 0 .663.3.663.67M35.749 8.544c0 .37-.297.67-.663.67a.666.666 0 0 1-.663-.67c0-.37.297-.669.663-.669.366 0 .663.3.663.67M38.664 8.544c0 .37-.297.67-.663.67a.666.666 0 0 1-.663-.67c0-.37.297-.669.663-.669.366 0 .663.3.663.67M41.58 8.544c0 .37-.298.67-.664.67a.666.666 0 0 1-.663-.67c0-.37.297-.669.663-.669.366 0 .663.3.663.67M44.495 8.544c0 .37-.297.67-.664.67a.666.666 0 0 1-.663-.67c0-.37.297-.669.663-.669.367 0 .664.3.664.67M47.41 8.544c0 .37-.297.67-.663.67a.666.666 0 0 1-.663-.67c0-.37.296-.669.663-.669.366 0 .663.3.663.67M50.325 8.544c0 .37-.297.67-.663.67a.666.666 0 0 1-.663-.67c0-.37.297-.669.663-.669.366 0 .663.3.663.67M53.24 8.544c0 .37-.297.67-.663.67a.666.666 0 0 1-.663-.67c0-.37.297-.669.663-.669.366 0 .663.3.663.67M56.155 8.544c0 .37-.296.67-.663.67a.666.666 0 0 1-.663-.67c0-.37.297-.669.663-.669.367 0 .663.3.663.67M59.07 8.544c0 .37-.296.67-.662.67a.666.666 0 0 1-.663-.67c0-.37.296-.669.663-.669.366 0 .663.3.663.67M61.986 8.544c0 .37-.297.67-.663.67a.666.666 0 0 1-.663-.67c0-.37.297-.669.663-.669.366 0 .663.3.663.67M2.281 10.826c0 .37-.297.669-.663.669a.666.666 0 0 1-.663-.669c0-.37.297-.669.663-.669.366 0 .663.3.663.67M5.196 10.826c0 .37-.296.669-.663.669a.666.666 0 0 1-.663-.669c0-.37.297-.669.663-.669.367 0 .663.3.663.67M8.112 10.826c0 .37-.297.669-.663.669a.666.666 0 0 1-.663-.669c0-.37.296-.669.663-.669.366 0 .663.3.663.67M11.027 10.826c0 .37-.297.669-.663.669a.666.666 0 0 1-.663-.669c0-.37.297-.669.663-.669.366 0 .663.3.663.67M13.942 10.826c0 .37-.297.669-.663.669a.666.666 0 0 1-.663-.669c0-.37.297-.669.663-.669.366 0 .663.3.663.67M16.857 10.826c0 .37-.296.669-.663.669a.666.666 0 0 1-.663-.669c0-.37.297-.669.663-.669.367 0 .663.3.663.67M19.773 10.826c0 .37-.297.669-.663.669a.666.666 0 0 1-.663-.669c0-.37.296-.669.663-.669.366 0 .663.3.663.67M22.688 10.826c0 .37-.297.669-.663.669a.666.666 0 0 1-.663-.669c0-.37.297-.669.663-.669.366 0 .663.3.663.67M25.603 10.826c0 .37-.297.669-.663.669a.666.666 0 0 1-.663-.669c0-.37.297-.669.663-.669.366 0 .663.3.663.67M28.518 10.826c0 .37-.296.669-.663.669a.666.666 0 0 1-.663-.669c0-.37.297-.669.663-.669.367 0 .663.3.663.67M31.434 10.826c0 .37-.297.669-.663.669a.666.666 0 0 1-.663-.669c0-.37.296-.669.663-.669.366 0 .663.3.663.67M34.349 10.826c0 .37-.297.669-.663.669a.666.666 0 0 1-.663-.669c0-.37.297-.669.663-.669.366 0 .663.3.663.67M37.264 10.826c0 .37-.297.669-.663.669a.666.666 0 0 1-.663-.669c0-.37.297-.669.663-.669.366 0 .663.3.663.67M40.18 10.826c0 .37-.298.669-.664.669a.666.666 0 0 1-.663-.669c0-.37.297-.669.663-.669.366 0 .663.3.663.67M43.095 10.826c0 .37-.297.669-.664.669a.666.666 0 0 1-.663-.669c0-.37.297-.669.663-.669.367 0 .664.3.664.67M46.01 10.826c0 .37-.297.669-.663.669a.666.666 0 0 1-.663-.669c0-.37.296-.669.663-.669.366 0 .663.3.663.67M48.925 10.826c0 .37-.297.669-.663.669a.666.666 0 0 1-.663-.669c0-.37.297-.669.663-.669.366 0 .663.3.663.67M51.84 10.826c0 .37-.297.669-.663.669a.666.666 0 0 1-.663-.669c0-.37.297-.669.663-.669.366 0 .663.3.663.67M54.755 10.826c0 .37-.296.669-.663.669a.666.666 0 0 1-.663-.669c0-.37.297-.669.663-.669.367 0 .663.3.663.67M57.67 10.826c0 .37-.296.669-.662.669a.666.666 0 0 1-.663-.669c0-.37.296-.669.663-.669.366 0 .663.3.663.67M60.586 10.826c0 .37-.297.669-.663.669a.666.666 0 0 1-.663-.669c0-.37.297-.669.663-.669.366 0 .663.3.663.67M3.681 13.108c0 .37-.297.669-.663.669a.666.666 0 0 1-.663-.67c0-.369.297-.668.663-.668.366 0 .663.3.663.669M6.596 13.108c0 .37-.296.669-.663.669a.666.666 0 0 1-.663-.67c0-.369.297-.668.663-.668.367 0 .663.3.663.669M9.512 13.108c0 .37-.297.669-.663.669a.666.666 0 0 1-.663-.67c0-.369.296-.668.663-.668.366 0 .663.3.663.669M12.427 13.108c0 .37-.297.669-.663.669a.666.666 0 0 1-.663-.67c0-.369.297-.668.663-.668.366 0 .663.3.663.669M15.342 13.108c0 .37-.297.669-.663.669a.666.666 0 0 1-.663-.67c0-.369.297-.668.663-.668.366 0 .663.3.663.669M18.257 13.108c0 .37-.296.669-.663.669a.666.666 0 0 1-.663-.67c0-.369.297-.668.663-.668.367 0 .663.3.663.669M21.173 13.108c0 .37-.297.669-.663.669a.666.666 0 0 1-.663-.67c0-.369.296-.668.663-.668.366 0 .663.3.663.669M24.088 13.108c0 .37-.297.669-.663.669a.666.666 0 0 1-.663-.67c0-.369.297-.668.663-.668.366 0 .663.3.663.669M27.003 13.108c0 .37-.297.669-.663.669a.666.666 0 0 1-.663-.67c0-.369.297-.668.663-.668.366 0 .663.3.663.669M29.918 13.108c0 .37-.296.669-.663.669a.666.666 0 0 1-.663-.67c0-.369.297-.668.663-.668.367 0 .663.3.663.669M32.834 13.108c0 .37-.297.669-.663.669a.666.666 0 0 1-.663-.67c0-.369.296-.668.663-.668.366 0 .663.3.663.669M35.749 13.108c0 .37-.297.669-.663.669a.666.666 0 0 1-.663-.67c0-.369.297-.668.663-.668.366 0 .663.3.663.669M38.664 13.108c0 .37-.297.669-.663.669a.666.666 0 0 1-.663-.67c0-.369.297-.668.663-.668.366 0 .663.3.663.669M41.58 13.108c0 .37-.298.669-.664.669a.666.666 0 0 1-.663-.67c0-.369.297-.668.663-.668.366 0 .663.3.663.669M44.495 13.108c0 .37-.297.669-.664.669a.666.666 0 0 1-.663-.67c0-.369.297-.668.663-.668.367 0 .664.3.664.669M47.41 13.108c0 .37-.297.669-.663.669a.666.666 0 0 1-.663-.67c0-.369.296-.668.663-.668.366 0 .663.3.663.669M50.325 13.108c0 .37-.297.669-.663.669a.666.666 0 0 1-.663-.67c0-.369.297-.668.663-.668.366 0 .663.3.663.669M53.24 13.108c0 .37-.297.669-.663.669a.666.666 0 0 1-.663-.67c0-.369.297-.668.663-.668.366 0 .663.3.663.669M56.155 13.108c0 .37-.296.669-.663.669a.666.666 0 0 1-.663-.67c0-.369.297-.668.663-.668.367 0 .663.3.663.669M59.07 13.108c0 .37-.296.669-.662.669a.666.666 0 0 1-.663-.67c0-.369.296-.668.663-.668.366 0 .663.3.663.669M61.986 13.108c0 .37-.297.669-.663.669a.666.666 0 0 1-.663-.67c0-.369.297-.668.663-.668.366 0 .663.3.663.669M2.281 15.39c0 .37-.297.669-.663.669a.666.666 0 0 1-.663-.67c0-.369.297-.668.663-.668.366 0 .663.3.663.669M5.196 15.39c0 .37-.296.669-.663.669a.666.666 0 0 1-.663-.67c0-.369.297-.668.663-.668.367 0 .663.3.663.669M8.112 15.39c0 .37-.297.669-.663.669a.666.666 0 0 1-.663-.67c0-.369.296-.668.663-.668.366 0 .663.3.663.669M11.027 15.39c0 .37-.297.669-.663.669a.666.666 0 0 1-.663-.67c0-.369.297-.668.663-.668.366 0 .663.3.663.669M13.942 15.39c0 .37-.297.669-.663.669a.666.666 0 0 1-.663-.67c0-.369.297-.668.663-.668.366 0 .663.3.663.669M16.857 15.39c0 .37-.296.669-.663.669a.666.666 0 0 1-.663-.67c0-.369.297-.668.663-.668.367 0 .663.3.663.669M19.773 15.39c0 .37-.297.669-.663.669a.666.666 0 0 1-.663-.67c0-.369.296-.668.663-.668.366 0 .663.3.663.669M22.688 15.39c0 .37-.297.669-.663.669a.666.666 0 0 1-.663-.67c0-.369.297-.668.663-.668.366 0 .663.3.663.669M25.603 15.39c0 .37-.297.669-.663.669a.666.666 0 0 1-.663-.67c0-.369.297-.668.663-.668.366 0 .663.3.663.669M28.518 15.39c0 .37-.296.669-.663.669a.666.666 0 0 1-.663-.67c0-.369.297-.668.663-.668.367 0 .663.3.663.669M31.434 15.39c0 .37-.297.669-.663.669a.666.666 0 0 1-.663-.67c0-.369.296-.668.663-.668.366 0 .663.3.663.669M34.349 15.39c0 .37-.297.669-.663.669a.666.666 0 0 1-.663-.67c0-.369.297-.668.663-.668.366 0 .663.3.663.669M37.264 15.39c0 .37-.297.669-.663.669a.666.666 0 0 1-.663-.67c0-.369.297-.668.663-.668.366 0 .663.3.663.669M40.18 15.39c0 .37-.298.669-.664.669a.666.666 0 0 1-.663-.67c0-.369.297-.668.663-.668.366 0 .663.3.663.669M43.095 15.39c0 .37-.297.669-.664.669a.666.666 0 0 1-.663-.67c0-.369.297-.668.663-.668.367 0 .664.3.664.669M46.01 15.39c0 .37-.297.669-.663.669a.666.666 0 0 1-.663-.67c0-.369.296-.668.663-.668.366 0 .663.3.663.669M48.925 15.39c0 .37-.297.669-.663.669a.666.666 0 0 1-.663-.67c0-.369.297-.668.663-.668.366 0 .663.3.663.669M51.84 15.39c0 .37-.297.669-.663.669a.666.666 0 0 1-.663-.67c0-.369.297-.668.663-.668.366 0 .663.3.663.669M54.755 15.39c0 .37-.296.669-.663.669a.666.666 0 0 1-.663-.67c0-.369.297-.668.663-.668.367 0 .663.3.663.669M57.67 15.39c0 .37-.296.669-.662.669a.666.666 0 0 1-.663-.67c0-.369.296-.668.663-.668.366 0 .663.3.663.669M60.586 15.39c0 .37-.297.669-.663.669a.666.666 0 0 1-.663-.67c0-.369.297-.668.663-.668.366 0 .663.3.663.669M3.681 17.671c0 .37-.297.67-.663.67a.666.666 0 0 1-.663-.67c0-.369.297-.668.663-.668.366 0 .663.3.663.668M6.596 17.671c0 .37-.296.67-.663.67a.666.666 0 0 1-.663-.67c0-.369.297-.668.663-.668.367 0 .663.3.663.668M9.512 17.671c0 .37-.297.67-.663.67a.666.666 0 0 1-.663-.67c0-.369.296-.668.663-.668.366 0 .663.3.663.668M12.427 17.671c0 .37-.297.67-.663.67a.666.666 0 0 1-.663-.67c0-.369.297-.668.663-.668.366 0 .663.3.663.668M15.342 17.671c0 .37-.297.67-.663.67a.666.666 0 0 1-.663-.67c0-.369.297-.668.663-.668.366 0 .663.3.663.668M18.257 17.671c0 .37-.296.67-.663.67a.666.666 0 0 1-.663-.67c0-.369.297-.668.663-.668.367 0 .663.3.663.668M21.173 17.671c0 .37-.297.67-.663.67a.666.666 0 0 1-.663-.67c0-.369.296-.668.663-.668.366 0 .663.3.663.668M24.088 17.671c0 .37-.297.67-.663.67a.666.666 0 0 1-.663-.67c0-.369.297-.668.663-.668.366 0 .663.3.663.668M27.003 17.671c0 .37-.297.67-.663.67a.666.666 0 0 1-.663-.67c0-.369.297-.668.663-.668.366 0 .663.3.663.668M29.918 17.671c0 .37-.296.67-.663.67a.666.666 0 0 1-.663-.67c0-.369.297-.668.663-.668.367 0 .663.3.663.668M32.834 17.671c0 .37-.297.67-.663.67a.666.666 0 0 1-.663-.67c0-.369.296-.668.663-.668.366 0 .663.3.663.668M35.749 17.671c0 .37-.297.67-.663.67a.666.666 0 0 1-.663-.67c0-.369.297-.668.663-.668.366 0 .663.3.663.668M38.664 17.671c0 .37-.297.67-.663.67a.666.666 0 0 1-.663-.67c0-.369.297-.668.663-.668.366 0 .663.3.663.668M41.58 17.671c0 .37-.298.67-.664.67a.666.666 0 0 1-.663-.67c0-.369.297-.668.663-.668.366 0 .663.3.663.668M44.495 17.671c0 .37-.297.67-.664.67a.666.666 0 0 1-.663-.67c0-.369.297-.668.663-.668.367 0 .664.3.664.668M47.41 17.671c0 .37-.297.67-.663.67a.666.666 0 0 1-.663-.67c0-.369.296-.668.663-.668.366 0 .663.3.663.668M50.325 17.671c0 .37-.297.67-.663.67a.666.666 0 0 1-.663-.67c0-.369.297-.668.663-.668.366 0 .663.3.663.668M53.24 17.671c0 .37-.297.67-.663.67a.666.666 0 0 1-.663-.67c0-.369.297-.668.663-.668.366 0 .663.3.663.668M56.155 17.671c0 .37-.296.67-.663.67a.666.666 0 0 1-.663-.67c0-.369.297-.668.663-.668.367 0 .663.3.663.668M59.07 17.671c0 .37-.296.67-.662.67a.666.666 0 0 1-.663-.67c0-.369.296-.668.663-.668.366 0 .663.3.663.668M61.986 17.671c0 .37-.297.67-.663.67a.666.666 0 0 1-.663-.67c0-.369.297-.668.663-.668.366 0 .663.3.663.668M2.281 19.953c0 .37-.297.67-.663.67a.666.666 0 0 1-.663-.67c0-.37.297-.669.663-.669.366 0 .663.3.663.67M5.196 19.953c0 .37-.296.67-.663.67a.666.666 0 0 1-.663-.67c0-.37.297-.669.663-.669.367 0 .663.3.663.67M8.112 19.953c0 .37-.297.67-.663.67a.666.666 0 0 1-.663-.67c0-.37.296-.669.663-.669.366 0 .663.3.663.67M11.027 19.953c0 .37-.297.67-.663.67a.666.666 0 0 1-.663-.67c0-.37.297-.669.663-.669.366 0 .663.3.663.67M13.942 19.953c0 .37-.297.67-.663.67a.666.666 0 0 1-.663-.67c0-.37.297-.669.663-.669.366 0 .663.3.663.67M16.857 19.953c0 .37-.296.67-.663.67a.666.666 0 0 1-.663-.67c0-.37.297-.669.663-.669.367 0 .663.3.663.67M19.773 19.953c0 .37-.297.67-.663.67a.666.666 0 0 1-.663-.67c0-.37.296-.669.663-.669.366 0 .663.3.663.67M22.688 19.953c0 .37-.297.67-.663.67a.666.666 0 0 1-.663-.67c0-.37.297-.669.663-.669.366 0 .663.3.663.67M25.603 19.953c0 .37-.297.67-.663.67a.666.666 0 0 1-.663-.67c0-.37.297-.669.663-.669.366 0 .663.3.663.67M28.518 19.953c0 .37-.296.67-.663.67a.666.666 0 0 1-.663-.67c0-.37.297-.669.663-.669.367 0 .663.3.663.67M31.434 19.953c0 .37-.297.67-.663.67a.666.666 0 0 1-.663-.67c0-.37.296-.669.663-.669.366 0 .663.3.663.67M34.349 19.953c0 .37-.297.67-.663.67a.666.666 0 0 1-.663-.67c0-.37.297-.669.663-.669.366 0 .663.3.663.67M37.264 19.953c0 .37-.297.67-.663.67a.666.666 0 0 1-.663-.67c0-.37.297-.669.663-.669.366 0 .663.3.663.67M40.18 19.953c0 .37-.298.67-.664.67a.666.666 0 0 1-.663-.67c0-.37.297-.669.663-.669.366 0 .663.3.663.67M43.095 19.953c0 .37-.297.67-.664.67a.666.666 0 0 1-.663-.67c0-.37.297-.669.663-.669.367 0 .664.3.664.67M46.01 19.953c0 .37-.297.67-.663.67a.666.666 0 0 1-.663-.67c0-.37.296-.669.663-.669.366 0 .663.3.663.67M48.925 19.953c0 .37-.297.67-.663.67a.666.666 0 0 1-.663-.67c0-.37.297-.669.663-.669.366 0 .663.3.663.67M51.84 19.953c0 .37-.297.67-.663.67a.666.666 0 0 1-.663-.67c0-.37.297-.669.663-.669.366 0 .663.3.663.67M54.755 19.953c0 .37-.296.67-.663.67a.666.666 0 0 1-.663-.67c0-.37.297-.669.663-.669.367 0 .663.3.663.67M57.67 19.953c0 .37-.296.67-.662.67a.666.666 0 0 1-.663-.67c0-.37.296-.669.663-.669.366 0 .663.3.663.67M60.586 19.953c0 .37-.297.67-.663.67a.666.666 0 0 1-.663-.67c0-.37.297-.669.663-.669.366 0 .663.3.663.67M3.681 22.235c0 .37-.297.669-.663.669a.666.666 0 0 1-.663-.669c0-.37.297-.669.663-.669.366 0 .663.3.663.67M6.596 22.235c0 .37-.296.669-.663.669a.666.666 0 0 1-.663-.669c0-.37.297-.669.663-.669.367 0 .663.3.663.67M9.512 22.235c0 .37-.297.669-.663.669a.666.666 0 0 1-.663-.669c0-.37.296-.669.663-.669.366 0 .663.3.663.67M12.427 22.235c0 .37-.297.669-.663.669a.666.666 0 0 1-.663-.669c0-.37.297-.669.663-.669.366 0 .663.3.663.67M15.342 22.235c0 .37-.297.669-.663.669a.666.666 0 0 1-.663-.669c0-.37.297-.669.663-.669.366 0 .663.3.663.67M18.257 22.235c0 .37-.296.669-.663.669a.666.666 0 0 1-.663-.669c0-.37.297-.669.663-.669.367 0 .663.3.663.67M21.173 22.235c0 .37-.297.669-.663.669a.666.666 0 0 1-.663-.669c0-.37.296-.669.663-.669.366 0 .663.3.663.67M24.088 22.235c0 .37-.297.669-.663.669a.666.666 0 0 1-.663-.669c0-.37.297-.669.663-.669.366 0 .663.3.663.67M27.003 22.235c0 .37-.297.669-.663.669a.666.666 0 0 1-.663-.669c0-.37.297-.669.663-.669.366 0 .663.3.663.67M29.918 22.235c0 .37-.296.669-.663.669a.666.666 0 0 1-.663-.669c0-.37.297-.669.663-.669.367 0 .663.3.663.67M32.834 22.235c0 .37-.297.669-.663.669a.666.666 0 0 1-.663-.669c0-.37.296-.669.663-.669.366 0 .663.3.663.67M35.749 22.235c0 .37-.297.669-.663.669a.666.666 0 0 1-.663-.669c0-.37.297-.669.663-.669.366 0 .663.3.663.67M38.664 22.235c0 .37-.297.669-.663.669a.666.666 0 0 1-.663-.669c0-.37.297-.669.663-.669.366 0 .663.3.663.67M41.58 22.235c0 .37-.298.669-.664.669a.666.666 0 0 1-.663-.669c0-.37.297-.669.663-.669.366 0 .663.3.663.67M44.495 22.235c0 .37-.297.669-.664.669a.666.666 0 0 1-.663-.669c0-.37.297-.669.663-.669.367 0 .664.3.664.67M47.41 22.235c0 .37-.297.669-.663.669a.666.666 0 0 1-.663-.669c0-.37.296-.669.663-.669.366 0 .663.3.663.67M50.325 22.235c0 .37-.297.669-.663.669a.666.666 0 0 1-.663-.669c0-.37.297-.669.663-.669.366 0 .663.3.663.67M53.24 22.235c0 .37-.297.669-.663.669a.666.666 0 0 1-.663-.669c0-.37.297-.669.663-.669.366 0 .663.3.663.67M56.155 22.235c0 .37-.296.669-.663.669a.666.666 0 0 1-.663-.669c0-.37.297-.669.663-.669.367 0 .663.3.663.67M59.07 22.235c0 .37-.296.669-.662.669a.666.666 0 0 1-.663-.669c0-.37.296-.669.663-.669.366 0 .663.3.663.67M61.986 22.235c0 .37-.297.669-.663.669a.666.666 0 0 1-.663-.669c0-.37.297-.669.663-.669.366 0 .663.3.663.67M2.281 24.517c0 .37-.297.669-.663.669a.666.666 0 0 1-.663-.67c0-.369.297-.668.663-.668.366 0 .663.3.663.669M5.196 24.517c0 .37-.296.669-.663.669a.666.666 0 0 1-.663-.67c0-.369.297-.668.663-.668.367 0 .663.3.663.669M8.112 24.517c0 .37-.297.669-.663.669a.666.666 0 0 1-.663-.67c0-.369.296-.668.663-.668.366 0 .663.3.663.669M11.027 24.517c0 .37-.297.669-.663.669a.666.666 0 0 1-.663-.67c0-.369.297-.668.663-.668.366 0 .663.3.663.669M13.942 24.517c0 .37-.297.669-.663.669a.666.666 0 0 1-.663-.67c0-.369.297-.668.663-.668.366 0 .663.3.663.669M16.857 24.517c0 .37-.296.669-.663.669a.666.666 0 0 1-.663-.67c0-.369.297-.668.663-.668.367 0 .663.3.663.669M19.773 24.517c0 .37-.297.669-.663.669a.666.666 0 0 1-.663-.67c0-.369.296-.668.663-.668.366 0 .663.3.663.669M22.688 24.517c0 .37-.297.669-.663.669a.666.666 0 0 1-.663-.67c0-.369.297-.668.663-.668.366 0 .663.3.663.669M25.603 24.517c0 .37-.297.669-.663.669a.666.666 0 0 1-.663-.67c0-.369.297-.668.663-.668.366 0 .663.3.663.669M28.518 24.517c0 .37-.296.669-.663.669a.666.666 0 0 1-.663-.67c0-.369.297-.668.663-.668.367 0 .663.3.663.669M31.434 24.517c0 .37-.297.669-.663.669a.666.666 0 0 1-.663-.67c0-.369.296-.668.663-.668.366 0 .663.3.663.669M34.349 24.517c0 .37-.297.669-.663.669a.666.666 0 0 1-.663-.67c0-.369.297-.668.663-.668.366 0 .663.3.663.669M37.264 24.517c0 .37-.297.669-.663.669a.666.666 0 0 1-.663-.67c0-.369.297-.668.663-.668.366 0 .663.3.663.669M40.18 24.517c0 .37-.298.669-.664.669a.666.666 0 0 1-.663-.67c0-.369.297-.668.663-.668.366 0 .663.3.663.669M43.095 24.517c0 .37-.297.669-.664.669a.666.666 0 0 1-.663-.67c0-.369.297-.668.663-.668.367 0 .664.3.664.669M46.01 24.517c0 .37-.297.669-.663.669a.666.666 0 0 1-.663-.67c0-.369.296-.668.663-.668.366 0 .663.3.663.669M48.925 24.517c0 .37-.297.669-.663.669a.666.666 0 0 1-.663-.67c0-.369.297-.668.663-.668.366 0 .663.3.663.669M51.84 24.517c0 .37-.297.669-.663.669a.666.666 0 0 1-.663-.67c0-.369.297-.668.663-.668.366 0 .663.3.663.669M54.755 24.517c0 .37-.296.669-.663.669a.666.666 0 0 1-.663-.67c0-.369.297-.668.663-.668.367 0 .663.3.663.669M57.67 24.517c0 .37-.296.669-.662.669a.666.666 0 0 1-.663-.67c0-.369.296-.668.663-.668.366 0 .663.3.663.669M60.586 24.517c0 .37-.297.669-.663.669a.666.666 0 0 1-.663-.67c0-.369.297-.668.663-.668.366 0 .663.3.663.669M3.681 26.799c0 .37-.297.669-.663.669a.666.666 0 0 1-.663-.67c0-.369.297-.668.663-.668.366 0 .663.3.663.669M6.596 26.799c0 .37-.296.669-.663.669a.666.666 0 0 1-.663-.67c0-.369.297-.668.663-.668.367 0 .663.3.663.669M9.512 26.799c0 .37-.297.669-.663.669a.666.666 0 0 1-.663-.67c0-.369.296-.668.663-.668.366 0 .663.3.663.669M12.427 26.799c0 .37-.297.669-.663.669a.666.666 0 0 1-.663-.67c0-.369.297-.668.663-.668.366 0 .663.3.663.669M15.342 26.799c0 .37-.297.669-.663.669a.666.666 0 0 1-.663-.67c0-.369.297-.668.663-.668.366 0 .663.3.663.669M18.257 26.799c0 .37-.296.669-.663.669a.666.666 0 0 1-.663-.67c0-.369.297-.668.663-.668.367 0 .663.3.663.669M21.173 26.799c0 .37-.297.669-.663.669a.666.666 0 0 1-.663-.67c0-.369.296-.668.663-.668.366 0 .663.3.663.669M24.088 26.799c0 .37-.297.669-.663.669a.666.666 0 0 1-.663-.67c0-.369.297-.668.663-.668.366 0 .663.3.663.669M27.003 26.799c0 .37-.297.669-.663.669a.666.666 0 0 1-.663-.67c0-.369.297-.668.663-.668.366 0 .663.3.663.669M29.918 26.799c0 .37-.296.669-.663.669a.666.666 0 0 1-.663-.67c0-.369.297-.668.663-.668.367 0 .663.3.663.669M32.834 26.799c0 .37-.297.669-.663.669a.666.666 0 0 1-.663-.67c0-.369.296-.668.663-.668.366 0 .663.3.663.669M35.749 26.799c0 .37-.297.669-.663.669a.666.666 0 0 1-.663-.67c0-.369.297-.668.663-.668.366 0 .663.3.663.669M38.664 26.799c0 .37-.297.669-.663.669a.666.666 0 0 1-.663-.67c0-.369.297-.668.663-.668.366 0 .663.3.663.669M41.58 26.799c0 .37-.298.669-.664.669a.666.666 0 0 1-.663-.67c0-.369.297-.668.663-.668.366 0 .663.3.663.669M44.495 26.799c0 .37-.297.669-.664.669a.666.666 0 0 1-.663-.67c0-.369.297-.668.663-.668.367 0 .664.3.664.669M47.41 26.799c0 .37-.297.669-.663.669a.666.666 0 0 1-.663-.67c0-.369.296-.668.663-.668.366 0 .663.3.663.669M50.325 26.799c0 .37-.297.669-.663.669a.666.666 0 0 1-.663-.67c0-.369.297-.668.663-.668.366 0 .663.3.663.669M53.24 26.799c0 .37-.297.669-.663.669a.666.666 0 0 1-.663-.67c0-.369.297-.668.663-.668.366 0 .663.3.663.669M56.155 26.799c0 .37-.296.669-.663.669a.666.666 0 0 1-.663-.67c0-.369.297-.668.663-.668.367 0 .663.3.663.669M59.07 26.799c0 .37-.296.669-.662.669a.666.666 0 0 1-.663-.67c0-.369.296-.668.663-.668.366 0 .663.3.663.669M61.986 26.799c0 .37-.297.669-.663.669a.666.666 0 0 1-.663-.67c0-.369.297-.668.663-.668.366 0 .663.3.663.669M2.281 29.08c0 .37-.297.67-.663.67a.666.666 0 0 1-.663-.67c0-.369.297-.668.663-.668.366 0 .663.299.663.668M5.196 29.08c0 .37-.296.67-.663.67a.666.666 0 0 1-.663-.67c0-.369.297-.668.663-.668.367 0 .663.299.663.668M8.112 29.08c0 .37-.297.67-.663.67a.666.666 0 0 1-.663-.67c0-.369.296-.668.663-.668.366 0 .663.299.663.668M11.027 29.08c0 .37-.297.67-.663.67a.666.666 0 0 1-.663-.67c0-.369.297-.668.663-.668.366 0 .663.299.663.668M13.942 29.08c0 .37-.297.67-.663.67a.666.666 0 0 1-.663-.67c0-.369.297-.668.663-.668.366 0 .663.299.663.668M16.857 29.08c0 .37-.296.67-.663.67a.666.666 0 0 1-.663-.67c0-.369.297-.668.663-.668.367 0 .663.299.663.668M19.773 29.08c0 .37-.297.67-.663.67a.666.666 0 0 1-.663-.67c0-.369.296-.668.663-.668.366 0 .663.299.663.668M22.688 29.08c0 .37-.297.67-.663.67a.666.666 0 0 1-.663-.67c0-.369.297-.668.663-.668.366 0 .663.299.663.668M25.603 29.08c0 .37-.297.67-.663.67a.666.666 0 0 1-.663-.67c0-.369.297-.668.663-.668.366 0 .663.299.663.668M28.518 29.08c0 .37-.296.67-.663.67a.666.666 0 0 1-.663-.67c0-.369.297-.668.663-.668.367 0 .663.299.663.668M31.434 29.08c0 .37-.297.67-.663.67a.666.666 0 0 1-.663-.67c0-.369.296-.668.663-.668.366 0 .663.299.663.668M34.349 29.08c0 .37-.297.67-.663.67a.666.666 0 0 1-.663-.67c0-.369.297-.668.663-.668.366 0 .663.299.663.668M37.264 29.08c0 .37-.297.67-.663.67a.666.666 0 0 1-.663-.67c0-.369.297-.668.663-.668.366 0 .663.299.663.668M40.18 29.08c0 .37-.298.67-.664.67a.666.666 0 0 1-.663-.67c0-.369.297-.668.663-.668.366 0 .663.299.663.668M43.095 29.08c0 .37-.297.67-.664.67a.666.666 0 0 1-.663-.67c0-.369.297-.668.663-.668.367 0 .664.299.664.668M46.01 29.08c0 .37-.297.67-.663.67a.666.666 0 0 1-.663-.67c0-.369.296-.668.663-.668.366 0 .663.299.663.668M48.925 29.08c0 .37-.297.67-.663.67a.666.666 0 0 1-.663-.67c0-.369.297-.668.663-.668.366 0 .663.299.663.668M51.84 29.08c0 .37-.297.67-.663.67a.666.666 0 0 1-.663-.67c0-.369.297-.668.663-.668.366 0 .663.299.663.668M54.755 29.08c0 .37-.296.67-.663.67a.666.666 0 0 1-.663-.67c0-.369.297-.668.663-.668.367 0 .663.299.663.668M57.67 29.08c0 .37-.296.67-.662.67a.666.666 0 0 1-.663-.67c0-.369.296-.668.663-.668.366 0 .663.299.663.668M60.586 29.08c0 .37-.297.67-.663.67a.666.666 0 0 1-.663-.67c0-.369.297-.668.663-.668.366 0 .663.299.663.668M3.681 31.362c0 .37-.297.67-.663.67a.666.666 0 0 1-.663-.67c0-.37.297-.669.663-.669.366 0 .663.3.663.67M6.596 31.362c0 .37-.296.67-.663.67a.666.666 0 0 1-.663-.67c0-.37.297-.669.663-.669.367 0 .663.3.663.67M9.512 31.362c0 .37-.297.67-.663.67a.666.666 0 0 1-.663-.67c0-.37.296-.669.663-.669.366 0 .663.3.663.67M12.427 31.362c0 .37-.297.67-.663.67a.666.666 0 0 1-.663-.67c0-.37.297-.669.663-.669.366 0 .663.3.663.67M15.342 31.362c0 .37-.297.67-.663.67a.666.666 0 0 1-.663-.67c0-.37.297-.669.663-.669.366 0 .663.3.663.67M18.257 31.362c0 .37-.296.67-.663.67a.666.666 0 0 1-.663-.67c0-.37.297-.669.663-.669.367 0 .663.3.663.67M21.173 31.362c0 .37-.297.67-.663.67a.666.666 0 0 1-.663-.67c0-.37.296-.669.663-.669.366 0 .663.3.663.67M24.088 31.362c0 .37-.297.67-.663.67a.666.666 0 0 1-.663-.67c0-.37.297-.669.663-.669.366 0 .663.3.663.67M27.003 31.362c0 .37-.297.67-.663.67a.666.666 0 0 1-.663-.67c0-.37.297-.669.663-.669.366 0 .663.3.663.67M29.918 31.362c0 .37-.296.67-.663.67a.666.666 0 0 1-.663-.67c0-.37.297-.669.663-.669.367 0 .663.3.663.67M32.834 31.362c0 .37-.297.67-.663.67a.666.666 0 0 1-.663-.67c0-.37.296-.669.663-.669.366 0 .663.3.663.67M35.749 31.362c0 .37-.297.67-.663.67a.666.666 0 0 1-.663-.67c0-.37.297-.669.663-.669.366 0 .663.3.663.67M38.664 31.362c0 .37-.297.67-.663.67a.666.666 0 0 1-.663-.67c0-.37.297-.669.663-.669.366 0 .663.3.663.67M41.58 31.362c0 .37-.298.67-.664.67a.666.666 0 0 1-.663-.67c0-.37.297-.669.663-.669.366 0 .663.3.663.67M44.495 31.362c0 .37-.297.67-.664.67a.666.666 0 0 1-.663-.67c0-.37.297-.669.663-.669.367 0 .664.3.664.67M47.41 31.362c0 .37-.297.67-.663.67a.666.666 0 0 1-.663-.67c0-.37.296-.669.663-.669.366 0 .663.3.663.67M50.325 31.362c0 .37-.297.67-.663.67a.666.666 0 0 1-.663-.67c0-.37.297-.669.663-.669.366 0 .663.3.663.67M53.24 31.362c0 .37-.297.67-.663.67a.666.666 0 0 1-.663-.67c0-.37.297-.669.663-.669.366 0 .663.3.663.67M56.155 31.362c0 .37-.296.67-.663.67a.666.666 0 0 1-.663-.67c0-.37.297-.669.663-.669.367 0 .663.3.663.67M59.07 31.362c0 .37-.296.67-.662.67a.666.666 0 0 1-.663-.67c0-.37.296-.669.663-.669.366 0 .663.3.663.67M61.986 31.362c0 .37-.297.67-.663.67a.666.666 0 0 1-.663-.67c0-.37.297-.669.663-.669.366 0 .663.3.663.67M2.281 33.644c0 .37-.297.669-.663.669a.666.666 0 0 1-.663-.669c0-.37.297-.669.663-.669.366 0 .663.3.663.67M5.196 33.644c0 .37-.296.669-.663.669a.666.666 0 0 1-.663-.669c0-.37.297-.669.663-.669.367 0 .663.3.663.67M8.112 33.644c0 .37-.297.669-.663.669a.666.666 0 0 1-.663-.669c0-.37.296-.669.663-.669.366 0 .663.3.663.67M11.027 33.644c0 .37-.297.669-.663.669a.666.666 0 0 1-.663-.669c0-.37.297-.669.663-.669.366 0 .663.3.663.67M13.942 33.644c0 .37-.297.669-.663.669a.666.666 0 0 1-.663-.669c0-.37.297-.669.663-.669.366 0 .663.3.663.67M16.857 33.644c0 .37-.296.669-.663.669a.666.666 0 0 1-.663-.669c0-.37.297-.669.663-.669.367 0 .663.3.663.67M19.773 33.644c0 .37-.297.669-.663.669a.666.666 0 0 1-.663-.669c0-.37.296-.669.663-.669.366 0 .663.3.663.67M22.688 33.644c0 .37-.297.669-.663.669a.666.666 0 0 1-.663-.669c0-.37.297-.669.663-.669.366 0 .663.3.663.67M25.603 33.644c0 .37-.297.669-.663.669a.666.666 0 0 1-.663-.669c0-.37.297-.669.663-.669.366 0 .663.3.663.67M28.518 33.644c0 .37-.296.669-.663.669a.666.666 0 0 1-.663-.669c0-.37.297-.669.663-.669.367 0 .663.3.663.67M31.434 33.644c0 .37-.297.669-.663.669a.666.666 0 0 1-.663-.669c0-.37.296-.669.663-.669.366 0 .663.3.663.67M34.349 33.644c0 .37-.297.669-.663.669a.666.666 0 0 1-.663-.669c0-.37.297-.669.663-.669.366 0 .663.3.663.67M37.264 33.644c0 .37-.297.669-.663.669a.666.666 0 0 1-.663-.669c0-.37.297-.669.663-.669.366 0 .663.3.663.67M40.18 33.644c0 .37-.298.669-.664.669a.666.666 0 0 1-.663-.669c0-.37.297-.669.663-.669.366 0 .663.3.663.67M43.095 33.644c0 .37-.297.669-.664.669a.666.666 0 0 1-.663-.669c0-.37.297-.669.663-.669.367 0 .664.3.664.67M46.01 33.644c0 .37-.297.669-.663.669a.666.666 0 0 1-.663-.669c0-.37.296-.669.663-.669.366 0 .663.3.663.67M48.925 33.644c0 .37-.297.669-.663.669a.666.666 0 0 1-.663-.669c0-.37.297-.669.663-.669.366 0 .663.3.663.67M51.84 33.644c0 .37-.297.669-.663.669a.666.666 0 0 1-.663-.669c0-.37.297-.669.663-.669.366 0 .663.3.663.67M54.755 33.644c0 .37-.296.669-.663.669a.666.666 0 0 1-.663-.669c0-.37.297-.669.663-.669.367 0 .663.3.663.67M57.67 33.644c0 .37-.296.669-.662.669a.666.666 0 0 1-.663-.669c0-.37.296-.669.663-.669.366 0 .663.3.663.67M60.586 33.644c0 .37-.297.669-.663.669a.666.666 0 0 1-.663-.669c0-.37.297-.669.663-.669.366 0 .663.3.663.67M3.681 35.926c0 .37-.297.669-.663.669a.666.666 0 0 1-.663-.67c0-.369.297-.668.663-.668.366 0 .663.3.663.669M6.596 35.926c0 .37-.296.669-.663.669a.666.666 0 0 1-.663-.67c0-.369.297-.668.663-.668.367 0 .663.3.663.669M9.512 35.926c0 .37-.297.669-.663.669a.666.666 0 0 1-.663-.67c0-.369.296-.668.663-.668.366 0 .663.3.663.669M12.427 35.926c0 .37-.297.669-.663.669a.666.666 0 0 1-.663-.67c0-.369.297-.668.663-.668.366 0 .663.3.663.669M15.342 35.926c0 .37-.297.669-.663.669a.666.666 0 0 1-.663-.67c0-.369.297-.668.663-.668.366 0 .663.3.663.669M18.257 35.926c0 .37-.296.669-.663.669a.666.666 0 0 1-.663-.67c0-.369.297-.668.663-.668.367 0 .663.3.663.669M21.173 35.926c0 .37-.297.669-.663.669a.666.666 0 0 1-.663-.67c0-.369.296-.668.663-.668.366 0 .663.3.663.669M24.088 35.926c0 .37-.297.669-.663.669a.666.666 0 0 1-.663-.67c0-.369.297-.668.663-.668.366 0 .663.3.663.669M27.003 35.926c0 .37-.297.669-.663.669a.666.666 0 0 1-.663-.67c0-.369.297-.668.663-.668.366 0 .663.3.663.669M29.918 35.926c0 .37-.296.669-.663.669a.666.666 0 0 1-.663-.67c0-.369.297-.668.663-.668.367 0 .663.3.663.669M32.834 35.926c0 .37-.297.669-.663.669a.666.666 0 0 1-.663-.67c0-.369.296-.668.663-.668.366 0 .663.3.663.669M35.749 35.926c0 .37-.297.669-.663.669a.666.666 0 0 1-.663-.67c0-.369.297-.668.663-.668.366 0 .663.3.663.669M38.664 35.926c0 .37-.297.669-.663.669a.666.666 0 0 1-.663-.67c0-.369.297-.668.663-.668.366 0 .663.3.663.669M41.58 35.926c0 .37-.298.669-.664.669a.666.666 0 0 1-.663-.67c0-.369.297-.668.663-.668.366 0 .663.3.663.669M44.495 35.926c0 .37-.297.669-.664.669a.666.666 0 0 1-.663-.67c0-.369.297-.668.663-.668.367 0 .664.3.664.669M47.41 35.926c0 .37-.297.669-.663.669a.666.666 0 0 1-.663-.67c0-.369.296-.668.663-.668.366 0 .663.3.663.669M50.325 35.926c0 .37-.297.669-.663.669a.666.666 0 0 1-.663-.67c0-.369.297-.668.663-.668.366 0 .663.3.663.669M53.24 35.926c0 .37-.297.669-.663.669a.666.666 0 0 1-.663-.67c0-.369.297-.668.663-.668.366 0 .663.3.663.669M56.155 35.926c0 .37-.296.669-.663.669a.666.666 0 0 1-.663-.67c0-.369.297-.668.663-.668.367 0 .663.3.663.669M59.07 35.926c0 .37-.296.669-.662.669a.666.666 0 0 1-.663-.67c0-.369.296-.668.663-.668.366 0 .663.3.663.669M61.986 35.926c0 .37-.297.669-.663.669a.666.666 0 0 1-.663-.67c0-.369.297-.668.663-.668.366 0 .663.3.663.669M2.281 38.208c0 .37-.297.669-.663.669a.666.666 0 0 1-.663-.67c0-.369.297-.668.663-.668.366 0 .663.3.663.669M5.196 38.208c0 .37-.296.669-.663.669a.666.666 0 0 1-.663-.67c0-.369.297-.668.663-.668.367 0 .663.3.663.669M8.112 38.208c0 .37-.297.669-.663.669a.666.666 0 0 1-.663-.67c0-.369.296-.668.663-.668.366 0 .663.3.663.669M11.027 38.208c0 .37-.297.669-.663.669a.666.666 0 0 1-.663-.67c0-.369.297-.668.663-.668.366 0 .663.3.663.669M13.942 38.208c0 .37-.297.669-.663.669a.666.666 0 0 1-.663-.67c0-.369.297-.668.663-.668.366 0 .663.3.663.669M16.857 38.208c0 .37-.296.669-.663.669a.666.666 0 0 1-.663-.67c0-.369.297-.668.663-.668.367 0 .663.3.663.669M19.773 38.208c0 .37-.297.669-.663.669a.666.666 0 0 1-.663-.67c0-.369.296-.668.663-.668.366 0 .663.3.663.669M22.688 38.208c0 .37-.297.669-.663.669a.666.666 0 0 1-.663-.67c0-.369.297-.668.663-.668.366 0 .663.3.663.669M25.603 38.208c0 .37-.297.669-.663.669a.666.666 0 0 1-.663-.67c0-.369.297-.668.663-.668.366 0 .663.3.663.669M28.518 38.208c0 .37-.296.669-.663.669a.666.666 0 0 1-.663-.67c0-.369.297-.668.663-.668.367 0 .663.3.663.669M31.434 38.208c0 .37-.297.669-.663.669a.666.666 0 0 1-.663-.67c0-.369.296-.668.663-.668.366 0 .663.3.663.669M34.349 38.208c0 .37-.297.669-.663.669a.666.666 0 0 1-.663-.67c0-.369.297-.668.663-.668.366 0 .663.3.663.669M37.264 38.208c0 .37-.297.669-.663.669a.666.666 0 0 1-.663-.67c0-.369.297-.668.663-.668.366 0 .663.3.663.669M40.18 38.208c0 .37-.298.669-.664.669a.666.666 0 0 1-.663-.67c0-.369.297-.668.663-.668.366 0 .663.3.663.669M43.095 38.208c0 .37-.297.669-.664.669a.666.666 0 0 1-.663-.67c0-.369.297-.668.663-.668.367 0 .664.3.664.669M46.01 38.208c0 .37-.297.669-.663.669a.666.666 0 0 1-.663-.67c0-.369.296-.668.663-.668.366 0 .663.3.663.669M48.925 38.208c0 .37-.297.669-.663.669a.666.666 0 0 1-.663-.67c0-.369.297-.668.663-.668.366 0 .663.3.663.669M51.84 38.208c0 .37-.297.669-.663.669a.666.666 0 0 1-.663-.67c0-.369.297-.668.663-.668.366 0 .663.3.663.669M54.755 38.208c0 .37-.296.669-.663.669a.666.666 0 0 1-.663-.67c0-.369.297-.668.663-.668.367 0 .663.3.663.669M57.67 38.208c0 .37-.296.669-.662.669a.666.666 0 0 1-.663-.67c0-.369.296-.668.663-.668.366 0 .663.3.663.669M60.586 38.208c0 .37-.297.669-.663.669a.666.666 0 0 1-.663-.67c0-.369.297-.668.663-.668.366 0 .663.3.663.669M3.681 40.49c0 .369-.297.668-.663.668a.666.666 0 0 1-.663-.669c0-.369.297-.668.663-.668.366 0 .663.299.663.668M6.596 40.49c0 .369-.296.668-.663.668a.666.666 0 0 1-.663-.669c0-.369.297-.668.663-.668.367 0 .663.299.663.668M9.512 40.49c0 .369-.297.668-.663.668a.666.666 0 0 1-.663-.669c0-.369.296-.668.663-.668.366 0 .663.299.663.668M12.427 40.49c0 .369-.297.668-.663.668a.666.666 0 0 1-.663-.669c0-.369.297-.668.663-.668.366 0 .663.299.663.668M15.342 40.49c0 .369-.297.668-.663.668a.666.666 0 0 1-.663-.669c0-.369.297-.668.663-.668.366 0 .663.299.663.668M18.257 40.49c0 .369-.296.668-.663.668a.666.666 0 0 1-.663-.669c0-.369.297-.668.663-.668.367 0 .663.299.663.668M21.173 40.49c0 .369-.297.668-.663.668a.666.666 0 0 1-.663-.669c0-.369.296-.668.663-.668.366 0 .663.299.663.668M24.088 40.49c0 .369-.297.668-.663.668a.666.666 0 0 1-.663-.669c0-.369.297-.668.663-.668.366 0 .663.299.663.668M27.003 40.49c0 .369-.297.668-.663.668a.666.666 0 0 1-.663-.669c0-.369.297-.668.663-.668.366 0 .663.299.663.668M29.918 40.49c0 .369-.296.668-.663.668a.666.666 0 0 1-.663-.669c0-.369.297-.668.663-.668.367 0 .663.299.663.668M32.834 40.49c0 .369-.297.668-.663.668a.666.666 0 0 1-.663-.669c0-.369.296-.668.663-.668.366 0 .663.299.663.668M35.749 40.49c0 .369-.297.668-.663.668a.666.666 0 0 1-.663-.669c0-.369.297-.668.663-.668.366 0 .663.299.663.668M38.664 40.49c0 .369-.297.668-.663.668a.666.666 0 0 1-.663-.669c0-.369.297-.668.663-.668.366 0 .663.299.663.668M41.58 40.49c0 .369-.298.668-.664.668a.666.666 0 0 1-.663-.669c0-.369.297-.668.663-.668.366 0 .663.299.663.668M44.495 40.49c0 .369-.297.668-.664.668a.666.666 0 0 1-.663-.669c0-.369.297-.668.663-.668.367 0 .664.299.664.668M47.41 40.49c0 .369-.297.668-.663.668a.666.666 0 0 1-.663-.669c0-.369.296-.668.663-.668.366 0 .663.299.663.668M50.325 40.49c0 .369-.297.668-.663.668a.666.666 0 0 1-.663-.669c0-.369.297-.668.663-.668.366 0 .663.299.663.668M53.24 40.49c0 .369-.297.668-.663.668a.666.666 0 0 1-.663-.669c0-.369.297-.668.663-.668.366 0 .663.299.663.668M56.155 40.49c0 .369-.296.668-.663.668a.666.666 0 0 1-.663-.669c0-.369.297-.668.663-.668.367 0 .663.299.663.668M59.07 40.49c0 .369-.296.668-.662.668a.666.666 0 0 1-.663-.669c0-.369.296-.668.663-.668.366 0 .663.299.663.668M61.986 40.49c0 .369-.297.668-.663.668a.666.666 0 0 1-.663-.669c0-.369.297-.668.663-.668.366 0 .663.299.663.668M2.281 42.771c0 .37-.297.67-.663.67a.666.666 0 0 1-.663-.67c0-.37.297-.669.663-.669.366 0 .663.3.663.67M5.196 42.771c0 .37-.296.67-.663.67a.666.666 0 0 1-.663-.67c0-.37.297-.669.663-.669.367 0 .663.3.663.67M8.112 42.771c0 .37-.297.67-.663.67a.666.666 0 0 1-.663-.67c0-.37.296-.669.663-.669.366 0 .663.3.663.67M11.027 42.771c0 .37-.297.67-.663.67a.666.666 0 0 1-.663-.67c0-.37.297-.669.663-.669.366 0 .663.3.663.67M13.942 42.771c0 .37-.297.67-.663.67a.666.666 0 0 1-.663-.67c0-.37.297-.669.663-.669.366 0 .663.3.663.67M16.857 42.771c0 .37-.296.67-.663.67a.666.666 0 0 1-.663-.67c0-.37.297-.669.663-.669.367 0 .663.3.663.67M19.773 42.771c0 .37-.297.67-.663.67a.666.666 0 0 1-.663-.67c0-.37.296-.669.663-.669.366 0 .663.3.663.67M22.688 42.771c0 .37-.297.67-.663.67a.666.666 0 0 1-.663-.67c0-.37.297-.669.663-.669.366 0 .663.3.663.67M25.603 42.771c0 .37-.297.67-.663.67a.666.666 0 0 1-.663-.67c0-.37.297-.669.663-.669.366 0 .663.3.663.67M28.518 42.771c0 .37-.296.67-.663.67a.666.666 0 0 1-.663-.67c0-.37.297-.669.663-.669.367 0 .663.3.663.67M31.434 42.771c0 .37-.297.67-.663.67a.666.666 0 0 1-.663-.67c0-.37.296-.669.663-.669.366 0 .663.3.663.67M34.349 42.771c0 .37-.297.67-.663.67a.666.666 0 0 1-.663-.67c0-.37.297-.669.663-.669.366 0 .663.3.663.67M37.264 42.771c0 .37-.297.67-.663.67a.666.666 0 0 1-.663-.67c0-.37.297-.669.663-.669.366 0 .663.3.663.67M40.18 42.771c0 .37-.298.67-.664.67a.666.666 0 0 1-.663-.67c0-.37.297-.669.663-.669.366 0 .663.3.663.67M43.095 42.771c0 .37-.297.67-.664.67a.666.666 0 0 1-.663-.67c0-.37.297-.669.663-.669.367 0 .664.3.664.67M46.01 42.771c0 .37-.297.67-.663.67a.666.666 0 0 1-.663-.67c0-.37.296-.669.663-.669.366 0 .663.3.663.67M48.925 42.771c0 .37-.297.67-.663.67a.666.666 0 0 1-.663-.67c0-.37.297-.669.663-.669.366 0 .663.3.663.67M51.84 42.771c0 .37-.297.67-.663.67a.666.666 0 0 1-.663-.67c0-.37.297-.669.663-.669.366 0 .663.3.663.67M54.755 42.771c0 .37-.296.67-.663.67a.666.666 0 0 1-.663-.67c0-.37.297-.669.663-.669.367 0 .663.3.663.67M57.67 42.771c0 .37-.296.67-.662.67a.666.666 0 0 1-.663-.67c0-.37.296-.669.663-.669.366 0 .663.3.663.67M60.586 42.771c0 .37-.297.67-.663.67a.666.666 0 0 1-.663-.67c0-.37.297-.669.663-.669.366 0 .663.3.663.67M3.681 45.053c0 .37-.297.669-.663.669a.666.666 0 0 1-.663-.669c0-.37.297-.669.663-.669.366 0 .663.3.663.67M6.596 45.053c0 .37-.296.669-.663.669a.666.666 0 0 1-.663-.669c0-.37.297-.669.663-.669.367 0 .663.3.663.67M9.512 45.053c0 .37-.297.669-.663.669a.666.666 0 0 1-.663-.669c0-.37.296-.669.663-.669.366 0 .663.3.663.67M12.427 45.053c0 .37-.297.669-.663.669a.666.666 0 0 1-.663-.669c0-.37.297-.669.663-.669.366 0 .663.3.663.67M15.342 45.053c0 .37-.297.669-.663.669a.666.666 0 0 1-.663-.669c0-.37.297-.669.663-.669.366 0 .663.3.663.67M18.257 45.053c0 .37-.296.669-.663.669a.666.666 0 0 1-.663-.669c0-.37.297-.669.663-.669.367 0 .663.3.663.67M21.173 45.053c0 .37-.297.669-.663.669a.666.666 0 0 1-.663-.669c0-.37.296-.669.663-.669.366 0 .663.3.663.67M24.088 45.053c0 .37-.297.669-.663.669a.666.666 0 0 1-.663-.669c0-.37.297-.669.663-.669.366 0 .663.3.663.67M27.003 45.053c0 .37-.297.669-.663.669a.666.666 0 0 1-.663-.669c0-.37.297-.669.663-.669.366 0 .663.3.663.67M29.918 45.053c0 .37-.296.669-.663.669a.666.666 0 0 1-.663-.669c0-.37.297-.669.663-.669.367 0 .663.3.663.67M32.834 45.053c0 .37-.297.669-.663.669a.666.666 0 0 1-.663-.669c0-.37.296-.669.663-.669.366 0 .663.3.663.67M35.749 45.053c0 .37-.297.669-.663.669a.666.666 0 0 1-.663-.669c0-.37.297-.669.663-.669.366 0 .663.3.663.67M38.664 45.053c0 .37-.297.669-.663.669a.666.666 0 0 1-.663-.669c0-.37.297-.669.663-.669.366 0 .663.3.663.67M41.58 45.053c0 .37-.298.669-.664.669a.666.666 0 0 1-.663-.669c0-.37.297-.669.663-.669.366 0 .663.3.663.67M44.495 45.053c0 .37-.297.669-.664.669a.666.666 0 0 1-.663-.669c0-.37.297-.669.663-.669.367 0 .664.3.664.67M47.41 45.053c0 .37-.297.669-.663.669a.666.666 0 0 1-.663-.669c0-.37.296-.669.663-.669.366 0 .663.3.663.67M50.325 45.053c0 .37-.297.669-.663.669a.666.666 0 0 1-.663-.669c0-.37.297-.669.663-.669.366 0 .663.3.663.67M53.24 45.053c0 .37-.297.669-.663.669a.666.666 0 0 1-.663-.669c0-.37.297-.669.663-.669.366 0 .663.3.663.67M56.155 45.053c0 .37-.296.669-.663.669a.666.666 0 0 1-.663-.669c0-.37.297-.669.663-.669.367 0 .663.3.663.67M59.07 45.053c0 .37-.296.669-.662.669a.666.666 0 0 1-.663-.669c0-.37.296-.669.663-.669.366 0 .663.3.663.67M61.986 45.053c0 .37-.297.669-.663.669a.666.666 0 0 1-.663-.669c0-.37.297-.669.663-.669.366 0 .663.3.663.67M2.281 47.335c0 .37-.297.669-.663.669a.666.666 0 0 1-.663-.67c0-.369.297-.668.663-.668.366 0 .663.3.663.669M5.196 47.335c0 .37-.296.669-.663.669a.666.666 0 0 1-.663-.67c0-.369.297-.668.663-.668.367 0 .663.3.663.669M8.112 47.335c0 .37-.297.669-.663.669a.666.666 0 0 1-.663-.67c0-.369.296-.668.663-.668.366 0 .663.3.663.669M11.027 47.335c0 .37-.297.669-.663.669a.666.666 0 0 1-.663-.67c0-.369.297-.668.663-.668.366 0 .663.3.663.669M13.942 47.335c0 .37-.297.669-.663.669a.666.666 0 0 1-.663-.67c0-.369.297-.668.663-.668.366 0 .663.3.663.669M16.857 47.335c0 .37-.296.669-.663.669a.666.666 0 0 1-.663-.67c0-.369.297-.668.663-.668.367 0 .663.3.663.669M19.773 47.335c0 .37-.297.669-.663.669a.666.666 0 0 1-.663-.67c0-.369.296-.668.663-.668.366 0 .663.3.663.669M22.688 47.335c0 .37-.297.669-.663.669a.666.666 0 0 1-.663-.67c0-.369.297-.668.663-.668.366 0 .663.3.663.669M25.603 47.335c0 .37-.297.669-.663.669a.666.666 0 0 1-.663-.67c0-.369.297-.668.663-.668.366 0 .663.3.663.669M28.518 47.335c0 .37-.296.669-.663.669a.666.666 0 0 1-.663-.67c0-.369.297-.668.663-.668.367 0 .663.3.663.669M31.434 47.335c0 .37-.297.669-.663.669a.666.666 0 0 1-.663-.67c0-.369.296-.668.663-.668.366 0 .663.3.663.669M34.349 47.335c0 .37-.297.669-.663.669a.666.666 0 0 1-.663-.67c0-.369.297-.668.663-.668.366 0 .663.3.663.669M37.264 47.335c0 .37-.297.669-.663.669a.666.666 0 0 1-.663-.67c0-.369.297-.668.663-.668.366 0 .663.3.663.669M40.18 47.335c0 .37-.298.669-.664.669a.666.666 0 0 1-.663-.67c0-.369.297-.668.663-.668.366 0 .663.3.663.669M43.095 47.335c0 .37-.297.669-.664.669a.666.666 0 0 1-.663-.67c0-.369.297-.668.663-.668.367 0 .664.3.664.669M46.01 47.335c0 .37-.297.669-.663.669a.666.666 0 0 1-.663-.67c0-.369.296-.668.663-.668.366 0 .663.3.663.669M48.925 47.335c0 .37-.297.669-.663.669a.666.666 0 0 1-.663-.67c0-.369.297-.668.663-.668.366 0 .663.3.663.669M51.84 47.335c0 .37-.297.669-.663.669a.666.666 0 0 1-.663-.67c0-.369.297-.668.663-.668.366 0 .663.3.663.669M54.755 47.335c0 .37-.296.669-.663.669a.666.666 0 0 1-.663-.67c0-.369.297-.668.663-.668.367 0 .663.3.663.669M57.67 47.335c0 .37-.296.669-.662.669a.666.666 0 0 1-.663-.67c0-.369.296-.668.663-.668.366 0 .663.3.663.669M60.586 47.335c0 .37-.297.669-.663.669a.666.666 0 0 1-.663-.67c0-.369.297-.668.663-.668.366 0 .663.3.663.669M3.681 49.617c0 .37-.297.669-.663.669a.666.666 0 0 1-.663-.67c0-.369.297-.668.663-.668.366 0 .663.3.663.669M6.596 49.617c0 .37-.296.669-.663.669a.666.666 0 0 1-.663-.67c0-.369.297-.668.663-.668.367 0 .663.3.663.669M9.512 49.617c0 .37-.297.669-.663.669a.666.666 0 0 1-.663-.67c0-.369.296-.668.663-.668.366 0 .663.3.663.669M12.427 49.617c0 .37-.297.669-.663.669a.666.666 0 0 1-.663-.67c0-.369.297-.668.663-.668.366 0 .663.3.663.669M15.342 49.617c0 .37-.297.669-.663.669a.666.666 0 0 1-.663-.67c0-.369.297-.668.663-.668.366 0 .663.3.663.669M18.257 49.617c0 .37-.296.669-.663.669a.666.666 0 0 1-.663-.67c0-.369.297-.668.663-.668.367 0 .663.3.663.669M21.173 49.617c0 .37-.297.669-.663.669a.666.666 0 0 1-.663-.67c0-.369.296-.668.663-.668.366 0 .663.3.663.669M24.088 49.617c0 .37-.297.669-.663.669a.666.666 0 0 1-.663-.67c0-.369.297-.668.663-.668.366 0 .663.3.663.669M27.003 49.617c0 .37-.297.669-.663.669a.666.666 0 0 1-.663-.67c0-.369.297-.668.663-.668.366 0 .663.3.663.669M29.918 49.617c0 .37-.296.669-.663.669a.666.666 0 0 1-.663-.67c0-.369.297-.668.663-.668.367 0 .663.3.663.669M32.834 49.617c0 .37-.297.669-.663.669a.666.666 0 0 1-.663-.67c0-.369.296-.668.663-.668.366 0 .663.3.663.669M35.749 49.617c0 .37-.297.669-.663.669a.666.666 0 0 1-.663-.67c0-.369.297-.668.663-.668.366 0 .663.3.663.669M38.664 49.617c0 .37-.297.669-.663.669a.666.666 0 0 1-.663-.67c0-.369.297-.668.663-.668.366 0 .663.3.663.669M41.58 49.617c0 .37-.298.669-.664.669a.666.666 0 0 1-.663-.67c0-.369.297-.668.663-.668.366 0 .663.3.663.669M44.495 49.617c0 .37-.297.669-.664.669a.666.666 0 0 1-.663-.67c0-.369.297-.668.663-.668.367 0 .664.3.664.669M47.41 49.617c0 .37-.297.669-.663.669a.666.666 0 0 1-.663-.67c0-.369.296-.668.663-.668.366 0 .663.3.663.669M50.325 49.617c0 .37-.297.669-.663.669a.666.666 0 0 1-.663-.67c0-.369.297-.668.663-.668.366 0 .663.3.663.669M53.24 49.617c0 .37-.297.669-.663.669a.666.666 0 0 1-.663-.67c0-.369.297-.668.663-.668.366 0 .663.3.663.669M56.155 49.617c0 .37-.296.669-.663.669a.666.666 0 0 1-.663-.67c0-.369.297-.668.663-.668.367 0 .663.3.663.669M59.07 49.617c0 .37-.296.669-.662.669a.666.666 0 0 1-.663-.67c0-.369.296-.668.663-.668.366 0 .663.3.663.669M61.986 49.617c0 .37-.297.669-.663.669a.666.666 0 0 1-.663-.67c0-.369.297-.668.663-.668.366 0 .663.3.663.669"/></g></g></g></g></g></g></svg>