<svg width="52" height="73" viewBox="0 0 52 73" xmlns="http://www.w3.org/2000/svg" xmlns:xlink="http://www.w3.org/1999/xlink"><defs><path id="a" d="M0 0h48v61.421H0z"/><path id="c" d="M.25.962h110v105H.25z"/></defs><g fill="none" fill-rule="evenodd"><rect stroke="#000" stroke-width="2" fill="#FFF" x="1" y="8.803" width="50" height="63.197" rx="1.25"/><g transform="translate(2 9.566)"><mask id="b" fill="#fff"><use xlink:href="#a"/></mask><g mask="url(#b)"><g transform="translate(16.75 31.472)"><mask id="d" fill="#fff"><use xlink:href="#c"/></mask><use fill="#D8D8D8" xlink:href="#c"/><g mask="url(#d)"><path fill="#FFF" d="M.25 112.962h112v-113H.25z"/><g fill="#333"><path d="M2.281 1.699c0 .37-.297.669-.663.669a.666.666 0 0 1-.663-.67c0-.369.297-.668.663-.668.366 0 .663.3.663.669M5.196 1.699c0 .37-.296.669-.663.669a.666.666 0 0 1-.663-.67c0-.369.297-.668.663-.668.367 0 .663.3.663.669M8.112 1.699c0 .37-.297.669-.663.669a.666.666 0 0 1-.663-.67c0-.369.296-.668.663-.668.366 0 .663.3.663.669M11.027 1.699c0 .37-.297.669-.663.669a.666.666 0 0 1-.663-.67c0-.369.297-.668.663-.668.366 0 .663.3.663.669M13.942 1.699c0 .37-.297.669-.663.669a.666.666 0 0 1-.663-.67c0-.369.297-.668.663-.668.366 0 .663.3.663.669M16.857 1.699c0 .37-.296.669-.663.669a.666.666 0 0 1-.663-.67c0-.369.297-.668.663-.668.367 0 .663.3.663.669M19.773 1.699c0 .37-.297.669-.663.669a.666.666 0 0 1-.663-.67c0-.369.296-.668.663-.668.366 0 .663.3.663.669M22.688 1.699c0 .37-.297.669-.663.669a.666.666 0 0 1-.663-.67c0-.369.297-.668.663-.668.366 0 .663.3.663.669M25.603 1.699c0 .37-.297.669-.663.669a.666.666 0 0 1-.663-.67c0-.369.297-.668.663-.668.366 0 .663.3.663.669M28.518 1.699c0 .37-.296.669-.663.669a.666.666 0 0 1-.663-.67c0-.369.297-.668.663-.668.367 0 .663.3.663.669M31.434 1.699c0 .37-.297.669-.663.669a.666.666 0 0 1-.663-.67c0-.369.296-.668.663-.668.366 0 .663.3.663.669M34.349 1.699c0 .37-.297.669-.663.669a.666.666 0 0 1-.663-.67c0-.369.297-.668.663-.668.366 0 .663.3.663.669M3.681 3.98c0 .37-.297.67-.663.67a.666.666 0 0 1-.663-.67c0-.369.297-.668.663-.668.366 0 .663.3.663.669M6.596 3.98c0 .37-.296.67-.663.67a.666.666 0 0 1-.663-.67c0-.369.297-.668.663-.668.367 0 .663.3.663.669M9.512 3.98c0 .37-.297.67-.663.67a.666.666 0 0 1-.663-.67c0-.369.296-.668.663-.668.366 0 .663.3.663.669M12.427 3.98c0 .37-.297.67-.663.67a.666.666 0 0 1-.663-.67c0-.369.297-.668.663-.668.366 0 .663.3.663.669M15.342 3.98c0 .37-.297.67-.663.67a.666.666 0 0 1-.663-.67c0-.369.297-.668.663-.668.366 0 .663.3.663.669M18.257 3.98c0 .37-.296.67-.663.67a.666.666 0 0 1-.663-.67c0-.369.297-.668.663-.668.367 0 .663.3.663.669M21.173 3.98c0 .37-.297.67-.663.67a.666.666 0 0 1-.663-.67c0-.369.296-.668.663-.668.366 0 .663.3.663.669M24.088 3.98c0 .37-.297.67-.663.67a.666.666 0 0 1-.663-.67c0-.369.297-.668.663-.668.366 0 .663.3.663.669M27.003 3.98c0 .37-.297.67-.663.67a.666.666 0 0 1-.663-.67c0-.369.297-.668.663-.668.366 0 .663.3.663.669M29.918 3.98c0 .37-.296.67-.663.67a.666.666 0 0 1-.663-.67c0-.369.297-.668.663-.668.367 0 .663.3.663.669M32.834 3.98c0 .37-.297.67-.663.67a.666.666 0 0 1-.663-.67c0-.369.296-.668.663-.668.366 0 .663.3.663.669M2.281 6.262c0 .37-.297.67-.663.67a.666.666 0 0 1-.663-.67c0-.369.297-.669.663-.669.366 0 .663.3.663.67M5.196 6.262c0 .37-.296.67-.663.67a.666.666 0 0 1-.663-.67c0-.369.297-.669.663-.669.367 0 .663.3.663.67M8.112 6.262c0 .37-.297.67-.663.67a.666.666 0 0 1-.663-.67c0-.369.296-.669.663-.669.366 0 .663.3.663.67M11.027 6.262c0 .37-.297.67-.663.67a.666.666 0 0 1-.663-.67c0-.369.297-.669.663-.669.366 0 .663.3.663.67M13.942 6.262c0 .37-.297.67-.663.67a.666.666 0 0 1-.663-.67c0-.369.297-.669.663-.669.366 0 .663.3.663.67M16.857 6.262c0 .37-.296.67-.663.67a.666.666 0 0 1-.663-.67c0-.369.297-.669.663-.669.367 0 .663.3.663.67M19.773 6.262c0 .37-.297.67-.663.67a.666.666 0 0 1-.663-.67c0-.369.296-.669.663-.669.366 0 .663.3.663.67M22.688 6.262c0 .37-.297.67-.663.67a.666.666 0 0 1-.663-.67c0-.369.297-.669.663-.669.366 0 .663.3.663.67M25.603 6.262c0 .37-.297.67-.663.67a.666.666 0 0 1-.663-.67c0-.369.297-.669.663-.669.366 0 .663.3.663.67M28.518 6.262c0 .37-.296.67-.663.67a.666.666 0 0 1-.663-.67c0-.369.297-.669.663-.669.367 0 .663.3.663.67M31.434 6.262c0 .37-.297.67-.663.67a.666.666 0 0 1-.663-.67c0-.369.296-.669.663-.669.366 0 .663.3.663.67M34.349 6.262c0 .37-.297.67-.663.67a.666.666 0 0 1-.663-.67c0-.369.297-.669.663-.669.366 0 .663.3.663.67M3.681 8.544c0 .37-.297.67-.663.67a.666.666 0 0 1-.663-.67c0-.37.297-.669.663-.669.366 0 .663.3.663.67M6.596 8.544c0 .37-.296.67-.663.67a.666.666 0 0 1-.663-.67c0-.37.297-.669.663-.669.367 0 .663.3.663.67M9.512 8.544c0 .37-.297.67-.663.67a.666.666 0 0 1-.663-.67c0-.37.296-.669.663-.669.366 0 .663.3.663.67M12.427 8.544c0 .37-.297.67-.663.67a.666.666 0 0 1-.663-.67c0-.37.297-.669.663-.669.366 0 .663.3.663.67M15.342 8.544c0 .37-.297.67-.663.67a.666.666 0 0 1-.663-.67c0-.37.297-.669.663-.669.366 0 .663.3.663.67M18.257 8.544c0 .37-.296.67-.663.67a.666.666 0 0 1-.663-.67c0-.37.297-.669.663-.669.367 0 .663.3.663.67M21.173 8.544c0 .37-.297.67-.663.67a.666.666 0 0 1-.663-.67c0-.37.296-.669.663-.669.366 0 .663.3.663.67M24.088 8.544c0 .37-.297.67-.663.67a.666.666 0 0 1-.663-.67c0-.37.297-.669.663-.669.366 0 .663.3.663.67M27.003 8.544c0 .37-.297.67-.663.67a.666.666 0 0 1-.663-.67c0-.37.297-.669.663-.669.366 0 .663.3.663.67M29.918 8.544c0 .37-.296.67-.663.67a.666.666 0 0 1-.663-.67c0-.37.297-.669.663-.669.367 0 .663.3.663.67M32.834 8.544c0 .37-.297.67-.663.67a.666.666 0 0 1-.663-.67c0-.37.296-.669.663-.669.366 0 .663.3.663.67M2.281 10.826c0 .37-.297.669-.663.669a.666.666 0 0 1-.663-.669c0-.37.297-.669.663-.669.366 0 .663.3.663.67M5.196 10.826c0 .37-.296.669-.663.669a.666.666 0 0 1-.663-.669c0-.37.297-.669.663-.669.367 0 .663.3.663.67M8.112 10.826c0 .37-.297.669-.663.669a.666.666 0 0 1-.663-.669c0-.37.296-.669.663-.669.366 0 .663.3.663.67M11.027 10.826c0 .37-.297.669-.663.669a.666.666 0 0 1-.663-.669c0-.37.297-.669.663-.669.366 0 .663.3.663.67M13.942 10.826c0 .37-.297.669-.663.669a.666.666 0 0 1-.663-.669c0-.37.297-.669.663-.669.366 0 .663.3.663.67M16.857 10.826c0 .37-.296.669-.663.669a.666.666 0 0 1-.663-.669c0-.37.297-.669.663-.669.367 0 .663.3.663.67M19.773 10.826c0 .37-.297.669-.663.669a.666.666 0 0 1-.663-.669c0-.37.296-.669.663-.669.366 0 .663.3.663.67M22.688 10.826c0 .37-.297.669-.663.669a.666.666 0 0 1-.663-.669c0-.37.297-.669.663-.669.366 0 .663.3.663.67M25.603 10.826c0 .37-.297.669-.663.669a.666.666 0 0 1-.663-.669c0-.37.297-.669.663-.669.366 0 .663.3.663.67M28.518 10.826c0 .37-.296.669-.663.669a.666.666 0 0 1-.663-.669c0-.37.297-.669.663-.669.367 0 .663.3.663.67M31.434 10.826c0 .37-.297.669-.663.669a.666.666 0 0 1-.663-.669c0-.37.296-.669.663-.669.366 0 .663.3.663.67M34.349 10.826c0 .37-.297.669-.663.669a.666.666 0 0 1-.663-.669c0-.37.297-.669.663-.669.366 0 .663.3.663.67M3.681 13.108c0 .37-.297.669-.663.669a.666.666 0 0 1-.663-.67c0-.369.297-.668.663-.668.366 0 .663.3.663.669M6.596 13.108c0 .37-.296.669-.663.669a.666.666 0 0 1-.663-.67c0-.369.297-.668.663-.668.367 0 .663.3.663.669M9.512 13.108c0 .37-.297.669-.663.669a.666.666 0 0 1-.663-.67c0-.369.296-.668.663-.668.366 0 .663.3.663.669M12.427 13.108c0 .37-.297.669-.663.669a.666.666 0 0 1-.663-.67c0-.369.297-.668.663-.668.366 0 .663.3.663.669M15.342 13.108c0 .37-.297.669-.663.669a.666.666 0 0 1-.663-.67c0-.369.297-.668.663-.668.366 0 .663.3.663.669M18.257 13.108c0 .37-.296.669-.663.669a.666.666 0 0 1-.663-.67c0-.369.297-.668.663-.668.367 0 .663.3.663.669M21.173 13.108c0 .37-.297.669-.663.669a.666.666 0 0 1-.663-.67c0-.369.296-.668.663-.668.366 0 .663.3.663.669M24.088 13.108c0 .37-.297.669-.663.669a.666.666 0 0 1-.663-.67c0-.369.297-.668.663-.668.366 0 .663.3.663.669M27.003 13.108c0 .37-.297.669-.663.669a.666.666 0 0 1-.663-.67c0-.369.297-.668.663-.668.366 0 .663.3.663.669M29.918 13.108c0 .37-.296.669-.663.669a.666.666 0 0 1-.663-.67c0-.369.297-.668.663-.668.367 0 .663.3.663.669M32.834 13.108c0 .37-.297.669-.663.669a.666.666 0 0 1-.663-.67c0-.369.296-.668.663-.668.366 0 .663.3.663.669M2.281 15.39c0 .37-.297.669-.663.669a.666.666 0 0 1-.663-.67c0-.369.297-.668.663-.668.366 0 .663.3.663.669M5.196 15.39c0 .37-.296.669-.663.669a.666.666 0 0 1-.663-.67c0-.369.297-.668.663-.668.367 0 .663.3.663.669M8.112 15.39c0 .37-.297.669-.663.669a.666.666 0 0 1-.663-.67c0-.369.296-.668.663-.668.366 0 .663.3.663.669M11.027 15.39c0 .37-.297.669-.663.669a.666.666 0 0 1-.663-.67c0-.369.297-.668.663-.668.366 0 .663.3.663.669M13.942 15.39c0 .37-.297.669-.663.669a.666.666 0 0 1-.663-.67c0-.369.297-.668.663-.668.366 0 .663.3.663.669M16.857 15.39c0 .37-.296.669-.663.669a.666.666 0 0 1-.663-.67c0-.369.297-.668.663-.668.367 0 .663.3.663.669M19.773 15.39c0 .37-.297.669-.663.669a.666.666 0 0 1-.663-.67c0-.369.296-.668.663-.668.366 0 .663.3.663.669M22.688 15.39c0 .37-.297.669-.663.669a.666.666 0 0 1-.663-.67c0-.369.297-.668.663-.668.366 0 .663.3.663.669M25.603 15.39c0 .37-.297.669-.663.669a.666.666 0 0 1-.663-.67c0-.369.297-.668.663-.668.366 0 .663.3.663.669M28.518 15.39c0 .37-.296.669-.663.669a.666.666 0 0 1-.663-.67c0-.369.297-.668.663-.668.367 0 .663.3.663.669M31.434 15.39c0 .37-.297.669-.663.669a.666.666 0 0 1-.663-.67c0-.369.296-.668.663-.668.366 0 .663.3.663.669M34.349 15.39c0 .37-.297.669-.663.669a.666.666 0 0 1-.663-.67c0-.369.297-.668.663-.668.366 0 .663.3.663.669M3.681 17.671c0 .37-.297.67-.663.67a.666.666 0 0 1-.663-.67c0-.369.297-.668.663-.668.366 0 .663.3.663.668M6.596 17.671c0 .37-.296.67-.663.67a.666.666 0 0 1-.663-.67c0-.369.297-.668.663-.668.367 0 .663.3.663.668M9.512 17.671c0 .37-.297.67-.663.67a.666.666 0 0 1-.663-.67c0-.369.296-.668.663-.668.366 0 .663.3.663.668M12.427 17.671c0 .37-.297.67-.663.67a.666.666 0 0 1-.663-.67c0-.369.297-.668.663-.668.366 0 .663.3.663.668M15.342 17.671c0 .37-.297.67-.663.67a.666.666 0 0 1-.663-.67c0-.369.297-.668.663-.668.366 0 .663.3.663.668M18.257 17.671c0 .37-.296.67-.663.67a.666.666 0 0 1-.663-.67c0-.369.297-.668.663-.668.367 0 .663.3.663.668M21.173 17.671c0 .37-.297.67-.663.67a.666.666 0 0 1-.663-.67c0-.369.296-.668.663-.668.366 0 .663.3.663.668M24.088 17.671c0 .37-.297.67-.663.67a.666.666 0 0 1-.663-.67c0-.369.297-.668.663-.668.366 0 .663.3.663.668M27.003 17.671c0 .37-.297.67-.663.67a.666.666 0 0 1-.663-.67c0-.369.297-.668.663-.668.366 0 .663.3.663.668M29.918 17.671c0 .37-.296.67-.663.67a.666.666 0 0 1-.663-.67c0-.369.297-.668.663-.668.367 0 .663.3.663.668M32.834 17.671c0 .37-.297.67-.663.67a.666.666 0 0 1-.663-.67c0-.369.296-.668.663-.668.366 0 .663.3.663.668M2.281 19.953c0 .37-.297.67-.663.67a.666.666 0 0 1-.663-.67c0-.37.297-.669.663-.669.366 0 .663.3.663.67M5.196 19.953c0 .37-.296.67-.663.67a.666.666 0 0 1-.663-.67c0-.37.297-.669.663-.669.367 0 .663.3.663.67M8.112 19.953c0 .37-.297.67-.663.67a.666.666 0 0 1-.663-.67c0-.37.296-.669.663-.669.366 0 .663.3.663.67M11.027 19.953c0 .37-.297.67-.663.67a.666.666 0 0 1-.663-.67c0-.37.297-.669.663-.669.366 0 .663.3.663.67M13.942 19.953c0 .37-.297.67-.663.67a.666.666 0 0 1-.663-.67c0-.37.297-.669.663-.669.366 0 .663.3.663.67M16.857 19.953c0 .37-.296.67-.663.67a.666.666 0 0 1-.663-.67c0-.37.297-.669.663-.669.367 0 .663.3.663.67M19.773 19.953c0 .37-.297.67-.663.67a.666.666 0 0 1-.663-.67c0-.37.296-.669.663-.669.366 0 .663.3.663.67M22.688 19.953c0 .37-.297.67-.663.67a.666.666 0 0 1-.663-.67c0-.37.297-.669.663-.669.366 0 .663.3.663.67M25.603 19.953c0 .37-.297.67-.663.67a.666.666 0 0 1-.663-.67c0-.37.297-.669.663-.669.366 0 .663.3.663.67M28.518 19.953c0 .37-.296.67-.663.67a.666.666 0 0 1-.663-.67c0-.37.297-.669.663-.669.367 0 .663.3.663.67M31.434 19.953c0 .37-.297.67-.663.67a.666.666 0 0 1-.663-.67c0-.37.296-.669.663-.669.366 0 .663.3.663.67M34.349 19.953c0 .37-.297.67-.663.67a.666.666 0 0 1-.663-.67c0-.37.297-.669.663-.669.366 0 .663.3.663.67M3.681 22.235c0 .37-.297.669-.663.669a.666.666 0 0 1-.663-.669c0-.37.297-.669.663-.669.366 0 .663.3.663.67M6.596 22.235c0 .37-.296.669-.663.669a.666.666 0 0 1-.663-.669c0-.37.297-.669.663-.669.367 0 .663.3.663.67M9.512 22.235c0 .37-.297.669-.663.669a.666.666 0 0 1-.663-.669c0-.37.296-.669.663-.669.366 0 .663.3.663.67M12.427 22.235c0 .37-.297.669-.663.669a.666.666 0 0 1-.663-.669c0-.37.297-.669.663-.669.366 0 .663.3.663.67M15.342 22.235c0 .37-.297.669-.663.669a.666.666 0 0 1-.663-.669c0-.37.297-.669.663-.669.366 0 .663.3.663.67M18.257 22.235c0 .37-.296.669-.663.669a.666.666 0 0 1-.663-.669c0-.37.297-.669.663-.669.367 0 .663.3.663.67M21.173 22.235c0 .37-.297.669-.663.669a.666.666 0 0 1-.663-.669c0-.37.296-.669.663-.669.366 0 .663.3.663.67M24.088 22.235c0 .37-.297.669-.663.669a.666.666 0 0 1-.663-.669c0-.37.297-.669.663-.669.366 0 .663.3.663.67M27.003 22.235c0 .37-.297.669-.663.669a.666.666 0 0 1-.663-.669c0-.37.297-.669.663-.669.366 0 .663.3.663.67M29.918 22.235c0 .37-.296.669-.663.669a.666.666 0 0 1-.663-.669c0-.37.297-.669.663-.669.367 0 .663.3.663.67M32.834 22.235c0 .37-.297.669-.663.669a.666.666 0 0 1-.663-.669c0-.37.296-.669.663-.669.366 0 .663.3.663.67M2.281 24.517c0 .37-.297.669-.663.669a.666.666 0 0 1-.663-.67c0-.369.297-.668.663-.668.366 0 .663.3.663.669M5.196 24.517c0 .37-.296.669-.663.669a.666.666 0 0 1-.663-.67c0-.369.297-.668.663-.668.367 0 .663.3.663.669M8.112 24.517c0 .37-.297.669-.663.669a.666.666 0 0 1-.663-.67c0-.369.296-.668.663-.668.366 0 .663.3.663.669M11.027 24.517c0 .37-.297.669-.663.669a.666.666 0 0 1-.663-.67c0-.369.297-.668.663-.668.366 0 .663.3.663.669M13.942 24.517c0 .37-.297.669-.663.669a.666.666 0 0 1-.663-.67c0-.369.297-.668.663-.668.366 0 .663.3.663.669M16.857 24.517c0 .37-.296.669-.663.669a.666.666 0 0 1-.663-.67c0-.369.297-.668.663-.668.367 0 .663.3.663.669M19.773 24.517c0 .37-.297.669-.663.669a.666.666 0 0 1-.663-.67c0-.369.296-.668.663-.668.366 0 .663.3.663.669M22.688 24.517c0 .37-.297.669-.663.669a.666.666 0 0 1-.663-.67c0-.369.297-.668.663-.668.366 0 .663.3.663.669M25.603 24.517c0 .37-.297.669-.663.669a.666.666 0 0 1-.663-.67c0-.369.297-.668.663-.668.366 0 .663.3.663.669M28.518 24.517c0 .37-.296.669-.663.669a.666.666 0 0 1-.663-.67c0-.369.297-.668.663-.668.367 0 .663.3.663.669M31.434 24.517c0 .37-.297.669-.663.669a.666.666 0 0 1-.663-.67c0-.369.296-.668.663-.668.366 0 .663.3.663.669M34.349 24.517c0 .37-.297.669-.663.669a.666.666 0 0 1-.663-.67c0-.369.297-.668.663-.668.366 0 .663.3.663.669M3.681 26.799c0 .37-.297.669-.663.669a.666.666 0 0 1-.663-.67c0-.369.297-.668.663-.668.366 0 .663.3.663.669M6.596 26.799c0 .37-.296.669-.663.669a.666.666 0 0 1-.663-.67c0-.369.297-.668.663-.668.367 0 .663.3.663.669M9.512 26.799c0 .37-.297.669-.663.669a.666.666 0 0 1-.663-.67c0-.369.296-.668.663-.668.366 0 .663.3.663.669M12.427 26.799c0 .37-.297.669-.663.669a.666.666 0 0 1-.663-.67c0-.369.297-.668.663-.668.366 0 .663.3.663.669M15.342 26.799c0 .37-.297.669-.663.669a.666.666 0 0 1-.663-.67c0-.369.297-.668.663-.668.366 0 .663.3.663.669M18.257 26.799c0 .37-.296.669-.663.669a.666.666 0 0 1-.663-.67c0-.369.297-.668.663-.668.367 0 .663.3.663.669M21.173 26.799c0 .37-.297.669-.663.669a.666.666 0 0 1-.663-.67c0-.369.296-.668.663-.668.366 0 .663.3.663.669M24.088 26.799c0 .37-.297.669-.663.669a.666.666 0 0 1-.663-.67c0-.369.297-.668.663-.668.366 0 .663.3.663.669M27.003 26.799c0 .37-.297.669-.663.669a.666.666 0 0 1-.663-.67c0-.369.297-.668.663-.668.366 0 .663.3.663.669M29.918 26.799c0 .37-.296.669-.663.669a.666.666 0 0 1-.663-.67c0-.369.297-.668.663-.668.367 0 .663.3.663.669M32.834 26.799c0 .37-.297.669-.663.669a.666.666 0 0 1-.663-.67c0-.369.296-.668.663-.668.366 0 .663.3.663.669M2.281 29.08c0 .37-.297.67-.663.67a.666.666 0 0 1-.663-.67c0-.369.297-.668.663-.668.366 0 .663.299.663.668M5.196 29.08c0 .37-.296.67-.663.67a.666.666 0 0 1-.663-.67c0-.369.297-.668.663-.668.367 0 .663.299.663.668M8.112 29.08c0 .37-.297.67-.663.67a.666.666 0 0 1-.663-.67c0-.369.296-.668.663-.668.366 0 .663.299.663.668M11.027 29.08c0 .37-.297.67-.663.67a.666.666 0 0 1-.663-.67c0-.369.297-.668.663-.668.366 0 .663.299.663.668M13.942 29.08c0 .37-.297.67-.663.67a.666.666 0 0 1-.663-.67c0-.369.297-.668.663-.668.366 0 .663.299.663.668M16.857 29.08c0 .37-.296.67-.663.67a.666.666 0 0 1-.663-.67c0-.369.297-.668.663-.668.367 0 .663.299.663.668M19.773 29.08c0 .37-.297.67-.663.67a.666.666 0 0 1-.663-.67c0-.369.296-.668.663-.668.366 0 .663.299.663.668M22.688 29.08c0 .37-.297.67-.663.67a.666.666 0 0 1-.663-.67c0-.369.297-.668.663-.668.366 0 .663.299.663.668M25.603 29.08c0 .37-.297.67-.663.67a.666.666 0 0 1-.663-.67c0-.369.297-.668.663-.668.366 0 .663.299.663.668M28.518 29.08c0 .37-.296.67-.663.67a.666.666 0 0 1-.663-.67c0-.369.297-.668.663-.668.367 0 .663.299.663.668M31.434 29.08c0 .37-.297.67-.663.67a.666.666 0 0 1-.663-.67c0-.369.296-.668.663-.668.366 0 .663.299.663.668M34.349 29.08c0 .37-.297.67-.663.67a.666.666 0 0 1-.663-.67c0-.369.297-.668.663-.668.366 0 .663.299.663.668M3.681 31.362c0 .37-.297.67-.663.67a.666.666 0 0 1-.663-.67c0-.37.297-.669.663-.669.366 0 .663.3.663.67M6.596 31.362c0 .37-.296.67-.663.67a.666.666 0 0 1-.663-.67c0-.37.297-.669.663-.669.367 0 .663.3.663.67M9.512 31.362c0 .37-.297.67-.663.67a.666.666 0 0 1-.663-.67c0-.37.296-.669.663-.669.366 0 .663.3.663.67M12.427 31.362c0 .37-.297.67-.663.67a.666.666 0 0 1-.663-.67c0-.37.297-.669.663-.669.366 0 .663.3.663.67M15.342 31.362c0 .37-.297.67-.663.67a.666.666 0 0 1-.663-.67c0-.37.297-.669.663-.669.366 0 .663.3.663.67M18.257 31.362c0 .37-.296.67-.663.67a.666.666 0 0 1-.663-.67c0-.37.297-.669.663-.669.367 0 .663.3.663.67M21.173 31.362c0 .37-.297.67-.663.67a.666.666 0 0 1-.663-.67c0-.37.296-.669.663-.669.366 0 .663.3.663.67M24.088 31.362c0 .37-.297.67-.663.67a.666.666 0 0 1-.663-.67c0-.37.297-.669.663-.669.366 0 .663.3.663.67M27.003 31.362c0 .37-.297.67-.663.67a.666.666 0 0 1-.663-.67c0-.37.297-.669.663-.669.366 0 .663.3.663.67M29.918 31.362c0 .37-.296.67-.663.67a.666.666 0 0 1-.663-.67c0-.37.297-.669.663-.669.367 0 .663.3.663.67M32.834 31.362c0 .37-.297.67-.663.67a.666.666 0 0 1-.663-.67c0-.37.296-.669.663-.669.366 0 .663.3.663.67"/></g></g></g></g></g><rect stroke="#000" stroke-width="2" fill="#FFF" x="8" y="8.803" width="36" height="55.141" rx="1.25"/><rect stroke="#000" stroke-width="2" fill="#000" x="15" y="6.286" width="22" height="6.81" rx="1.25"/><ellipse fill="#000" cx="26.125" cy="5.412" rx="5.375" ry="5.412"/><g stroke="#000" stroke-linecap="round" stroke-linejoin="round" stroke-width="1.75"><path d="M14 40.653h24M19.75 27.312h12.5M26 21.019v12.586M14 50.722h24M14 45.688h24M14 55.757h24"/></g></g></svg>